<svg xmlns="http://www.w3.org/2000/svg" width="1532" height="711" viewBox="0 0 1532 711"><g fill="#7F7F7F"><path d="M254.875 565.484h6.51l4.028 12.409h.082l3.377-12.409h6.673l3.662 12.409h.081l3.703-12.409h6.185l-7.039 19.773h-6.021l-4.11-13.143h-.081l-3.662 13.143h-6.144l-7.244-19.773zM309.843 581.84c-.977 1.248-2.211 2.211-3.703 2.889s-3.038 1.018-4.638 1.018c-1.52 0-2.95-.244-4.292-.732s-2.509-1.187-3.499-2.096c-.991-.908-1.77-2-2.34-3.275-.569-1.274-.854-2.698-.854-4.271s.285-2.997.854-4.272a9.838 9.838 0 0 1 2.34-3.275c.99-.909 2.156-1.607 3.499-2.095 1.343-.488 2.773-.732 4.292-.732 1.41 0 2.692.244 3.845.732a7.99 7.99 0 0 1 2.929 2.095c.8.909 1.417 2.001 1.852 3.275.434 1.275.651 2.699.651 4.272v1.912H296.62c.244 1.166.773 2.096 1.586 2.787.814.691 1.817 1.037 3.011 1.037 1.003 0 1.851-.224 2.543-.671a6.869 6.869 0 0 0 1.811-1.729l4.272 3.131zm-5.167-8.707c.026-1.03-.312-1.912-1.018-2.645-.706-.732-1.614-1.099-2.726-1.099-.678 0-1.275.108-1.79.325a4.517 4.517 0 0 0-1.322.834c-.366.34-.651.732-.854 1.18a3.876 3.876 0 0 0-.346 1.404h8.056zM333.197 581.84c-.977 1.248-2.211 2.211-3.703 2.889s-3.038 1.018-4.638 1.018c-1.52 0-2.95-.244-4.292-.732s-2.509-1.187-3.499-2.096c-.991-.908-1.77-2-2.34-3.275-.569-1.274-.854-2.698-.854-4.271s.285-2.997.854-4.272a9.838 9.838 0 0 1 2.34-3.275c.99-.909 2.156-1.607 3.499-2.095 1.343-.488 2.773-.732 4.292-.732 1.41 0 2.692.244 3.845.732a7.99 7.99 0 0 1 2.929 2.095c.8.909 1.417 2.001 1.852 3.275.434 1.275.651 2.699.651 4.272v1.912h-14.159c.244 1.166.773 2.096 1.586 2.787.814.691 1.817 1.037 3.011 1.037 1.003 0 1.851-.224 2.543-.671a6.869 6.869 0 0 0 1.811-1.729l4.272 3.131zm-5.167-8.707c.026-1.03-.312-1.912-1.018-2.645-.706-.732-1.614-1.099-2.726-1.099-.678 0-1.275.108-1.79.325a4.517 4.517 0 0 0-1.322.834c-.366.34-.651.732-.854 1.18a3.876 3.876 0 0 0-.346 1.404h8.056zM337.835 554.498h6.104v18.798l6.754-7.812h7.486l-7.853 8.91 8.056 10.863h-7.69l-6.673-10.01h-.081v10.01h-6.104v-30.759zM382.062 563.287l-5.777 5.086-3.458-3.988 9.399-7.934h5.696v28.807h-5.859v-21.971z"/></g><g fill="#7F7F7F"><path d="M482.914 565.484h6.51l4.028 12.409h.082l3.377-12.409h6.673l3.662 12.409h.081l3.703-12.409h6.185l-7.039 19.773h-6.021l-4.11-13.143h-.081l-3.662 13.143h-6.144l-7.244-19.773zM537.883 581.84c-.977 1.248-2.211 2.211-3.703 2.889s-3.038 1.018-4.638 1.018c-1.52 0-2.95-.244-4.292-.732s-2.509-1.187-3.499-2.096c-.991-.908-1.77-2-2.34-3.275-.569-1.274-.854-2.698-.854-4.271s.285-2.997.854-4.272a9.838 9.838 0 0 1 2.34-3.275c.99-.909 2.156-1.607 3.499-2.095 1.343-.488 2.773-.732 4.292-.732 1.41 0 2.692.244 3.845.732a7.99 7.99 0 0 1 2.929 2.095c.8.909 1.417 2.001 1.852 3.275.434 1.275.651 2.699.651 4.272v1.912H524.66c.244 1.166.773 2.096 1.586 2.787.814.691 1.817 1.037 3.011 1.037 1.003 0 1.851-.224 2.543-.671a6.869 6.869 0 0 0 1.811-1.729l4.272 3.131zm-5.167-8.707c.026-1.03-.312-1.912-1.018-2.645-.706-.732-1.614-1.099-2.726-1.099-.678 0-1.275.108-1.79.325a4.517 4.517 0 0 0-1.322.834c-.366.34-.651.732-.854 1.18a3.876 3.876 0 0 0-.346 1.404h8.056zM561.237 581.84c-.977 1.248-2.211 2.211-3.703 2.889s-3.038 1.018-4.638 1.018c-1.52 0-2.95-.244-4.292-.732s-2.509-1.187-3.499-2.096c-.991-.908-1.77-2-2.34-3.275-.569-1.274-.854-2.698-.854-4.271s.285-2.997.854-4.272a9.838 9.838 0 0 1 2.34-3.275c.99-.909 2.156-1.607 3.499-2.095 1.343-.488 2.773-.732 4.292-.732 1.41 0 2.692.244 3.845.732a7.99 7.99 0 0 1 2.929 2.095c.8.909 1.417 2.001 1.852 3.275.434 1.275.651 2.699.651 4.272v1.912h-14.159c.244 1.166.773 2.096 1.586 2.787.814.691 1.817 1.037 3.011 1.037 1.003 0 1.851-.224 2.543-.671a6.869 6.869 0 0 0 1.811-1.729l4.272 3.131zm-5.167-8.707c.026-1.03-.312-1.912-1.018-2.645-.706-.732-1.614-1.099-2.726-1.099-.678 0-1.275.108-1.79.325a4.517 4.517 0 0 0-1.322.834c-.366.34-.651.732-.854 1.18a3.876 3.876 0 0 0-.346 1.404h8.056zM565.875 554.498h6.104v18.798l6.754-7.812h7.486l-7.853 8.91 8.056 10.863h-7.69l-6.673-10.01h-.081v10.01h-6.104v-30.759zM600.377 578.789l11.189-10.051c.57-.515 1.139-1.098 1.709-1.749s.854-1.41.854-2.278c0-.977-.353-1.742-1.058-2.299-.706-.557-1.533-.834-2.482-.834-1.139 0-2.028.353-2.665 1.058-.637.706-.997 1.573-1.078 2.604l-6.103-.448c.082-1.491.393-2.787.936-3.886.542-1.099 1.261-2.014 2.156-2.746s1.946-1.281 3.153-1.648c1.207-.365 2.516-.549 3.926-.549 1.302 0 2.522.184 3.662.549 1.139.367 2.129.91 2.97 1.628.841.719 1.499 1.621 1.974 2.706.474 1.085.712 2.346.712 3.783 0 .923-.095 1.757-.285 2.502a8.503 8.503 0 0 1-.793 2.035 9.25 9.25 0 0 1-1.2 1.688 19.603 19.603 0 0 1-1.505 1.505l-8.748 7.527h12.776v5.371h-20.1v-6.468z"/></g><g fill="#7F7F7F"><path d="M712.456 565.484h6.51l4.028 12.409h.082l3.377-12.409h6.673l3.662 12.409h.081l3.703-12.409h6.185l-7.039 19.773h-6.021l-4.11-13.143h-.081l-3.662 13.143H719.7l-7.244-19.773zM767.425 581.84c-.977 1.248-2.211 2.211-3.703 2.889s-3.038 1.018-4.638 1.018c-1.52 0-2.95-.244-4.292-.732s-2.509-1.187-3.499-2.096c-.991-.908-1.77-2-2.34-3.275-.569-1.274-.854-2.698-.854-4.271s.285-2.997.854-4.272a9.838 9.838 0 0 1 2.34-3.275c.99-.909 2.156-1.607 3.499-2.095 1.343-.488 2.773-.732 4.292-.732 1.41 0 2.692.244 3.845.732a7.99 7.99 0 0 1 2.929 2.095c.8.909 1.417 2.001 1.852 3.275.434 1.275.651 2.699.651 4.272v1.912h-14.159c.244 1.166.773 2.096 1.586 2.787.814.691 1.817 1.037 3.011 1.037 1.003 0 1.851-.224 2.543-.671a6.869 6.869 0 0 0 1.811-1.729l4.272 3.131zm-5.167-8.707c.026-1.03-.312-1.912-1.018-2.645-.706-.732-1.614-1.099-2.726-1.099-.678 0-1.275.108-1.79.325a4.517 4.517 0 0 0-1.322.834c-.366.34-.651.732-.854 1.18a3.876 3.876 0 0 0-.346 1.404h8.056zM790.779 581.84c-.977 1.248-2.211 2.211-3.703 2.889s-3.038 1.018-4.638 1.018c-1.52 0-2.95-.244-4.292-.732s-2.509-1.187-3.499-2.096c-.991-.908-1.77-2-2.34-3.275-.569-1.274-.854-2.698-.854-4.271s.285-2.997.854-4.272a9.838 9.838 0 0 1 2.34-3.275c.99-.909 2.156-1.607 3.499-2.095 1.343-.488 2.773-.732 4.292-.732 1.41 0 2.692.244 3.845.732a7.99 7.99 0 0 1 2.929 2.095c.8.909 1.417 2.001 1.852 3.275.434 1.275.651 2.699.651 4.272v1.912h-14.159c.244 1.166.773 2.096 1.586 2.787.814.691 1.817 1.037 3.011 1.037 1.003 0 1.851-.224 2.543-.671a6.869 6.869 0 0 0 1.811-1.729l4.272 3.131zm-5.167-8.707c.026-1.03-.312-1.912-1.018-2.645-.706-.732-1.614-1.099-2.726-1.099-.678 0-1.275.108-1.79.325a4.517 4.517 0 0 0-1.322.834c-.366.34-.651.732-.854 1.18a3.876 3.876 0 0 0-.346 1.404h8.056zM795.417 554.498h6.104v18.798l6.754-7.812h7.486l-7.853 8.91 8.056 10.863h-7.69l-6.673-10.01h-.081v10.01h-6.104v-30.759zM836.715 567.803h1.993c.569 0 1.125-.041 1.668-.122.542-.081 1.038-.237 1.485-.468s.807-.556 1.078-.977c.271-.42.406-.969.406-1.648 0-.867-.346-1.586-1.037-2.156-.691-.569-1.539-.854-2.543-.854-.949 0-1.736.258-2.359.772a3.54 3.54 0 0 0-1.221 1.913l-6.714-1.384c.325-1.247.813-2.312 1.465-3.194a8.095 8.095 0 0 1 2.319-2.136 10.272 10.272 0 0 1 2.99-1.2 15.177 15.177 0 0 1 3.479-.387c1.275 0 2.503.156 3.683.468 1.181.312 2.218.8 3.112 1.465a7.337 7.337 0 0 1 2.137 2.503c.529 1.003.793 2.196.793 3.58 0 1.601-.42 2.97-1.262 4.109-.84 1.139-2.061 1.871-3.661 2.197v.121c.868.109 1.634.367 2.299.773.664.407 1.228.909 1.688 1.506s.814 1.275 1.058 2.034c.244.76.366 1.56.366 2.4 0 1.438-.278 2.7-.834 3.784a7.91 7.91 0 0 1-2.238 2.705c-.936.72-2.033 1.256-3.295 1.607a14.815 14.815 0 0 1-4.008.529c-2.577 0-4.795-.596-6.652-1.79-1.858-1.193-3.086-3.079-3.683-5.655l6.429-1.506c.217 1.031.658 1.845 1.322 2.441s1.648.895 2.95.895c1.329 0 2.312-.346 2.95-1.037.637-.691.955-1.58.955-2.665 0-.813-.169-1.444-.508-1.892a3.05 3.05 0 0 0-1.322-.997 5.835 5.835 0 0 0-1.831-.387 34.558 34.558 0 0 0-2.034-.062h-1.424v-5.285z"/></g><g fill="#7F7F7F"><path d="M959.943 565.484h6.511l4.027 12.409h.082l3.377-12.409h6.673l3.662 12.409h.081l3.702-12.409h6.185l-7.039 19.773h-6.021l-4.109-13.143h-.081l-3.662 13.143h-6.144l-7.244-19.773zM1014.912 581.84c-.977 1.248-2.211 2.211-3.702 2.889a11.095 11.095 0 0 1-4.639 1.018c-1.52 0-2.949-.244-4.292-.732s-2.51-1.187-3.499-2.096a9.804 9.804 0 0 1-2.34-3.275c-.569-1.274-.854-2.698-.854-4.271s.285-2.997.854-4.272a9.824 9.824 0 0 1 2.34-3.275c.989-.909 2.156-1.607 3.499-2.095 1.343-.488 2.772-.732 4.292-.732 1.41 0 2.692.244 3.846.732 1.152.487 2.129 1.186 2.929 2.095s1.417 2.001 1.852 3.275c.434 1.275.651 2.699.651 4.272v1.912h-14.159c.244 1.166.772 2.096 1.586 2.787.814.691 1.817 1.037 3.012 1.037 1.003 0 1.851-.224 2.543-.671a6.869 6.869 0 0 0 1.811-1.729l4.27 3.131zm-5.167-8.707c.026-1.03-.312-1.912-1.018-2.645s-1.613-1.099-2.726-1.099c-.679 0-1.275.108-1.79.325a4.517 4.517 0 0 0-1.322.834c-.366.34-.651.732-.854 1.18a3.876 3.876 0 0 0-.346 1.404h8.056zM1038.267 581.84c-.977 1.248-2.211 2.211-3.703 2.889a11.09 11.09 0 0 1-4.638 1.018c-1.52 0-2.95-.244-4.293-.732s-2.509-1.187-3.499-2.096c-.99-.908-1.77-2-2.34-3.275-.569-1.274-.854-2.698-.854-4.271s.285-2.997.854-4.272c.57-1.274 1.35-2.366 2.34-3.275s2.156-1.607 3.499-2.095c1.343-.488 2.773-.732 4.293-.732 1.41 0 2.691.244 3.845.732a8.002 8.002 0 0 1 2.93 2.095c.8.909 1.417 2.001 1.852 3.275.434 1.275.65 2.699.65 4.272v1.912h-14.159c.244 1.166.773 2.096 1.587 2.787s1.817 1.037 3.011 1.037c1.003 0 1.852-.224 2.543-.671a6.869 6.869 0 0 0 1.811-1.729l4.271 3.131zm-5.167-8.707c.026-1.03-.312-1.912-1.018-2.645-.706-.732-1.614-1.099-2.727-1.099-.678 0-1.274.108-1.79.325a4.517 4.517 0 0 0-1.322.834c-.366.34-.65.732-.854 1.18a3.896 3.896 0 0 0-.346 1.404h8.057zM1042.904 554.498h6.104v18.798l6.754-7.812h7.486l-7.853 8.91 8.056 10.863h-7.689l-6.673-10.01h-.081v10.01h-6.104v-30.759zM1088.962 579.48h-12.572v-5.127l11.759-17.902h6.673v17.902h3.702v5.127h-3.702v5.777h-5.859v-5.777zm0-15.054h-.081l-6.388 9.928h6.469v-9.928z"/></g><g fill="#7F7F7F"><path d="M1216.431 565.484h6.511l4.027 12.409h.082l3.377-12.409h6.673l3.662 12.409h.081l3.702-12.409h6.185l-7.039 19.773h-6.021l-4.109-13.143h-.081l-3.662 13.143h-6.144l-7.244-19.773zM1271.399 581.84c-.977 1.248-2.211 2.211-3.702 2.889a11.095 11.095 0 0 1-4.639 1.018c-1.52 0-2.949-.244-4.292-.732s-2.51-1.187-3.499-2.096a9.804 9.804 0 0 1-2.34-3.275c-.569-1.274-.854-2.698-.854-4.271s.285-2.997.854-4.272a9.824 9.824 0 0 1 2.34-3.275c.989-.909 2.156-1.607 3.499-2.095 1.343-.488 2.772-.732 4.292-.732 1.41 0 2.692.244 3.846.732 1.152.487 2.129 1.186 2.929 2.095s1.417 2.001 1.852 3.275c.434 1.275.651 2.699.651 4.272v1.912h-14.159c.244 1.166.772 2.096 1.586 2.787.814.691 1.817 1.037 3.012 1.037 1.003 0 1.851-.224 2.543-.671a6.869 6.869 0 0 0 1.811-1.729l4.27 3.131zm-5.167-8.707c.026-1.03-.312-1.912-1.018-2.645s-1.613-1.099-2.726-1.099c-.679 0-1.275.108-1.79.325a4.517 4.517 0 0 0-1.322.834c-.366.34-.651.732-.854 1.18a3.876 3.876 0 0 0-.346 1.404h8.056zM1294.754 581.84c-.977 1.248-2.211 2.211-3.703 2.889a11.09 11.09 0 0 1-4.638 1.018c-1.52 0-2.95-.244-4.293-.732s-2.509-1.187-3.499-2.096c-.99-.908-1.77-2-2.34-3.275-.569-1.274-.854-2.698-.854-4.271s.285-2.997.854-4.272c.57-1.274 1.35-2.366 2.34-3.275s2.156-1.607 3.499-2.095c1.343-.488 2.773-.732 4.293-.732 1.41 0 2.691.244 3.845.732a8.002 8.002 0 0 1 2.93 2.095c.8.909 1.417 2.001 1.852 3.275.434 1.275.65 2.699.65 4.272v1.912h-14.159c.244 1.166.773 2.096 1.587 2.787s1.817 1.037 3.011 1.037c1.003 0 1.852-.224 2.543-.671a6.869 6.869 0 0 0 1.811-1.729l4.271 3.131zm-5.167-8.707c.026-1.03-.312-1.912-1.018-2.645-.706-.732-1.614-1.099-2.727-1.099-.678 0-1.274.108-1.79.325a4.517 4.517 0 0 0-1.322.834c-.366.34-.65.732-.854 1.18a3.896 3.896 0 0 0-.346 1.404h8.057zM1299.392 554.498h6.104v18.798l6.754-7.812h7.486l-7.853 8.91 8.056 10.863h-7.689l-6.673-10.01h-.081v10.01h-6.104v-30.759zM1352.937 561.822h-11.434l-.122 4.435c.624-.217 1.479-.325 2.563-.325 1.465 0 2.808.217 4.028.65 1.22.435 2.271 1.064 3.152 1.893.882.827 1.567 1.83 2.056 3.01.487 1.181.731 2.503.731 3.968 0 1.628-.278 3.079-.834 4.354-.556 1.275-1.322 2.354-2.299 3.235-.977.881-2.136 1.553-3.479 2.014s-2.801.691-4.374.691c-2.496 0-4.584-.61-6.266-1.831-1.683-1.221-2.835-3.065-3.459-5.533l6.389-1.465c.162 1.031.596 1.865 1.302 2.502.705.638 1.587.956 2.645.956 1.302 0 2.34-.406 3.112-1.221.773-.813 1.16-1.844 1.16-3.092 0-.949-.197-1.729-.59-2.34a4.475 4.475 0 0 0-1.546-1.465 6.5 6.5 0 0 0-2.137-.752 13.827 13.827 0 0 0-2.359-.204 16.55 16.55 0 0 0-3.031.285c-1.018.19-2.001.447-2.95.772l.325-15.908h17.415v5.371z"/></g><circle fill="none" stroke="#7F7F7F" stroke-width="4.368" stroke-miterlimit="10" cx="152.5" cy="128.792" r="24.337"/><path fill="none" stroke="#7F7F7F" stroke-width="4.368" stroke-linecap="round" stroke-miterlimit="10" d="M139.293 133.913s12.479 18.719 26.207 0"/><path fill="none" stroke="#7F7F7F" stroke-width="4" stroke-linecap="round" stroke-miterlimit="10" d="M148 128v-13M158 128v-13"/><circle fill="none" stroke="#7F7F7F" stroke-width="4.368" stroke-miterlimit="10" cx="152.5" cy="468.792" r="24.337"/><path fill="none" stroke="#7F7F7F" stroke-width="4.377" stroke-linecap="round" stroke-miterlimit="10" d="M139.293 481.25s13.103-11.584 26.207 0"/><path fill="none" stroke="#7F7F7F" stroke-width="4" stroke-linecap="round" stroke-miterlimit="10" d="M148 468v-13M158 468v-13"/><circle fill="none" stroke="#7F7F7F" stroke-width="4.368" stroke-miterlimit="10" cx="152.5" cy="297.792" r="24.337"/><path fill="none" stroke="#7F7F7F" stroke-width="4.377" stroke-linecap="round" stroke-miterlimit="10" d="M139.293 310.25s13.103-11.584 26.207 0"/><path fill="none" stroke="#7F7F7F" stroke-width="4" stroke-linecap="round" stroke-miterlimit="10" d="M148 297v-13M158 297v-13"/><path fill="none" stroke="#FFF" stroke-width="7" stroke-miterlimit="10" d="M300.616 289.792s187.491 11.804 242.988 136.297 224.989-59.997 263.987-197.99 148.493-164.233 190.49-85.866 192.478 219.359 288.229 105.365"/></svg>