<?xml version="1.0" encoding="utf-8"?>
<!-- Generator: Adobe Illustrator 17.0.0, SVG Export Plug-In . SVG Version: 6.00 Build 0)  -->
<!DOCTYPE svg PUBLIC "-//W3C//DTD SVG 1.1//EN" "http://www.w3.org/Graphics/SVG/1.1/DTD/svg11.dtd">
<svg version="1.1" xmlns="http://www.w3.org/2000/svg" xmlns:xlink="http://www.w3.org/1999/xlink" x="0px" y="0px" width="1532px"
	 height="711px" viewBox="0 0 1532 711" enable-background="new 0 0 1532 711" xml:space="preserve">
<g id="Layer_2" display="none">
	<rect display="inline" width="1532" height="711"/>
</g>
<g id="Layer_1">
	<g>
		<path fill="#7F7F7F" d="M254.875,565.484h6.51l4.028,12.409h0.082l3.377-12.409h6.673l3.662,12.409h0.081l3.703-12.409h6.185
			l-7.039,19.773h-6.021l-4.11-13.143h-0.081l-3.662,13.143h-6.144L254.875,565.484z"/>
		<path fill="#7F7F7F" d="M309.843,581.84c-0.977,1.248-2.211,2.211-3.703,2.889s-3.038,1.018-4.638,1.018
			c-1.52,0-2.95-0.244-4.292-0.732s-2.509-1.187-3.499-2.096c-0.991-0.908-1.77-2-2.34-3.275c-0.569-1.274-0.854-2.698-0.854-4.271
			s0.285-2.997,0.854-4.272c0.57-1.274,1.349-2.366,2.34-3.275c0.99-0.909,2.156-1.607,3.499-2.095
			c1.343-0.488,2.773-0.732,4.292-0.732c1.41,0,2.692,0.244,3.845,0.732c1.152,0.487,2.129,1.186,2.929,2.095
			c0.8,0.909,1.417,2.001,1.852,3.275c0.434,1.275,0.651,2.699,0.651,4.272v1.912H296.62c0.244,1.166,0.773,2.096,1.586,2.787
			c0.814,0.691,1.817,1.037,3.011,1.037c1.003,0,1.851-0.224,2.543-0.671c0.691-0.448,1.295-1.024,1.811-1.729L309.843,581.84z
			 M304.676,573.133c0.026-1.03-0.312-1.912-1.018-2.645c-0.706-0.732-1.614-1.099-2.726-1.099c-0.678,0-1.275,0.108-1.79,0.325
			c-0.516,0.218-0.956,0.496-1.322,0.834c-0.366,0.34-0.651,0.732-0.854,1.18c-0.204,0.448-0.319,0.916-0.346,1.404H304.676z"/>
		<path fill="#7F7F7F" d="M333.197,581.84c-0.977,1.248-2.211,2.211-3.703,2.889s-3.038,1.018-4.638,1.018
			c-1.52,0-2.95-0.244-4.292-0.732s-2.509-1.187-3.499-2.096c-0.991-0.908-1.77-2-2.34-3.275c-0.569-1.274-0.854-2.698-0.854-4.271
			s0.285-2.997,0.854-4.272c0.57-1.274,1.349-2.366,2.34-3.275c0.99-0.909,2.156-1.607,3.499-2.095
			c1.343-0.488,2.773-0.732,4.292-0.732c1.41,0,2.692,0.244,3.845,0.732c1.152,0.487,2.129,1.186,2.929,2.095
			c0.8,0.909,1.417,2.001,1.852,3.275c0.434,1.275,0.651,2.699,0.651,4.272v1.912h-14.159c0.244,1.166,0.773,2.096,1.586,2.787
			c0.814,0.691,1.817,1.037,3.011,1.037c1.003,0,1.851-0.224,2.543-0.671c0.691-0.448,1.295-1.024,1.811-1.729L333.197,581.84z
			 M328.03,573.133c0.026-1.03-0.312-1.912-1.018-2.645c-0.706-0.732-1.614-1.099-2.726-1.099c-0.678,0-1.275,0.108-1.79,0.325
			c-0.516,0.218-0.956,0.496-1.322,0.834c-0.366,0.34-0.651,0.732-0.854,1.18c-0.204,0.448-0.319,0.916-0.346,1.404H328.03z"/>
		<path fill="#7F7F7F" d="M337.835,554.498h6.104v18.798l6.754-7.812h7.486l-7.853,8.91l8.056,10.863h-7.69l-6.673-10.01h-0.081
			v10.01h-6.104V554.498z"/>
		<path fill="#7F7F7F" d="M382.062,563.287l-5.777,5.086l-3.458-3.988l9.399-7.934h5.696v28.807h-5.859V563.287z"/>
	</g>
	<g>
		<path fill="#7F7F7F" d="M482.914,565.484h6.51l4.028,12.409h0.082l3.377-12.409h6.673l3.662,12.409h0.081l3.703-12.409h6.185
			l-7.039,19.773h-6.021l-4.11-13.143h-0.081l-3.662,13.143h-6.144L482.914,565.484z"/>
		<path fill="#7F7F7F" d="M537.883,581.84c-0.977,1.248-2.211,2.211-3.703,2.889s-3.038,1.018-4.638,1.018
			c-1.52,0-2.95-0.244-4.292-0.732s-2.509-1.187-3.499-2.096c-0.991-0.908-1.77-2-2.34-3.275c-0.569-1.274-0.854-2.698-0.854-4.271
			s0.285-2.997,0.854-4.272c0.57-1.274,1.349-2.366,2.34-3.275c0.99-0.909,2.156-1.607,3.499-2.095
			c1.343-0.488,2.773-0.732,4.292-0.732c1.41,0,2.692,0.244,3.845,0.732c1.152,0.487,2.129,1.186,2.929,2.095
			c0.8,0.909,1.417,2.001,1.852,3.275c0.434,1.275,0.651,2.699,0.651,4.272v1.912H524.66c0.244,1.166,0.773,2.096,1.586,2.787
			c0.814,0.691,1.817,1.037,3.011,1.037c1.003,0,1.851-0.224,2.543-0.671c0.691-0.448,1.295-1.024,1.811-1.729L537.883,581.84z
			 M532.716,573.133c0.026-1.03-0.312-1.912-1.018-2.645c-0.706-0.732-1.614-1.099-2.726-1.099c-0.678,0-1.275,0.108-1.79,0.325
			c-0.516,0.218-0.956,0.496-1.322,0.834c-0.366,0.34-0.651,0.732-0.854,1.18c-0.204,0.448-0.319,0.916-0.346,1.404H532.716z"/>
		<path fill="#7F7F7F" d="M561.237,581.84c-0.977,1.248-2.211,2.211-3.703,2.889s-3.038,1.018-4.638,1.018
			c-1.52,0-2.95-0.244-4.292-0.732s-2.509-1.187-3.499-2.096c-0.991-0.908-1.77-2-2.34-3.275c-0.569-1.274-0.854-2.698-0.854-4.271
			s0.285-2.997,0.854-4.272c0.57-1.274,1.349-2.366,2.34-3.275c0.99-0.909,2.156-1.607,3.499-2.095
			c1.343-0.488,2.773-0.732,4.292-0.732c1.41,0,2.692,0.244,3.845,0.732c1.152,0.487,2.129,1.186,2.929,2.095
			c0.8,0.909,1.417,2.001,1.852,3.275c0.434,1.275,0.651,2.699,0.651,4.272v1.912h-14.159c0.244,1.166,0.773,2.096,1.586,2.787
			c0.814,0.691,1.817,1.037,3.011,1.037c1.003,0,1.851-0.224,2.543-0.671c0.691-0.448,1.295-1.024,1.811-1.729L561.237,581.84z
			 M556.07,573.133c0.026-1.03-0.312-1.912-1.018-2.645c-0.706-0.732-1.614-1.099-2.726-1.099c-0.678,0-1.275,0.108-1.79,0.325
			c-0.516,0.218-0.956,0.496-1.322,0.834c-0.366,0.34-0.651,0.732-0.854,1.18c-0.204,0.448-0.319,0.916-0.346,1.404H556.07z"/>
		<path fill="#7F7F7F" d="M565.875,554.498h6.104v18.798l6.754-7.812h7.486l-7.853,8.91l8.056,10.863h-7.69l-6.673-10.01h-0.081
			v10.01h-6.104V554.498z"/>
		<path fill="#7F7F7F" d="M600.377,578.789l11.189-10.051c0.57-0.515,1.139-1.098,1.709-1.749s0.854-1.41,0.854-2.278
			c0-0.977-0.353-1.742-1.058-2.299c-0.706-0.557-1.533-0.834-2.482-0.834c-1.139,0-2.028,0.353-2.665,1.058
			c-0.637,0.706-0.997,1.573-1.078,2.604l-6.103-0.448c0.082-1.491,0.393-2.787,0.936-3.886c0.542-1.099,1.261-2.014,2.156-2.746
			s1.946-1.281,3.153-1.648c1.207-0.365,2.516-0.549,3.926-0.549c1.302,0,2.522,0.184,3.662,0.549
			c1.139,0.367,2.129,0.91,2.97,1.628c0.841,0.719,1.499,1.621,1.974,2.706c0.474,1.085,0.712,2.346,0.712,3.783
			c0,0.923-0.095,1.757-0.285,2.502c-0.19,0.747-0.455,1.425-0.793,2.035c-0.339,0.61-0.739,1.174-1.2,1.688
			c-0.461,0.516-0.963,1.017-1.505,1.505l-8.748,7.527h12.776v5.371h-20.1V578.789z"/>
	</g>
	<g>
		<path fill="#7F7F7F" d="M712.456,565.484h6.51l4.028,12.409h0.082l3.377-12.409h6.673l3.662,12.409h0.081l3.703-12.409h6.185
			l-7.039,19.773h-6.021l-4.11-13.143h-0.081l-3.662,13.143h-6.144L712.456,565.484z"/>
		<path fill="#7F7F7F" d="M767.425,581.84c-0.977,1.248-2.211,2.211-3.703,2.889s-3.038,1.018-4.638,1.018
			c-1.52,0-2.95-0.244-4.292-0.732s-2.509-1.187-3.499-2.096c-0.991-0.908-1.77-2-2.34-3.275c-0.569-1.274-0.854-2.698-0.854-4.271
			s0.285-2.997,0.854-4.272c0.57-1.274,1.349-2.366,2.34-3.275c0.99-0.909,2.156-1.607,3.499-2.095
			c1.343-0.488,2.773-0.732,4.292-0.732c1.41,0,2.692,0.244,3.845,0.732c1.152,0.487,2.129,1.186,2.929,2.095
			c0.8,0.909,1.417,2.001,1.852,3.275c0.434,1.275,0.651,2.699,0.651,4.272v1.912h-14.159c0.244,1.166,0.773,2.096,1.586,2.787
			c0.814,0.691,1.817,1.037,3.011,1.037c1.003,0,1.851-0.224,2.543-0.671c0.691-0.448,1.295-1.024,1.811-1.729L767.425,581.84z
			 M762.258,573.133c0.026-1.03-0.312-1.912-1.018-2.645c-0.706-0.732-1.614-1.099-2.726-1.099c-0.678,0-1.275,0.108-1.79,0.325
			c-0.516,0.218-0.956,0.496-1.322,0.834c-0.366,0.34-0.651,0.732-0.854,1.18c-0.204,0.448-0.319,0.916-0.346,1.404H762.258z"/>
		<path fill="#7F7F7F" d="M790.779,581.84c-0.977,1.248-2.211,2.211-3.703,2.889s-3.038,1.018-4.638,1.018
			c-1.52,0-2.95-0.244-4.292-0.732s-2.509-1.187-3.499-2.096c-0.991-0.908-1.77-2-2.34-3.275c-0.569-1.274-0.854-2.698-0.854-4.271
			s0.285-2.997,0.854-4.272c0.57-1.274,1.349-2.366,2.34-3.275c0.99-0.909,2.156-1.607,3.499-2.095
			c1.343-0.488,2.773-0.732,4.292-0.732c1.41,0,2.692,0.244,3.845,0.732c1.152,0.487,2.129,1.186,2.929,2.095
			c0.8,0.909,1.417,2.001,1.852,3.275c0.434,1.275,0.651,2.699,0.651,4.272v1.912h-14.159c0.244,1.166,0.773,2.096,1.586,2.787
			c0.814,0.691,1.817,1.037,3.011,1.037c1.003,0,1.851-0.224,2.543-0.671c0.691-0.448,1.295-1.024,1.811-1.729L790.779,581.84z
			 M785.612,573.133c0.026-1.03-0.312-1.912-1.018-2.645c-0.706-0.732-1.614-1.099-2.726-1.099c-0.678,0-1.275,0.108-1.79,0.325
			c-0.516,0.218-0.956,0.496-1.322,0.834c-0.366,0.34-0.651,0.732-0.854,1.18c-0.204,0.448-0.319,0.916-0.346,1.404H785.612z"/>
		<path fill="#7F7F7F" d="M795.417,554.498h6.104v18.798l6.754-7.812h7.486l-7.853,8.91l8.056,10.863h-7.69l-6.673-10.01h-0.081
			v10.01h-6.104V554.498z"/>
		<path fill="#7F7F7F" d="M836.715,567.803h1.993c0.569,0,1.125-0.041,1.668-0.122c0.542-0.081,1.038-0.237,1.485-0.468
			s0.807-0.556,1.078-0.977c0.271-0.42,0.406-0.969,0.406-1.648c0-0.867-0.346-1.586-1.037-2.156
			c-0.691-0.569-1.539-0.854-2.543-0.854c-0.949,0-1.736,0.258-2.359,0.772c-0.625,0.516-1.031,1.153-1.221,1.913l-6.714-1.384
			c0.325-1.247,0.813-2.312,1.465-3.194c0.651-0.881,1.425-1.593,2.319-2.136c0.895-0.542,1.893-0.942,2.99-1.2
			c1.099-0.258,2.258-0.387,3.479-0.387c1.275,0,2.503,0.156,3.683,0.468c1.181,0.312,2.218,0.8,3.112,1.465
			c0.896,0.665,1.607,1.499,2.137,2.503c0.529,1.003,0.793,2.196,0.793,3.58c0,1.601-0.42,2.97-1.262,4.109
			c-0.84,1.139-2.061,1.871-3.661,2.197v0.121c0.868,0.109,1.634,0.367,2.299,0.773c0.664,0.407,1.228,0.909,1.688,1.506
			s0.814,1.275,1.058,2.034c0.244,0.76,0.366,1.56,0.366,2.4c0,1.438-0.278,2.7-0.834,3.784c-0.557,1.085-1.302,1.987-2.238,2.705
			c-0.936,0.72-2.033,1.256-3.295,1.607c-1.262,0.353-2.598,0.529-4.008,0.529c-2.577,0-4.795-0.596-6.652-1.79
			c-1.858-1.193-3.086-3.079-3.683-5.655l6.429-1.506c0.217,1.031,0.658,1.845,1.322,2.441s1.648,0.895,2.95,0.895
			c1.329,0,2.312-0.346,2.95-1.037c0.637-0.691,0.955-1.58,0.955-2.665c0-0.813-0.169-1.444-0.508-1.892
			c-0.34-0.448-0.78-0.779-1.322-0.997c-0.543-0.217-1.153-0.347-1.831-0.387c-0.679-0.04-1.356-0.062-2.034-0.062h-1.424V567.803z"
			/>
	</g>
	<g>
		<path fill="#7F7F7F" d="M959.943,565.484h6.511l4.027,12.409h0.082l3.377-12.409h6.673l3.662,12.409h0.081l3.702-12.409h6.185
			l-7.039,19.773h-6.021l-4.109-13.143h-0.081l-3.662,13.143h-6.144L959.943,565.484z"/>
		<path fill="#7F7F7F" d="M1014.912,581.84c-0.977,1.248-2.211,2.211-3.702,2.889c-1.492,0.678-3.038,1.018-4.639,1.018
			c-1.52,0-2.949-0.244-4.292-0.732s-2.51-1.187-3.499-2.096c-0.991-0.908-1.771-2-2.34-3.275c-0.569-1.274-0.854-2.698-0.854-4.271
			s0.285-2.997,0.854-4.272c0.569-1.274,1.349-2.366,2.34-3.275c0.989-0.909,2.156-1.607,3.499-2.095
			c1.343-0.488,2.772-0.732,4.292-0.732c1.41,0,2.692,0.244,3.846,0.732c1.152,0.487,2.129,1.186,2.929,2.095
			s1.417,2.001,1.852,3.275c0.434,1.275,0.651,2.699,0.651,4.272v1.912h-14.159c0.244,1.166,0.772,2.096,1.586,2.787
			c0.814,0.691,1.817,1.037,3.012,1.037c1.003,0,1.851-0.224,2.543-0.671c0.691-0.448,1.295-1.024,1.811-1.729L1014.912,581.84z
			 M1009.745,573.133c0.026-1.03-0.312-1.912-1.018-2.645s-1.613-1.099-2.726-1.099c-0.679,0-1.275,0.108-1.79,0.325
			c-0.516,0.218-0.956,0.496-1.322,0.834c-0.366,0.34-0.651,0.732-0.854,1.18c-0.204,0.448-0.319,0.916-0.346,1.404H1009.745z"/>
		<path fill="#7F7F7F" d="M1038.267,581.84c-0.977,1.248-2.211,2.211-3.703,2.889c-1.491,0.678-3.038,1.018-4.638,1.018
			c-1.52,0-2.95-0.244-4.293-0.732s-2.509-1.187-3.499-2.096c-0.99-0.908-1.77-2-2.34-3.275c-0.569-1.274-0.854-2.698-0.854-4.271
			s0.285-2.997,0.854-4.272c0.57-1.274,1.35-2.366,2.34-3.275s2.156-1.607,3.499-2.095c1.343-0.488,2.773-0.732,4.293-0.732
			c1.41,0,2.691,0.244,3.845,0.732c1.152,0.487,2.129,1.186,2.93,2.095c0.8,0.909,1.417,2.001,1.852,3.275
			c0.434,1.275,0.65,2.699,0.65,4.272v1.912h-14.159c0.244,1.166,0.773,2.096,1.587,2.787s1.817,1.037,3.011,1.037
			c1.003,0,1.852-0.224,2.543-0.671c0.691-0.448,1.295-1.024,1.811-1.729L1038.267,581.84z M1033.1,573.133
			c0.026-1.03-0.312-1.912-1.018-2.645c-0.706-0.732-1.614-1.099-2.727-1.099c-0.678,0-1.274,0.108-1.79,0.325
			c-0.516,0.218-0.956,0.496-1.322,0.834c-0.366,0.34-0.65,0.732-0.854,1.18c-0.203,0.448-0.319,0.916-0.346,1.404H1033.1z"/>
		<path fill="#7F7F7F" d="M1042.904,554.498h6.104v18.798l6.754-7.812h7.486l-7.853,8.91l8.056,10.863h-7.689l-6.673-10.01h-0.081
			v10.01h-6.104V554.498z"/>
		<path fill="#7F7F7F" d="M1088.962,579.48h-12.572v-5.127l11.759-17.902h6.673v17.902h3.702v5.127h-3.702v5.777h-5.859V579.48z
			 M1088.962,564.426h-0.081l-6.388,9.928h6.469V564.426z"/>
	</g>
	<g>
		<path fill="#7F7F7F" d="M1216.431,565.484h6.511l4.027,12.409h0.082l3.377-12.409h6.673l3.662,12.409h0.081l3.702-12.409h6.185
			l-7.039,19.773h-6.021l-4.109-13.143h-0.081l-3.662,13.143h-6.144L1216.431,565.484z"/>
		<path fill="#7F7F7F" d="M1271.399,581.84c-0.977,1.248-2.211,2.211-3.702,2.889c-1.492,0.678-3.038,1.018-4.639,1.018
			c-1.52,0-2.949-0.244-4.292-0.732s-2.51-1.187-3.499-2.096c-0.991-0.908-1.771-2-2.34-3.275c-0.569-1.274-0.854-2.698-0.854-4.271
			s0.285-2.997,0.854-4.272c0.569-1.274,1.349-2.366,2.34-3.275c0.989-0.909,2.156-1.607,3.499-2.095
			c1.343-0.488,2.772-0.732,4.292-0.732c1.41,0,2.692,0.244,3.846,0.732c1.152,0.487,2.129,1.186,2.929,2.095
			s1.417,2.001,1.852,3.275c0.434,1.275,0.651,2.699,0.651,4.272v1.912h-14.159c0.244,1.166,0.772,2.096,1.586,2.787
			c0.814,0.691,1.817,1.037,3.012,1.037c1.003,0,1.851-0.224,2.543-0.671c0.691-0.448,1.295-1.024,1.811-1.729L1271.399,581.84z
			 M1266.232,573.133c0.026-1.03-0.312-1.912-1.018-2.645s-1.613-1.099-2.726-1.099c-0.679,0-1.275,0.108-1.79,0.325
			c-0.516,0.218-0.956,0.496-1.322,0.834c-0.366,0.34-0.651,0.732-0.854,1.18c-0.204,0.448-0.319,0.916-0.346,1.404H1266.232z"/>
		<path fill="#7F7F7F" d="M1294.754,581.84c-0.977,1.248-2.211,2.211-3.703,2.889c-1.491,0.678-3.038,1.018-4.638,1.018
			c-1.52,0-2.95-0.244-4.293-0.732s-2.509-1.187-3.499-2.096c-0.99-0.908-1.77-2-2.34-3.275c-0.569-1.274-0.854-2.698-0.854-4.271
			s0.285-2.997,0.854-4.272c0.57-1.274,1.35-2.366,2.34-3.275s2.156-1.607,3.499-2.095c1.343-0.488,2.773-0.732,4.293-0.732
			c1.41,0,2.691,0.244,3.845,0.732c1.152,0.487,2.129,1.186,2.93,2.095c0.8,0.909,1.417,2.001,1.852,3.275
			c0.434,1.275,0.65,2.699,0.65,4.272v1.912h-14.159c0.244,1.166,0.773,2.096,1.587,2.787s1.817,1.037,3.011,1.037
			c1.003,0,1.852-0.224,2.543-0.671c0.691-0.448,1.295-1.024,1.811-1.729L1294.754,581.84z M1289.587,573.133
			c0.026-1.03-0.312-1.912-1.018-2.645c-0.706-0.732-1.614-1.099-2.727-1.099c-0.678,0-1.274,0.108-1.79,0.325
			c-0.516,0.218-0.956,0.496-1.322,0.834c-0.366,0.34-0.65,0.732-0.854,1.18c-0.203,0.448-0.319,0.916-0.346,1.404H1289.587z"/>
		<path fill="#7F7F7F" d="M1299.392,554.498h6.104v18.798l6.754-7.812h7.486l-7.853,8.91l8.056,10.863h-7.689l-6.673-10.01h-0.081
			v10.01h-6.104V554.498z"/>
		<path fill="#7F7F7F" d="M1352.937,561.822h-11.434l-0.122,4.435c0.624-0.217,1.479-0.325,2.563-0.325
			c1.465,0,2.808,0.217,4.028,0.65c1.22,0.435,2.271,1.064,3.152,1.893c0.882,0.827,1.567,1.83,2.056,3.01
			c0.487,1.181,0.731,2.503,0.731,3.968c0,1.628-0.278,3.079-0.834,4.354c-0.556,1.275-1.322,2.354-2.299,3.235
			c-0.977,0.881-2.136,1.553-3.479,2.014s-2.801,0.691-4.374,0.691c-2.496,0-4.584-0.61-6.266-1.831
			c-1.683-1.221-2.835-3.065-3.459-5.533l6.389-1.465c0.162,1.031,0.596,1.865,1.302,2.502c0.705,0.638,1.587,0.956,2.645,0.956
			c1.302,0,2.34-0.406,3.112-1.221c0.773-0.813,1.16-1.844,1.16-3.092c0-0.949-0.197-1.729-0.59-2.34
			c-0.394-0.609-0.909-1.098-1.546-1.465c-0.638-0.365-1.351-0.616-2.137-0.752c-0.787-0.136-1.573-0.204-2.359-0.204
			c-1.004,0-2.015,0.096-3.031,0.285c-1.018,0.19-2.001,0.447-2.95,0.772l0.325-15.908h17.415V561.822z"/>
	</g>
	<circle fill="none" stroke="#7F7F7F" stroke-width="4.3678" stroke-miterlimit="10" cx="152.5" cy="128.792" r="24.337"/>
	<path fill="none" stroke="#7F7F7F" stroke-width="4.3678" stroke-linecap="round" stroke-miterlimit="10" d="M139.293,133.913
		c0,0,12.479,18.719,26.207,0"/>
	
		<line fill="none" stroke="#7F7F7F" stroke-width="4" stroke-linecap="round" stroke-miterlimit="10" x1="148" y1="128" x2="148" y2="115"/>
	
		<line fill="none" stroke="#7F7F7F" stroke-width="4" stroke-linecap="round" stroke-miterlimit="10" x1="158" y1="128" x2="158" y2="115"/>
	<circle fill="none" stroke="#7F7F7F" stroke-width="4.3678" stroke-miterlimit="10" cx="152.5" cy="468.792" r="24.337"/>
	<path fill="none" stroke="#7F7F7F" stroke-width="4.3768" stroke-linecap="round" stroke-miterlimit="10" d="M139.293,481.25
		c0,0,13.103-11.584,26.207,0"/>
	
		<line fill="none" stroke="#7F7F7F" stroke-width="4" stroke-linecap="round" stroke-miterlimit="10" x1="148" y1="468" x2="148" y2="455"/>
	
		<line fill="none" stroke="#7F7F7F" stroke-width="4" stroke-linecap="round" stroke-miterlimit="10" x1="158" y1="468" x2="158" y2="455"/>
	<circle fill="none" stroke="#7F7F7F" stroke-width="4.3678" stroke-miterlimit="10" cx="152.5" cy="297.792" r="24.337"/>
	<path fill="none" stroke="#7F7F7F" stroke-width="4.3768" stroke-linecap="round" stroke-miterlimit="10" d="M139.293,310.25
		c0,0,13.103-11.584,26.207,0"/>
	
		<line fill="none" stroke="#7F7F7F" stroke-width="4" stroke-linecap="round" stroke-miterlimit="10" x1="148" y1="297" x2="148" y2="284"/>
	
		<line fill="none" stroke="#7F7F7F" stroke-width="4" stroke-linecap="round" stroke-miterlimit="10" x1="158" y1="297" x2="158" y2="284"/>
	<path fill="none" stroke="#FFFFFF" stroke-width="7" stroke-miterlimit="10" d="M300.616,289.792
		c0,0,187.491,11.804,242.988,136.297s224.989-59.997,263.987-197.99s148.493-164.233,190.49-85.866
		s192.478,219.359,288.229,105.365"/>
	<g>
	</g>
	<g>
	</g>
	<g>
	</g>
	<g>
	</g>
	<g>
	</g>
	<g>
	</g>
	<g>
	</g>
	<g>
	</g>
	<g>
	</g>
	<g>
	</g>
	<g>
	</g>
	<g>
	</g>
	<g>
	</g>
	<g>
	</g>
	<g>
	</g>
</g>
</svg>
