<svg xmlns="http://www.w3.org/2000/svg" width="1744" height="921" viewBox="0 0 1744 921"><g fill="#7F7F7F"><path d="M398.907 135.408h-5.615v-2.604h-.081a6.726 6.726 0 0 1-.956 1.078 7.22 7.22 0 0 1-1.384.997 8.432 8.432 0 0 1-1.75.732 6.907 6.907 0 0 1-1.973.285c-1.465 0-2.794-.251-3.987-.753a8.868 8.868 0 0 1-3.072-2.116c-.854-.908-1.512-1.986-1.973-3.234-.461-1.248-.692-2.618-.692-4.109 0-1.384.21-2.706.631-3.967a10.903 10.903 0 0 1 1.79-3.356 8.742 8.742 0 0 1 2.828-2.34c1.112-.583 2.373-.875 3.784-.875 1.275 0 2.462.197 3.56.59 1.099.394 2 1.065 2.706 2.014h.081v-13.102h6.104v30.76zm-5.615-9.887c0-1.491-.427-2.699-1.281-3.621-.854-.922-2.055-1.383-3.601-1.383-1.546 0-2.747.461-3.601 1.383-.854.922-1.282 2.13-1.282 3.621 0 1.492.427 2.7 1.282 3.621.854.923 2.055 1.384 3.601 1.384 1.546 0 2.747-.461 3.601-1.384.854-.922 1.281-2.129 1.281-3.621zM416.199 132.926h-.081c-.678 1.058-1.581 1.817-2.706 2.278s-2.312.692-3.56.692a9.168 9.168 0 0 1-2.665-.387 6.706 6.706 0 0 1-2.258-1.16 5.581 5.581 0 0 1-1.546-1.912c-.38-.759-.569-1.641-.569-2.645 0-1.139.209-2.102.63-2.889.42-.786.99-1.437 1.709-1.953a8.464 8.464 0 0 1 2.461-1.2 17.968 17.968 0 0 1 2.869-.631 27.5 27.5 0 0 1 2.97-.244c.99-.027 1.905-.041 2.746-.041 0-1.085-.386-1.946-1.159-2.584-.773-.637-1.689-.956-2.747-.956-1.004 0-1.919.21-2.747.631a7.506 7.506 0 0 0-2.217 1.729l-3.255-3.336a11.195 11.195 0 0 1 3.987-2.38 14.248 14.248 0 0 1 4.72-.793c1.79 0 3.261.224 4.415.671 1.152.447 2.075 1.105 2.767 1.973.692.869 1.173 1.933 1.444 3.194.271 1.261.407 2.72.407 4.374v10.05h-5.615v-2.481zm-1.506-6.185c-.461 0-1.038.021-1.729.061a8.768 8.768 0 0 0-1.994.346c-.638.19-1.18.475-1.627.854-.448.38-.671.909-.671 1.587 0 .732.312 1.275.936 1.627a3.912 3.912 0 0 0 1.953.529c.596 0 1.173-.081 1.729-.244a5.148 5.148 0 0 0 1.485-.692 3.355 3.355 0 0 0 1.038-1.139c.257-.461.386-1.003.386-1.627v-1.302h-1.506zM437.03 138.622a44.272 44.272 0 0 1-1.18 2.808c-.38.813-.861 1.498-1.444 2.055-.584.556-1.323.976-2.218 1.261-.895.285-2.075.427-3.54.427a14.32 14.32 0 0 1-4.557-.732l.813-5.005c.922.407 1.872.61 2.848.61.678 0 1.234-.075 1.668-.224.434-.149.793-.366 1.078-.651s.522-.631.712-1.038c.189-.407.393-.882.61-1.424l.448-1.139-8.667-19.937h6.591l5.086 13.061h.082l4.354-13.061h6.266l-8.95 22.989zM469.864 113.437l-5.777 5.086-3.458-3.987 9.399-7.934h5.696v28.807h-5.859v-21.972z"/></g><g fill="#7F7F7F"><path d="M103.163 307.055h-5.371v6.591c0 .543.026 1.038.081 1.485.054.447.176.834.366 1.159.189.326.481.577.875.753.393.177.916.265 1.566.265.326 0 .753-.034 1.282-.102.529-.067.929-.224 1.2-.468v5.086c-.678.244-1.383.407-2.116.488s-1.452.122-2.156.122c-1.031 0-1.98-.109-2.848-.326-.869-.217-1.628-.562-2.279-1.038a4.848 4.848 0 0 1-1.526-1.851c-.366-.759-.549-1.682-.549-2.767v-9.399h-3.906v-4.882h3.906v-5.859h6.104v5.859h5.371v4.884zM118.664 319.464h-.081c-.678 1.058-1.581 1.817-2.706 2.278s-2.312.692-3.56.692a9.168 9.168 0 0 1-2.665-.387 6.706 6.706 0 0 1-2.258-1.16 5.581 5.581 0 0 1-1.546-1.912c-.38-.759-.569-1.641-.569-2.645 0-1.139.209-2.102.63-2.889.42-.786.99-1.437 1.709-1.953a8.464 8.464 0 0 1 2.461-1.2 17.968 17.968 0 0 1 2.869-.631 27.5 27.5 0 0 1 2.97-.244c.99-.027 1.905-.041 2.746-.041 0-1.085-.386-1.946-1.159-2.584-.773-.637-1.689-.956-2.747-.956-1.004 0-1.919.21-2.747.631a7.506 7.506 0 0 0-2.217 1.729l-3.255-3.336a11.195 11.195 0 0 1 3.987-2.38 14.248 14.248 0 0 1 4.72-.793c1.79 0 3.261.224 4.415.671 1.152.447 2.075 1.105 2.767 1.973.692.869 1.173 1.933 1.444 3.194.271 1.261.407 2.72.407 4.374v10.05h-5.615v-2.481zm-1.505-6.184c-.461 0-1.038.021-1.729.061a8.768 8.768 0 0 0-1.994.346c-.638.19-1.18.475-1.627.854-.448.38-.671.909-.671 1.587 0 .732.312 1.275.936 1.627a3.912 3.912 0 0 0 1.953.529c.596 0 1.173-.081 1.729-.244a5.148 5.148 0 0 0 1.485-.692 3.355 3.355 0 0 0 1.038-1.139c.257-.461.386-1.003.386-1.627v-1.302h-1.506zM139.292 307.99c-.896-1.112-2.075-1.668-3.54-1.668-.516 0-1.017.122-1.505.366s-.732.665-.732 1.261c0 .488.25.848.753 1.078.501.231 1.139.435 1.912.61.773.177 1.6.366 2.482.57a9.351 9.351 0 0 1 2.482.956 5.556 5.556 0 0 1 1.912 1.77c.502.746.753 1.743.753 2.99 0 1.275-.278 2.326-.834 3.153a6.402 6.402 0 0 1-2.136 1.994c-.868.502-1.845.854-2.93 1.058s-2.156.305-3.214.305c-1.384 0-2.781-.197-4.191-.59-1.411-.393-2.604-1.092-3.581-2.096l3.703-4.109c.569.706 1.2 1.241 1.892 1.607.692.366 1.499.549 2.421.549.705 0 1.343-.102 1.913-.305.569-.204.854-.576.854-1.119 0-.515-.251-.901-.753-1.16-.502-.257-1.139-.474-1.912-.651a692.94 692.94 0 0 1-2.482-.57 10.184 10.184 0 0 1-2.482-.916 5.188 5.188 0 0 1-1.913-1.729c-.502-.746-.752-1.743-.752-2.991 0-1.166.237-2.169.712-3.011a6.263 6.263 0 0 1 1.872-2.075c.773-.542 1.661-.942 2.665-1.2a12.253 12.253 0 0 1 3.052-.386c1.302 0 2.617.19 3.947.569 1.329.38 2.455 1.058 3.377 2.035l-3.745 3.705zM146.941 291.187h6.104v18.798l6.754-7.812h7.486l-7.853 8.91 8.056 10.864h-7.69l-6.673-10.009h-.081v10.009h-6.104v-30.76z"/></g><g fill="#7F7F7F"><path d="M103.163 468.593h-5.371v6.591c0 .543.026 1.038.081 1.485.054.447.176.834.366 1.159.189.326.481.577.875.753.393.177.916.265 1.566.265.326 0 .753-.034 1.282-.102.529-.067.929-.224 1.2-.468v5.086c-.678.244-1.383.407-2.116.488s-1.452.122-2.156.122c-1.031 0-1.98-.109-2.848-.326-.869-.217-1.628-.562-2.279-1.038a4.848 4.848 0 0 1-1.526-1.851c-.366-.759-.549-1.682-.549-2.767v-9.399h-3.906v-4.882h3.906v-5.859h6.104v5.859h5.371v4.884zM118.664 481.003h-.081c-.678 1.058-1.581 1.817-2.706 2.278s-2.312.692-3.56.692a9.168 9.168 0 0 1-2.665-.387 6.706 6.706 0 0 1-2.258-1.16 5.581 5.581 0 0 1-1.546-1.912c-.38-.759-.569-1.641-.569-2.645 0-1.139.209-2.102.63-2.889.42-.786.99-1.437 1.709-1.953a8.464 8.464 0 0 1 2.461-1.2 17.968 17.968 0 0 1 2.869-.631 27.5 27.5 0 0 1 2.97-.244c.99-.027 1.905-.041 2.746-.041 0-1.085-.386-1.946-1.159-2.584-.773-.637-1.689-.956-2.747-.956-1.004 0-1.919.21-2.747.631a7.506 7.506 0 0 0-2.217 1.729l-3.255-3.336a11.195 11.195 0 0 1 3.987-2.38 14.248 14.248 0 0 1 4.72-.793c1.79 0 3.261.224 4.415.671 1.152.447 2.075 1.105 2.767 1.973.692.869 1.173 1.933 1.444 3.194.271 1.261.407 2.72.407 4.374v10.05h-5.615v-2.481zm-1.505-6.185c-.461 0-1.038.021-1.729.061a8.768 8.768 0 0 0-1.994.346c-.638.19-1.18.475-1.627.854-.448.38-.671.909-.671 1.587 0 .732.312 1.275.936 1.627a3.912 3.912 0 0 0 1.953.529c.596 0 1.173-.081 1.729-.244a5.148 5.148 0 0 0 1.485-.692 3.355 3.355 0 0 0 1.038-1.139c.257-.461.386-1.003.386-1.627v-1.302h-1.506zM139.292 469.529c-.896-1.112-2.075-1.668-3.54-1.668-.516 0-1.017.122-1.505.366s-.732.665-.732 1.261c0 .488.25.848.753 1.078.501.231 1.139.435 1.912.61.773.177 1.6.366 2.482.57a9.351 9.351 0 0 1 2.482.956 5.556 5.556 0 0 1 1.912 1.77c.502.746.753 1.743.753 2.99 0 1.275-.278 2.326-.834 3.153a6.402 6.402 0 0 1-2.136 1.994c-.868.502-1.845.854-2.93 1.058s-2.156.305-3.214.305c-1.384 0-2.781-.197-4.191-.59-1.411-.393-2.604-1.092-3.581-2.096l3.703-4.109c.569.706 1.2 1.241 1.892 1.607.692.366 1.499.549 2.421.549.705 0 1.343-.102 1.913-.305.569-.204.854-.576.854-1.119 0-.515-.251-.901-.753-1.16-.502-.257-1.139-.474-1.912-.651a692.94 692.94 0 0 1-2.482-.57 10.184 10.184 0 0 1-2.482-.916 5.188 5.188 0 0 1-1.913-1.729c-.502-.746-.752-1.743-.752-2.991 0-1.166.237-2.169.712-3.011a6.263 6.263 0 0 1 1.872-2.075c.773-.542 1.661-.942 2.665-1.2a12.253 12.253 0 0 1 3.052-.386c1.302 0 2.617.19 3.947.569 1.329.38 2.455 1.058 3.377 2.035l-3.745 3.705zM146.941 452.725h6.104v18.798l6.754-7.812h7.486l-7.853 8.91 8.056 10.864h-7.69l-6.673-10.009h-.081v10.009h-6.104v-30.76z"/></g><g fill="#7F7F7F"><path d="M103.163 653.209h-5.371v6.591c0 .543.026 1.038.081 1.485.054.447.176.834.366 1.159.189.325.481.577.875.753.393.177.916.265 1.566.265.326 0 .753-.034 1.282-.103.529-.066.929-.223 1.2-.467v5.086a9.266 9.266 0 0 1-2.116.488c-.732.081-1.452.121-2.156.121a11.73 11.73 0 0 1-2.848-.325c-.869-.217-1.628-.562-2.279-1.038a4.848 4.848 0 0 1-1.526-1.851c-.366-.759-.549-1.682-.549-2.767v-9.398h-3.906v-4.883h3.906v-5.859h6.104v5.859h5.371v4.884zM118.664 665.618h-.081c-.678 1.058-1.581 1.817-2.706 2.278s-2.312.691-3.56.691a9.168 9.168 0 0 1-2.665-.387 6.722 6.722 0 0 1-2.258-1.159 5.581 5.581 0 0 1-1.546-1.912c-.38-.759-.569-1.641-.569-2.645 0-1.14.209-2.103.63-2.89.42-.785.99-1.437 1.709-1.952a8.49 8.49 0 0 1 2.461-1.2 18.078 18.078 0 0 1 2.869-.631 27.5 27.5 0 0 1 2.97-.244c.99-.027 1.905-.041 2.746-.041 0-1.084-.386-1.945-1.159-2.584-.773-.637-1.689-.955-2.747-.955-1.004 0-1.919.21-2.747.631a7.473 7.473 0 0 0-2.217 1.729l-3.255-3.336a11.182 11.182 0 0 1 3.987-2.381 14.248 14.248 0 0 1 4.72-.793c1.79 0 3.261.224 4.415.672 1.152.447 2.075 1.105 2.767 1.973.692.869 1.173 1.933 1.444 3.193.271 1.262.407 2.721.407 4.375v10.05h-5.615v-2.482zm-1.505-6.184c-.461 0-1.038.021-1.729.061a8.768 8.768 0 0 0-1.994.346c-.638.191-1.18.476-1.627.855-.448.38-.671.908-.671 1.586 0 .732.312 1.275.936 1.628s1.275.528 1.953.528c.596 0 1.173-.08 1.729-.243a5.175 5.175 0 0 0 1.485-.692 3.355 3.355 0 0 0 1.038-1.139c.257-.461.386-1.004.386-1.627v-1.303h-1.506zM139.292 654.145c-.896-1.112-2.075-1.668-3.54-1.668-.516 0-1.017.121-1.505.365s-.732.666-.732 1.262c0 .488.25.848.753 1.078.501.23 1.139.435 1.912.61l2.482.569c.881.204 1.709.523 2.482.957s1.41 1.023 1.912 1.77.753 1.743.753 2.99c0 1.275-.278 2.326-.834 3.153a6.389 6.389 0 0 1-2.136 1.993c-.868.503-1.845.855-2.93 1.059s-2.156.305-3.214.305c-1.384 0-2.781-.197-4.191-.59-1.411-.393-2.604-1.092-3.581-2.096l3.703-4.109c.569.706 1.2 1.242 1.892 1.607.692.367 1.499.55 2.421.55.705 0 1.343-.103 1.913-.306.569-.203.854-.576.854-1.119 0-.515-.251-.9-.753-1.159-.502-.257-1.139-.474-1.912-.651-.773-.176-1.601-.365-2.482-.569a10.265 10.265 0 0 1-2.482-.915 5.188 5.188 0 0 1-1.913-1.729c-.502-.745-.752-1.743-.752-2.991 0-1.165.237-2.169.712-3.01a6.257 6.257 0 0 1 1.872-2.076c.773-.541 1.661-.941 2.665-1.199a12.207 12.207 0 0 1 3.052-.387c1.302 0 2.617.189 3.947.569 1.329.38 2.455 1.058 3.377 2.034l-3.745 3.703zM146.941 637.34h6.104v18.799l6.754-7.812h7.486l-7.853 8.91 8.056 10.863h-7.69l-6.673-10.009h-.081V668.1h-6.104v-30.76z"/></g><g fill="#7F7F7F"><path d="M737.753 135.408h-5.615v-2.604h-.081a6.726 6.726 0 0 1-.956 1.078 7.22 7.22 0 0 1-1.384.997 8.432 8.432 0 0 1-1.75.732 6.907 6.907 0 0 1-1.973.285c-1.465 0-2.794-.251-3.987-.753a8.868 8.868 0 0 1-3.072-2.116c-.854-.908-1.512-1.986-1.973-3.234-.461-1.248-.692-2.618-.692-4.109 0-1.384.21-2.706.631-3.967a10.903 10.903 0 0 1 1.79-3.356 8.742 8.742 0 0 1 2.828-2.34c1.112-.583 2.373-.875 3.784-.875 1.275 0 2.462.197 3.56.59 1.099.394 2 1.065 2.706 2.014h.081v-13.102h6.104v30.76zm-5.615-9.887c0-1.491-.427-2.699-1.281-3.621-.854-.922-2.055-1.383-3.601-1.383-1.546 0-2.747.461-3.601 1.383-.854.922-1.282 2.13-1.282 3.621 0 1.492.427 2.7 1.282 3.621.854.923 2.055 1.384 3.601 1.384 1.546 0 2.747-.461 3.601-1.384.854-.922 1.281-2.129 1.281-3.621zM755.045 132.926h-.081c-.678 1.058-1.581 1.817-2.706 2.278s-2.312.692-3.56.692a9.168 9.168 0 0 1-2.665-.387 6.706 6.706 0 0 1-2.258-1.16 5.581 5.581 0 0 1-1.546-1.912c-.38-.759-.569-1.641-.569-2.645 0-1.139.209-2.102.63-2.889.42-.786.99-1.437 1.709-1.953a8.464 8.464 0 0 1 2.461-1.2 17.968 17.968 0 0 1 2.869-.631 27.5 27.5 0 0 1 2.97-.244c.99-.027 1.905-.041 2.746-.041 0-1.085-.386-1.946-1.159-2.584-.773-.637-1.689-.956-2.747-.956-1.004 0-1.919.21-2.747.631a7.506 7.506 0 0 0-2.217 1.729l-3.255-3.336a11.195 11.195 0 0 1 3.987-2.38 14.248 14.248 0 0 1 4.72-.793c1.79 0 3.261.224 4.415.671 1.152.447 2.075 1.105 2.767 1.973.692.869 1.173 1.933 1.444 3.194.271 1.261.407 2.72.407 4.374v10.05h-5.615v-2.481zm-1.505-6.185c-.461 0-1.038.021-1.729.061a8.768 8.768 0 0 0-1.994.346c-.638.19-1.18.475-1.627.854-.448.38-.671.909-.671 1.587 0 .732.312 1.275.936 1.627a3.912 3.912 0 0 0 1.953.529c.596 0 1.173-.081 1.729-.244a5.148 5.148 0 0 0 1.485-.692 3.355 3.355 0 0 0 1.038-1.139c.257-.461.386-1.003.386-1.627v-1.302h-1.506zM775.876 138.622a44.272 44.272 0 0 1-1.18 2.808c-.38.813-.861 1.498-1.444 2.055-.584.556-1.323.976-2.218 1.261-.895.285-2.075.427-3.54.427a14.32 14.32 0 0 1-4.557-.732l.813-5.005c.922.407 1.872.61 2.848.61.678 0 1.234-.075 1.668-.224.434-.149.793-.366 1.078-.651s.522-.631.712-1.038c.189-.407.393-.882.61-1.424l.448-1.139-8.667-19.937h6.591l5.086 13.061h.082l4.354-13.061h6.266l-8.95 22.989zM798.986 128.938l11.189-10.05a20.988 20.988 0 0 0 1.709-1.75 3.35 3.35 0 0 0 .854-2.279c0-.977-.353-1.742-1.058-2.299-.706-.556-1.533-.834-2.482-.834-1.139 0-2.028.353-2.665 1.058-.637.706-.997 1.573-1.078 2.604l-6.103-.448c.082-1.491.393-2.787.936-3.886a8.15 8.15 0 0 1 2.156-2.746c.895-.732 1.946-1.282 3.153-1.648 1.207-.366 2.516-.549 3.926-.549 1.302 0 2.522.183 3.662.549 1.139.366 2.129.909 2.97 1.627.841.719 1.499 1.621 1.974 2.706.474 1.085.712 2.347.712 3.784 0 .922-.095 1.756-.285 2.502a8.52 8.52 0 0 1-.793 2.035 9.284 9.284 0 0 1-1.2 1.688 19.603 19.603 0 0 1-1.505 1.505l-8.748 7.527h12.776v5.371h-20.1v-6.467z"/></g><g fill="#7F7F7F"><path d="M1068.138 135.408h-5.615v-2.604h-.081a6.726 6.726 0 0 1-.956 1.078 7.22 7.22 0 0 1-1.384.997 8.423 8.423 0 0 1-1.749.732 6.914 6.914 0 0 1-1.974.285c-1.465 0-2.794-.251-3.987-.753a8.878 8.878 0 0 1-3.072-2.116c-.854-.908-1.512-1.986-1.973-3.234-.462-1.248-.692-2.618-.692-4.109 0-1.384.21-2.706.631-3.967s1.018-2.38 1.79-3.356a8.752 8.752 0 0 1 2.828-2.34c1.112-.583 2.373-.875 3.784-.875 1.274 0 2.462.197 3.56.59a5.702 5.702 0 0 1 2.706 2.014h.081v-13.102h6.104v30.76zm-5.616-9.887c0-1.491-.427-2.699-1.281-3.621-.854-.922-2.055-1.383-3.601-1.383s-2.747.461-3.601 1.383c-.854.922-1.282 2.13-1.282 3.621 0 1.492.428 2.7 1.282 3.621.854.923 2.055 1.384 3.601 1.384s2.746-.461 3.601-1.384c.855-.922 1.281-2.129 1.281-3.621zM1085.43 132.926h-.081c-.679 1.058-1.581 1.817-2.706 2.278a9.304 9.304 0 0 1-3.561.692 9.168 9.168 0 0 1-2.665-.387 6.715 6.715 0 0 1-2.258-1.16 5.581 5.581 0 0 1-1.546-1.912c-.38-.759-.569-1.641-.569-2.645 0-1.139.209-2.102.63-2.889a5.659 5.659 0 0 1 1.709-1.953 8.47 8.47 0 0 1 2.462-1.2 17.98 17.98 0 0 1 2.868-.631c.99-.135 1.979-.217 2.971-.244.989-.027 1.905-.041 2.746-.041 0-1.085-.387-1.946-1.159-2.584-.773-.637-1.689-.956-2.747-.956-1.004 0-1.919.21-2.746.631a7.523 7.523 0 0 0-2.218 1.729l-3.255-3.336a11.203 11.203 0 0 1 3.987-2.38 14.252 14.252 0 0 1 4.72-.793c1.79 0 3.262.224 4.415.671 1.152.447 2.075 1.105 2.767 1.973.691.869 1.173 1.933 1.444 3.194.271 1.261.407 2.72.407 4.374v10.05h-5.615v-2.481zm-1.506-6.185c-.461 0-1.037.021-1.729.061a8.768 8.768 0 0 0-1.994.346c-.638.19-1.18.475-1.627.854-.448.38-.672.909-.672 1.587 0 .732.312 1.275.936 1.627a3.912 3.912 0 0 0 1.953.529c.597 0 1.173-.081 1.729-.244a5.148 5.148 0 0 0 1.485-.692 3.342 3.342 0 0 0 1.037-1.139c.258-.461.387-1.003.387-1.627v-1.302h-1.505zM1106.261 138.622a43.694 43.694 0 0 1-1.18 2.808c-.38.813-.861 1.498-1.444 2.055-.584.556-1.322.976-2.218 1.261-.895.285-2.075.427-3.539.427-1.574 0-3.093-.244-4.558-.732l.813-5.005c.922.407 1.872.61 2.849.61.678 0 1.234-.075 1.668-.224a2.759 2.759 0 0 0 1.078-.651c.285-.285.522-.631.712-1.038s.394-.882.61-1.424l.448-1.139-8.667-19.937h6.592l5.086 13.061h.081l4.354-13.061h6.266l-8.951 22.989zM1136.166 117.953h1.993c.57 0 1.125-.041 1.668-.122a4.73 4.73 0 0 0 1.485-.468c.447-.23.807-.556 1.078-.977.271-.42.407-.969.407-1.648 0-.868-.346-1.586-1.038-2.156-.691-.57-1.539-.854-2.543-.854-.949 0-1.735.258-2.359.773a3.547 3.547 0 0 0-1.221 1.913l-6.714-1.383c.326-1.248.814-2.312 1.465-3.194a8.095 8.095 0 0 1 2.319-2.136 10.308 10.308 0 0 1 2.991-1.201 15.227 15.227 0 0 1 3.479-.386c1.274 0 2.502.156 3.682.468 1.181.312 2.218.8 3.113 1.465s1.606 1.499 2.136 2.502.794 2.197.794 3.58c0 1.601-.421 2.97-1.262 4.11-.841 1.139-2.062 1.872-3.662 2.197v.122c.868.109 1.634.366 2.299.773.664.407 1.228.909 1.688 1.505s.814 1.275 1.058 2.034c.244.76.366 1.56.366 2.4 0 1.438-.278 2.7-.834 3.784a7.92 7.92 0 0 1-2.237 2.706c-.936.719-2.034 1.255-3.296 1.607a14.855 14.855 0 0 1-4.008.529c-2.577 0-4.795-.596-6.652-1.79-1.858-1.193-3.086-3.079-3.683-5.656l6.429-1.505c.217 1.031.658 1.845 1.322 2.441.665.597 1.648.896 2.95.896 1.329 0 2.312-.346 2.95-1.038.637-.692.956-1.58.956-2.665 0-.814-.17-1.444-.509-1.892a3.05 3.05 0 0 0-1.322-.997 5.863 5.863 0 0 0-1.831-.387 33.713 33.713 0 0 0-2.034-.061h-1.424v-5.289z"/></g><g fill="#7F7F7F"><path d="M1400.83 135.408h-5.615v-2.604h-.081a6.726 6.726 0 0 1-.956 1.078 7.22 7.22 0 0 1-1.384.997 8.423 8.423 0 0 1-1.749.732 6.914 6.914 0 0 1-1.974.285c-1.465 0-2.794-.251-3.987-.753a8.878 8.878 0 0 1-3.072-2.116c-.854-.908-1.512-1.986-1.973-3.234-.462-1.248-.692-2.618-.692-4.109 0-1.384.21-2.706.631-3.967s1.018-2.38 1.79-3.356a8.752 8.752 0 0 1 2.828-2.34c1.112-.583 2.373-.875 3.784-.875 1.274 0 2.462.197 3.56.59a5.702 5.702 0 0 1 2.706 2.014h.081v-13.102h6.104v30.76zm-5.615-9.887c0-1.491-.427-2.699-1.281-3.621-.854-.922-2.055-1.383-3.601-1.383s-2.747.461-3.601 1.383c-.854.922-1.282 2.13-1.282 3.621 0 1.492.428 2.7 1.282 3.621.854.923 2.055 1.384 3.601 1.384s2.746-.461 3.601-1.384c.854-.922 1.281-2.129 1.281-3.621zM1418.122 132.926h-.081c-.679 1.058-1.581 1.817-2.706 2.278a9.304 9.304 0 0 1-3.561.692 9.168 9.168 0 0 1-2.665-.387 6.715 6.715 0 0 1-2.258-1.16 5.581 5.581 0 0 1-1.546-1.912c-.38-.759-.569-1.641-.569-2.645 0-1.139.209-2.102.63-2.889a5.659 5.659 0 0 1 1.709-1.953 8.47 8.47 0 0 1 2.462-1.2 17.98 17.98 0 0 1 2.868-.631c.99-.135 1.979-.217 2.971-.244.989-.027 1.905-.041 2.746-.041 0-1.085-.387-1.946-1.159-2.584-.773-.637-1.689-.956-2.747-.956-1.004 0-1.919.21-2.746.631a7.523 7.523 0 0 0-2.218 1.729l-3.255-3.336a11.203 11.203 0 0 1 3.987-2.38 14.252 14.252 0 0 1 4.72-.793c1.79 0 3.262.224 4.415.671 1.152.447 2.075 1.105 2.767 1.973.691.869 1.173 1.933 1.444 3.194.271 1.261.407 2.72.407 4.374v10.05h-5.615v-2.481zm-1.506-6.185c-.461 0-1.037.021-1.729.061a8.768 8.768 0 0 0-1.994.346c-.638.19-1.18.475-1.627.854-.448.38-.672.909-.672 1.587 0 .732.312 1.275.936 1.627a3.912 3.912 0 0 0 1.953.529c.597 0 1.173-.081 1.729-.244a5.148 5.148 0 0 0 1.485-.692 3.342 3.342 0 0 0 1.037-1.139c.258-.461.387-1.003.387-1.627v-1.302h-1.505zM1438.953 138.622a43.694 43.694 0 0 1-1.18 2.808c-.38.813-.861 1.498-1.444 2.055-.584.556-1.322.976-2.218 1.261-.895.285-2.075.427-3.539.427-1.574 0-3.093-.244-4.558-.732l.813-5.005c.922.407 1.872.61 2.849.61.678 0 1.234-.075 1.668-.224a2.759 2.759 0 0 0 1.078-.651c.285-.285.522-.631.712-1.038s.394-.882.61-1.424l.448-1.139-8.667-19.937h6.592l5.086 13.061h.081l4.354-13.061h6.266l-8.951 22.989zM1473.618 129.63h-12.572v-5.126l11.759-17.902h6.673v17.902h3.702v5.126h-3.702v5.778h-5.859v-5.778zm0-15.054h-.081l-6.388 9.928h6.469v-9.928z"/></g><circle fill="#FFF" cx="420.385" cy="297.846" r="15.385"/><circle fill="#FFF" cx="764.385" cy="297.846" r="15.385"/><path fill="none" stroke="#FCFCFC" stroke-width="7" stroke-miterlimit="10" d="M420 298.5h344"/><circle fill="#FFF" cx="1102.385" cy="667.846" r="15.385"/><circle fill="#FFF" cx="1416.385" cy="667.846" r="15.385"/><path fill="none" stroke="#FCFCFC" stroke-width="7" stroke-miterlimit="10" d="M1102 668.5h314"/><circle fill="#FFF" cx="674.385" cy="467.846" r="15.385"/><circle fill="#FFF" cx="1087.385" cy="467.846" r="15.385"/><path fill="none" stroke="#FCFCFC" stroke-width="7" stroke-miterlimit="10" d="M674 468.5h413"/></svg>