<?xml version="1.0" encoding="utf-8"?>
<!-- Generator: Adobe Illustrator 17.0.0, SVG Export Plug-In . SVG Version: 6.00 Build 0)  -->
<!DOCTYPE svg PUBLIC "-//W3C//DTD SVG 1.1//EN" "http://www.w3.org/Graphics/SVG/1.1/DTD/svg11.dtd">
<svg version="1.1" id="Layer_1" xmlns="http://www.w3.org/2000/svg" xmlns:xlink="http://www.w3.org/1999/xlink" x="0px" y="0px"
	 width="1744px" height="921px" viewBox="0 0 1744 921" enable-background="new 0 0 1744 921" xml:space="preserve">
<g>
	<path fill="#7F7F7F" d="M398.907,135.408h-5.615v-2.604h-0.081c-0.244,0.353-0.563,0.712-0.956,1.078
		c-0.394,0.366-0.854,0.699-1.384,0.997c-0.529,0.299-1.112,0.542-1.75,0.732c-0.638,0.189-1.295,0.285-1.973,0.285
		c-1.465,0-2.794-0.251-3.987-0.753c-1.194-0.501-2.218-1.207-3.072-2.116c-0.854-0.908-1.512-1.986-1.973-3.234
		c-0.461-1.248-0.692-2.618-0.692-4.109c0-1.384,0.21-2.706,0.631-3.967c0.42-1.261,1.017-2.38,1.79-3.356
		c0.773-0.977,1.715-1.756,2.828-2.34c1.112-0.583,2.373-0.875,3.784-0.875c1.275,0,2.462,0.197,3.56,0.59
		c1.099,0.394,2,1.065,2.706,2.014h0.081v-13.102h6.104V135.408z M393.292,125.521c0-1.491-0.427-2.699-1.281-3.621
		c-0.854-0.922-2.055-1.383-3.601-1.383c-1.546,0-2.747,0.461-3.601,1.383c-0.854,0.922-1.282,2.13-1.282,3.621
		c0,1.492,0.427,2.7,1.282,3.621c0.854,0.923,2.055,1.384,3.601,1.384c1.546,0,2.747-0.461,3.601-1.384
		C392.865,128.22,393.292,127.013,393.292,125.521z"/>
	<path fill="#7F7F7F" d="M416.199,132.926h-0.081c-0.678,1.058-1.581,1.817-2.706,2.278s-2.312,0.692-3.56,0.692
		c-0.922,0-1.811-0.129-2.665-0.387c-0.854-0.257-1.607-0.644-2.258-1.16c-0.651-0.515-1.167-1.152-1.546-1.912
		c-0.38-0.759-0.569-1.641-0.569-2.645c0-1.139,0.209-2.102,0.63-2.889c0.42-0.786,0.99-1.437,1.709-1.953
		c0.718-0.515,1.539-0.916,2.461-1.2c0.922-0.285,1.878-0.495,2.869-0.631c0.99-0.135,1.979-0.217,2.97-0.244
		c0.99-0.027,1.905-0.041,2.746-0.041c0-1.085-0.386-1.946-1.159-2.584c-0.773-0.637-1.689-0.956-2.747-0.956
		c-1.004,0-1.919,0.21-2.747,0.631c-0.828,0.421-1.566,0.997-2.217,1.729l-3.255-3.336c1.139-1.058,2.468-1.851,3.987-2.38
		c1.519-0.529,3.092-0.793,4.72-0.793c1.79,0,3.261,0.224,4.415,0.671c1.152,0.447,2.075,1.105,2.767,1.973
		c0.692,0.869,1.173,1.933,1.444,3.194c0.271,1.261,0.407,2.72,0.407,4.374v10.05h-5.615V132.926z M414.693,126.741
		c-0.461,0-1.038,0.021-1.729,0.061c-0.692,0.041-1.357,0.156-1.994,0.346c-0.638,0.19-1.18,0.475-1.627,0.854
		c-0.448,0.38-0.671,0.909-0.671,1.587c0,0.732,0.312,1.275,0.936,1.627c0.624,0.353,1.275,0.529,1.953,0.529
		c0.596,0,1.173-0.081,1.729-0.244c0.556-0.163,1.051-0.393,1.485-0.692c0.434-0.298,0.779-0.678,1.038-1.139
		c0.257-0.461,0.386-1.003,0.386-1.627v-1.302H414.693z"/>
	<path fill="#7F7F7F" d="M437.03,138.622c-0.407,1.058-0.8,1.994-1.18,2.808c-0.38,0.813-0.861,1.498-1.444,2.055
		c-0.584,0.556-1.323,0.976-2.218,1.261c-0.895,0.285-2.075,0.427-3.54,0.427c-1.574,0-3.092-0.244-4.557-0.732l0.813-5.005
		c0.922,0.407,1.872,0.61,2.848,0.61c0.678,0,1.234-0.075,1.668-0.224c0.434-0.149,0.793-0.366,1.078-0.651s0.522-0.631,0.712-1.038
		c0.189-0.407,0.393-0.882,0.61-1.424l0.448-1.139l-8.667-19.937h6.591l5.086,13.061h0.082l4.354-13.061h6.266L437.03,138.622z"/>
	<path fill="#7F7F7F" d="M469.864,113.437l-5.777,5.086l-3.458-3.987l9.399-7.934h5.696v28.807h-5.859V113.437z"/>
</g>
<g>
	<path fill="#7F7F7F" d="M103.163,307.055h-5.371v6.591c0,0.543,0.026,1.038,0.081,1.485c0.054,0.447,0.176,0.834,0.366,1.159
		c0.189,0.326,0.481,0.577,0.875,0.753c0.393,0.177,0.916,0.265,1.566,0.265c0.326,0,0.753-0.034,1.282-0.102
		c0.529-0.067,0.929-0.224,1.2-0.468v5.086c-0.678,0.244-1.383,0.407-2.116,0.488s-1.452,0.122-2.156,0.122
		c-1.031,0-1.98-0.109-2.848-0.326c-0.869-0.217-1.628-0.562-2.279-1.038c-0.651-0.474-1.16-1.091-1.526-1.851
		c-0.366-0.759-0.549-1.682-0.549-2.767v-9.399h-3.906v-4.882h3.906v-5.859h6.104v5.859h5.371V307.055z"/>
	<path fill="#7F7F7F" d="M118.664,319.464h-0.081c-0.678,1.058-1.581,1.817-2.706,2.278s-2.312,0.692-3.56,0.692
		c-0.922,0-1.811-0.129-2.665-0.387c-0.854-0.257-1.607-0.644-2.258-1.16c-0.651-0.515-1.167-1.152-1.546-1.912
		c-0.38-0.759-0.569-1.641-0.569-2.645c0-1.139,0.209-2.102,0.63-2.889c0.42-0.786,0.99-1.437,1.709-1.953
		c0.718-0.515,1.539-0.916,2.461-1.2c0.922-0.285,1.878-0.495,2.869-0.631c0.99-0.135,1.979-0.217,2.97-0.244
		c0.99-0.027,1.905-0.041,2.746-0.041c0-1.085-0.386-1.946-1.159-2.584c-0.773-0.637-1.689-0.956-2.747-0.956
		c-1.004,0-1.919,0.21-2.747,0.631c-0.828,0.421-1.566,0.997-2.217,1.729l-3.255-3.336c1.139-1.058,2.468-1.851,3.987-2.38
		c1.519-0.529,3.092-0.793,4.72-0.793c1.79,0,3.261,0.224,4.415,0.671c1.152,0.447,2.075,1.105,2.767,1.973
		c0.692,0.869,1.173,1.933,1.444,3.194c0.271,1.261,0.407,2.72,0.407,4.374v10.05h-5.615V319.464z M117.159,313.28
		c-0.461,0-1.038,0.021-1.729,0.061c-0.692,0.041-1.357,0.156-1.994,0.346c-0.638,0.19-1.18,0.475-1.627,0.854
		c-0.448,0.38-0.671,0.909-0.671,1.587c0,0.732,0.312,1.275,0.936,1.627c0.624,0.353,1.275,0.529,1.953,0.529
		c0.596,0,1.173-0.081,1.729-0.244c0.556-0.163,1.051-0.393,1.485-0.692c0.434-0.298,0.779-0.678,1.038-1.139
		c0.257-0.461,0.386-1.003,0.386-1.627v-1.302H117.159z"/>
	<path fill="#7F7F7F" d="M139.292,307.99c-0.896-1.112-2.075-1.668-3.54-1.668c-0.516,0-1.017,0.122-1.505,0.366
		s-0.732,0.665-0.732,1.261c0,0.488,0.25,0.848,0.753,1.078c0.501,0.231,1.139,0.435,1.912,0.61c0.773,0.177,1.6,0.366,2.482,0.57
		c0.881,0.204,1.709,0.522,2.482,0.956c0.773,0.434,1.41,1.024,1.912,1.77c0.502,0.746,0.753,1.743,0.753,2.99
		c0,1.275-0.278,2.326-0.834,3.153c-0.556,0.828-1.269,1.492-2.136,1.994c-0.868,0.502-1.845,0.854-2.93,1.058
		s-2.156,0.305-3.214,0.305c-1.384,0-2.781-0.197-4.191-0.59c-1.411-0.393-2.604-1.092-3.581-2.096l3.703-4.109
		c0.569,0.706,1.2,1.241,1.892,1.607c0.692,0.366,1.499,0.549,2.421,0.549c0.705,0,1.343-0.102,1.913-0.305
		c0.569-0.204,0.854-0.576,0.854-1.119c0-0.515-0.251-0.901-0.753-1.16c-0.502-0.257-1.139-0.474-1.912-0.651
		c-0.773-0.176-1.601-0.366-2.482-0.57c-0.882-0.203-1.709-0.508-2.482-0.916c-0.773-0.407-1.411-0.982-1.913-1.729
		c-0.502-0.746-0.752-1.743-0.752-2.991c0-1.166,0.237-2.169,0.712-3.011c0.474-0.84,1.099-1.532,1.872-2.075
		c0.773-0.542,1.661-0.942,2.665-1.2c1.003-0.257,2.021-0.386,3.052-0.386c1.302,0,2.617,0.19,3.947,0.569
		c1.329,0.38,2.455,1.058,3.377,2.035L139.292,307.99z"/>
	<path fill="#7F7F7F" d="M146.941,291.187h6.104v18.798l6.754-7.812h7.486l-7.853,8.91l8.056,10.864h-7.69l-6.673-10.009h-0.081
		v10.009h-6.104V291.187z"/>
</g>
<g>
	<path fill="#7F7F7F" d="M103.163,468.593h-5.371v6.591c0,0.543,0.026,1.038,0.081,1.485c0.054,0.447,0.176,0.834,0.366,1.159
		c0.189,0.326,0.481,0.577,0.875,0.753c0.393,0.177,0.916,0.265,1.566,0.265c0.326,0,0.753-0.034,1.282-0.102
		c0.529-0.067,0.929-0.224,1.2-0.468v5.086c-0.678,0.244-1.383,0.407-2.116,0.488s-1.452,0.122-2.156,0.122
		c-1.031,0-1.98-0.109-2.848-0.326c-0.869-0.217-1.628-0.562-2.279-1.038c-0.651-0.474-1.16-1.091-1.526-1.851
		c-0.366-0.759-0.549-1.682-0.549-2.767v-9.399h-3.906v-4.882h3.906v-5.859h6.104v5.859h5.371V468.593z"/>
	<path fill="#7F7F7F" d="M118.664,481.003h-0.081c-0.678,1.058-1.581,1.817-2.706,2.278s-2.312,0.692-3.56,0.692
		c-0.922,0-1.811-0.129-2.665-0.387c-0.854-0.257-1.607-0.644-2.258-1.16c-0.651-0.515-1.167-1.152-1.546-1.912
		c-0.38-0.759-0.569-1.641-0.569-2.645c0-1.139,0.209-2.102,0.63-2.889c0.42-0.786,0.99-1.437,1.709-1.953
		c0.718-0.515,1.539-0.916,2.461-1.2c0.922-0.285,1.878-0.495,2.869-0.631c0.99-0.135,1.979-0.217,2.97-0.244
		c0.99-0.027,1.905-0.041,2.746-0.041c0-1.085-0.386-1.946-1.159-2.584c-0.773-0.637-1.689-0.956-2.747-0.956
		c-1.004,0-1.919,0.21-2.747,0.631c-0.828,0.421-1.566,0.997-2.217,1.729l-3.255-3.336c1.139-1.058,2.468-1.851,3.987-2.38
		c1.519-0.529,3.092-0.793,4.72-0.793c1.79,0,3.261,0.224,4.415,0.671c1.152,0.447,2.075,1.105,2.767,1.973
		c0.692,0.869,1.173,1.933,1.444,3.194c0.271,1.261,0.407,2.72,0.407,4.374v10.05h-5.615V481.003z M117.159,474.818
		c-0.461,0-1.038,0.021-1.729,0.061c-0.692,0.041-1.357,0.156-1.994,0.346c-0.638,0.19-1.18,0.475-1.627,0.854
		c-0.448,0.38-0.671,0.909-0.671,1.587c0,0.732,0.312,1.275,0.936,1.627c0.624,0.353,1.275,0.529,1.953,0.529
		c0.596,0,1.173-0.081,1.729-0.244c0.556-0.163,1.051-0.393,1.485-0.692c0.434-0.298,0.779-0.678,1.038-1.139
		c0.257-0.461,0.386-1.003,0.386-1.627v-1.302H117.159z"/>
	<path fill="#7F7F7F" d="M139.292,469.529c-0.896-1.112-2.075-1.668-3.54-1.668c-0.516,0-1.017,0.122-1.505,0.366
		s-0.732,0.665-0.732,1.261c0,0.488,0.25,0.848,0.753,1.078c0.501,0.231,1.139,0.435,1.912,0.61c0.773,0.177,1.6,0.366,2.482,0.57
		c0.881,0.204,1.709,0.522,2.482,0.956c0.773,0.434,1.41,1.024,1.912,1.77c0.502,0.746,0.753,1.743,0.753,2.99
		c0,1.275-0.278,2.326-0.834,3.153c-0.556,0.828-1.269,1.492-2.136,1.994c-0.868,0.502-1.845,0.854-2.93,1.058
		s-2.156,0.305-3.214,0.305c-1.384,0-2.781-0.197-4.191-0.59c-1.411-0.393-2.604-1.092-3.581-2.096l3.703-4.109
		c0.569,0.706,1.2,1.241,1.892,1.607c0.692,0.366,1.499,0.549,2.421,0.549c0.705,0,1.343-0.102,1.913-0.305
		c0.569-0.204,0.854-0.576,0.854-1.119c0-0.515-0.251-0.901-0.753-1.16c-0.502-0.257-1.139-0.474-1.912-0.651
		c-0.773-0.176-1.601-0.366-2.482-0.57c-0.882-0.203-1.709-0.508-2.482-0.916c-0.773-0.407-1.411-0.982-1.913-1.729
		c-0.502-0.746-0.752-1.743-0.752-2.991c0-1.166,0.237-2.169,0.712-3.011c0.474-0.84,1.099-1.532,1.872-2.075
		c0.773-0.542,1.661-0.942,2.665-1.2c1.003-0.257,2.021-0.386,3.052-0.386c1.302,0,2.617,0.19,3.947,0.569
		c1.329,0.38,2.455,1.058,3.377,2.035L139.292,469.529z"/>
	<path fill="#7F7F7F" d="M146.941,452.725h6.104v18.798l6.754-7.812h7.486l-7.853,8.91l8.056,10.864h-7.69l-6.673-10.009h-0.081
		v10.009h-6.104V452.725z"/>
</g>
<g>
	<path fill="#7F7F7F" d="M103.163,653.209h-5.371v6.591c0,0.543,0.026,1.038,0.081,1.485c0.054,0.447,0.176,0.834,0.366,1.159
		c0.189,0.325,0.481,0.577,0.875,0.753c0.393,0.177,0.916,0.265,1.566,0.265c0.326,0,0.753-0.034,1.282-0.103
		c0.529-0.066,0.929-0.223,1.2-0.467v5.086c-0.678,0.244-1.383,0.406-2.116,0.488c-0.732,0.081-1.452,0.121-2.156,0.121
		c-1.031,0-1.98-0.108-2.848-0.325c-0.869-0.217-1.628-0.562-2.279-1.038c-0.651-0.474-1.16-1.091-1.526-1.851
		c-0.366-0.759-0.549-1.682-0.549-2.767v-9.398h-3.906v-4.883h3.906v-5.859h6.104v5.859h5.371V653.209z"/>
	<path fill="#7F7F7F" d="M118.664,665.618h-0.081c-0.678,1.058-1.581,1.817-2.706,2.278s-2.312,0.691-3.56,0.691
		c-0.922,0-1.811-0.129-2.665-0.387c-0.854-0.257-1.607-0.644-2.258-1.159c-0.651-0.515-1.167-1.152-1.546-1.912
		c-0.38-0.759-0.569-1.641-0.569-2.645c0-1.14,0.209-2.103,0.63-2.89c0.42-0.785,0.99-1.437,1.709-1.952
		c0.718-0.515,1.539-0.915,2.461-1.2c0.922-0.285,1.878-0.494,2.869-0.631c0.99-0.135,1.979-0.217,2.97-0.244
		c0.99-0.027,1.905-0.041,2.746-0.041c0-1.084-0.386-1.945-1.159-2.584c-0.773-0.637-1.689-0.955-2.747-0.955
		c-1.004,0-1.919,0.21-2.747,0.631c-0.828,0.42-1.566,0.996-2.217,1.729l-3.255-3.336c1.139-1.059,2.468-1.852,3.987-2.381
		c1.519-0.529,3.092-0.793,4.72-0.793c1.79,0,3.261,0.224,4.415,0.672c1.152,0.447,2.075,1.105,2.767,1.973
		c0.692,0.869,1.173,1.933,1.444,3.193c0.271,1.262,0.407,2.721,0.407,4.375V668.1h-5.615V665.618z M117.159,659.434
		c-0.461,0-1.038,0.021-1.729,0.061c-0.692,0.041-1.357,0.156-1.994,0.346c-0.638,0.191-1.18,0.476-1.627,0.855
		c-0.448,0.38-0.671,0.908-0.671,1.586c0,0.732,0.312,1.275,0.936,1.628s1.275,0.528,1.953,0.528c0.596,0,1.173-0.08,1.729-0.243
		c0.556-0.163,1.051-0.394,1.485-0.692c0.434-0.298,0.779-0.678,1.038-1.139c0.257-0.461,0.386-1.004,0.386-1.627v-1.303H117.159z"
		/>
	<path fill="#7F7F7F" d="M139.292,654.145c-0.896-1.112-2.075-1.668-3.54-1.668c-0.516,0-1.017,0.121-1.505,0.365
		s-0.732,0.666-0.732,1.262c0,0.488,0.25,0.848,0.753,1.078c0.501,0.23,1.139,0.435,1.912,0.61c0.773,0.177,1.6,0.366,2.482,0.569
		c0.881,0.204,1.709,0.523,2.482,0.957s1.41,1.023,1.912,1.77s0.753,1.743,0.753,2.99c0,1.275-0.278,2.326-0.834,3.153
		c-0.556,0.828-1.269,1.492-2.136,1.993c-0.868,0.503-1.845,0.855-2.93,1.059s-2.156,0.305-3.214,0.305
		c-1.384,0-2.781-0.197-4.191-0.59c-1.411-0.393-2.604-1.092-3.581-2.096l3.703-4.109c0.569,0.706,1.2,1.242,1.892,1.607
		c0.692,0.367,1.499,0.55,2.421,0.55c0.705,0,1.343-0.103,1.913-0.306c0.569-0.203,0.854-0.576,0.854-1.119
		c0-0.515-0.251-0.9-0.753-1.159c-0.502-0.257-1.139-0.474-1.912-0.651c-0.773-0.176-1.601-0.365-2.482-0.569
		c-0.882-0.203-1.709-0.509-2.482-0.915c-0.773-0.407-1.411-0.982-1.913-1.729c-0.502-0.745-0.752-1.743-0.752-2.991
		c0-1.165,0.237-2.169,0.712-3.01c0.474-0.841,1.099-1.533,1.872-2.076c0.773-0.541,1.661-0.941,2.665-1.199
		c1.003-0.258,2.021-0.387,3.052-0.387c1.302,0,2.617,0.189,3.947,0.569c1.329,0.38,2.455,1.058,3.377,2.034L139.292,654.145z"/>
	<path fill="#7F7F7F" d="M146.941,637.34h6.104v18.799l6.754-7.812h7.486l-7.853,8.91l8.056,10.863h-7.69l-6.673-10.009h-0.081
		V668.1h-6.104V637.34z"/>
</g>
<g>
	<path fill="#7F7F7F" d="M737.753,135.408h-5.615v-2.604h-0.081c-0.244,0.353-0.563,0.712-0.956,1.078
		c-0.394,0.366-0.854,0.699-1.384,0.997c-0.529,0.299-1.112,0.542-1.75,0.732c-0.638,0.189-1.295,0.285-1.973,0.285
		c-1.465,0-2.794-0.251-3.987-0.753c-1.194-0.501-2.218-1.207-3.072-2.116c-0.854-0.908-1.512-1.986-1.973-3.234
		c-0.461-1.248-0.692-2.618-0.692-4.109c0-1.384,0.21-2.706,0.631-3.967c0.42-1.261,1.017-2.38,1.79-3.356
		c0.773-0.977,1.715-1.756,2.828-2.34c1.112-0.583,2.373-0.875,3.784-0.875c1.275,0,2.462,0.197,3.56,0.59
		c1.099,0.394,2,1.065,2.706,2.014h0.081v-13.102h6.104V135.408z M732.138,125.521c0-1.491-0.427-2.699-1.281-3.621
		c-0.854-0.922-2.055-1.383-3.601-1.383c-1.546,0-2.747,0.461-3.601,1.383c-0.854,0.922-1.282,2.13-1.282,3.621
		c0,1.492,0.427,2.7,1.282,3.621c0.854,0.923,2.055,1.384,3.601,1.384c1.546,0,2.747-0.461,3.601-1.384
		C731.711,128.22,732.138,127.013,732.138,125.521z"/>
	<path fill="#7F7F7F" d="M755.045,132.926h-0.081c-0.678,1.058-1.581,1.817-2.706,2.278s-2.312,0.692-3.56,0.692
		c-0.922,0-1.811-0.129-2.665-0.387c-0.854-0.257-1.607-0.644-2.258-1.16c-0.651-0.515-1.167-1.152-1.546-1.912
		c-0.38-0.759-0.569-1.641-0.569-2.645c0-1.139,0.209-2.102,0.63-2.889c0.42-0.786,0.99-1.437,1.709-1.953
		c0.718-0.515,1.539-0.916,2.461-1.2c0.922-0.285,1.878-0.495,2.869-0.631c0.99-0.135,1.979-0.217,2.97-0.244
		c0.99-0.027,1.905-0.041,2.746-0.041c0-1.085-0.386-1.946-1.159-2.584c-0.773-0.637-1.689-0.956-2.747-0.956
		c-1.004,0-1.919,0.21-2.747,0.631c-0.828,0.421-1.566,0.997-2.217,1.729l-3.255-3.336c1.139-1.058,2.468-1.851,3.987-2.38
		c1.519-0.529,3.092-0.793,4.72-0.793c1.79,0,3.261,0.224,4.415,0.671c1.152,0.447,2.075,1.105,2.767,1.973
		c0.692,0.869,1.173,1.933,1.444,3.194c0.271,1.261,0.407,2.72,0.407,4.374v10.05h-5.615V132.926z M753.54,126.741
		c-0.461,0-1.038,0.021-1.729,0.061c-0.692,0.041-1.357,0.156-1.994,0.346c-0.638,0.19-1.18,0.475-1.627,0.854
		c-0.448,0.38-0.671,0.909-0.671,1.587c0,0.732,0.312,1.275,0.936,1.627c0.624,0.353,1.275,0.529,1.953,0.529
		c0.596,0,1.173-0.081,1.729-0.244c0.556-0.163,1.051-0.393,1.485-0.692c0.434-0.298,0.779-0.678,1.038-1.139
		c0.257-0.461,0.386-1.003,0.386-1.627v-1.302H753.54z"/>
	<path fill="#7F7F7F" d="M775.876,138.622c-0.407,1.058-0.8,1.994-1.18,2.808c-0.38,0.813-0.861,1.498-1.444,2.055
		c-0.584,0.556-1.323,0.976-2.218,1.261c-0.895,0.285-2.075,0.427-3.54,0.427c-1.574,0-3.092-0.244-4.557-0.732l0.813-5.005
		c0.922,0.407,1.872,0.61,2.848,0.61c0.678,0,1.234-0.075,1.668-0.224c0.434-0.149,0.793-0.366,1.078-0.651s0.522-0.631,0.712-1.038
		c0.189-0.407,0.393-0.882,0.61-1.424l0.448-1.139l-8.667-19.937h6.591l5.086,13.061h0.082l4.354-13.061h6.266L775.876,138.622z"/>
	<path fill="#7F7F7F" d="M798.986,128.938l11.189-10.05c0.57-0.515,1.139-1.099,1.709-1.75c0.57-0.651,0.854-1.41,0.854-2.279
		c0-0.977-0.353-1.742-1.058-2.299c-0.706-0.556-1.533-0.834-2.482-0.834c-1.139,0-2.028,0.353-2.665,1.058
		c-0.637,0.706-0.997,1.573-1.078,2.604l-6.103-0.448c0.082-1.491,0.393-2.787,0.936-3.886c0.542-1.099,1.261-2.014,2.156-2.746
		c0.895-0.732,1.946-1.282,3.153-1.648c1.207-0.366,2.516-0.549,3.926-0.549c1.302,0,2.522,0.183,3.662,0.549
		c1.139,0.366,2.129,0.909,2.97,1.627c0.841,0.719,1.499,1.621,1.974,2.706c0.474,1.085,0.712,2.347,0.712,3.784
		c0,0.922-0.095,1.756-0.285,2.502c-0.19,0.747-0.455,1.424-0.793,2.035c-0.339,0.61-0.739,1.173-1.2,1.688
		c-0.461,0.516-0.963,1.017-1.505,1.505l-8.748,7.527h12.776v5.371h-20.1V128.938z"/>
</g>
<g>
	<path fill="#7F7F7F" d="M1068.138,135.408h-5.615v-2.604h-0.081c-0.244,0.353-0.563,0.712-0.956,1.078
		c-0.394,0.366-0.854,0.699-1.384,0.997c-0.528,0.299-1.112,0.542-1.749,0.732c-0.638,0.189-1.296,0.285-1.974,0.285
		c-1.465,0-2.794-0.251-3.987-0.753c-1.193-0.501-2.218-1.207-3.072-2.116c-0.854-0.908-1.512-1.986-1.973-3.234
		c-0.462-1.248-0.692-2.618-0.692-4.109c0-1.384,0.21-2.706,0.631-3.967s1.018-2.38,1.79-3.356c0.773-0.977,1.716-1.756,2.828-2.34
		c1.112-0.583,2.373-0.875,3.784-0.875c1.274,0,2.462,0.197,3.56,0.59c1.099,0.394,2.001,1.065,2.706,2.014h0.081v-13.102h6.104
		V135.408z M1062.522,125.521c0-1.491-0.427-2.699-1.281-3.621c-0.854-0.922-2.055-1.383-3.601-1.383s-2.747,0.461-3.601,1.383
		c-0.854,0.922-1.282,2.13-1.282,3.621c0,1.492,0.428,2.7,1.282,3.621c0.854,0.923,2.055,1.384,3.601,1.384s2.746-0.461,3.601-1.384
		C1062.096,128.22,1062.522,127.013,1062.522,125.521z"/>
	<path fill="#7F7F7F" d="M1085.43,132.926h-0.081c-0.679,1.058-1.581,1.817-2.706,2.278c-1.126,0.461-2.312,0.692-3.561,0.692
		c-0.922,0-1.811-0.129-2.665-0.387c-0.854-0.257-1.606-0.644-2.258-1.16c-0.651-0.515-1.167-1.152-1.546-1.912
		c-0.38-0.759-0.569-1.641-0.569-2.645c0-1.139,0.209-2.102,0.63-2.889c0.421-0.786,0.99-1.437,1.709-1.953
		c0.719-0.515,1.539-0.916,2.462-1.2c0.922-0.285,1.878-0.495,2.868-0.631c0.99-0.135,1.979-0.217,2.971-0.244
		c0.989-0.027,1.905-0.041,2.746-0.041c0-1.085-0.387-1.946-1.159-2.584c-0.773-0.637-1.689-0.956-2.747-0.956
		c-1.004,0-1.919,0.21-2.746,0.631c-0.828,0.421-1.566,0.997-2.218,1.729l-3.255-3.336c1.14-1.058,2.468-1.851,3.987-2.38
		c1.519-0.529,3.093-0.793,4.72-0.793c1.79,0,3.262,0.224,4.415,0.671c1.152,0.447,2.075,1.105,2.767,1.973
		c0.691,0.869,1.173,1.933,1.444,3.194c0.271,1.261,0.407,2.72,0.407,4.374v10.05h-5.615V132.926z M1083.924,126.741
		c-0.461,0-1.037,0.021-1.729,0.061c-0.692,0.041-1.357,0.156-1.994,0.346c-0.638,0.19-1.18,0.475-1.627,0.854
		c-0.448,0.38-0.672,0.909-0.672,1.587c0,0.732,0.312,1.275,0.936,1.627c0.624,0.353,1.275,0.529,1.953,0.529
		c0.597,0,1.173-0.081,1.729-0.244c0.556-0.163,1.051-0.393,1.485-0.692c0.434-0.298,0.779-0.678,1.037-1.139
		c0.258-0.461,0.387-1.003,0.387-1.627v-1.302H1083.924z"/>
	<path fill="#7F7F7F" d="M1106.261,138.622c-0.406,1.058-0.8,1.994-1.18,2.808c-0.38,0.813-0.861,1.498-1.444,2.055
		c-0.584,0.556-1.322,0.976-2.218,1.261c-0.895,0.285-2.075,0.427-3.539,0.427c-1.574,0-3.093-0.244-4.558-0.732l0.813-5.005
		c0.922,0.407,1.872,0.61,2.849,0.61c0.678,0,1.234-0.075,1.668-0.224c0.434-0.149,0.794-0.366,1.078-0.651
		c0.285-0.285,0.522-0.631,0.712-1.038s0.394-0.882,0.61-1.424l0.448-1.139l-8.667-19.937h6.592l5.086,13.061h0.081l4.354-13.061
		h6.266L1106.261,138.622z"/>
	<path fill="#7F7F7F" d="M1136.166,117.953h1.993c0.57,0,1.125-0.041,1.668-0.122c0.543-0.081,1.038-0.237,1.485-0.468
		c0.447-0.23,0.807-0.556,1.078-0.977c0.271-0.42,0.407-0.969,0.407-1.648c0-0.868-0.346-1.586-1.038-2.156
		c-0.691-0.57-1.539-0.854-2.543-0.854c-0.949,0-1.735,0.258-2.359,0.773c-0.624,0.516-1.031,1.153-1.221,1.913l-6.714-1.383
		c0.326-1.248,0.814-2.312,1.465-3.194c0.651-0.881,1.425-1.593,2.319-2.136c0.896-0.542,1.893-0.942,2.991-1.201
		c1.098-0.257,2.258-0.386,3.479-0.386c1.274,0,2.502,0.156,3.682,0.468c1.181,0.312,2.218,0.8,3.113,1.465
		c0.895,0.665,1.606,1.499,2.136,2.502s0.794,2.197,0.794,3.58c0,1.601-0.421,2.97-1.262,4.11c-0.841,1.139-2.062,1.872-3.662,2.197
		v0.122c0.868,0.109,1.634,0.366,2.299,0.773c0.664,0.407,1.228,0.909,1.688,1.505s0.814,1.275,1.058,2.034
		c0.244,0.76,0.366,1.56,0.366,2.4c0,1.438-0.278,2.7-0.834,3.784c-0.556,1.085-1.302,1.987-2.237,2.706
		c-0.936,0.719-2.034,1.255-3.296,1.607c-1.262,0.352-2.598,0.529-4.008,0.529c-2.577,0-4.795-0.596-6.652-1.79
		c-1.858-1.193-3.086-3.079-3.683-5.656l6.429-1.505c0.217,1.031,0.658,1.845,1.322,2.441c0.665,0.597,1.648,0.896,2.95,0.896
		c1.329,0,2.312-0.346,2.95-1.038c0.637-0.692,0.956-1.58,0.956-2.665c0-0.814-0.17-1.444-0.509-1.892
		c-0.34-0.448-0.78-0.779-1.322-0.997c-0.543-0.217-1.153-0.346-1.831-0.387c-0.679-0.041-1.356-0.061-2.034-0.061h-1.424V117.953z"
		/>
</g>
<g>
	<path fill="#7F7F7F" d="M1400.83,135.408h-5.615v-2.604h-0.081c-0.244,0.353-0.563,0.712-0.956,1.078
		c-0.394,0.366-0.854,0.699-1.384,0.997c-0.528,0.299-1.112,0.542-1.749,0.732c-0.638,0.189-1.296,0.285-1.974,0.285
		c-1.465,0-2.794-0.251-3.987-0.753c-1.193-0.501-2.218-1.207-3.072-2.116c-0.854-0.908-1.512-1.986-1.973-3.234
		c-0.462-1.248-0.692-2.618-0.692-4.109c0-1.384,0.21-2.706,0.631-3.967s1.018-2.38,1.79-3.356c0.773-0.977,1.716-1.756,2.828-2.34
		c1.112-0.583,2.373-0.875,3.784-0.875c1.274,0,2.462,0.197,3.56,0.59c1.099,0.394,2.001,1.065,2.706,2.014h0.081v-13.102h6.104
		V135.408z M1395.215,125.521c0-1.491-0.427-2.699-1.281-3.621c-0.854-0.922-2.055-1.383-3.601-1.383s-2.747,0.461-3.601,1.383
		c-0.854,0.922-1.282,2.13-1.282,3.621c0,1.492,0.428,2.7,1.282,3.621c0.854,0.923,2.055,1.384,3.601,1.384s2.746-0.461,3.601-1.384
		C1394.788,128.22,1395.215,127.013,1395.215,125.521z"/>
	<path fill="#7F7F7F" d="M1418.122,132.926h-0.081c-0.679,1.058-1.581,1.817-2.706,2.278c-1.126,0.461-2.312,0.692-3.561,0.692
		c-0.922,0-1.811-0.129-2.665-0.387c-0.854-0.257-1.606-0.644-2.258-1.16c-0.651-0.515-1.167-1.152-1.546-1.912
		c-0.38-0.759-0.569-1.641-0.569-2.645c0-1.139,0.209-2.102,0.63-2.889c0.421-0.786,0.99-1.437,1.709-1.953
		c0.719-0.515,1.539-0.916,2.462-1.2c0.922-0.285,1.878-0.495,2.868-0.631c0.99-0.135,1.979-0.217,2.971-0.244
		c0.989-0.027,1.905-0.041,2.746-0.041c0-1.085-0.387-1.946-1.159-2.584c-0.773-0.637-1.689-0.956-2.747-0.956
		c-1.004,0-1.919,0.21-2.746,0.631c-0.828,0.421-1.566,0.997-2.218,1.729l-3.255-3.336c1.14-1.058,2.468-1.851,3.987-2.38
		c1.519-0.529,3.093-0.793,4.72-0.793c1.79,0,3.262,0.224,4.415,0.671c1.152,0.447,2.075,1.105,2.767,1.973
		c0.691,0.869,1.173,1.933,1.444,3.194c0.271,1.261,0.407,2.72,0.407,4.374v10.05h-5.615V132.926z M1416.616,126.741
		c-0.461,0-1.037,0.021-1.729,0.061c-0.692,0.041-1.357,0.156-1.994,0.346c-0.638,0.19-1.18,0.475-1.627,0.854
		c-0.448,0.38-0.672,0.909-0.672,1.587c0,0.732,0.312,1.275,0.936,1.627c0.624,0.353,1.275,0.529,1.953,0.529
		c0.597,0,1.173-0.081,1.729-0.244c0.556-0.163,1.051-0.393,1.485-0.692c0.434-0.298,0.779-0.678,1.037-1.139
		c0.258-0.461,0.387-1.003,0.387-1.627v-1.302H1416.616z"/>
	<path fill="#7F7F7F" d="M1438.953,138.622c-0.406,1.058-0.8,1.994-1.18,2.808c-0.38,0.813-0.861,1.498-1.444,2.055
		c-0.584,0.556-1.322,0.976-2.218,1.261c-0.895,0.285-2.075,0.427-3.539,0.427c-1.574,0-3.093-0.244-4.558-0.732l0.813-5.005
		c0.922,0.407,1.872,0.61,2.849,0.61c0.678,0,1.234-0.075,1.668-0.224c0.434-0.149,0.794-0.366,1.078-0.651
		c0.285-0.285,0.522-0.631,0.712-1.038s0.394-0.882,0.61-1.424l0.448-1.139l-8.667-19.937h6.592l5.086,13.061h0.081l4.354-13.061
		h6.266L1438.953,138.622z"/>
	<path fill="#7F7F7F" d="M1473.618,129.63h-12.572v-5.126l11.759-17.902h6.673v17.902h3.702v5.126h-3.702v5.778h-5.859V129.63z
		 M1473.618,114.576h-0.081l-6.388,9.928h6.469V114.576z"/>
</g>
<circle fill="#FFFFFF" cx="420.385" cy="297.846" r="15.385"/>
<circle fill="#FFFFFF" cx="764.385" cy="297.846" r="15.385"/>
<line fill="none" stroke="#FCFCFC" stroke-width="7" stroke-miterlimit="10" x1="420" y1="298.5" x2="764" y2="298.5"/>
<circle fill="#FFFFFF" cx="1102.385" cy="667.846" r="15.385"/>
<circle fill="#FFFFFF" cx="1416.385" cy="667.846" r="15.385"/>
<line fill="none" stroke="#FCFCFC" stroke-width="7" stroke-miterlimit="10" x1="1102" y1="668.5" x2="1416" y2="668.5"/>
<circle fill="#FFFFFF" cx="674.385" cy="467.846" r="15.385"/>
<circle fill="#FFFFFF" cx="1087.385" cy="467.846" r="15.385"/>
<line fill="none" stroke="#FCFCFC" stroke-width="7" stroke-miterlimit="10" x1="674" y1="468.5" x2="1087" y2="468.5"/>
<g>
</g>
<g>
</g>
<g>
</g>
<g>
</g>
<g>
</g>
<g>
</g>
<g>
</g>
<g>
</g>
<g>
</g>
<g>
</g>
<g>
</g>
<g>
</g>
<g>
</g>
<g>
</g>
<g>
</g>
</svg>
