<svg xmlns="http://www.w3.org/2000/svg" width="1595" height="540" viewBox="0 0 1595 540"><path d="M0 0h1595v540H0z"/><g fill="#7F7F7F"><path d="M276.796 116.634h6.51l4.028 12.41h.082l3.377-12.41h6.673l3.662 12.41h.081l3.703-12.41h6.185l-7.039 19.774h-6.021l-4.11-13.142h-.081l-3.662 13.142h-6.144l-7.244-19.774zM331.765 132.99c-.977 1.248-2.211 2.211-3.703 2.889s-3.038 1.017-4.638 1.017c-1.52 0-2.95-.244-4.292-.732s-2.509-1.187-3.499-2.095c-.991-.909-1.77-2-2.34-3.275-.569-1.275-.854-2.699-.854-4.272 0-1.573.285-2.997.854-4.272a9.828 9.828 0 0 1 2.34-3.275c.99-.909 2.156-1.607 3.499-2.095 1.343-.488 2.773-.732 4.292-.732 1.41 0 2.692.244 3.845.732a8.013 8.013 0 0 1 2.929 2.095c.8.909 1.417 2 1.852 3.275.434 1.275.651 2.699.651 4.272v1.913h-14.159c.244 1.167.773 2.095 1.586 2.787.814.691 1.817 1.038 3.011 1.038 1.003 0 1.851-.224 2.543-.671a6.869 6.869 0 0 0 1.811-1.729l4.272 3.13zm-5.167-8.707c.026-1.03-.312-1.912-1.018-2.645-.706-.732-1.614-1.099-2.726-1.099-.678 0-1.275.109-1.79.326a4.476 4.476 0 0 0-1.322.834 3.646 3.646 0 0 0-.854 1.18 3.876 3.876 0 0 0-.346 1.404h8.056zM355.119 132.99c-.977 1.248-2.211 2.211-3.703 2.889s-3.038 1.017-4.638 1.017c-1.52 0-2.95-.244-4.292-.732s-2.509-1.187-3.499-2.095c-.991-.909-1.77-2-2.34-3.275-.569-1.275-.854-2.699-.854-4.272 0-1.573.285-2.997.854-4.272a9.828 9.828 0 0 1 2.34-3.275c.99-.909 2.156-1.607 3.499-2.095 1.343-.488 2.773-.732 4.292-.732 1.41 0 2.692.244 3.845.732a8.013 8.013 0 0 1 2.929 2.095c.8.909 1.417 2 1.852 3.275.434 1.275.651 2.699.651 4.272v1.913h-14.159c.244 1.167.773 2.095 1.586 2.787.814.691 1.817 1.038 3.011 1.038 1.003 0 1.851-.224 2.543-.671a6.869 6.869 0 0 0 1.811-1.729l4.272 3.13zm-5.167-8.707c.026-1.03-.312-1.912-1.018-2.645-.706-.732-1.614-1.099-2.726-1.099-.678 0-1.275.109-1.79.326a4.476 4.476 0 0 0-1.322.834 3.646 3.646 0 0 0-.854 1.18 3.876 3.876 0 0 0-.346 1.404h8.056zM359.757 105.648h6.104v18.798l6.754-7.812h7.486l-7.853 8.91 8.056 10.864h-7.69l-6.673-10.009h-.081v10.009h-6.104v-30.76zM413.302 112.972h-11.434l-.122 4.435c.624-.217 1.479-.326 2.563-.326 1.465 0 2.808.217 4.028.651 1.22.435 2.271 1.065 3.153 1.892a8.566 8.566 0 0 1 2.055 3.011c.488 1.18.732 2.502.732 3.967 0 1.627-.278 3.079-.834 4.354-.556 1.275-1.322 2.354-2.299 3.235s-2.136 1.553-3.479 2.014c-1.343.461-2.801.692-4.374.692-2.496 0-4.584-.61-6.266-1.831-1.682-1.221-2.834-3.065-3.458-5.533l6.388-1.465c.163 1.031.596 1.865 1.302 2.502.705.638 1.587.957 2.645.957 1.302 0 2.339-.407 3.112-1.221.773-.814 1.16-1.844 1.16-3.092 0-.949-.197-1.729-.59-2.339a4.457 4.457 0 0 0-1.546-1.465 6.472 6.472 0 0 0-2.136-.753 13.94 13.94 0 0 0-2.36-.204 16.56 16.56 0 0 0-3.031.285 20.86 20.86 0 0 0-2.95.773l.325-15.909h17.415v5.37z"/></g><g fill="#FFF"><path d="M223.156 356.457h5.859v2.685h.081a4.93 4.93 0 0 1 .814-1.139 5.949 5.949 0 0 1 1.261-1.017 7.224 7.224 0 0 1 1.668-.732 6.99 6.99 0 0 1 2.035-.285c1.383 0 2.61.285 3.682.854 1.071.569 1.878 1.464 2.421 2.685.705-1.274 1.56-2.183 2.563-2.726 1.003-.542 2.238-.813 3.703-.813 1.329 0 2.447.224 3.356.671.909.447 1.627 1.058 2.157 1.831.529.773.908 1.682 1.139 2.726.23 1.044.346 2.164.346 3.357v11.677h-6.103v-11.515c0-.922-.197-1.715-.59-2.38-.394-.664-1.092-.997-2.096-.997-.706 0-1.295.116-1.77.346a2.916 2.916 0 0 0-1.139.956 3.976 3.976 0 0 0-.61 1.424 7.772 7.772 0 0 0-.183 1.709v10.457h-6.103v-10.457c0-.353-.014-.787-.041-1.302a5.196 5.196 0 0 0-.285-1.465c-.163-.461-.427-.854-.793-1.18s-.902-.488-1.607-.488c-.787 0-1.424.143-1.912.427s-.862.665-1.119 1.139a4.648 4.648 0 0 0-.508 1.607c-.082.597-.122 1.22-.122 1.872v9.846h-6.104v-19.773zM258.147 350.231c0-.976.346-1.811 1.038-2.502.692-.692 1.526-1.038 2.502-1.038s1.811.346 2.502 1.038a3.408 3.408 0 0 1 1.038 2.502c0 .977-.346 1.811-1.038 2.502-.691.692-1.525 1.038-2.502 1.038s-1.811-.346-2.502-1.038a3.407 3.407 0 0 1-1.038-2.502zm.488 6.226h6.103v19.774h-6.103v-19.774zM269.214 345.471h6.103v30.76h-6.103v-30.76zM298.427 372.812c-.977 1.248-2.211 2.211-3.703 2.889s-3.038 1.017-4.638 1.017c-1.52 0-2.95-.244-4.292-.732s-2.509-1.187-3.499-2.095c-.991-.909-1.77-2-2.34-3.275-.569-1.275-.854-2.699-.854-4.272 0-1.573.285-2.997.854-4.272a9.828 9.828 0 0 1 2.34-3.275c.99-.909 2.156-1.607 3.499-2.095 1.343-.488 2.773-.732 4.292-.732 1.41 0 2.692.244 3.845.732a8.013 8.013 0 0 1 2.929 2.095c.8.909 1.417 2 1.852 3.275.434 1.275.651 2.699.651 4.272v1.913h-14.159c.244 1.167.773 2.095 1.586 2.787.814.691 1.817 1.038 3.011 1.038 1.003 0 1.851-.224 2.543-.671a6.869 6.869 0 0 0 1.811-1.729l4.272 3.13zm-5.167-8.707c.026-1.03-.312-1.912-1.018-2.645-.706-.732-1.614-1.099-2.726-1.099-.678 0-1.275.109-1.79.326a4.476 4.476 0 0 0-1.322.834 3.646 3.646 0 0 0-.854 1.18 3.876 3.876 0 0 0-.346 1.404h8.056zM314.254 362.274c-.896-1.112-2.075-1.668-3.54-1.668-.516 0-1.017.122-1.505.366s-.732.665-.732 1.261c0 .488.25.848.753 1.078.501.231 1.139.435 1.912.61.773.177 1.6.366 2.482.57a9.351 9.351 0 0 1 2.482.956 5.556 5.556 0 0 1 1.912 1.77c.502.746.753 1.743.753 2.99 0 1.275-.278 2.326-.834 3.153a6.402 6.402 0 0 1-2.136 1.994c-.868.502-1.845.854-2.93 1.058s-2.156.305-3.214.305c-1.384 0-2.781-.197-4.191-.59-1.411-.393-2.604-1.092-3.581-2.096l3.703-4.109c.569.706 1.2 1.241 1.892 1.607.692.366 1.499.549 2.421.549.705 0 1.343-.102 1.913-.305.569-.204.854-.576.854-1.119 0-.515-.251-.901-.753-1.16-.502-.257-1.139-.474-1.912-.651a692.94 692.94 0 0 1-2.482-.57 10.184 10.184 0 0 1-2.482-.916 5.188 5.188 0 0 1-1.913-1.729c-.502-.746-.752-1.743-.752-2.991 0-1.166.237-2.169.712-3.011a6.263 6.263 0 0 1 1.872-2.075c.773-.542 1.661-.942 2.665-1.2a12.253 12.253 0 0 1 3.052-.386c1.302 0 2.617.19 3.947.569 1.329.38 2.455 1.058 3.377 2.035l-3.745 3.705zM335.371 361.339H330v6.591c0 .543.026 1.038.081 1.485.054.447.176.834.366 1.159.189.326.481.577.875.753.393.177.916.265 1.566.265.326 0 .753-.034 1.282-.102.529-.067.929-.224 1.2-.468v5.086c-.678.244-1.383.407-2.116.488s-1.452.122-2.156.122c-1.031 0-1.98-.109-2.848-.326-.869-.217-1.628-.562-2.279-1.038a4.848 4.848 0 0 1-1.526-1.851c-.366-.759-.549-1.682-.549-2.767v-9.399h-3.906v-4.882h3.906v-5.859H330v5.859h5.371v4.884zM337.73 366.343c0-1.573.285-2.997.854-4.272a9.828 9.828 0 0 1 2.34-3.275c.99-.909 2.156-1.607 3.499-2.095 1.343-.488 2.773-.732 4.292-.732 1.519 0 2.95.244 4.292.732 1.343.488 2.509 1.187 3.499 2.095.99.909 1.77 2 2.34 3.275.569 1.275.854 2.699.854 4.272 0 1.574-.285 2.998-.854 4.272-.57 1.275-1.35 2.367-2.34 3.275s-2.156 1.607-3.499 2.095-2.773.732-4.292.732c-1.52 0-2.95-.244-4.292-.732s-2.509-1.187-3.499-2.095c-.991-.909-1.77-2-2.34-3.275-.568-1.274-.854-2.698-.854-4.272zm6.104 0c0 1.492.427 2.7 1.282 3.621.854.923 2.055 1.384 3.601 1.384 1.546 0 2.747-.461 3.601-1.384.854-.921 1.281-2.129 1.281-3.621 0-1.491-.427-2.699-1.281-3.621-.854-.922-2.055-1.383-3.601-1.383-1.546 0-2.747.461-3.601 1.383-.855.923-1.282 2.13-1.282 3.621zM363.282 356.457h5.859v2.685h.081a4.93 4.93 0 0 1 .814-1.139 5.949 5.949 0 0 1 1.261-1.017 7.224 7.224 0 0 1 1.668-.732 6.99 6.99 0 0 1 2.035-.285c1.546 0 2.793.238 3.743.712.949.475 1.688 1.133 2.217 1.973.529.841.888 1.831 1.079 2.97.189 1.139.285 2.374.285 3.703v10.904h-6.103v-9.684c0-.57-.021-1.16-.061-1.77a5.602 5.602 0 0 0-.366-1.688 2.92 2.92 0 0 0-.936-1.261c-.421-.326-1.024-.488-1.811-.488-.787 0-1.424.143-1.912.427s-.862.665-1.119 1.139a4.648 4.648 0 0 0-.508 1.607c-.082.597-.122 1.22-.122 1.872v9.846h-6.104v-19.774zM405.352 372.812c-.977 1.248-2.211 2.211-3.703 2.889s-3.038 1.017-4.638 1.017c-1.52 0-2.95-.244-4.292-.732s-2.509-1.187-3.499-2.095c-.991-.909-1.77-2-2.34-3.275-.569-1.275-.854-2.699-.854-4.272 0-1.573.285-2.997.854-4.272a9.828 9.828 0 0 1 2.34-3.275c.99-.909 2.156-1.607 3.499-2.095 1.343-.488 2.773-.732 4.292-.732 1.41 0 2.692.244 3.845.732a8.013 8.013 0 0 1 2.929 2.095c.8.909 1.417 2 1.852 3.275.434 1.275.651 2.699.651 4.272v1.913h-14.159c.244 1.167.773 2.095 1.586 2.787.814.691 1.817 1.038 3.011 1.038 1.003 0 1.851-.224 2.543-.671a6.869 6.869 0 0 0 1.811-1.729l4.272 3.13zm-5.167-8.707c.026-1.03-.312-1.912-1.018-2.645-.706-.732-1.614-1.099-2.726-1.099-.678 0-1.275.109-1.79.326a4.476 4.476 0 0 0-1.322.834 3.646 3.646 0 0 0-.854 1.18 3.876 3.876 0 0 0-.346 1.404h8.056zM431.595 354.259l-5.777 5.086-3.458-3.987 9.399-7.934h5.696v28.807h-5.859v-21.972z"/></g><g fill="#FFF"><path d="M893.156 356.457h5.859v2.685h.081c.189-.379.461-.759.813-1.139a5.955 5.955 0 0 1 1.262-1.017 7.224 7.224 0 0 1 1.668-.732 6.988 6.988 0 0 1 2.034-.285c1.384 0 2.61.285 3.683.854 1.071.569 1.878 1.464 2.421 2.685.705-1.274 1.56-2.183 2.563-2.726 1.003-.542 2.237-.813 3.702-.813 1.329 0 2.447.224 3.356.671.909.447 1.628 1.058 2.157 1.831.528.773.908 1.682 1.139 2.726.23 1.044.346 2.164.346 3.357v11.677h-6.103v-11.515c0-.922-.197-1.715-.59-2.38-.394-.664-1.093-.997-2.096-.997-.706 0-1.296.116-1.771.346a2.916 2.916 0 0 0-1.139.956 3.976 3.976 0 0 0-.61 1.424 7.771 7.771 0 0 0-.184 1.709v10.457h-6.103v-10.457c0-.353-.015-.787-.041-1.302a5.196 5.196 0 0 0-.285-1.465c-.162-.461-.427-.854-.793-1.18s-.902-.488-1.607-.488c-.787 0-1.424.143-1.912.427s-.861.665-1.119 1.139a4.648 4.648 0 0 0-.508 1.607c-.082.597-.122 1.22-.122 1.872v9.846h-6.104v-19.773zM928.147 350.231c0-.976.346-1.811 1.037-2.502.692-.692 1.526-1.038 2.503-1.038s1.811.346 2.502 1.038a3.411 3.411 0 0 1 1.037 2.502 3.41 3.41 0 0 1-1.037 2.502c-.691.692-1.525 1.038-2.502 1.038s-1.811-.346-2.503-1.038a3.41 3.41 0 0 1-1.037-2.502zm.489 6.226h6.103v19.774h-6.103v-19.774zM939.214 345.471h6.104v30.76h-6.104v-30.76zM968.428 372.812c-.977 1.248-2.211 2.211-3.703 2.889a11.09 11.09 0 0 1-4.638 1.017c-1.52 0-2.95-.244-4.293-.732s-2.509-1.187-3.499-2.095-1.77-2-2.34-3.275c-.569-1.275-.854-2.699-.854-4.272 0-1.573.285-2.997.854-4.272a9.842 9.842 0 0 1 2.34-3.275c.99-.909 2.156-1.607 3.499-2.095 1.343-.488 2.773-.732 4.293-.732 1.41 0 2.691.244 3.845.732a8.025 8.025 0 0 1 2.93 2.095c.8.909 1.417 2 1.852 3.275.434 1.275.65 2.699.65 4.272v1.913h-14.159c.244 1.167.773 2.095 1.587 2.787.813.691 1.817 1.038 3.011 1.038 1.003 0 1.852-.224 2.543-.671a6.869 6.869 0 0 0 1.811-1.729l4.271 3.13zm-5.167-8.707c.026-1.03-.312-1.912-1.018-2.645-.706-.732-1.614-1.099-2.727-1.099-.678 0-1.274.109-1.79.326a4.476 4.476 0 0 0-1.322.834 3.66 3.66 0 0 0-.854 1.18 3.896 3.896 0 0 0-.346 1.404h8.057zM984.255 362.274c-.896-1.112-2.075-1.668-3.54-1.668-.516 0-1.018.122-1.506.366s-.732.665-.732 1.261c0 .488.251.848.753 1.078.502.231 1.14.435 1.912.61.773.177 1.601.366 2.482.57a9.332 9.332 0 0 1 2.481.956 5.556 5.556 0 0 1 1.912 1.77c.502.746.753 1.743.753 2.99 0 1.275-.278 2.326-.834 3.153a6.402 6.402 0 0 1-2.136 1.994c-.868.502-1.845.854-2.93 1.058s-2.156.305-3.214.305c-1.384 0-2.781-.197-4.191-.59-1.41-.393-2.604-1.092-3.58-2.096l3.702-4.109c.569.706 1.2 1.241 1.892 1.607.692.366 1.499.549 2.421.549.705 0 1.343-.102 1.913-.305.569-.204.854-.576.854-1.119 0-.515-.251-.901-.753-1.16-.502-.257-1.14-.474-1.912-.651-.773-.176-1.602-.366-2.482-.57a10.161 10.161 0 0 1-2.481-.916 5.188 5.188 0 0 1-1.913-1.729c-.502-.746-.752-1.743-.752-2.991 0-1.166.236-2.169.712-3.011a6.271 6.271 0 0 1 1.871-2.075c.773-.542 1.661-.942 2.665-1.2a12.259 12.259 0 0 1 3.052-.386c1.302 0 2.617.19 3.947.569a7.328 7.328 0 0 1 3.377 2.035l-3.743 3.705zM1005.371 361.339h-5.37v6.591c0 .543.026 1.038.081 1.485.054.447.176.834.366 1.159.189.326.481.577.875.753.393.177.915.265 1.566.265.325 0 .753-.034 1.281-.102.529-.067.929-.224 1.2-.468v5.086c-.678.244-1.383.407-2.115.488s-1.452.122-2.156.122c-1.031 0-1.98-.109-2.849-.326s-1.628-.562-2.278-1.038a4.848 4.848 0 0 1-1.526-1.851c-.366-.759-.549-1.682-.549-2.767v-9.399h-3.906v-4.882h3.906v-5.859h6.104v5.859h5.37v4.884zM1007.73 366.343c0-1.573.285-2.997.854-4.272a9.842 9.842 0 0 1 2.34-3.275c.99-.909 2.156-1.607 3.499-2.095 1.343-.488 2.773-.732 4.293-.732 1.519 0 2.949.244 4.292.732s2.509 1.187 3.499 2.095c.99.909 1.771 2 2.34 3.275s.854 2.699.854 4.272c0 1.574-.285 2.998-.854 4.272-.569 1.275-1.35 2.367-2.34 3.275s-2.156 1.607-3.499 2.095-2.773.732-4.292.732c-1.52 0-2.95-.244-4.293-.732s-2.509-1.187-3.499-2.095-1.77-2-2.34-3.275c-.568-1.274-.854-2.698-.854-4.272zm6.104 0c0 1.492.428 2.7 1.282 3.621.854.923 2.055 1.384 3.601 1.384s2.746-.461 3.601-1.384c.854-.921 1.281-2.129 1.281-3.621 0-1.491-.427-2.699-1.281-3.621-.854-.922-2.055-1.383-3.601-1.383s-2.747.461-3.601 1.383c-.854.923-1.282 2.13-1.282 3.621zM1033.282 356.457h5.859v2.685h.081c.189-.379.461-.759.813-1.139a5.955 5.955 0 0 1 1.262-1.017 7.224 7.224 0 0 1 1.668-.732 6.988 6.988 0 0 1 2.034-.285c1.546 0 2.794.238 3.743.712.949.475 1.688 1.133 2.218 1.973.529.841.888 1.831 1.078 2.97.189 1.139.285 2.374.285 3.703v10.904h-6.104v-9.684c0-.57-.021-1.16-.061-1.77a5.602 5.602 0 0 0-.366-1.688c-.204-.515-.516-.936-.937-1.261s-1.023-.488-1.811-.488-1.424.143-1.912.427-.861.665-1.119 1.139a4.648 4.648 0 0 0-.508 1.607c-.082.597-.122 1.22-.122 1.872v9.846h-6.104v-19.774zM1075.353 372.812c-.977 1.248-2.211 2.211-3.703 2.889a11.09 11.09 0 0 1-4.638 1.017c-1.52 0-2.95-.244-4.293-.732s-2.509-1.187-3.499-2.095-1.77-2-2.34-3.275c-.569-1.275-.854-2.699-.854-4.272 0-1.573.285-2.997.854-4.272a9.842 9.842 0 0 1 2.34-3.275c.99-.909 2.156-1.607 3.499-2.095 1.343-.488 2.773-.732 4.293-.732 1.41 0 2.691.244 3.845.732a8.025 8.025 0 0 1 2.93 2.095c.8.909 1.417 2 1.852 3.275.434 1.275.65 2.699.65 4.272v1.913h-14.159c.244 1.167.773 2.095 1.587 2.787.813.691 1.817 1.038 3.011 1.038 1.003 0 1.852-.224 2.543-.671a6.869 6.869 0 0 0 1.811-1.729l4.271 3.13zm-5.167-8.707c.026-1.03-.312-1.912-1.018-2.645-.706-.732-1.614-1.099-2.727-1.099-.678 0-1.274.109-1.79.326a4.476 4.476 0 0 0-1.322.834 3.66 3.66 0 0 0-.854 1.18 3.896 3.896 0 0 0-.346 1.404h8.057zM1091.871 369.761l11.188-10.05c.57-.515 1.14-1.099 1.709-1.75a3.35 3.35 0 0 0 .854-2.279c0-.977-.353-1.742-1.058-2.299-.706-.556-1.533-.834-2.482-.834-1.139 0-2.027.353-2.665 1.058-.637.706-.996 1.573-1.078 2.604l-6.103-.448c.081-1.491.393-2.787.936-3.886a8.162 8.162 0 0 1 2.156-2.746c.896-.732 1.946-1.282 3.153-1.648s2.516-.549 3.927-.549c1.302 0 2.522.183 3.662.549 1.139.366 2.129.909 2.97 1.627.841.719 1.498 1.621 1.974 2.706.474 1.085.712 2.347.712 3.784 0 .922-.096 1.756-.285 2.502a8.437 8.437 0 0 1-.793 2.035 9.333 9.333 0 0 1-1.2 1.688 19.8 19.8 0 0 1-1.506 1.505l-8.748 7.527h12.776v5.371h-20.1v-6.467z"/></g><g fill="#FFF"><path d="M1321.872 372.812c-.977 1.248-2.211 2.211-3.702 2.889a11.094 11.094 0 0 1-4.639 1.017c-1.52 0-2.949-.244-4.292-.732s-2.51-1.187-3.499-2.095a9.814 9.814 0 0 1-2.34-3.275c-.569-1.275-.854-2.699-.854-4.272 0-1.573.285-2.997.854-4.272a9.814 9.814 0 0 1 2.34-3.275c.989-.909 2.156-1.607 3.499-2.095 1.343-.488 2.772-.732 4.292-.732 1.41 0 2.692.244 3.846.732a8.013 8.013 0 0 1 2.929 2.095c.8.909 1.417 2 1.852 3.275.434 1.275.651 2.699.651 4.272v1.913h-14.159c.244 1.167.772 2.095 1.586 2.787.814.691 1.817 1.038 3.012 1.038 1.003 0 1.851-.224 2.543-.671a6.869 6.869 0 0 0 1.811-1.729l4.27 3.13zm-5.167-8.707c.026-1.03-.312-1.912-1.018-2.645s-1.613-1.099-2.726-1.099c-.679 0-1.275.109-1.79.326a4.476 4.476 0 0 0-1.322.834 3.646 3.646 0 0 0-.854 1.18 3.876 3.876 0 0 0-.346 1.404h8.056zM1326.51 356.457h5.859v2.685h.081a4.93 4.93 0 0 1 .814-1.139 5.924 5.924 0 0 1 1.261-1.017 7.224 7.224 0 0 1 1.668-.732 6.994 6.994 0 0 1 2.035-.285c1.546 0 2.793.238 3.743.712.949.475 1.688 1.133 2.217 1.973.529.841.889 1.831 1.079 2.97a22.66 22.66 0 0 1 .284 3.703v10.904h-6.103v-9.684c0-.57-.021-1.16-.062-1.77s-.163-1.173-.366-1.688a2.913 2.913 0 0 0-.936-1.261c-.421-.326-1.024-.488-1.811-.488-.787 0-1.424.143-1.912.427s-.862.665-1.119 1.139c-.258.475-.428 1.011-.509 1.607s-.122 1.22-.122 1.872v9.846h-6.104v-19.774zM1370.615 376.23H1365v-2.604h-.081a6.726 6.726 0 0 1-.956 1.078 7.22 7.22 0 0 1-1.384.997 8.423 8.423 0 0 1-1.749.732 6.914 6.914 0 0 1-1.974.285c-1.465 0-2.794-.251-3.987-.753a8.878 8.878 0 0 1-3.072-2.116c-.854-.908-1.512-1.986-1.973-3.234-.462-1.248-.692-2.618-.692-4.109 0-1.384.21-2.706.631-3.967s1.018-2.38 1.79-3.356a8.752 8.752 0 0 1 2.828-2.34c1.112-.583 2.373-.875 3.784-.875 1.274 0 2.462.197 3.56.59a5.702 5.702 0 0 1 2.706 2.014h.081V345.47h6.104v30.76zm-5.615-9.887c0-1.491-.427-2.699-1.281-3.621-.854-.922-2.055-1.383-3.601-1.383s-2.747.461-3.601 1.383c-.854.922-1.282 2.13-1.282 3.621 0 1.492.428 2.7 1.282 3.621.854.923 2.055 1.384 3.601 1.384s2.746-.461 3.601-1.384c.854-.921 1.281-2.129 1.281-3.621z"/></g><g fill="#7F7F7F"><path d="M615.643 115.634h6.51l4.028 12.41h.082l3.377-12.41h6.673l3.662 12.41h.081l3.703-12.41h6.185l-7.039 19.774h-6.021l-4.11-13.142h-.081l-3.662 13.142h-6.144l-7.244-19.774zM670.611 131.99c-.977 1.248-2.211 2.211-3.703 2.889s-3.038 1.017-4.638 1.017c-1.52 0-2.95-.244-4.292-.732s-2.509-1.187-3.499-2.095c-.991-.909-1.77-2-2.34-3.275-.569-1.275-.854-2.699-.854-4.272 0-1.573.285-2.997.854-4.272a9.828 9.828 0 0 1 2.34-3.275c.99-.909 2.156-1.607 3.499-2.095 1.343-.488 2.773-.732 4.292-.732 1.41 0 2.692.244 3.845.732a8.013 8.013 0 0 1 2.929 2.095c.8.909 1.417 2 1.852 3.275.434 1.275.651 2.699.651 4.272v1.913h-14.159c.244 1.167.773 2.095 1.586 2.787.814.691 1.817 1.038 3.011 1.038 1.003 0 1.851-.224 2.543-.671a6.869 6.869 0 0 0 1.811-1.729l4.272 3.13zm-5.167-8.707c.026-1.03-.312-1.912-1.018-2.645-.706-.732-1.614-1.099-2.726-1.099-.678 0-1.275.109-1.79.326a4.476 4.476 0 0 0-1.322.834 3.646 3.646 0 0 0-.854 1.18 3.876 3.876 0 0 0-.346 1.404h8.056zM693.965 131.99c-.977 1.248-2.211 2.211-3.703 2.889s-3.038 1.017-4.638 1.017c-1.52 0-2.95-.244-4.292-.732s-2.509-1.187-3.499-2.095c-.991-.909-1.77-2-2.34-3.275-.569-1.275-.854-2.699-.854-4.272 0-1.573.285-2.997.854-4.272a9.828 9.828 0 0 1 2.34-3.275c.99-.909 2.156-1.607 3.499-2.095 1.343-.488 2.773-.732 4.292-.732 1.41 0 2.692.244 3.845.732a8.013 8.013 0 0 1 2.929 2.095c.8.909 1.417 2 1.852 3.275.434 1.275.651 2.699.651 4.272v1.913h-14.159c.244 1.167.773 2.095 1.586 2.787.814.691 1.817 1.038 3.011 1.038 1.003 0 1.851-.224 2.543-.671a6.869 6.869 0 0 0 1.811-1.729l4.272 3.13zm-5.167-8.707c.026-1.03-.312-1.912-1.018-2.645-.706-.732-1.614-1.099-2.726-1.099-.678 0-1.275.109-1.79.326a4.476 4.476 0 0 0-1.322.834 3.646 3.646 0 0 0-.854 1.18 3.876 3.876 0 0 0-.346 1.404h8.056zM698.603 104.648h6.104v18.798l6.754-7.812h7.486l-7.853 8.91 8.056 10.864h-7.69l-6.673-10.009h-.081v10.009h-6.104v-30.76zM742.79 116.895c.326-.082.651-.149.977-.204a6.215 6.215 0 0 1 1.017-.082c1.356 0 2.59.244 3.703.732a8.56 8.56 0 0 1 2.848 1.994c.787.841 1.397 1.838 1.831 2.991.434 1.153.651 2.38.651 3.682 0 1.492-.278 2.842-.834 4.048a9.474 9.474 0 0 1-2.279 3.113c-.963.868-2.102 1.54-3.417 2.014-1.316.474-2.72.712-4.211.712-1.519 0-2.929-.238-4.231-.712-1.302-.475-2.435-1.146-3.397-2.014a9.457 9.457 0 0 1-2.278-3.113c-.556-1.207-.834-2.556-.834-4.048 0-1.03.095-1.973.285-2.828.189-.854.44-1.661.753-2.421.312-.759.678-1.485 1.099-2.177.42-.692.86-1.404 1.322-2.136l6.307-9.846h7.446l-6.758 10.295zm4.923 8.87c0-1.302-.427-2.38-1.282-3.234s-1.973-1.282-3.357-1.282c-1.383 0-2.502.427-3.356 1.282s-1.282 1.933-1.282 3.234c0 1.302.427 2.38 1.282 3.235s1.973 1.282 3.356 1.282c1.384 0 2.502-.427 3.357-1.282s1.282-1.933 1.282-3.235z"/></g><g fill="#7F7F7F"><path d="M946.027 115.634h6.51l4.028 12.41h.081l3.377-12.41h6.673l3.662 12.41h.081l3.703-12.41h6.185l-7.039 19.774h-6.021l-4.11-13.142h-.081l-3.662 13.142h-6.144l-7.243-19.774zM1000.996 131.99c-.977 1.248-2.211 2.211-3.703 2.889a11.09 11.09 0 0 1-4.638 1.017c-1.52 0-2.95-.244-4.293-.732s-2.509-1.187-3.499-2.095-1.77-2-2.34-3.275c-.569-1.275-.854-2.699-.854-4.272 0-1.573.285-2.997.854-4.272a9.842 9.842 0 0 1 2.34-3.275c.99-.909 2.156-1.607 3.499-2.095 1.343-.488 2.773-.732 4.293-.732 1.41 0 2.691.244 3.845.732a8.025 8.025 0 0 1 2.93 2.095c.8.909 1.417 2 1.852 3.275.434 1.275.65 2.699.65 4.272v1.913h-14.159c.244 1.167.773 2.095 1.587 2.787.813.691 1.817 1.038 3.011 1.038 1.003 0 1.852-.224 2.543-.671a6.869 6.869 0 0 0 1.811-1.729l4.271 3.13zm-5.167-8.707c.026-1.03-.312-1.912-1.018-2.645-.706-.732-1.614-1.099-2.727-1.099-.678 0-1.274.109-1.79.326a4.476 4.476 0 0 0-1.322.834 3.66 3.66 0 0 0-.854 1.18 3.896 3.896 0 0 0-.346 1.404h8.057zM1024.35 131.99c-.977 1.248-2.211 2.211-3.702 2.889a11.094 11.094 0 0 1-4.639 1.017c-1.52 0-2.949-.244-4.292-.732s-2.51-1.187-3.499-2.095a9.814 9.814 0 0 1-2.34-3.275c-.569-1.275-.854-2.699-.854-4.272 0-1.573.285-2.997.854-4.272a9.814 9.814 0 0 1 2.34-3.275c.989-.909 2.156-1.607 3.499-2.095 1.343-.488 2.772-.732 4.292-.732 1.41 0 2.692.244 3.846.732a8.013 8.013 0 0 1 2.929 2.095c.8.909 1.417 2 1.852 3.275.434 1.275.651 2.699.651 4.272v1.913h-14.159c.244 1.167.772 2.095 1.586 2.787.814.691 1.817 1.038 3.012 1.038 1.003 0 1.851-.224 2.543-.671a6.869 6.869 0 0 0 1.811-1.729l4.27 3.13zm-5.167-8.707c.026-1.03-.312-1.912-1.018-2.645s-1.613-1.099-2.726-1.099c-.679 0-1.275.109-1.79.326a4.476 4.476 0 0 0-1.322.834 3.646 3.646 0 0 0-.854 1.18 3.876 3.876 0 0 0-.346 1.404h8.056zM1028.987 104.648h6.104v18.798l6.754-7.812h7.486l-7.853 8.91 8.057 10.864h-7.69l-6.673-10.009h-.081v10.009h-6.104v-30.76zM1077.243 112.216h-14.241v-5.615h21.076v5.371l-11.515 23.436h-7.12l11.8-23.192z"/></g><g fill="#7F7F7F"><path d="M1278.72 115.634h6.51l4.028 12.41h.081l3.377-12.41h6.673l3.662 12.41h.081l3.703-12.41h6.185l-7.039 19.774h-6.021l-4.11-13.142h-.081l-3.662 13.142h-6.144l-7.243-19.774zM1333.688 131.99c-.977 1.248-2.211 2.211-3.703 2.889a11.09 11.09 0 0 1-4.638 1.017c-1.52 0-2.95-.244-4.293-.732s-2.509-1.187-3.499-2.095-1.77-2-2.34-3.275c-.569-1.275-.854-2.699-.854-4.272 0-1.573.285-2.997.854-4.272a9.842 9.842 0 0 1 2.34-3.275c.99-.909 2.156-1.607 3.499-2.095 1.343-.488 2.773-.732 4.293-.732 1.41 0 2.691.244 3.845.732a8.025 8.025 0 0 1 2.93 2.095c.8.909 1.417 2 1.852 3.275.434 1.275.65 2.699.65 4.272v1.913h-14.159c.244 1.167.773 2.095 1.587 2.787.813.691 1.817 1.038 3.011 1.038 1.003 0 1.852-.224 2.543-.671a6.869 6.869 0 0 0 1.811-1.729l4.271 3.13zm-5.167-8.707c.026-1.03-.312-1.912-1.018-2.645-.706-.732-1.614-1.099-2.727-1.099-.678 0-1.274.109-1.79.326a4.476 4.476 0 0 0-1.322.834 3.66 3.66 0 0 0-.854 1.18 3.896 3.896 0 0 0-.346 1.404h8.057zM1357.042 131.99c-.977 1.248-2.211 2.211-3.702 2.889a11.094 11.094 0 0 1-4.639 1.017c-1.52 0-2.949-.244-4.292-.732s-2.51-1.187-3.499-2.095a9.814 9.814 0 0 1-2.34-3.275c-.569-1.275-.854-2.699-.854-4.272 0-1.573.285-2.997.854-4.272a9.814 9.814 0 0 1 2.34-3.275c.989-.909 2.156-1.607 3.499-2.095 1.343-.488 2.772-.732 4.292-.732 1.41 0 2.692.244 3.846.732a8.013 8.013 0 0 1 2.929 2.095c.8.909 1.417 2 1.852 3.275.434 1.275.651 2.699.651 4.272v1.913h-14.159c.244 1.167.772 2.095 1.586 2.787.814.691 1.817 1.038 3.012 1.038 1.003 0 1.851-.224 2.543-.671a6.869 6.869 0 0 0 1.811-1.729l4.27 3.13zm-5.167-8.707c.026-1.03-.312-1.912-1.018-2.645s-1.613-1.099-2.726-1.099c-.679 0-1.275.109-1.79.326a4.476 4.476 0 0 0-1.322.834 3.646 3.646 0 0 0-.854 1.18 3.876 3.876 0 0 0-.346 1.404h8.056zM1361.68 104.648h6.104v18.798l6.754-7.812h7.486l-7.853 8.91 8.057 10.864h-7.69l-6.673-10.009h-.081v10.009h-6.104v-30.76zM1396.59 114.047c0-1.329.25-2.488.753-3.479a7.06 7.06 0 0 1 2.075-2.482c.881-.664 1.905-1.16 3.071-1.485 1.166-.326 2.414-.488 3.743-.488s2.577.163 3.743.488c1.166.325 2.184.821 3.052 1.485a7.369 7.369 0 0 1 2.075 2.482c.515.991.773 2.15.773 3.479 0 1.573-.428 2.916-1.282 4.028-.854 1.113-2.055 1.899-3.601 2.36v.082c1.735.461 3.064 1.295 3.987 2.502.922 1.207 1.384 2.706 1.384 4.496 0 1.384-.279 2.604-.834 3.662a7.652 7.652 0 0 1-2.238 2.625c-.936.691-2.014 1.214-3.234 1.566-1.221.352-2.496.529-3.825.529s-2.604-.177-3.824-.529c-1.221-.353-2.299-.875-3.234-1.566a7.609 7.609 0 0 1-2.238-2.625c-.557-1.058-.834-2.278-.834-3.662 0-1.79.461-3.289 1.384-4.496.921-1.207 2.251-2.041 3.987-2.502v-.082c-1.547-.461-2.747-1.247-3.602-2.36-.854-1.112-1.281-2.455-1.281-4.028zm5.615 12.613c0 1.004.366 1.858 1.098 2.563.732.706 1.709 1.058 2.93 1.058s2.197-.353 2.93-1.058c.732-.705 1.099-1.56 1.099-2.563 0-1.03-.366-1.898-1.099-2.604-.732-.705-1.709-1.058-2.93-1.058s-2.197.353-2.93 1.058c-.732.706-1.098 1.573-1.098 2.604zm.488-11.759c0 .895.325 1.655.976 2.278.651.625 1.506.936 2.563.936 1.059 0 1.913-.312 2.563-.936.651-.624.977-1.383.977-2.278 0-.868-.325-1.614-.977-2.238-.65-.624-1.505-.936-2.563-.936-1.058 0-1.912.312-2.563.936-.65.625-.976 1.37-.976 2.238z"/></g><circle fill="#FFF" cx="331.385" cy="297.846" r="15.385"/><circle fill="#FFF" cx="1335.385" cy="297.846" r="15.385"/><circle fill="#FFF" cx="1002.385" cy="297.846" r="15.385"/><path fill="none" stroke="#FCFCFC" stroke-width="7" stroke-miterlimit="10" d="M347 297.5h988"/><g fill="none" stroke="#FCFCFC" stroke-width="7" stroke-miterlimit="10"><path d="M331.385 297.846l-6-.013"/><path stroke-dasharray="12.8532,12.8532" d="M312.531 297.804l-122.104-.276"/><path d="M184 297.514l-6-.014"/></g></svg>