<?xml version="1.0" encoding="utf-8"?>
<!-- Generator: Adobe Illustrator 17.0.0, SVG Export Plug-In . SVG Version: 6.00 Build 0)  -->
<!DOCTYPE svg PUBLIC "-//W3C//DTD SVG 1.1//EN" "http://www.w3.org/Graphics/SVG/1.1/DTD/svg11.dtd">
<svg version="1.1" xmlns="http://www.w3.org/2000/svg" xmlns:xlink="http://www.w3.org/1999/xlink" x="0px" y="0px" width="1595px"
	 height="540px" viewBox="0 0 1595 540" enable-background="new 0 0 1595 540" xml:space="preserve">
<g id="Layer_2">
	<rect width="1595" height="540"/>
</g>
<g id="Layer_1">
	<g>
		<path fill="#7F7F7F" d="M276.796,116.634h6.51l4.028,12.41h0.082l3.377-12.41h6.673l3.662,12.41h0.081l3.703-12.41h6.185
			l-7.039,19.774h-6.021l-4.11-13.142h-0.081l-3.662,13.142h-6.144L276.796,116.634z"/>
		<path fill="#7F7F7F" d="M331.765,132.99c-0.977,1.248-2.211,2.211-3.703,2.889s-3.038,1.017-4.638,1.017
			c-1.52,0-2.95-0.244-4.292-0.732s-2.509-1.187-3.499-2.095c-0.991-0.909-1.77-2-2.34-3.275c-0.569-1.275-0.854-2.699-0.854-4.272
			c0-1.573,0.285-2.997,0.854-4.272c0.57-1.275,1.349-2.366,2.34-3.275c0.99-0.909,2.156-1.607,3.499-2.095
			c1.343-0.488,2.773-0.732,4.292-0.732c1.41,0,2.692,0.244,3.845,0.732c1.152,0.488,2.129,1.187,2.929,2.095
			c0.8,0.909,1.417,2,1.852,3.275c0.434,1.275,0.651,2.699,0.651,4.272v1.913h-14.159c0.244,1.167,0.773,2.095,1.586,2.787
			c0.814,0.691,1.817,1.038,3.011,1.038c1.003,0,1.851-0.224,2.543-0.671c0.691-0.448,1.295-1.024,1.811-1.729L331.765,132.99z
			 M326.598,124.283c0.026-1.03-0.312-1.912-1.018-2.645c-0.706-0.732-1.614-1.099-2.726-1.099c-0.678,0-1.275,0.109-1.79,0.326
			c-0.516,0.217-0.956,0.495-1.322,0.834c-0.366,0.339-0.651,0.732-0.854,1.18c-0.204,0.448-0.319,0.916-0.346,1.404H326.598z"/>
		<path fill="#7F7F7F" d="M355.119,132.99c-0.977,1.248-2.211,2.211-3.703,2.889s-3.038,1.017-4.638,1.017
			c-1.52,0-2.95-0.244-4.292-0.732s-2.509-1.187-3.499-2.095c-0.991-0.909-1.77-2-2.34-3.275c-0.569-1.275-0.854-2.699-0.854-4.272
			c0-1.573,0.285-2.997,0.854-4.272c0.57-1.275,1.349-2.366,2.34-3.275c0.99-0.909,2.156-1.607,3.499-2.095
			c1.343-0.488,2.773-0.732,4.292-0.732c1.41,0,2.692,0.244,3.845,0.732c1.152,0.488,2.129,1.187,2.929,2.095
			c0.8,0.909,1.417,2,1.852,3.275c0.434,1.275,0.651,2.699,0.651,4.272v1.913h-14.159c0.244,1.167,0.773,2.095,1.586,2.787
			c0.814,0.691,1.817,1.038,3.011,1.038c1.003,0,1.851-0.224,2.543-0.671c0.691-0.448,1.295-1.024,1.811-1.729L355.119,132.99z
			 M349.952,124.283c0.026-1.03-0.312-1.912-1.018-2.645c-0.706-0.732-1.614-1.099-2.726-1.099c-0.678,0-1.275,0.109-1.79,0.326
			c-0.516,0.217-0.956,0.495-1.322,0.834c-0.366,0.339-0.651,0.732-0.854,1.18c-0.204,0.448-0.319,0.916-0.346,1.404H349.952z"/>
		<path fill="#7F7F7F" d="M359.757,105.648h6.104v18.798l6.754-7.812h7.486l-7.853,8.91l8.056,10.864h-7.69l-6.673-10.009h-0.081
			v10.009h-6.104V105.648z"/>
		<path fill="#7F7F7F" d="M413.302,112.972h-11.434l-0.122,4.435c0.624-0.217,1.479-0.326,2.563-0.326
			c1.465,0,2.808,0.217,4.028,0.651c1.22,0.435,2.271,1.065,3.153,1.892c0.881,0.828,1.567,1.831,2.055,3.011
			c0.488,1.18,0.732,2.502,0.732,3.967c0,1.627-0.278,3.079-0.834,4.354c-0.556,1.275-1.322,2.354-2.299,3.235
			s-2.136,1.553-3.479,2.014c-1.343,0.461-2.801,0.692-4.374,0.692c-2.496,0-4.584-0.61-6.266-1.831
			c-1.682-1.221-2.834-3.065-3.458-5.533l6.388-1.465c0.163,1.031,0.596,1.865,1.302,2.502c0.705,0.638,1.587,0.957,2.645,0.957
			c1.302,0,2.339-0.407,3.112-1.221c0.773-0.814,1.16-1.844,1.16-3.092c0-0.949-0.197-1.729-0.59-2.339
			c-0.394-0.61-0.909-1.099-1.546-1.465c-0.638-0.366-1.35-0.617-2.136-0.753c-0.787-0.135-1.574-0.204-2.36-0.204
			c-1.004,0-2.014,0.096-3.031,0.285c-1.017,0.19-2.001,0.447-2.95,0.773l0.325-15.909h17.415V112.972z"/>
	</g>
	<g>
		<path fill="#FFFFFF" d="M223.156,356.457h5.859v2.685h0.081c0.189-0.379,0.461-0.759,0.814-1.139
			c0.352-0.379,0.773-0.718,1.261-1.017c0.488-0.298,1.044-0.542,1.668-0.732c0.624-0.189,1.302-0.285,2.035-0.285
			c1.383,0,2.61,0.285,3.682,0.854c1.071,0.569,1.878,1.464,2.421,2.685c0.705-1.274,1.56-2.183,2.563-2.726
			c1.003-0.542,2.238-0.813,3.703-0.813c1.329,0,2.447,0.224,3.356,0.671c0.909,0.447,1.627,1.058,2.157,1.831
			c0.529,0.773,0.908,1.682,1.139,2.726c0.23,1.044,0.346,2.164,0.346,3.357v11.677h-6.103v-11.515c0-0.922-0.197-1.715-0.59-2.38
			c-0.394-0.664-1.092-0.997-2.096-0.997c-0.706,0-1.295,0.116-1.77,0.346c-0.475,0.231-0.854,0.549-1.139,0.956
			c-0.285,0.407-0.488,0.882-0.61,1.424c-0.122,0.543-0.183,1.112-0.183,1.709v10.457h-6.103v-10.457
			c0-0.353-0.014-0.787-0.041-1.302c-0.027-0.515-0.122-1.003-0.285-1.465c-0.163-0.461-0.427-0.854-0.793-1.18
			s-0.902-0.488-1.607-0.488c-0.787,0-1.424,0.143-1.912,0.427s-0.862,0.665-1.119,1.139c-0.258,0.475-0.427,1.011-0.508,1.607
			c-0.082,0.597-0.122,1.22-0.122,1.872v9.846h-6.104V356.457z"/>
		<path fill="#FFFFFF" d="M258.147,350.231c0-0.976,0.346-1.811,1.038-2.502c0.692-0.692,1.526-1.038,2.502-1.038
			s1.811,0.346,2.502,1.038c0.692,0.691,1.038,1.526,1.038,2.502c0,0.977-0.346,1.811-1.038,2.502
			c-0.691,0.692-1.525,1.038-2.502,1.038s-1.811-0.346-2.502-1.038C258.493,352.042,258.147,351.208,258.147,350.231z
			 M258.635,356.457h6.103v19.774h-6.103V356.457z"/>
		<path fill="#FFFFFF" d="M269.214,345.471h6.103v30.76h-6.103V345.471z"/>
		<path fill="#FFFFFF" d="M298.427,372.812c-0.977,1.248-2.211,2.211-3.703,2.889s-3.038,1.017-4.638,1.017
			c-1.52,0-2.95-0.244-4.292-0.732s-2.509-1.187-3.499-2.095c-0.991-0.909-1.77-2-2.34-3.275c-0.569-1.275-0.854-2.699-0.854-4.272
			c0-1.573,0.285-2.997,0.854-4.272c0.57-1.275,1.349-2.366,2.34-3.275c0.99-0.909,2.156-1.607,3.499-2.095
			c1.343-0.488,2.773-0.732,4.292-0.732c1.41,0,2.692,0.244,3.845,0.732c1.152,0.488,2.129,1.187,2.929,2.095
			c0.8,0.909,1.417,2,1.852,3.275c0.434,1.275,0.651,2.699,0.651,4.272v1.913h-14.159c0.244,1.167,0.773,2.095,1.586,2.787
			c0.814,0.691,1.817,1.038,3.011,1.038c1.003,0,1.851-0.224,2.543-0.671c0.691-0.448,1.295-1.024,1.811-1.729L298.427,372.812z
			 M293.26,364.105c0.026-1.03-0.312-1.912-1.018-2.645c-0.706-0.732-1.614-1.099-2.726-1.099c-0.678,0-1.275,0.109-1.79,0.326
			c-0.516,0.217-0.956,0.495-1.322,0.834c-0.366,0.339-0.651,0.732-0.854,1.18c-0.204,0.448-0.319,0.916-0.346,1.404H293.26z"/>
		<path fill="#FFFFFF" d="M314.254,362.274c-0.896-1.112-2.075-1.668-3.54-1.668c-0.516,0-1.017,0.122-1.505,0.366
			s-0.732,0.665-0.732,1.261c0,0.488,0.25,0.848,0.753,1.078c0.501,0.231,1.139,0.435,1.912,0.61c0.773,0.177,1.6,0.366,2.482,0.57
			c0.881,0.204,1.709,0.522,2.482,0.956c0.773,0.434,1.41,1.024,1.912,1.77c0.502,0.746,0.753,1.743,0.753,2.99
			c0,1.275-0.278,2.326-0.834,3.153c-0.556,0.828-1.269,1.492-2.136,1.994c-0.868,0.502-1.845,0.854-2.93,1.058
			s-2.156,0.305-3.214,0.305c-1.384,0-2.781-0.197-4.191-0.59c-1.411-0.393-2.604-1.092-3.581-2.096l3.703-4.109
			c0.569,0.706,1.2,1.241,1.892,1.607c0.692,0.366,1.499,0.549,2.421,0.549c0.705,0,1.343-0.102,1.913-0.305
			c0.569-0.204,0.854-0.576,0.854-1.119c0-0.515-0.251-0.901-0.753-1.16c-0.502-0.257-1.139-0.474-1.912-0.651
			c-0.773-0.176-1.601-0.366-2.482-0.57c-0.882-0.203-1.709-0.508-2.482-0.916c-0.773-0.407-1.411-0.982-1.913-1.729
			c-0.502-0.746-0.752-1.743-0.752-2.991c0-1.166,0.237-2.169,0.712-3.011c0.474-0.84,1.099-1.532,1.872-2.075
			c0.773-0.542,1.661-0.942,2.665-1.2c1.003-0.257,2.021-0.386,3.052-0.386c1.302,0,2.617,0.19,3.947,0.569
			c1.329,0.38,2.455,1.058,3.377,2.035L314.254,362.274z"/>
		<path fill="#FFFFFF" d="M335.371,361.339H330v6.591c0,0.543,0.026,1.038,0.081,1.485c0.054,0.447,0.176,0.834,0.366,1.159
			c0.189,0.326,0.481,0.577,0.875,0.753c0.393,0.177,0.916,0.265,1.566,0.265c0.326,0,0.753-0.034,1.282-0.102
			c0.529-0.067,0.929-0.224,1.2-0.468v5.086c-0.678,0.244-1.383,0.407-2.116,0.488s-1.452,0.122-2.156,0.122
			c-1.031,0-1.98-0.109-2.848-0.326c-0.869-0.217-1.628-0.562-2.279-1.038c-0.651-0.474-1.16-1.091-1.526-1.851
			c-0.366-0.759-0.549-1.682-0.549-2.767v-9.399h-3.906v-4.882h3.906v-5.859H330v5.859h5.371V361.339z"/>
		<path fill="#FFFFFF" d="M337.73,366.343c0-1.573,0.285-2.997,0.854-4.272c0.57-1.275,1.349-2.366,2.34-3.275
			c0.99-0.909,2.156-1.607,3.499-2.095c1.343-0.488,2.773-0.732,4.292-0.732c1.519,0,2.95,0.244,4.292,0.732
			c1.343,0.488,2.509,1.187,3.499,2.095c0.99,0.909,1.77,2,2.34,3.275c0.569,1.275,0.854,2.699,0.854,4.272
			c0,1.574-0.285,2.998-0.854,4.272c-0.57,1.275-1.35,2.367-2.34,3.275s-2.156,1.607-3.499,2.095s-2.773,0.732-4.292,0.732
			c-1.52,0-2.95-0.244-4.292-0.732s-2.509-1.187-3.499-2.095c-0.991-0.909-1.77-2-2.34-3.275
			C338.016,369.341,337.73,367.917,337.73,366.343z M343.834,366.343c0,1.492,0.427,2.7,1.282,3.621
			c0.854,0.923,2.055,1.384,3.601,1.384c1.546,0,2.747-0.461,3.601-1.384c0.854-0.921,1.281-2.129,1.281-3.621
			c0-1.491-0.427-2.699-1.281-3.621c-0.854-0.922-2.055-1.383-3.601-1.383c-1.546,0-2.747,0.461-3.601,1.383
			C344.261,363.645,343.834,364.852,343.834,366.343z"/>
		<path fill="#FFFFFF" d="M363.282,356.457h5.859v2.685h0.081c0.189-0.379,0.461-0.759,0.814-1.139
			c0.352-0.379,0.773-0.718,1.261-1.017c0.488-0.298,1.044-0.542,1.668-0.732c0.624-0.189,1.302-0.285,2.035-0.285
			c1.546,0,2.793,0.238,3.743,0.712c0.949,0.475,1.688,1.133,2.217,1.973c0.529,0.841,0.888,1.831,1.079,2.97
			c0.189,1.139,0.285,2.374,0.285,3.703v10.904h-6.103v-9.684c0-0.57-0.021-1.16-0.061-1.77c-0.041-0.61-0.163-1.173-0.366-1.688
			c-0.204-0.515-0.516-0.936-0.936-1.261c-0.421-0.326-1.024-0.488-1.811-0.488c-0.787,0-1.424,0.143-1.912,0.427
			s-0.862,0.665-1.119,1.139c-0.258,0.475-0.427,1.011-0.508,1.607c-0.082,0.597-0.122,1.22-0.122,1.872v9.846h-6.104V356.457z"/>
		<path fill="#FFFFFF" d="M405.352,372.812c-0.977,1.248-2.211,2.211-3.703,2.889s-3.038,1.017-4.638,1.017
			c-1.52,0-2.95-0.244-4.292-0.732s-2.509-1.187-3.499-2.095c-0.991-0.909-1.77-2-2.34-3.275c-0.569-1.275-0.854-2.699-0.854-4.272
			c0-1.573,0.285-2.997,0.854-4.272c0.57-1.275,1.349-2.366,2.34-3.275c0.99-0.909,2.156-1.607,3.499-2.095
			c1.343-0.488,2.773-0.732,4.292-0.732c1.41,0,2.692,0.244,3.845,0.732c1.152,0.488,2.129,1.187,2.929,2.095
			c0.8,0.909,1.417,2,1.852,3.275c0.434,1.275,0.651,2.699,0.651,4.272v1.913h-14.159c0.244,1.167,0.773,2.095,1.586,2.787
			c0.814,0.691,1.817,1.038,3.011,1.038c1.003,0,1.851-0.224,2.543-0.671c0.691-0.448,1.295-1.024,1.811-1.729L405.352,372.812z
			 M400.185,364.105c0.026-1.03-0.312-1.912-1.018-2.645c-0.706-0.732-1.614-1.099-2.726-1.099c-0.678,0-1.275,0.109-1.79,0.326
			c-0.516,0.217-0.956,0.495-1.322,0.834c-0.366,0.339-0.651,0.732-0.854,1.18c-0.204,0.448-0.319,0.916-0.346,1.404H400.185z"/>
		<path fill="#FFFFFF" d="M431.595,354.259l-5.777,5.086l-3.458-3.987l9.399-7.934h5.696v28.807h-5.859V354.259z"/>
	</g>
	<g>
		<path fill="#FFFFFF" d="M893.156,356.457h5.859v2.685h0.081c0.189-0.379,0.461-0.759,0.813-1.139
			c0.353-0.379,0.773-0.718,1.262-1.017c0.488-0.298,1.044-0.542,1.668-0.732c0.624-0.189,1.302-0.285,2.034-0.285
			c1.384,0,2.61,0.285,3.683,0.854c1.071,0.569,1.878,1.464,2.421,2.685c0.705-1.274,1.56-2.183,2.563-2.726
			c1.003-0.542,2.237-0.813,3.702-0.813c1.329,0,2.447,0.224,3.356,0.671c0.909,0.447,1.628,1.058,2.157,1.831
			c0.528,0.773,0.908,1.682,1.139,2.726c0.23,1.044,0.346,2.164,0.346,3.357v11.677h-6.103v-11.515c0-0.922-0.197-1.715-0.59-2.38
			c-0.394-0.664-1.093-0.997-2.096-0.997c-0.706,0-1.296,0.116-1.771,0.346c-0.475,0.231-0.854,0.549-1.139,0.956
			c-0.285,0.407-0.488,0.882-0.61,1.424c-0.122,0.543-0.184,1.112-0.184,1.709v10.457h-6.103v-10.457
			c0-0.353-0.015-0.787-0.041-1.302c-0.027-0.515-0.122-1.003-0.285-1.465c-0.162-0.461-0.427-0.854-0.793-1.18
			s-0.902-0.488-1.607-0.488c-0.787,0-1.424,0.143-1.912,0.427s-0.861,0.665-1.119,1.139c-0.258,0.475-0.427,1.011-0.508,1.607
			c-0.082,0.597-0.122,1.22-0.122,1.872v9.846h-6.104V356.457z"/>
		<path fill="#FFFFFF" d="M928.147,350.231c0-0.976,0.346-1.811,1.037-2.502c0.692-0.692,1.526-1.038,2.503-1.038
			s1.811,0.346,2.502,1.038c0.691,0.691,1.037,1.526,1.037,2.502c0,0.977-0.346,1.811-1.037,2.502
			c-0.691,0.692-1.525,1.038-2.502,1.038s-1.811-0.346-2.503-1.038C928.493,352.042,928.147,351.208,928.147,350.231z
			 M928.636,356.457h6.103v19.774h-6.103V356.457z"/>
		<path fill="#FFFFFF" d="M939.214,345.471h6.104v30.76h-6.104V345.471z"/>
		<path fill="#FFFFFF" d="M968.428,372.812c-0.977,1.248-2.211,2.211-3.703,2.889c-1.491,0.678-3.038,1.017-4.638,1.017
			c-1.52,0-2.95-0.244-4.293-0.732s-2.509-1.187-3.499-2.095s-1.77-2-2.34-3.275c-0.569-1.275-0.854-2.699-0.854-4.272
			c0-1.573,0.285-2.997,0.854-4.272c0.57-1.275,1.35-2.366,2.34-3.275c0.99-0.909,2.156-1.607,3.499-2.095
			c1.343-0.488,2.773-0.732,4.293-0.732c1.41,0,2.691,0.244,3.845,0.732c1.152,0.488,2.129,1.187,2.93,2.095
			c0.8,0.909,1.417,2,1.852,3.275c0.434,1.275,0.65,2.699,0.65,4.272v1.913h-14.159c0.244,1.167,0.773,2.095,1.587,2.787
			c0.813,0.691,1.817,1.038,3.011,1.038c1.003,0,1.852-0.224,2.543-0.671c0.691-0.448,1.295-1.024,1.811-1.729L968.428,372.812z
			 M963.261,364.105c0.026-1.03-0.312-1.912-1.018-2.645c-0.706-0.732-1.614-1.099-2.727-1.099c-0.678,0-1.274,0.109-1.79,0.326
			c-0.516,0.217-0.956,0.495-1.322,0.834c-0.366,0.339-0.65,0.732-0.854,1.18c-0.203,0.448-0.319,0.916-0.346,1.404H963.261z"/>
		<path fill="#FFFFFF" d="M984.255,362.274c-0.896-1.112-2.075-1.668-3.54-1.668c-0.516,0-1.018,0.122-1.506,0.366
			s-0.732,0.665-0.732,1.261c0,0.488,0.251,0.848,0.753,1.078c0.502,0.231,1.14,0.435,1.912,0.61
			c0.773,0.177,1.601,0.366,2.482,0.57c0.881,0.204,1.709,0.522,2.481,0.956c0.773,0.434,1.41,1.024,1.912,1.77
			c0.502,0.746,0.753,1.743,0.753,2.99c0,1.275-0.278,2.326-0.834,3.153c-0.556,0.828-1.269,1.492-2.136,1.994
			c-0.868,0.502-1.845,0.854-2.93,1.058s-2.156,0.305-3.214,0.305c-1.384,0-2.781-0.197-4.191-0.59
			c-1.41-0.393-2.604-1.092-3.58-2.096l3.702-4.109c0.569,0.706,1.2,1.241,1.892,1.607c0.692,0.366,1.499,0.549,2.421,0.549
			c0.705,0,1.343-0.102,1.913-0.305c0.569-0.204,0.854-0.576,0.854-1.119c0-0.515-0.251-0.901-0.753-1.16
			c-0.502-0.257-1.14-0.474-1.912-0.651c-0.773-0.176-1.602-0.366-2.482-0.57c-0.882-0.203-1.709-0.508-2.481-0.916
			c-0.773-0.407-1.411-0.982-1.913-1.729c-0.502-0.746-0.752-1.743-0.752-2.991c0-1.166,0.236-2.169,0.712-3.011
			c0.474-0.84,1.099-1.532,1.871-2.075c0.773-0.542,1.661-0.942,2.665-1.2c1.004-0.257,2.021-0.386,3.052-0.386
			c1.302,0,2.617,0.19,3.947,0.569c1.328,0.38,2.454,1.058,3.377,2.035L984.255,362.274z"/>
		<path fill="#FFFFFF" d="M1005.371,361.339h-5.37v6.591c0,0.543,0.026,1.038,0.081,1.485c0.054,0.447,0.176,0.834,0.366,1.159
			c0.189,0.326,0.481,0.577,0.875,0.753c0.393,0.177,0.915,0.265,1.566,0.265c0.325,0,0.753-0.034,1.281-0.102
			c0.529-0.067,0.929-0.224,1.2-0.468v5.086c-0.678,0.244-1.383,0.407-2.115,0.488s-1.452,0.122-2.156,0.122
			c-1.031,0-1.98-0.109-2.849-0.326s-1.628-0.562-2.278-1.038c-0.651-0.474-1.16-1.091-1.526-1.851
			c-0.366-0.759-0.549-1.682-0.549-2.767v-9.399h-3.906v-4.882h3.906v-5.859h6.104v5.859h5.37V361.339z"/>
		<path fill="#FFFFFF" d="M1007.73,366.343c0-1.573,0.285-2.997,0.854-4.272c0.57-1.275,1.35-2.366,2.34-3.275
			c0.99-0.909,2.156-1.607,3.499-2.095c1.343-0.488,2.773-0.732,4.293-0.732c1.519,0,2.949,0.244,4.292,0.732
			c1.343,0.488,2.509,1.187,3.499,2.095c0.99,0.909,1.771,2,2.34,3.275c0.569,1.275,0.854,2.699,0.854,4.272
			c0,1.574-0.285,2.998-0.854,4.272c-0.569,1.275-1.35,2.367-2.34,3.275s-2.156,1.607-3.499,2.095s-2.773,0.732-4.292,0.732
			c-1.52,0-2.95-0.244-4.293-0.732s-2.509-1.187-3.499-2.095s-1.77-2-2.34-3.275C1008.016,369.341,1007.73,367.917,1007.73,366.343z
			 M1013.834,366.343c0,1.492,0.428,2.7,1.282,3.621c0.854,0.923,2.055,1.384,3.601,1.384s2.746-0.461,3.601-1.384
			c0.854-0.921,1.281-2.129,1.281-3.621c0-1.491-0.427-2.699-1.281-3.621c-0.854-0.922-2.055-1.383-3.601-1.383
			s-2.747,0.461-3.601,1.383C1014.262,363.645,1013.834,364.852,1013.834,366.343z"/>
		<path fill="#FFFFFF" d="M1033.282,356.457h5.859v2.685h0.081c0.189-0.379,0.461-0.759,0.813-1.139
			c0.353-0.379,0.773-0.718,1.262-1.017c0.488-0.298,1.044-0.542,1.668-0.732c0.624-0.189,1.302-0.285,2.034-0.285
			c1.546,0,2.794,0.238,3.743,0.712c0.949,0.475,1.688,1.133,2.218,1.973c0.529,0.841,0.888,1.831,1.078,2.97
			c0.189,1.139,0.285,2.374,0.285,3.703v10.904h-6.104v-9.684c0-0.57-0.021-1.16-0.061-1.77c-0.041-0.61-0.163-1.173-0.366-1.688
			c-0.204-0.515-0.516-0.936-0.937-1.261s-1.023-0.488-1.811-0.488s-1.424,0.143-1.912,0.427s-0.861,0.665-1.119,1.139
			c-0.258,0.475-0.427,1.011-0.508,1.607c-0.082,0.597-0.122,1.22-0.122,1.872v9.846h-6.104V356.457z"/>
		<path fill="#FFFFFF" d="M1075.353,372.812c-0.977,1.248-2.211,2.211-3.703,2.889c-1.491,0.678-3.038,1.017-4.638,1.017
			c-1.52,0-2.95-0.244-4.293-0.732s-2.509-1.187-3.499-2.095s-1.77-2-2.34-3.275c-0.569-1.275-0.854-2.699-0.854-4.272
			c0-1.573,0.285-2.997,0.854-4.272c0.57-1.275,1.35-2.366,2.34-3.275c0.99-0.909,2.156-1.607,3.499-2.095
			c1.343-0.488,2.773-0.732,4.293-0.732c1.41,0,2.691,0.244,3.845,0.732c1.152,0.488,2.129,1.187,2.93,2.095
			c0.8,0.909,1.417,2,1.852,3.275c0.434,1.275,0.65,2.699,0.65,4.272v1.913h-14.159c0.244,1.167,0.773,2.095,1.587,2.787
			c0.813,0.691,1.817,1.038,3.011,1.038c1.003,0,1.852-0.224,2.543-0.671c0.691-0.448,1.295-1.024,1.811-1.729L1075.353,372.812z
			 M1070.186,364.105c0.026-1.03-0.312-1.912-1.018-2.645c-0.706-0.732-1.614-1.099-2.727-1.099c-0.678,0-1.274,0.109-1.79,0.326
			c-0.516,0.217-0.956,0.495-1.322,0.834c-0.366,0.339-0.65,0.732-0.854,1.18c-0.203,0.448-0.319,0.916-0.346,1.404H1070.186z"/>
		<path fill="#FFFFFF" d="M1091.871,369.761l11.188-10.05c0.57-0.515,1.14-1.099,1.709-1.75c0.57-0.651,0.854-1.41,0.854-2.279
			c0-0.977-0.353-1.742-1.058-2.299c-0.706-0.556-1.533-0.834-2.482-0.834c-1.139,0-2.027,0.353-2.665,1.058
			c-0.637,0.706-0.996,1.573-1.078,2.604l-6.103-0.448c0.081-1.491,0.393-2.787,0.936-3.886c0.542-1.099,1.262-2.014,2.156-2.746
			c0.896-0.732,1.946-1.282,3.153-1.648s2.516-0.549,3.927-0.549c1.302,0,2.522,0.183,3.662,0.549
			c1.139,0.366,2.129,0.909,2.97,1.627c0.841,0.719,1.498,1.621,1.974,2.706c0.474,1.085,0.712,2.347,0.712,3.784
			c0,0.922-0.096,1.756-0.285,2.502c-0.189,0.747-0.454,1.424-0.793,2.035c-0.34,0.61-0.739,1.173-1.2,1.688
			c-0.462,0.516-0.964,1.017-1.506,1.505l-8.748,7.527h12.776v5.371h-20.1V369.761z"/>
	</g>
	<g>
		<path fill="#FFFFFF" d="M1321.872,372.812c-0.977,1.248-2.211,2.211-3.702,2.889c-1.492,0.678-3.038,1.017-4.639,1.017
			c-1.52,0-2.949-0.244-4.292-0.732s-2.51-1.187-3.499-2.095c-0.991-0.909-1.771-2-2.34-3.275c-0.569-1.275-0.854-2.699-0.854-4.272
			c0-1.573,0.285-2.997,0.854-4.272c0.569-1.275,1.349-2.366,2.34-3.275c0.989-0.909,2.156-1.607,3.499-2.095
			c1.343-0.488,2.772-0.732,4.292-0.732c1.41,0,2.692,0.244,3.846,0.732c1.152,0.488,2.129,1.187,2.929,2.095
			c0.8,0.909,1.417,2,1.852,3.275c0.434,1.275,0.651,2.699,0.651,4.272v1.913h-14.159c0.244,1.167,0.772,2.095,1.586,2.787
			c0.814,0.691,1.817,1.038,3.012,1.038c1.003,0,1.851-0.224,2.543-0.671c0.691-0.448,1.295-1.024,1.811-1.729L1321.872,372.812z
			 M1316.705,364.105c0.026-1.03-0.312-1.912-1.018-2.645s-1.613-1.099-2.726-1.099c-0.679,0-1.275,0.109-1.79,0.326
			c-0.516,0.217-0.956,0.495-1.322,0.834c-0.366,0.339-0.651,0.732-0.854,1.18c-0.204,0.448-0.319,0.916-0.346,1.404H1316.705z"/>
		<path fill="#FFFFFF" d="M1326.51,356.457h5.859v2.685h0.081c0.189-0.379,0.461-0.759,0.814-1.139
			c0.352-0.379,0.772-0.718,1.261-1.017c0.488-0.298,1.044-0.542,1.668-0.732c0.624-0.189,1.303-0.285,2.035-0.285
			c1.546,0,2.793,0.238,3.743,0.712c0.949,0.475,1.688,1.133,2.217,1.973c0.529,0.841,0.889,1.831,1.079,2.97
			c0.189,1.139,0.284,2.374,0.284,3.703v10.904h-6.103v-9.684c0-0.57-0.021-1.16-0.062-1.77s-0.163-1.173-0.366-1.688
			c-0.203-0.515-0.516-0.936-0.936-1.261c-0.421-0.326-1.024-0.488-1.811-0.488c-0.787,0-1.424,0.143-1.912,0.427
			s-0.862,0.665-1.119,1.139c-0.258,0.475-0.428,1.011-0.509,1.607s-0.122,1.22-0.122,1.872v9.846h-6.104V356.457z"/>
		<path fill="#FFFFFF" d="M1370.615,376.23H1365v-2.604h-0.081c-0.244,0.353-0.563,0.712-0.956,1.078
			c-0.394,0.366-0.854,0.699-1.384,0.997c-0.528,0.299-1.112,0.542-1.749,0.732c-0.638,0.189-1.296,0.285-1.974,0.285
			c-1.465,0-2.794-0.251-3.987-0.753c-1.193-0.501-2.218-1.207-3.072-2.116c-0.854-0.908-1.512-1.986-1.973-3.234
			c-0.462-1.248-0.692-2.618-0.692-4.109c0-1.384,0.21-2.706,0.631-3.967s1.018-2.38,1.79-3.356c0.773-0.977,1.716-1.756,2.828-2.34
			c1.112-0.583,2.373-0.875,3.784-0.875c1.274,0,2.462,0.197,3.56,0.59c1.099,0.394,2.001,1.065,2.706,2.014h0.081v-13.102h6.104
			V376.23z M1365,366.343c0-1.491-0.427-2.699-1.281-3.621c-0.854-0.922-2.055-1.383-3.601-1.383s-2.747,0.461-3.601,1.383
			c-0.854,0.922-1.282,2.13-1.282,3.621c0,1.492,0.428,2.7,1.282,3.621c0.854,0.923,2.055,1.384,3.601,1.384
			s2.746-0.461,3.601-1.384C1364.573,369.043,1365,367.835,1365,366.343z"/>
	</g>
	<g>
		<path fill="#7F7F7F" d="M615.643,115.634h6.51l4.028,12.41h0.082l3.377-12.41h6.673l3.662,12.41h0.081l3.703-12.41h6.185
			l-7.039,19.774h-6.021l-4.11-13.142h-0.081l-3.662,13.142h-6.144L615.643,115.634z"/>
		<path fill="#7F7F7F" d="M670.611,131.99c-0.977,1.248-2.211,2.211-3.703,2.889s-3.038,1.017-4.638,1.017
			c-1.52,0-2.95-0.244-4.292-0.732s-2.509-1.187-3.499-2.095c-0.991-0.909-1.77-2-2.34-3.275c-0.569-1.275-0.854-2.699-0.854-4.272
			c0-1.573,0.285-2.997,0.854-4.272c0.57-1.275,1.349-2.366,2.34-3.275c0.99-0.909,2.156-1.607,3.499-2.095
			c1.343-0.488,2.773-0.732,4.292-0.732c1.41,0,2.692,0.244,3.845,0.732c1.152,0.488,2.129,1.187,2.929,2.095
			c0.8,0.909,1.417,2,1.852,3.275c0.434,1.275,0.651,2.699,0.651,4.272v1.913h-14.159c0.244,1.167,0.773,2.095,1.586,2.787
			c0.814,0.691,1.817,1.038,3.011,1.038c1.003,0,1.851-0.224,2.543-0.671c0.691-0.448,1.295-1.024,1.811-1.729L670.611,131.99z
			 M665.444,123.283c0.026-1.03-0.312-1.912-1.018-2.645c-0.706-0.732-1.614-1.099-2.726-1.099c-0.678,0-1.275,0.109-1.79,0.326
			c-0.516,0.217-0.956,0.495-1.322,0.834c-0.366,0.339-0.651,0.732-0.854,1.18c-0.204,0.448-0.319,0.916-0.346,1.404H665.444z"/>
		<path fill="#7F7F7F" d="M693.965,131.99c-0.977,1.248-2.211,2.211-3.703,2.889s-3.038,1.017-4.638,1.017
			c-1.52,0-2.95-0.244-4.292-0.732s-2.509-1.187-3.499-2.095c-0.991-0.909-1.77-2-2.34-3.275c-0.569-1.275-0.854-2.699-0.854-4.272
			c0-1.573,0.285-2.997,0.854-4.272c0.57-1.275,1.349-2.366,2.34-3.275c0.99-0.909,2.156-1.607,3.499-2.095
			c1.343-0.488,2.773-0.732,4.292-0.732c1.41,0,2.692,0.244,3.845,0.732c1.152,0.488,2.129,1.187,2.929,2.095
			c0.8,0.909,1.417,2,1.852,3.275c0.434,1.275,0.651,2.699,0.651,4.272v1.913h-14.159c0.244,1.167,0.773,2.095,1.586,2.787
			c0.814,0.691,1.817,1.038,3.011,1.038c1.003,0,1.851-0.224,2.543-0.671c0.691-0.448,1.295-1.024,1.811-1.729L693.965,131.99z
			 M688.798,123.283c0.026-1.03-0.312-1.912-1.018-2.645c-0.706-0.732-1.614-1.099-2.726-1.099c-0.678,0-1.275,0.109-1.79,0.326
			c-0.516,0.217-0.956,0.495-1.322,0.834c-0.366,0.339-0.651,0.732-0.854,1.18c-0.204,0.448-0.319,0.916-0.346,1.404H688.798z"/>
		<path fill="#7F7F7F" d="M698.603,104.648h6.104v18.798l6.754-7.812h7.486l-7.853,8.91l8.056,10.864h-7.69l-6.673-10.009h-0.081
			v10.009h-6.104V104.648z"/>
		<path fill="#7F7F7F" d="M742.79,116.895c0.326-0.082,0.651-0.149,0.977-0.204c0.326-0.054,0.665-0.082,1.017-0.082
			c1.356,0,2.59,0.244,3.703,0.732c1.112,0.488,2.061,1.153,2.848,1.994c0.787,0.841,1.397,1.838,1.831,2.991
			c0.434,1.153,0.651,2.38,0.651,3.682c0,1.492-0.278,2.842-0.834,4.048c-0.556,1.208-1.316,2.245-2.279,3.113
			c-0.963,0.868-2.102,1.54-3.417,2.014c-1.316,0.474-2.72,0.712-4.211,0.712c-1.519,0-2.929-0.238-4.231-0.712
			c-1.302-0.475-2.435-1.146-3.397-2.014c-0.963-0.868-1.723-1.905-2.278-3.113c-0.556-1.207-0.834-2.556-0.834-4.048
			c0-1.03,0.095-1.973,0.285-2.828c0.189-0.854,0.44-1.661,0.753-2.421c0.312-0.759,0.678-1.485,1.099-2.177
			c0.42-0.692,0.86-1.404,1.322-2.136l6.307-9.846h7.446L742.79,116.895z M747.713,125.765c0-1.302-0.427-2.38-1.282-3.234
			s-1.973-1.282-3.357-1.282c-1.383,0-2.502,0.427-3.356,1.282s-1.282,1.933-1.282,3.234c0,1.302,0.427,2.38,1.282,3.235
			s1.973,1.282,3.356,1.282c1.384,0,2.502-0.427,3.357-1.282S747.713,127.067,747.713,125.765z"/>
	</g>
	<g>
		<path fill="#7F7F7F" d="M946.027,115.634h6.51l4.028,12.41h0.081l3.377-12.41h6.673l3.662,12.41h0.081l3.703-12.41h6.185
			l-7.039,19.774h-6.021l-4.11-13.142h-0.081l-3.662,13.142h-6.144L946.027,115.634z"/>
		<path fill="#7F7F7F" d="M1000.996,131.99c-0.977,1.248-2.211,2.211-3.703,2.889c-1.491,0.678-3.038,1.017-4.638,1.017
			c-1.52,0-2.95-0.244-4.293-0.732s-2.509-1.187-3.499-2.095s-1.77-2-2.34-3.275c-0.569-1.275-0.854-2.699-0.854-4.272
			c0-1.573,0.285-2.997,0.854-4.272c0.57-1.275,1.35-2.366,2.34-3.275c0.99-0.909,2.156-1.607,3.499-2.095
			c1.343-0.488,2.773-0.732,4.293-0.732c1.41,0,2.691,0.244,3.845,0.732c1.152,0.488,2.129,1.187,2.93,2.095
			c0.8,0.909,1.417,2,1.852,3.275c0.434,1.275,0.65,2.699,0.65,4.272v1.913h-14.159c0.244,1.167,0.773,2.095,1.587,2.787
			c0.813,0.691,1.817,1.038,3.011,1.038c1.003,0,1.852-0.224,2.543-0.671c0.691-0.448,1.295-1.024,1.811-1.729L1000.996,131.99z
			 M995.829,123.283c0.026-1.03-0.312-1.912-1.018-2.645c-0.706-0.732-1.614-1.099-2.727-1.099c-0.678,0-1.274,0.109-1.79,0.326
			c-0.516,0.217-0.956,0.495-1.322,0.834c-0.366,0.339-0.65,0.732-0.854,1.18c-0.203,0.448-0.319,0.916-0.346,1.404H995.829z"/>
		<path fill="#7F7F7F" d="M1024.35,131.99c-0.977,1.248-2.211,2.211-3.702,2.889c-1.492,0.678-3.038,1.017-4.639,1.017
			c-1.52,0-2.949-0.244-4.292-0.732s-2.51-1.187-3.499-2.095c-0.991-0.909-1.771-2-2.34-3.275c-0.569-1.275-0.854-2.699-0.854-4.272
			c0-1.573,0.285-2.997,0.854-4.272c0.569-1.275,1.349-2.366,2.34-3.275c0.989-0.909,2.156-1.607,3.499-2.095
			c1.343-0.488,2.772-0.732,4.292-0.732c1.41,0,2.692,0.244,3.846,0.732c1.152,0.488,2.129,1.187,2.929,2.095
			c0.8,0.909,1.417,2,1.852,3.275c0.434,1.275,0.651,2.699,0.651,4.272v1.913h-14.159c0.244,1.167,0.772,2.095,1.586,2.787
			c0.814,0.691,1.817,1.038,3.012,1.038c1.003,0,1.851-0.224,2.543-0.671c0.691-0.448,1.295-1.024,1.811-1.729L1024.35,131.99z
			 M1019.183,123.283c0.026-1.03-0.312-1.912-1.018-2.645s-1.613-1.099-2.726-1.099c-0.679,0-1.275,0.109-1.79,0.326
			c-0.516,0.217-0.956,0.495-1.322,0.834c-0.366,0.339-0.651,0.732-0.854,1.18c-0.204,0.448-0.319,0.916-0.346,1.404H1019.183z"/>
		<path fill="#7F7F7F" d="M1028.987,104.648h6.104v18.798l6.754-7.812h7.486l-7.853,8.91l8.057,10.864h-7.69l-6.673-10.009h-0.081
			v10.009h-6.104V104.648z"/>
		<path fill="#7F7F7F" d="M1077.243,112.216h-14.241v-5.615h21.076v5.371l-11.515,23.436h-7.12L1077.243,112.216z"/>
	</g>
	<g>
		<path fill="#7F7F7F" d="M1278.72,115.634h6.51l4.028,12.41h0.081l3.377-12.41h6.673l3.662,12.41h0.081l3.703-12.41h6.185
			l-7.039,19.774h-6.021l-4.11-13.142h-0.081l-3.662,13.142h-6.144L1278.72,115.634z"/>
		<path fill="#7F7F7F" d="M1333.688,131.99c-0.977,1.248-2.211,2.211-3.703,2.889c-1.491,0.678-3.038,1.017-4.638,1.017
			c-1.52,0-2.95-0.244-4.293-0.732s-2.509-1.187-3.499-2.095s-1.77-2-2.34-3.275c-0.569-1.275-0.854-2.699-0.854-4.272
			c0-1.573,0.285-2.997,0.854-4.272c0.57-1.275,1.35-2.366,2.34-3.275c0.99-0.909,2.156-1.607,3.499-2.095
			c1.343-0.488,2.773-0.732,4.293-0.732c1.41,0,2.691,0.244,3.845,0.732c1.152,0.488,2.129,1.187,2.93,2.095
			c0.8,0.909,1.417,2,1.852,3.275c0.434,1.275,0.65,2.699,0.65,4.272v1.913h-14.159c0.244,1.167,0.773,2.095,1.587,2.787
			c0.813,0.691,1.817,1.038,3.011,1.038c1.003,0,1.852-0.224,2.543-0.671c0.691-0.448,1.295-1.024,1.811-1.729L1333.688,131.99z
			 M1328.521,123.283c0.026-1.03-0.312-1.912-1.018-2.645c-0.706-0.732-1.614-1.099-2.727-1.099c-0.678,0-1.274,0.109-1.79,0.326
			c-0.516,0.217-0.956,0.495-1.322,0.834c-0.366,0.339-0.65,0.732-0.854,1.18c-0.203,0.448-0.319,0.916-0.346,1.404H1328.521z"/>
		<path fill="#7F7F7F" d="M1357.042,131.99c-0.977,1.248-2.211,2.211-3.702,2.889c-1.492,0.678-3.038,1.017-4.639,1.017
			c-1.52,0-2.949-0.244-4.292-0.732s-2.51-1.187-3.499-2.095c-0.991-0.909-1.771-2-2.34-3.275c-0.569-1.275-0.854-2.699-0.854-4.272
			c0-1.573,0.285-2.997,0.854-4.272c0.569-1.275,1.349-2.366,2.34-3.275c0.989-0.909,2.156-1.607,3.499-2.095
			c1.343-0.488,2.772-0.732,4.292-0.732c1.41,0,2.692,0.244,3.846,0.732c1.152,0.488,2.129,1.187,2.929,2.095
			c0.8,0.909,1.417,2,1.852,3.275c0.434,1.275,0.651,2.699,0.651,4.272v1.913h-14.159c0.244,1.167,0.772,2.095,1.586,2.787
			c0.814,0.691,1.817,1.038,3.012,1.038c1.003,0,1.851-0.224,2.543-0.671c0.691-0.448,1.295-1.024,1.811-1.729L1357.042,131.99z
			 M1351.875,123.283c0.026-1.03-0.312-1.912-1.018-2.645s-1.613-1.099-2.726-1.099c-0.679,0-1.275,0.109-1.79,0.326
			c-0.516,0.217-0.956,0.495-1.322,0.834c-0.366,0.339-0.651,0.732-0.854,1.18c-0.204,0.448-0.319,0.916-0.346,1.404H1351.875z"/>
		<path fill="#7F7F7F" d="M1361.68,104.648h6.104v18.798l6.754-7.812h7.486l-7.853,8.91l8.057,10.864h-7.69l-6.673-10.009h-0.081
			v10.009h-6.104V104.648z"/>
		<path fill="#7F7F7F" d="M1396.59,114.047c0-1.329,0.25-2.488,0.753-3.479c0.501-0.99,1.193-1.817,2.075-2.482
			c0.881-0.664,1.905-1.16,3.071-1.485c1.166-0.326,2.414-0.488,3.743-0.488s2.577,0.163,3.743,0.488
			c1.166,0.325,2.184,0.821,3.052,1.485c0.868,0.665,1.56,1.492,2.075,2.482c0.515,0.991,0.773,2.15,0.773,3.479
			c0,1.573-0.428,2.916-1.282,4.028c-0.854,1.113-2.055,1.899-3.601,2.36v0.082c1.735,0.461,3.064,1.295,3.987,2.502
			c0.922,1.207,1.384,2.706,1.384,4.496c0,1.384-0.279,2.604-0.834,3.662c-0.557,1.058-1.303,1.933-2.238,2.625
			c-0.936,0.691-2.014,1.214-3.234,1.566c-1.221,0.352-2.496,0.529-3.825,0.529s-2.604-0.177-3.824-0.529
			c-1.221-0.353-2.299-0.875-3.234-1.566c-0.937-0.692-1.683-1.567-2.238-2.625c-0.557-1.058-0.834-2.278-0.834-3.662
			c0-1.79,0.461-3.289,1.384-4.496c0.921-1.207,2.251-2.041,3.987-2.502v-0.082c-1.547-0.461-2.747-1.247-3.602-2.36
			C1397.017,116.963,1396.59,115.62,1396.59,114.047z M1402.205,126.66c0,1.004,0.366,1.858,1.098,2.563
			c0.732,0.706,1.709,1.058,2.93,1.058s2.197-0.353,2.93-1.058c0.732-0.705,1.099-1.56,1.099-2.563c0-1.03-0.366-1.898-1.099-2.604
			c-0.732-0.705-1.709-1.058-2.93-1.058s-2.197,0.353-2.93,1.058C1402.571,124.762,1402.205,125.629,1402.205,126.66z
			 M1402.693,114.901c0,0.895,0.325,1.655,0.976,2.278c0.651,0.625,1.506,0.936,2.563,0.936c1.059,0,1.913-0.312,2.563-0.936
			c0.651-0.624,0.977-1.383,0.977-2.278c0-0.868-0.325-1.614-0.977-2.238c-0.65-0.624-1.505-0.936-2.563-0.936
			c-1.058,0-1.912,0.312-2.563,0.936C1403.019,113.288,1402.693,114.033,1402.693,114.901z"/>
	</g>
	<circle fill="#FFFFFF" cx="331.385" cy="297.846" r="15.385"/>
	<circle fill="#FFFFFF" cx="1335.385" cy="297.846" r="15.385"/>
	<circle fill="#FFFFFF" cx="1002.385" cy="297.846" r="15.385"/>
	<line fill="none" stroke="#FCFCFC" stroke-width="7" stroke-miterlimit="10" x1="347" y1="297.5" x2="1335" y2="297.5"/>
	<g>
		<g>
			
				<line fill="none" stroke="#FCFCFC" stroke-width="7" stroke-miterlimit="10" x1="331.385" y1="297.846" x2="325.385" y2="297.833"/>
			
				<line fill="none" stroke="#FCFCFC" stroke-width="7" stroke-miterlimit="10" stroke-dasharray="12.8532,12.8532" x1="312.531" y1="297.804" x2="190.427" y2="297.528"/>
			<line fill="none" stroke="#FCFCFC" stroke-width="7" stroke-miterlimit="10" x1="184" y1="297.514" x2="178" y2="297.5"/>
		</g>
	</g>
	<g>
	</g>
	<g>
	</g>
	<g>
	</g>
	<g>
	</g>
	<g>
	</g>
	<g>
	</g>
	<g>
	</g>
	<g>
	</g>
	<g>
	</g>
	<g>
	</g>
	<g>
	</g>
	<g>
	</g>
	<g>
	</g>
	<g>
	</g>
	<g>
	</g>
</g>
</svg>
