<?xml version="1.0" encoding="utf-8"?>
<!-- Generator: Adobe Illustrator 17.0.0, SVG Export Plug-In . SVG Version: 6.00 Build 0)  -->
<!DOCTYPE svg PUBLIC "-//W3C//DTD SVG 1.1//EN" "http://www.w3.org/Graphics/SVG/1.1/DTD/svg11.dtd">
<svg version="1.1" xmlns="http://www.w3.org/2000/svg" xmlns:xlink="http://www.w3.org/1999/xlink" x="0px" y="0px" width="1532px"
	 height="804px" viewBox="0 0 1532 804" enable-background="new 0 0 1532 804" xml:space="preserve">
<g id="Layer_2" display="none">
	<rect display="inline" width="1532" height="804"/>
</g>
<g id="Layer_1">
	<circle fill="none" stroke="#7F7F7F" stroke-width="7" stroke-miterlimit="10" cx="786.826" cy="197.809" r="56.013"/>
	<polyline fill="none" stroke="#7F7F7F" stroke-width="7" stroke-miterlimit="10" points="719,174.5 731.813,199 747.5,177 	"/>
	<g>
		<path fill="#FFFFFF" d="M140.768,528.484h5.615v2.604h0.082c0.244-0.353,0.562-0.713,0.956-1.078
			c0.393-0.367,0.854-0.698,1.383-0.997c0.529-0.298,1.105-0.542,1.729-0.732c0.624-0.189,1.288-0.284,1.994-0.284
			c1.465,0,2.793,0.25,3.987,0.752c1.193,0.502,2.217,1.207,3.072,2.115c0.854,0.91,1.512,1.988,1.974,3.235
			c0.461,1.248,0.691,2.618,0.691,4.109c0,1.384-0.21,2.706-0.63,3.967c-0.421,1.262-1.018,2.38-1.791,3.356
			s-1.716,1.757-2.828,2.34c-1.113,0.583-2.374,0.875-3.784,0.875c-1.275,0-2.461-0.197-3.56-0.59s-2-1.064-2.706-2.014h-0.082
			v11.393h-6.103V528.484z M146.382,538.371c0,1.492,0.427,2.699,1.282,3.621s2.055,1.383,3.601,1.383
			c1.546,0,2.746-0.461,3.601-1.383s1.282-2.129,1.282-3.621s-0.427-2.699-1.282-3.621s-2.055-1.384-3.601-1.384
			c-1.546,0-2.747,0.462-3.601,1.384S146.382,536.879,146.382,538.371z"/>
		<path fill="#FFFFFF" d="M165.831,528.484h6.104v3.173h0.081c0.651-1.221,1.424-2.136,2.319-2.746s2.021-0.915,3.377-0.915
			c0.352,0,0.705,0.014,1.058,0.04c0.352,0.027,0.678,0.081,0.977,0.163v5.574c-0.435-0.136-0.862-0.237-1.282-0.306
			c-0.421-0.067-0.861-0.102-1.322-0.102c-1.167,0-2.089,0.163-2.767,0.488c-0.678,0.325-1.2,0.78-1.566,1.362
			c-0.366,0.584-0.604,1.282-0.712,2.096c-0.109,0.814-0.163,1.709-0.163,2.686v8.26h-6.104V528.484z"/>
		<path fill="#FFFFFF" d="M180.926,538.371c0-1.573,0.285-2.997,0.854-4.272c0.57-1.274,1.349-2.366,2.34-3.275
			c0.99-0.909,2.156-1.607,3.499-2.095c1.343-0.488,2.773-0.732,4.292-0.732c1.519,0,2.95,0.244,4.292,0.732
			c1.343,0.487,2.509,1.186,3.499,2.095s1.77,2.001,2.34,3.275c0.569,1.275,0.854,2.699,0.854,4.272s-0.285,2.997-0.854,4.271
			c-0.57,1.275-1.35,2.367-2.34,3.275c-0.99,0.909-2.156,1.607-3.499,2.096s-2.773,0.732-4.292,0.732
			c-1.52,0-2.95-0.244-4.292-0.732s-2.509-1.187-3.499-2.096c-0.991-0.908-1.77-2-2.34-3.275
			C181.211,541.368,180.926,539.944,180.926,538.371z M187.029,538.371c0,1.492,0.427,2.699,1.282,3.621
			c0.854,0.922,2.055,1.383,3.601,1.383c1.546,0,2.747-0.461,3.601-1.383c0.854-0.922,1.281-2.129,1.281-3.621
			s-0.427-2.699-1.281-3.621c-0.854-0.922-2.055-1.384-3.601-1.384c-1.546,0-2.747,0.462-3.601,1.384
			C187.457,535.672,187.029,536.879,187.029,538.371z"/>
		<path fill="#FFFFFF" d="M227.228,548.258h-5.615v-2.604h-0.081c-0.244,0.353-0.563,0.711-0.956,1.078
			c-0.394,0.365-0.854,0.698-1.384,0.996c-0.529,0.299-1.112,0.543-1.75,0.732c-0.638,0.189-1.295,0.285-1.973,0.285
			c-1.465,0-2.794-0.251-3.987-0.753c-1.194-0.501-2.218-1.206-3.072-2.116c-0.854-0.908-1.512-1.986-1.973-3.234
			c-0.461-1.247-0.692-2.617-0.692-4.109c0-1.383,0.21-2.705,0.631-3.967c0.42-1.262,1.017-2.381,1.79-3.356
			c0.773-0.977,1.715-1.757,2.828-2.34c1.112-0.583,2.373-0.874,3.784-0.874c1.275,0,2.462,0.196,3.56,0.59
			c1.099,0.393,2,1.064,2.706,2.014h0.081v-13.102h6.104V548.258z M221.613,538.371c0-1.492-0.427-2.699-1.281-3.621
			c-0.854-0.922-2.055-1.384-3.601-1.384c-1.546,0-2.747,0.462-3.601,1.384c-0.854,0.922-1.282,2.129-1.282,3.621
			s0.427,2.699,1.282,3.621c0.854,0.922,2.055,1.383,3.601,1.383c1.546,0,2.747-0.461,3.601-1.383
			C221.186,541.07,221.613,539.863,221.613,538.371z"/>
		<path fill="#FFFFFF" d="M251.152,548.258h-5.859v-2.686h-0.082c-0.217,0.381-0.495,0.76-0.834,1.14
			c-0.339,0.38-0.753,0.719-1.241,1.017c-0.488,0.299-1.044,0.543-1.668,0.732c-0.625,0.189-1.302,0.285-2.035,0.285
			c-1.546,0-2.801-0.238-3.763-0.712c-0.963-0.475-1.709-1.132-2.238-1.974c-0.529-0.84-0.882-1.83-1.058-2.971
			c-0.177-1.139-0.265-2.373-0.265-3.702v-10.903h6.104v9.684c0,0.568,0.02,1.159,0.061,1.77c0.041,0.609,0.163,1.174,0.366,1.688
			c0.203,0.515,0.515,0.936,0.936,1.261c0.42,0.326,1.023,0.488,1.811,0.488c0.787,0,1.424-0.143,1.913-0.427
			c0.488-0.285,0.86-0.665,1.119-1.14c0.257-0.475,0.427-1.01,0.509-1.607c0.081-0.596,0.122-1.221,0.122-1.871v-9.846h6.103
			V548.258z"/>
		<path fill="#FFFFFF" d="M268.85,534.871c-0.299-0.434-0.719-0.793-1.261-1.078c-0.543-0.284-1.126-0.427-1.75-0.427
			c-1.546,0-2.747,0.462-3.601,1.384c-0.854,0.922-1.281,2.129-1.281,3.621s0.427,2.699,1.281,3.621
			c0.854,0.922,2.055,1.383,3.601,1.383c0.678,0,1.261-0.148,1.75-0.447s0.909-0.65,1.261-1.058l4.028,4.231
			c-0.95,0.977-2.069,1.662-3.357,2.055c-1.289,0.393-2.516,0.59-3.682,0.59c-1.52,0-2.95-0.244-4.292-0.732
			s-2.509-1.187-3.499-2.096c-0.991-0.908-1.77-2-2.34-3.275c-0.569-1.274-0.854-2.698-0.854-4.271s0.285-2.997,0.854-4.272
			c0.57-1.274,1.349-2.366,2.34-3.275c0.99-0.909,2.156-1.607,3.499-2.095c1.343-0.488,2.773-0.732,4.292-0.732
			c1.166,0,2.394,0.196,3.682,0.59c1.288,0.393,2.407,1.078,3.357,2.055L268.85,534.871z"/>
		<path fill="#FFFFFF" d="M288.543,533.366h-5.371v6.591c0,0.543,0.026,1.038,0.081,1.486c0.054,0.447,0.176,0.834,0.366,1.158
			c0.189,0.326,0.481,0.577,0.875,0.754c0.393,0.176,0.916,0.264,1.566,0.264c0.326,0,0.753-0.033,1.282-0.102
			c0.529-0.067,0.929-0.224,1.2-0.468v5.086c-0.678,0.244-1.383,0.407-2.116,0.488s-1.452,0.122-2.156,0.122
			c-1.031,0-1.98-0.109-2.848-0.326c-0.869-0.217-1.628-0.562-2.279-1.037s-1.16-1.092-1.526-1.852
			c-0.366-0.759-0.549-1.682-0.549-2.766v-9.399h-3.906v-4.882h3.906v-5.859h6.104v5.859h5.371V533.366z"/>
		<path fill="#FFFFFF" d="M141.113,566.323h6.103v13.102h0.082c0.705-0.949,1.607-1.62,2.706-2.015
			c1.099-0.393,2.285-0.59,3.56-0.59c1.41,0,2.671,0.292,3.784,0.875c1.112,0.584,2.055,1.363,2.828,2.34s1.37,2.096,1.791,3.356
			c0.42,1.261,0.63,2.583,0.63,3.968c0,1.491-0.23,2.861-0.691,4.109c-0.462,1.248-1.119,2.326-1.974,3.234
			s-1.878,1.613-3.072,2.115c-1.194,0.502-2.522,0.753-3.987,0.753c-0.706,0-1.37-0.095-1.994-0.284
			c-0.625-0.191-1.2-0.434-1.729-0.732c-0.529-0.299-0.99-0.631-1.383-0.998c-0.394-0.365-0.712-0.725-0.956-1.078h-0.082v2.604
			h-5.615V566.323z M146.728,587.195c0,1.492,0.427,2.7,1.282,3.621c0.854,0.924,2.055,1.385,3.601,1.385
			c1.546,0,2.746-0.461,3.601-1.385c0.854-0.921,1.282-2.129,1.282-3.621c0-1.49-0.427-2.698-1.282-3.621
			c-0.854-0.922-2.055-1.383-3.601-1.383c-1.546,0-2.747,0.461-3.601,1.383C147.155,584.497,146.728,585.705,146.728,587.195z"/>
		<path fill="#FFFFFF" d="M178.586,594.602h-0.081c-0.678,1.058-1.581,1.816-2.706,2.277s-2.312,0.692-3.56,0.692
			c-0.922,0-1.811-0.129-2.665-0.387c-0.854-0.257-1.607-0.644-2.258-1.159c-0.651-0.516-1.167-1.152-1.546-1.912
			c-0.38-0.76-0.569-1.641-0.569-2.645c0-1.14,0.209-2.103,0.63-2.89c0.42-0.786,0.99-1.437,1.709-1.952
			c0.718-0.516,1.539-0.916,2.461-1.201c0.922-0.285,1.878-0.494,2.869-0.631c0.99-0.135,1.979-0.217,2.97-0.244
			c0.99-0.026,1.905-0.04,2.746-0.04c0-1.085-0.386-1.946-1.159-2.584c-0.773-0.637-1.689-0.956-2.747-0.956
			c-1.004,0-1.919,0.211-2.747,0.631c-0.828,0.421-1.566,0.996-2.217,1.729l-3.255-3.336c1.139-1.058,2.468-1.852,3.987-2.38
			c1.519-0.529,3.092-0.794,4.72-0.794c1.79,0,3.261,0.225,4.415,0.672c1.152,0.447,2.075,1.105,2.767,1.973
			c0.692,0.869,1.173,1.934,1.444,3.194c0.271,1.261,0.407,2.72,0.407,4.374v10.05h-5.615V594.602z M177.081,588.416
			c-0.461,0-1.038,0.021-1.729,0.062c-0.692,0.04-1.357,0.156-1.994,0.346c-0.638,0.19-1.18,0.476-1.627,0.854
			c-0.448,0.381-0.671,0.909-0.671,1.587c0,0.732,0.312,1.275,0.936,1.628s1.275,0.528,1.953,0.528c0.596,0,1.173-0.081,1.729-0.243
			c0.556-0.164,1.051-0.394,1.485-0.692c0.434-0.298,0.779-0.678,1.038-1.14c0.257-0.461,0.386-1.003,0.386-1.627v-1.303H177.081z"
			/>
		<path fill="#FFFFFF" d="M201.411,583.697c-0.299-0.434-0.719-0.794-1.261-1.078c-0.543-0.285-1.126-0.428-1.75-0.428
			c-1.546,0-2.747,0.461-3.601,1.383c-0.854,0.923-1.281,2.131-1.281,3.621c0,1.492,0.427,2.7,1.281,3.621
			c0.854,0.924,2.055,1.385,3.601,1.385c0.678,0,1.261-0.149,1.75-0.448c0.488-0.298,0.909-0.651,1.261-1.058l4.028,4.231
			c-0.95,0.976-2.069,1.661-3.357,2.055c-1.289,0.393-2.516,0.59-3.682,0.59c-1.52,0-2.95-0.244-4.292-0.732
			s-2.509-1.187-3.499-2.095c-0.991-0.909-1.77-2-2.34-3.275c-0.569-1.275-0.854-2.699-0.854-4.273c0-1.572,0.285-2.996,0.854-4.271
			c0.57-1.275,1.349-2.366,2.34-3.275c0.99-0.908,2.156-1.607,3.499-2.096s2.773-0.732,4.292-0.732c1.166,0,2.394,0.197,3.682,0.59
			c1.288,0.395,2.407,1.078,3.357,2.055L201.411,583.697z"/>
		<path fill="#FFFFFF" d="M207.636,566.323h6.104v18.798l6.754-7.812h7.486l-7.853,8.91l8.056,10.864h-7.69l-6.673-10.009h-0.081
			v10.009h-6.104V566.323z"/>
		<path fill="#FFFFFF" d="M230.34,566.323h6.103v30.76h-6.103V566.323z"/>
		<path fill="#FFFFFF" d="M240.104,587.195c0-1.572,0.285-2.996,0.854-4.271c0.57-1.275,1.349-2.366,2.34-3.275
			c0.99-0.908,2.156-1.607,3.499-2.096s2.773-0.732,4.292-0.732c1.519,0,2.95,0.244,4.292,0.732s2.509,1.188,3.499,2.096
			c0.99,0.909,1.77,2,2.34,3.275c0.569,1.275,0.854,2.699,0.854,4.271c0,1.574-0.285,2.998-0.854,4.273
			c-0.57,1.275-1.35,2.366-2.34,3.275c-0.99,0.908-2.156,1.606-3.499,2.095s-2.773,0.732-4.292,0.732
			c-1.52,0-2.95-0.244-4.292-0.732s-2.509-1.187-3.499-2.095c-0.991-0.909-1.77-2-2.34-3.275
			C240.39,590.193,240.104,588.77,240.104,587.195z M246.208,587.195c0,1.492,0.427,2.7,1.282,3.621
			c0.854,0.924,2.055,1.385,3.601,1.385c1.546,0,2.747-0.461,3.601-1.385c0.854-0.921,1.281-2.129,1.281-3.621
			c0-1.49-0.427-2.698-1.281-3.621c-0.854-0.922-2.055-1.383-3.601-1.383c-1.546,0-2.747,0.461-3.601,1.383
			C246.635,584.497,246.208,585.705,246.208,587.195z"/>
		<path fill="#FFFFFF" d="M286.406,595.415c0,3.743-0.943,6.584-2.828,8.524c-1.885,1.938-4.754,2.908-8.605,2.908
			c-1.763,0-3.499-0.197-5.208-0.59c-1.709-0.393-3.283-1.159-4.72-2.299l3.377-5.045c0.949,0.786,1.946,1.41,2.99,1.871
			c1.044,0.461,2.19,0.691,3.438,0.691c1.872,0,3.248-0.454,4.129-1.362c0.881-0.909,1.322-2.069,1.322-3.479v-1.912h-0.081
			c-0.706,0.95-1.581,1.621-2.625,2.015c-1.044,0.393-2.028,0.59-2.95,0.59c-1.465,0-2.794-0.251-3.987-0.753
			c-1.194-0.502-2.218-1.207-3.072-2.115c-0.854-0.908-1.512-1.986-1.973-3.234c-0.461-1.248-0.692-2.618-0.692-4.109
			c0-1.303,0.21-2.577,0.631-3.825c0.42-1.247,1.017-2.347,1.79-3.296c0.773-0.949,1.715-1.715,2.828-2.299
			c1.112-0.583,2.373-0.875,3.784-0.875c0.868,0,1.661,0.096,2.38,0.285c0.718,0.189,1.363,0.434,1.933,0.732
			s1.058,0.631,1.465,0.996c0.407,0.367,0.732,0.727,0.977,1.079h0.081v-2.604h5.615V595.415z M271.026,587.074
			c0,0.65,0.122,1.268,0.366,1.852c0.244,0.583,0.59,1.098,1.037,1.545c0.448,0.448,0.963,0.809,1.546,1.078
			c0.583,0.271,1.227,0.408,1.933,0.408c0.678,0,1.315-0.137,1.912-0.408c0.597-0.27,1.119-0.63,1.567-1.078
			c0.447-0.447,0.793-0.962,1.037-1.545c0.244-0.584,0.366-1.201,0.366-1.852c0-0.651-0.122-1.268-0.366-1.852
			c-0.244-0.583-0.59-1.099-1.037-1.547c-0.448-0.447-0.97-0.807-1.567-1.078c-0.597-0.27-1.234-0.406-1.912-0.406
			c-0.706,0-1.35,0.137-1.933,0.406c-0.583,0.271-1.099,0.631-1.546,1.078c-0.447,0.448-0.793,0.964-1.037,1.547
			C271.148,585.807,271.026,586.423,271.026,587.074z"/>
	</g>
	<g>
		<path fill="#FFFFFF" d="M510.378,534.302c-0.896-1.112-2.075-1.668-3.54-1.668c-0.516,0-1.017,0.122-1.505,0.366
			s-0.732,0.665-0.732,1.262c0,0.488,0.25,0.848,0.753,1.078c0.501,0.23,1.139,0.434,1.912,0.609c0.773,0.178,1.6,0.367,2.482,0.57
			c0.881,0.203,1.709,0.522,2.482,0.956c0.773,0.435,1.41,1.024,1.912,1.771s0.753,1.742,0.753,2.99
			c0,1.275-0.278,2.326-0.834,3.152c-0.556,0.828-1.269,1.492-2.136,1.994c-0.868,0.502-1.845,0.854-2.93,1.059
			c-1.085,0.203-2.156,0.305-3.214,0.305c-1.384,0-2.781-0.197-4.191-0.59c-1.411-0.393-2.604-1.092-3.581-2.096l3.703-4.109
			c0.569,0.705,1.2,1.241,1.892,1.607c0.692,0.366,1.499,0.549,2.421,0.549c0.705,0,1.343-0.102,1.913-0.305
			c0.569-0.203,0.854-0.576,0.854-1.119c0-0.516-0.251-0.901-0.753-1.16c-0.502-0.257-1.139-0.474-1.912-0.65
			c-0.773-0.176-1.601-0.366-2.482-0.57c-0.882-0.203-1.709-0.508-2.482-0.915s-1.411-0.982-1.913-1.729
			c-0.502-0.745-0.752-1.742-0.752-2.99c0-1.166,0.237-2.17,0.712-3.011c0.474-0.841,1.099-1.532,1.872-2.075
			c0.773-0.542,1.661-0.941,2.665-1.2c1.003-0.257,2.021-0.386,3.052-0.386c1.302,0,2.617,0.189,3.947,0.568
			c1.329,0.381,2.455,1.059,3.377,2.035L510.378,534.302z"/>
		<path fill="#FFFFFF" d="M518.597,528.484h5.615v2.604h0.082c0.244-0.353,0.562-0.713,0.956-1.078
			c0.393-0.367,0.854-0.698,1.383-0.997c0.529-0.298,1.105-0.542,1.729-0.732c0.624-0.189,1.288-0.284,1.994-0.284
			c1.465,0,2.793,0.25,3.987,0.752c1.193,0.502,2.217,1.207,3.072,2.115c0.854,0.91,1.512,1.988,1.974,3.235
			c0.461,1.248,0.691,2.618,0.691,4.109c0,1.384-0.21,2.706-0.63,3.967c-0.421,1.262-1.018,2.38-1.791,3.356
			s-1.716,1.757-2.828,2.34c-1.113,0.583-2.374,0.875-3.784,0.875c-1.275,0-2.461-0.197-3.56-0.59s-2-1.064-2.706-2.014H524.7
			v11.393h-6.103V528.484z M524.211,538.371c0,1.492,0.427,2.699,1.282,3.621s2.055,1.383,3.601,1.383
			c1.546,0,2.746-0.461,3.601-1.383s1.282-2.129,1.282-3.621s-0.427-2.699-1.282-3.621s-2.055-1.384-3.601-1.384
			c-1.546,0-2.747,0.462-3.601,1.384S524.211,536.879,524.211,538.371z"/>
		<path fill="#FFFFFF" d="M543.659,528.484h6.104v3.173h0.081c0.651-1.221,1.424-2.136,2.319-2.746s2.021-0.915,3.377-0.915
			c0.352,0,0.705,0.014,1.058,0.04c0.352,0.027,0.678,0.081,0.977,0.163v5.574c-0.435-0.136-0.862-0.237-1.282-0.306
			c-0.421-0.067-0.861-0.102-1.322-0.102c-1.167,0-2.089,0.163-2.767,0.488c-0.678,0.325-1.2,0.78-1.566,1.362
			c-0.366,0.584-0.604,1.282-0.712,2.096c-0.109,0.814-0.163,1.709-0.163,2.686v8.26h-6.104V528.484z"/>
		<path fill="#FFFFFF" d="M559.812,522.258c0-0.976,0.346-1.811,1.038-2.502s1.526-1.037,2.502-1.037s1.811,0.346,2.502,1.037
			c0.692,0.691,1.038,1.526,1.038,2.502c0,0.977-0.346,1.812-1.038,2.503c-0.691,0.692-1.525,1.038-2.502,1.038
			s-1.811-0.346-2.502-1.038C560.158,524.069,559.812,523.234,559.812,522.258z M560.301,528.484h6.103v19.773h-6.103V528.484z"/>
		<path fill="#FFFFFF" d="M570.797,528.484h5.859v2.685h0.081c0.189-0.38,0.461-0.759,0.814-1.14
			c0.352-0.379,0.773-0.718,1.261-1.017c0.488-0.298,1.044-0.542,1.668-0.732c0.624-0.189,1.302-0.284,2.035-0.284
			c1.546,0,2.793,0.237,3.743,0.711c0.949,0.475,1.688,1.133,2.217,1.974c0.529,0.841,0.888,1.831,1.079,2.97
			c0.189,1.14,0.285,2.375,0.285,3.703v10.904h-6.103v-9.684c0-0.57-0.021-1.16-0.061-1.77c-0.041-0.611-0.163-1.174-0.366-1.689
			c-0.204-0.515-0.516-0.936-0.936-1.261c-0.421-0.325-1.024-0.488-1.811-0.488c-0.787,0-1.424,0.143-1.912,0.427
			c-0.488,0.285-0.862,0.666-1.119,1.14c-0.258,0.476-0.427,1.011-0.508,1.607c-0.082,0.597-0.122,1.22-0.122,1.872v9.846h-6.104
			V528.484z"/>
		<path fill="#FFFFFF" d="M607.62,533.366h-5.371v6.591c0,0.543,0.026,1.038,0.081,1.486c0.054,0.447,0.176,0.834,0.366,1.158
			c0.189,0.326,0.481,0.577,0.875,0.754c0.393,0.176,0.916,0.264,1.566,0.264c0.326,0,0.753-0.033,1.282-0.102
			c0.529-0.067,0.929-0.224,1.2-0.468v5.086c-0.678,0.244-1.383,0.407-2.116,0.488s-1.452,0.122-2.156,0.122
			c-1.031,0-1.98-0.109-2.848-0.326c-0.869-0.217-1.628-0.562-2.279-1.037s-1.16-1.092-1.526-1.852
			c-0.366-0.759-0.549-1.682-0.549-2.766v-9.399h-3.906v-4.882h3.906v-5.859h6.104v5.859h5.371V533.366z"/>
		<path fill="#FFFFFF" d="M473.353,577.309h5.615v2.604h0.082c0.244-0.353,0.562-0.712,0.956-1.079
			c0.393-0.365,0.854-0.697,1.383-0.996c0.529-0.299,1.105-0.543,1.729-0.732c0.624-0.189,1.288-0.285,1.994-0.285
			c1.465,0,2.793,0.252,3.987,0.753c1.193,0.503,2.217,1.208,3.072,2.116s1.512,1.986,1.974,3.234
			c0.461,1.248,0.691,2.617,0.691,4.109c0,1.383-0.21,2.705-0.63,3.967c-0.421,1.262-1.018,2.381-1.791,3.357
			s-1.716,1.756-2.828,2.339c-1.113,0.583-2.374,0.875-3.784,0.875c-1.275,0-2.461-0.197-3.56-0.59
			c-1.099-0.394-2-1.064-2.706-2.015h-0.082v11.393h-6.103V577.309z M478.968,587.195c0,1.492,0.427,2.7,1.282,3.621
			c0.854,0.924,2.055,1.385,3.601,1.385c1.546,0,2.746-0.461,3.601-1.385c0.854-0.921,1.282-2.129,1.282-3.621
			c0-1.49-0.427-2.698-1.282-3.621c-0.854-0.922-2.055-1.383-3.601-1.383c-1.546,0-2.747,0.461-3.601,1.383
			C479.395,584.497,478.968,585.705,478.968,587.195z"/>
		<path fill="#FFFFFF" d="M498.498,566.323h6.103v30.76h-6.103V566.323z"/>
		<path fill="#FFFFFF" d="M521.404,594.602h-0.081c-0.678,1.058-1.581,1.816-2.706,2.277s-2.312,0.692-3.56,0.692
			c-0.922,0-1.811-0.129-2.665-0.387c-0.854-0.257-1.607-0.644-2.258-1.159c-0.651-0.516-1.167-1.152-1.546-1.912
			c-0.38-0.76-0.569-1.641-0.569-2.645c0-1.14,0.209-2.103,0.63-2.89c0.42-0.786,0.99-1.437,1.709-1.952
			c0.718-0.516,1.539-0.916,2.461-1.201c0.922-0.285,1.878-0.494,2.869-0.631c0.99-0.135,1.979-0.217,2.97-0.244
			c0.99-0.026,1.905-0.04,2.746-0.04c0-1.085-0.386-1.946-1.159-2.584c-0.773-0.637-1.689-0.956-2.747-0.956
			c-1.004,0-1.919,0.211-2.747,0.631c-0.828,0.421-1.566,0.996-2.217,1.729l-3.255-3.336c1.139-1.058,2.468-1.852,3.987-2.38
			c1.519-0.529,3.092-0.794,4.72-0.794c1.79,0,3.261,0.225,4.415,0.672c1.152,0.447,2.075,1.105,2.767,1.973
			c0.692,0.869,1.173,1.934,1.444,3.194c0.271,1.261,0.407,2.72,0.407,4.374v10.05h-5.615V594.602z M519.899,588.416
			c-0.461,0-1.038,0.021-1.729,0.062c-0.692,0.04-1.357,0.156-1.994,0.346c-0.638,0.19-1.18,0.476-1.627,0.854
			c-0.448,0.381-0.671,0.909-0.671,1.587c0,0.732,0.312,1.275,0.936,1.628s1.275,0.528,1.953,0.528c0.596,0,1.173-0.081,1.729-0.243
			c0.556-0.164,1.051-0.394,1.485-0.692c0.434-0.298,0.779-0.678,1.038-1.14c0.257-0.461,0.386-1.003,0.386-1.627v-1.303H519.899z"
			/>
		<path fill="#FFFFFF" d="M530.843,577.309h5.859v2.686h0.081c0.189-0.379,0.461-0.759,0.814-1.139
			c0.352-0.38,0.773-0.719,1.261-1.018s1.044-0.543,1.668-0.732s1.302-0.285,2.035-0.285c1.546,0,2.793,0.238,3.743,0.713
			c0.949,0.475,1.688,1.133,2.217,1.973c0.529,0.842,0.888,1.831,1.079,2.971c0.189,1.139,0.285,2.373,0.285,3.702v10.904h-6.103
			v-9.684c0-0.569-0.021-1.159-0.061-1.771c-0.041-0.609-0.163-1.172-0.366-1.688c-0.204-0.516-0.516-0.936-0.936-1.262
			c-0.421-0.326-1.024-0.488-1.811-0.488c-0.787,0-1.424,0.143-1.912,0.428c-0.488,0.284-0.862,0.664-1.119,1.139
			c-0.258,0.475-0.427,1.011-0.508,1.607c-0.082,0.597-0.122,1.221-0.122,1.871v9.847h-6.104V577.309z"/>
		<path fill="#FFFFFF" d="M554.197,577.309h5.859v2.686h0.081c0.189-0.379,0.461-0.759,0.814-1.139
			c0.352-0.38,0.773-0.719,1.261-1.018s1.044-0.543,1.668-0.732s1.302-0.285,2.035-0.285c1.546,0,2.793,0.238,3.743,0.713
			c0.949,0.475,1.688,1.133,2.217,1.973c0.529,0.842,0.888,1.831,1.079,2.971c0.189,1.139,0.285,2.373,0.285,3.702v10.904h-6.103
			v-9.684c0-0.569-0.021-1.159-0.061-1.771c-0.041-0.609-0.163-1.172-0.366-1.688c-0.204-0.516-0.516-0.936-0.936-1.262
			c-0.421-0.326-1.024-0.488-1.811-0.488c-0.787,0-1.424,0.143-1.912,0.428c-0.488,0.284-0.862,0.664-1.119,1.139
			c-0.258,0.475-0.427,1.011-0.508,1.607c-0.082,0.597-0.122,1.221-0.122,1.871v9.847h-6.104V577.309z"/>
		<path fill="#FFFFFF" d="M577.145,571.084c0-0.977,0.346-1.811,1.038-2.502c0.692-0.692,1.526-1.038,2.502-1.038
			s1.811,0.346,2.502,1.038c0.692,0.691,1.038,1.525,1.038,2.502s-0.346,1.811-1.038,2.502c-0.691,0.691-1.525,1.037-2.502,1.037
			s-1.811-0.346-2.502-1.037S577.145,572.061,577.145,571.084z M577.633,577.309h6.103v19.774h-6.103V577.309z"/>
		<path fill="#FFFFFF" d="M588.13,577.309h5.859v2.686h0.081c0.189-0.379,0.461-0.759,0.814-1.139
			c0.352-0.38,0.773-0.719,1.261-1.018s1.044-0.543,1.668-0.732s1.302-0.285,2.035-0.285c1.546,0,2.793,0.238,3.743,0.713
			c0.949,0.475,1.688,1.133,2.217,1.973c0.529,0.842,0.888,1.831,1.079,2.971c0.189,1.139,0.285,2.373,0.285,3.702v10.904h-6.103
			v-9.684c0-0.569-0.021-1.159-0.061-1.771c-0.041-0.609-0.163-1.172-0.366-1.688c-0.204-0.516-0.516-0.936-0.936-1.262
			c-0.421-0.326-1.024-0.488-1.811-0.488c-0.787,0-1.424,0.143-1.912,0.428c-0.488,0.284-0.862,0.664-1.119,1.139
			c-0.258,0.475-0.427,1.011-0.508,1.607c-0.082,0.597-0.122,1.221-0.122,1.871v9.847h-6.104V577.309z"/>
		<path fill="#FFFFFF" d="M632.235,595.415c0,3.743-0.943,6.584-2.828,8.524c-1.885,1.938-4.754,2.908-8.605,2.908
			c-1.763,0-3.499-0.197-5.208-0.59c-1.709-0.393-3.283-1.159-4.72-2.299l3.377-5.045c0.949,0.786,1.946,1.41,2.99,1.871
			c1.044,0.461,2.19,0.691,3.438,0.691c1.872,0,3.248-0.454,4.129-1.362c0.881-0.909,1.322-2.069,1.322-3.479v-1.912h-0.081
			c-0.706,0.95-1.581,1.621-2.625,2.015c-1.044,0.393-2.028,0.59-2.95,0.59c-1.465,0-2.794-0.251-3.987-0.753
			c-1.194-0.502-2.218-1.207-3.072-2.115c-0.854-0.908-1.512-1.986-1.973-3.234c-0.461-1.248-0.692-2.618-0.692-4.109
			c0-1.303,0.21-2.577,0.631-3.825c0.42-1.247,1.017-2.347,1.79-3.296c0.773-0.949,1.715-1.715,2.828-2.299
			c1.112-0.583,2.373-0.875,3.784-0.875c0.868,0,1.661,0.096,2.38,0.285c0.718,0.189,1.363,0.434,1.933,0.732
			s1.058,0.631,1.465,0.996c0.407,0.367,0.732,0.727,0.977,1.079h0.081v-2.604h5.615V595.415z M616.855,587.074
			c0,0.65,0.122,1.268,0.366,1.852c0.244,0.583,0.59,1.098,1.037,1.545c0.448,0.448,0.963,0.809,1.546,1.078
			c0.583,0.271,1.227,0.408,1.933,0.408c0.678,0,1.315-0.137,1.912-0.408c0.597-0.27,1.119-0.63,1.567-1.078
			c0.447-0.447,0.793-0.962,1.037-1.545c0.244-0.584,0.366-1.201,0.366-1.852c0-0.651-0.122-1.268-0.366-1.852
			c-0.244-0.583-0.59-1.099-1.037-1.547c-0.448-0.447-0.97-0.807-1.567-1.078c-0.597-0.27-1.234-0.406-1.912-0.406
			c-0.706,0-1.35,0.137-1.933,0.406c-0.583,0.271-1.099,0.631-1.546,1.078c-0.447,0.448-0.793,0.964-1.037,1.547
			C616.978,585.807,616.855,586.423,616.855,587.074z"/>
	</g>
	<g>
		<path fill="#FFFFFF" d="M867.414,534.302c-0.896-1.112-2.076-1.668-3.541-1.668c-0.516,0-1.017,0.122-1.505,0.366
			s-0.732,0.665-0.732,1.262c0,0.488,0.251,0.848,0.753,1.078s1.139,0.434,1.912,0.609c0.773,0.178,1.6,0.367,2.482,0.57
			c0.881,0.203,1.709,0.522,2.481,0.956c0.772,0.435,1.41,1.024,1.912,1.771s0.753,1.742,0.753,2.99
			c0,1.275-0.278,2.326-0.834,3.152c-0.557,0.828-1.269,1.492-2.137,1.994c-0.867,0.502-1.844,0.854-2.93,1.059
			c-1.084,0.203-2.156,0.305-3.213,0.305c-1.385,0-2.781-0.197-4.191-0.59s-2.604-1.092-3.58-2.096l3.702-4.109
			c0.569,0.705,1.2,1.241,1.892,1.607s1.498,0.549,2.421,0.549c0.705,0,1.343-0.102,1.913-0.305
			c0.568-0.203,0.854-0.576,0.854-1.119c0-0.516-0.25-0.901-0.752-1.16c-0.502-0.257-1.14-0.474-1.912-0.65
			c-0.773-0.176-1.602-0.366-2.482-0.57c-0.882-0.203-1.709-0.508-2.482-0.915c-0.772-0.407-1.41-0.982-1.912-1.729
			c-0.502-0.745-0.752-1.742-0.752-2.99c0-1.166,0.236-2.17,0.711-3.011s1.1-1.532,1.872-2.075c0.772-0.542,1.661-0.941,2.665-1.2
			c1.004-0.257,2.021-0.386,3.052-0.386c1.302,0,2.617,0.189,3.946,0.568c1.329,0.381,2.455,1.059,3.377,2.035L867.414,534.302z"/>
		<path fill="#FFFFFF" d="M875.633,528.484h5.614v2.604h0.081c0.244-0.353,0.562-0.713,0.957-1.078
			c0.393-0.367,0.854-0.698,1.383-0.997c0.529-0.298,1.105-0.542,1.729-0.732c0.624-0.189,1.288-0.284,1.993-0.284
			c1.465,0,2.794,0.25,3.988,0.752c1.193,0.502,2.217,1.207,3.071,2.115c0.854,0.91,1.512,1.988,1.974,3.235
			c0.461,1.248,0.691,2.618,0.691,4.109c0,1.384-0.211,2.706-0.631,3.967c-0.42,1.262-1.018,2.38-1.79,3.356
			s-1.716,1.757-2.827,2.34c-1.113,0.583-2.375,0.875-3.785,0.875c-1.274,0-2.461-0.197-3.56-0.59s-2.001-1.064-2.706-2.014h-0.081
			v11.393h-6.103V528.484z M881.247,538.371c0,1.492,0.427,2.699,1.282,3.621c0.854,0.922,2.055,1.383,3.601,1.383
			s2.746-0.461,3.601-1.383s1.281-2.129,1.281-3.621s-0.427-2.699-1.281-3.621s-2.055-1.384-3.601-1.384s-2.747,0.462-3.601,1.384
			C881.674,535.672,881.247,536.879,881.247,538.371z"/>
		<path fill="#FFFFFF" d="M900.695,528.484h6.104v3.173h0.08c0.651-1.221,1.425-2.136,2.32-2.746c0.895-0.61,2.02-0.915,3.377-0.915
			c0.352,0,0.705,0.014,1.058,0.04c0.353,0.027,0.678,0.081,0.977,0.163v5.574c-0.435-0.136-0.862-0.237-1.282-0.306
			c-0.42-0.067-0.861-0.102-1.322-0.102c-1.166,0-2.089,0.163-2.767,0.488c-0.679,0.325-1.2,0.78-1.566,1.362
			c-0.366,0.584-0.604,1.282-0.712,2.096c-0.109,0.814-0.162,1.709-0.162,2.686v8.26h-6.104V528.484z"/>
		<path fill="#FFFFFF" d="M916.848,522.258c0-0.976,0.346-1.811,1.038-2.502s1.526-1.037,2.503-1.037s1.811,0.346,2.502,1.037
			s1.037,1.526,1.037,2.502c0,0.977-0.346,1.812-1.037,2.503c-0.691,0.692-1.525,1.038-2.502,1.038s-1.811-0.346-2.503-1.038
			C917.193,524.069,916.848,523.234,916.848,522.258z M917.336,528.484h6.104v19.773h-6.104V528.484z"/>
		<path fill="#FFFFFF" d="M927.833,528.484h5.859v2.685h0.081c0.189-0.38,0.461-0.759,0.814-1.14
			c0.352-0.379,0.772-0.718,1.261-1.017c0.488-0.298,1.044-0.542,1.668-0.732c0.624-0.189,1.302-0.284,2.034-0.284
			c1.547,0,2.794,0.237,3.744,0.711c0.949,0.475,1.688,1.133,2.217,1.974s0.889,1.831,1.078,2.97
			c0.189,1.14,0.285,2.375,0.285,3.703v10.904h-6.104v-9.684c0-0.57-0.02-1.16-0.061-1.77c-0.041-0.611-0.163-1.174-0.366-1.689
			c-0.204-0.515-0.516-0.936-0.937-1.261c-0.42-0.325-1.023-0.488-1.811-0.488s-1.424,0.143-1.912,0.427
			c-0.488,0.285-0.861,0.666-1.119,1.14c-0.258,0.476-0.427,1.011-0.508,1.607c-0.082,0.597-0.122,1.22-0.122,1.872v9.846h-6.104
			V528.484z"/>
		<path fill="#FFFFFF" d="M964.655,533.366h-5.37v6.591c0,0.543,0.025,1.038,0.08,1.486c0.055,0.447,0.177,0.834,0.367,1.158
			c0.189,0.326,0.48,0.577,0.875,0.754c0.393,0.176,0.915,0.264,1.566,0.264c0.325,0,0.752-0.033,1.281-0.102
			c0.529-0.067,0.929-0.224,1.2-0.468v5.086c-0.679,0.244-1.384,0.407-2.116,0.488s-1.451,0.122-2.156,0.122
			c-1.031,0-1.98-0.109-2.848-0.326c-0.869-0.217-1.628-0.562-2.279-1.037c-0.65-0.475-1.159-1.092-1.525-1.852
			c-0.366-0.759-0.549-1.682-0.549-2.766v-9.399h-3.906v-4.882h3.906v-5.859h6.104v5.859h5.37V533.366z"/>
	</g>
	<g>
		<path fill="#7F7F7F" d="M756.06,202.531l11.189-10.05c0.57-0.515,1.139-1.099,1.709-1.75c0.57-0.651,0.854-1.41,0.854-2.279
			c0-0.977-0.353-1.742-1.058-2.299c-0.706-0.556-1.533-0.834-2.482-0.834c-1.139,0-2.028,0.353-2.665,1.058
			c-0.637,0.706-0.997,1.573-1.078,2.604l-6.103-0.448c0.082-1.491,0.393-2.787,0.936-3.886c0.542-1.099,1.261-2.014,2.156-2.746
			c0.895-0.732,1.946-1.282,3.153-1.648c1.207-0.366,2.516-0.549,3.926-0.549c1.302,0,2.522,0.183,3.662,0.549
			c1.139,0.366,2.129,0.909,2.97,1.627c0.841,0.719,1.499,1.621,1.974,2.706c0.474,1.085,0.712,2.347,0.712,3.784
			c0,0.922-0.095,1.756-0.285,2.502c-0.19,0.747-0.455,1.424-0.793,2.035c-0.339,0.61-0.739,1.173-1.2,1.688
			c-0.461,0.516-0.963,1.017-1.505,1.505l-8.748,7.527h12.776V209h-20.1V202.531z"/>
		<path fill="#7F7F7F" d="M791.702,203.222h-12.572v-5.126l11.759-17.902h6.672v17.902h3.703v5.126h-3.703V209h-5.859V203.222z
			 M791.702,188.168h-0.081l-6.388,9.928h6.469V188.168z"/>
		<path fill="#7F7F7F" d="M810.5,178.24v13.671h0.081c0.136-0.379,0.366-0.759,0.692-1.139c0.325-0.379,0.718-0.718,1.18-1.017
			c0.461-0.298,1.003-0.542,1.627-0.732c0.624-0.189,1.302-0.285,2.035-0.285c1.546,0,2.794,0.238,3.743,0.712
			c0.949,0.475,1.688,1.133,2.217,1.973c0.529,0.841,0.889,1.831,1.079,2.97c0.189,1.139,0.284,2.374,0.284,3.703V209h-6.103v-9.684
			c0-0.57-0.021-1.16-0.062-1.77s-0.162-1.173-0.365-1.688c-0.204-0.515-0.516-0.936-0.937-1.261s-1.024-0.488-1.811-0.488
			c-0.787,0-1.424,0.143-1.912,0.427s-0.862,0.665-1.119,1.139c-0.258,0.475-0.427,1.011-0.508,1.607
			c-0.082,0.597-0.122,1.22-0.122,1.872V209h-6.104v-30.76H810.5z"/>
	</g>
	<g>
		<path fill="#FFFFFF" d="M1092.216,528.484h6.51l4.028,12.409h0.081l3.377-12.409h6.673l3.662,12.409h0.081l3.703-12.409h6.185
			l-7.039,19.773h-6.021l-4.11-13.143h-0.081l-3.662,13.143h-6.144L1092.216,528.484z"/>
		<path fill="#FFFFFF" d="M1127.735,538.371c0-1.573,0.285-2.997,0.854-4.272c0.57-1.274,1.35-2.366,2.34-3.275
			s2.156-1.607,3.499-2.095c1.343-0.488,2.773-0.732,4.293-0.732c1.519,0,2.949,0.244,4.292,0.732
			c1.343,0.487,2.509,1.186,3.499,2.095s1.771,2.001,2.34,3.275c0.569,1.275,0.854,2.699,0.854,4.272s-0.285,2.997-0.854,4.271
			c-0.569,1.275-1.35,2.367-2.34,3.275c-0.99,0.909-2.156,1.607-3.499,2.096s-2.773,0.732-4.292,0.732
			c-1.52,0-2.95-0.244-4.293-0.732s-2.509-1.187-3.499-2.096c-0.99-0.908-1.77-2-2.34-3.275
			C1128.021,541.368,1127.735,539.944,1127.735,538.371z M1133.839,538.371c0,1.492,0.428,2.699,1.282,3.621
			c0.854,0.922,2.055,1.383,3.601,1.383s2.746-0.461,3.601-1.383s1.281-2.129,1.281-3.621s-0.427-2.699-1.281-3.621
			s-2.055-1.384-3.601-1.384s-2.747,0.462-3.601,1.384C1134.267,535.672,1133.839,536.879,1133.839,538.371z"/>
		<path fill="#FFFFFF" d="M1153.286,528.484h6.104v3.173h0.081c0.651-1.221,1.425-2.136,2.319-2.746
			c0.896-0.61,2.021-0.915,3.377-0.915c0.353,0,0.705,0.014,1.059,0.04c0.352,0.027,0.678,0.081,0.977,0.163v5.574
			c-0.435-0.136-0.862-0.237-1.282-0.306c-0.421-0.067-0.861-0.102-1.322-0.102c-1.167,0-2.089,0.163-2.767,0.488
			c-0.679,0.325-1.2,0.78-1.566,1.362c-0.366,0.584-0.604,1.282-0.712,2.096c-0.109,0.814-0.163,1.709-0.163,2.686v8.26h-6.104
			V528.484z"/>
		<path fill="#FFFFFF" d="M1169.847,517.498h6.104v18.798l6.754-7.812h7.486l-7.853,8.91l8.056,10.863h-7.689l-6.673-10.01h-0.081
			v10.01h-6.104V517.498z"/>
		<path fill="#FFFFFF" d="M1192.062,522.258c0-0.976,0.346-1.811,1.038-2.502c0.691-0.691,1.525-1.037,2.502-1.037
			s1.811,0.346,2.502,1.037c0.692,0.691,1.038,1.526,1.038,2.502c0,0.977-0.346,1.812-1.038,2.503
			c-0.691,0.692-1.525,1.038-2.502,1.038s-1.811-0.346-2.502-1.038C1192.407,524.069,1192.062,523.234,1192.062,522.258z
			 M1192.55,528.484h6.104v19.773h-6.104V528.484z"/>
		<path fill="#FFFFFF" d="M1203.047,528.484h5.859v2.685h0.081c0.189-0.38,0.461-0.759,0.814-1.14
			c0.352-0.379,0.772-0.718,1.261-1.017c0.488-0.298,1.044-0.542,1.668-0.732c0.624-0.189,1.303-0.284,2.035-0.284
			c1.546,0,2.793,0.237,3.743,0.711c0.949,0.475,1.688,1.133,2.217,1.974c0.529,0.841,0.889,1.831,1.079,2.97
			c0.189,1.14,0.284,2.375,0.284,3.703v10.904h-6.103v-9.684c0-0.57-0.021-1.16-0.062-1.77c-0.041-0.611-0.163-1.174-0.366-1.689
			c-0.203-0.515-0.516-0.936-0.936-1.261c-0.421-0.325-1.024-0.488-1.811-0.488c-0.787,0-1.424,0.143-1.912,0.427
			c-0.488,0.285-0.862,0.666-1.119,1.14c-0.258,0.476-0.428,1.011-0.509,1.607s-0.122,1.22-0.122,1.872v9.846h-6.104V528.484z"/>
		<path fill="#FFFFFF" d="M1247.152,546.59c0,3.743-0.943,6.584-2.828,8.523c-1.886,1.939-4.754,2.91-8.605,2.91
			c-1.764,0-3.499-0.197-5.208-0.591s-3.282-1.159-4.72-2.299l3.377-5.045c0.949,0.786,1.946,1.41,2.99,1.872
			c1.044,0.461,2.19,0.691,3.438,0.691c1.872,0,3.248-0.455,4.13-1.363c0.881-0.909,1.322-2.068,1.322-3.479v-1.912h-0.081
			c-0.706,0.949-1.581,1.621-2.625,2.014s-2.027,0.59-2.949,0.59c-1.465,0-2.794-0.25-3.987-0.753
			c-1.194-0.501-2.218-1.206-3.072-2.116c-0.854-0.908-1.513-1.986-1.974-3.234c-0.461-1.247-0.691-2.617-0.691-4.109
			c0-1.302,0.21-2.576,0.631-3.824c0.42-1.248,1.017-2.346,1.79-3.296c0.773-0.949,1.715-1.716,2.828-2.299
			c1.111-0.583,2.373-0.874,3.783-0.874c0.868,0,1.661,0.095,2.381,0.284c0.718,0.19,1.362,0.435,1.933,0.732
			c0.569,0.299,1.058,0.63,1.465,0.997c0.406,0.365,0.732,0.726,0.977,1.078h0.081v-2.604h5.615V546.59z M1231.772,538.248
			c0,0.652,0.122,1.27,0.366,1.852c0.244,0.584,0.59,1.1,1.037,1.547s0.963,0.807,1.546,1.078s1.228,0.406,1.933,0.406
			c0.678,0,1.315-0.135,1.912-0.406s1.119-0.631,1.567-1.078c0.447-0.447,0.793-0.963,1.037-1.547
			c0.244-0.582,0.366-1.199,0.366-1.852c0-0.65-0.122-1.268-0.366-1.851s-0.59-1.099-1.037-1.546
			c-0.448-0.447-0.971-0.807-1.567-1.078s-1.234-0.407-1.912-0.407c-0.705,0-1.35,0.136-1.933,0.407s-1.099,0.631-1.546,1.078
			s-0.793,0.963-1.037,1.546S1231.772,537.598,1231.772,538.248z"/>
		<path fill="#FFFFFF" d="M1263.67,522.258c0-0.976,0.346-1.811,1.038-2.502c0.691-0.691,1.525-1.037,2.502-1.037
			s1.811,0.346,2.502,1.037c0.692,0.691,1.038,1.526,1.038,2.502c0,0.977-0.346,1.812-1.038,2.503
			c-0.691,0.692-1.525,1.038-2.502,1.038s-1.811-0.346-2.502-1.038C1264.016,524.069,1263.67,523.234,1263.67,522.258z
			 M1264.158,528.484h6.104v19.773h-6.104V528.484z"/>
		<path fill="#FFFFFF" d="M1274.655,528.484h5.859v2.685h0.081c0.189-0.38,0.461-0.759,0.814-1.14
			c0.352-0.379,0.772-0.718,1.261-1.017c0.488-0.298,1.044-0.542,1.668-0.732c0.624-0.189,1.303-0.284,2.035-0.284
			c1.546,0,2.793,0.237,3.743,0.711c0.949,0.475,1.688,1.133,2.217,1.974c0.529,0.841,0.889,1.831,1.079,2.97
			c0.189,1.14,0.284,2.375,0.284,3.703v10.904h-6.103v-9.684c0-0.57-0.021-1.16-0.062-1.77c-0.041-0.611-0.163-1.174-0.366-1.689
			c-0.203-0.515-0.516-0.936-0.936-1.261c-0.421-0.325-1.024-0.488-1.811-0.488c-0.787,0-1.424,0.143-1.912,0.427
			c-0.488,0.285-0.862,0.666-1.119,1.14c-0.258,0.476-0.428,1.011-0.509,1.607s-0.122,1.22-0.122,1.872v9.846h-6.104V528.484z"/>
		<path fill="#FFFFFF" d="M1311.396,534.871c-0.299-0.434-0.719-0.793-1.261-1.078c-0.543-0.284-1.126-0.427-1.75-0.427
			c-1.546,0-2.746,0.462-3.601,1.384s-1.281,2.129-1.281,3.621s0.427,2.699,1.281,3.621s2.055,1.383,3.601,1.383
			c0.678,0,1.262-0.148,1.75-0.447s0.908-0.65,1.261-1.058l4.028,4.231c-0.949,0.977-2.068,1.662-3.356,2.055
			c-1.289,0.393-2.517,0.59-3.683,0.59c-1.52,0-2.949-0.244-4.292-0.732s-2.51-1.187-3.499-2.096c-0.991-0.908-1.771-2-2.34-3.275
			c-0.569-1.274-0.854-2.698-0.854-4.271s0.285-2.997,0.854-4.272c0.569-1.274,1.349-2.366,2.34-3.275
			c0.989-0.909,2.156-1.607,3.499-2.095c1.343-0.488,2.772-0.732,4.292-0.732c1.166,0,2.394,0.196,3.683,0.59
			c1.288,0.393,2.407,1.078,3.356,2.055L1311.396,534.871z"/>
		<path fill="#FFFFFF" d="M1317.621,528.484h6.104v3.173h0.081c0.65-1.221,1.424-2.136,2.319-2.746
			c0.895-0.61,2.021-0.915,3.377-0.915c0.352,0,0.705,0.014,1.058,0.04c0.353,0.027,0.678,0.081,0.977,0.163v5.574
			c-0.435-0.136-0.861-0.237-1.281-0.306c-0.421-0.067-0.861-0.102-1.322-0.102c-1.167,0-2.09,0.163-2.768,0.488
			s-1.2,0.78-1.566,1.362c-0.366,0.584-0.604,1.282-0.712,2.096c-0.108,0.814-0.162,1.709-0.162,2.686v8.26h-6.104V528.484z"/>
		<path fill="#FFFFFF" d="M1352.165,544.84c-0.977,1.248-2.211,2.211-3.703,2.889c-1.491,0.678-3.038,1.018-4.638,1.018
			c-1.52,0-2.95-0.244-4.293-0.732s-2.509-1.187-3.499-2.096c-0.99-0.908-1.77-2-2.34-3.275c-0.569-1.274-0.854-2.698-0.854-4.271
			s0.285-2.997,0.854-4.272c0.57-1.274,1.35-2.366,2.34-3.275s2.156-1.607,3.499-2.095c1.343-0.488,2.773-0.732,4.293-0.732
			c1.41,0,2.691,0.244,3.845,0.732c1.152,0.487,2.129,1.186,2.93,2.095c0.8,0.909,1.417,2.001,1.852,3.275
			c0.434,1.275,0.65,2.699,0.65,4.272v1.912h-14.159c0.244,1.166,0.773,2.096,1.587,2.787s1.817,1.037,3.011,1.037
			c1.003,0,1.852-0.224,2.543-0.671c0.691-0.448,1.295-1.024,1.811-1.729L1352.165,544.84z M1346.998,536.133
			c0.026-1.03-0.312-1.912-1.018-2.645c-0.706-0.732-1.614-1.099-2.727-1.099c-0.678,0-1.274,0.108-1.79,0.325
			c-0.516,0.218-0.956,0.496-1.322,0.834c-0.366,0.34-0.65,0.732-0.854,1.18c-0.203,0.448-0.319,0.916-0.346,1.404H1346.998z"/>
		<path fill="#FFFFFF" d="M1356.803,528.484h5.859v2.685h0.081c0.189-0.38,0.461-0.759,0.814-1.14
			c0.352-0.379,0.772-0.718,1.261-1.017c0.488-0.298,1.044-0.542,1.668-0.732c0.624-0.189,1.303-0.284,2.035-0.284
			c1.383,0,2.61,0.284,3.682,0.854c1.071,0.57,1.878,1.465,2.421,2.686c0.705-1.274,1.56-2.184,2.563-2.727
			c1.003-0.541,2.238-0.812,3.703-0.812c1.328,0,2.447,0.223,3.356,0.671c0.908,0.447,1.627,1.058,2.156,1.831
			s0.908,1.682,1.14,2.726c0.229,1.044,0.346,2.163,0.346,3.356v11.678h-6.104v-11.515c0-0.922-0.197-1.716-0.59-2.38
			c-0.394-0.664-1.092-0.997-2.096-0.997c-0.705,0-1.295,0.116-1.77,0.346c-0.475,0.231-0.854,0.55-1.14,0.956
			c-0.284,0.407-0.488,0.882-0.61,1.424c-0.122,0.543-0.183,1.113-0.183,1.709v10.457h-6.104v-10.457
			c0-0.352-0.014-0.786-0.04-1.302c-0.027-0.515-0.122-1.003-0.285-1.465c-0.163-0.461-0.427-0.854-0.793-1.18
			s-0.902-0.488-1.607-0.488c-0.787,0-1.424,0.143-1.912,0.427c-0.488,0.285-0.862,0.666-1.119,1.14
			c-0.258,0.476-0.428,1.011-0.509,1.607s-0.122,1.22-0.122,1.872v9.846h-6.104V528.484z"/>
		<path fill="#FFFFFF" d="M1410.917,544.84c-0.977,1.248-2.211,2.211-3.702,2.889c-1.492,0.678-3.038,1.018-4.639,1.018
			c-1.52,0-2.949-0.244-4.292-0.732s-2.51-1.187-3.499-2.096c-0.991-0.908-1.771-2-2.34-3.275c-0.569-1.274-0.854-2.698-0.854-4.271
			s0.285-2.997,0.854-4.272c0.569-1.274,1.349-2.366,2.34-3.275c0.989-0.909,2.156-1.607,3.499-2.095
			c1.343-0.488,2.772-0.732,4.292-0.732c1.41,0,2.692,0.244,3.846,0.732c1.152,0.487,2.129,1.186,2.929,2.095
			s1.417,2.001,1.852,3.275c0.434,1.275,0.651,2.699,0.651,4.272v1.912h-14.159c0.244,1.166,0.772,2.096,1.586,2.787
			c0.814,0.691,1.817,1.037,3.012,1.037c1.003,0,1.851-0.224,2.543-0.671c0.691-0.448,1.295-1.024,1.811-1.729L1410.917,544.84z
			 M1405.75,536.133c0.026-1.03-0.312-1.912-1.018-2.645s-1.613-1.099-2.726-1.099c-0.679,0-1.275,0.108-1.79,0.325
			c-0.516,0.218-0.956,0.496-1.322,0.834c-0.366,0.34-0.651,0.732-0.854,1.18c-0.204,0.448-0.319,0.916-0.346,1.404H1405.75z"/>
		<path fill="#FFFFFF" d="M1415.555,528.484h5.859v2.685h0.081c0.189-0.38,0.461-0.759,0.814-1.14
			c0.352-0.379,0.772-0.718,1.261-1.017c0.488-0.298,1.044-0.542,1.668-0.732c0.624-0.189,1.303-0.284,2.035-0.284
			c1.546,0,2.793,0.237,3.743,0.711c0.949,0.475,1.688,1.133,2.217,1.974c0.529,0.841,0.889,1.831,1.079,2.97
			c0.189,1.14,0.284,2.375,0.284,3.703v10.904h-6.103v-9.684c0-0.57-0.021-1.16-0.062-1.77c-0.041-0.611-0.163-1.174-0.366-1.689
			c-0.203-0.515-0.516-0.936-0.936-1.261c-0.421-0.325-1.024-0.488-1.811-0.488c-0.787,0-1.424,0.143-1.912,0.427
			c-0.488,0.285-0.862,0.666-1.119,1.14c-0.258,0.476-0.428,1.011-0.509,1.607s-0.122,1.22-0.122,1.872v9.846h-6.104V528.484z"/>
		<path fill="#FFFFFF" d="M1452.377,533.366h-5.371v6.591c0,0.543,0.026,1.038,0.081,1.486c0.055,0.447,0.177,0.834,0.366,1.158
			c0.189,0.326,0.481,0.577,0.875,0.754c0.393,0.176,0.916,0.264,1.566,0.264c0.326,0,0.753-0.033,1.282-0.102
			c0.528-0.067,0.929-0.224,1.2-0.468v5.086c-0.679,0.244-1.384,0.407-2.116,0.488s-1.451,0.122-2.156,0.122
			c-1.031,0-1.98-0.109-2.848-0.326c-0.869-0.217-1.628-0.562-2.279-1.037c-0.65-0.475-1.159-1.092-1.525-1.852
			c-0.366-0.759-0.55-1.682-0.55-2.766v-9.399h-3.905v-4.882h3.905v-5.859h6.104v5.859h5.371V533.366z"/>
		<path fill="#FFFFFF" d="M1163.235,587.195c0-1.572,0.285-2.996,0.854-4.271s1.349-2.366,2.34-3.275
			c0.989-0.908,2.156-1.607,3.499-2.096s2.772-0.732,4.292-0.732s2.95,0.244,4.293,0.732s2.509,1.188,3.499,2.096
			c0.99,0.909,1.77,2,2.34,3.275c0.569,1.275,0.854,2.699,0.854,4.271c0,1.574-0.285,2.998-0.854,4.273
			c-0.57,1.275-1.35,2.366-2.34,3.275c-0.99,0.908-2.156,1.606-3.499,2.095s-2.773,0.732-4.293,0.732s-2.949-0.244-4.292-0.732
			s-2.51-1.187-3.499-2.095c-0.991-0.909-1.771-2-2.34-3.275S1163.235,588.77,1163.235,587.195z M1169.339,587.195
			c0,1.492,0.427,2.7,1.281,3.621c0.854,0.924,2.055,1.385,3.601,1.385c1.547,0,2.747-0.461,3.602-1.385
			c0.854-0.921,1.281-2.129,1.281-3.621c0-1.49-0.428-2.698-1.281-3.621c-0.854-0.922-2.055-1.383-3.602-1.383
			c-1.546,0-2.746,0.461-3.601,1.383C1169.766,584.497,1169.339,585.705,1169.339,587.195z"/>
		<path fill="#FFFFFF" d="M1190.902,582.191h-4.028v-4.883h4.028v-3.499c0-1.085,0.095-2.108,0.285-3.071
			c0.189-0.963,0.556-1.811,1.099-2.543c0.542-0.732,1.322-1.309,2.339-1.729c1.018-0.421,2.354-0.631,4.008-0.631
			c0.624,0,1.234,0.027,1.831,0.081c0.597,0.055,1.18,0.15,1.75,0.285l-0.285,5.168c-0.353-0.137-0.679-0.238-0.977-0.306
			c-0.299-0.067-0.638-0.103-1.018-0.103c-0.977,0-1.709,0.211-2.196,0.631c-0.488,0.422-0.732,1.282-0.732,2.584v3.133h4.516v4.883
			h-4.516v14.892h-6.104V582.191z"/>
		<path fill="#FFFFFF" d="M1227.073,583.127c-0.896-1.111-2.075-1.668-3.54-1.668c-0.516,0-1.018,0.122-1.506,0.366
			s-0.732,0.665-0.732,1.261c0,0.488,0.251,0.849,0.753,1.078c0.502,0.231,1.14,0.436,1.912,0.611
			c0.773,0.176,1.601,0.365,2.482,0.569c0.881,0.204,1.709,0.522,2.481,0.956c0.773,0.434,1.41,1.024,1.912,1.77
			c0.502,0.746,0.753,1.744,0.753,2.99c0,1.275-0.278,2.326-0.834,3.154s-1.269,1.492-2.136,1.993
			c-0.868,0.503-1.845,0.854-2.93,1.058c-1.085,0.204-2.156,0.306-3.214,0.306c-1.384,0-2.781-0.197-4.191-0.59
			c-1.41-0.394-2.604-1.092-3.58-2.096l3.702-4.109c0.569,0.706,1.2,1.241,1.892,1.607c0.692,0.366,1.499,0.55,2.421,0.55
			c0.705,0,1.343-0.103,1.913-0.306c0.569-0.204,0.854-0.576,0.854-1.119c0-0.515-0.251-0.901-0.753-1.159s-1.14-0.475-1.912-0.651
			c-0.773-0.177-1.602-0.366-2.482-0.569c-0.882-0.203-1.709-0.509-2.481-0.916c-0.773-0.406-1.411-0.982-1.913-1.729
			s-0.752-1.743-0.752-2.991c0-1.165,0.236-2.169,0.712-3.011c0.474-0.84,1.099-1.532,1.871-2.075
			c0.773-0.542,1.661-0.942,2.665-1.2s2.021-0.387,3.052-0.387c1.302,0,2.617,0.19,3.947,0.57c1.328,0.38,2.454,1.058,3.377,2.034
			L1227.073,583.127z"/>
		<path fill="#FFFFFF" d="M1233.989,587.195c0-1.572,0.285-2.996,0.854-4.271c0.57-1.275,1.35-2.366,2.34-3.275
			c0.99-0.908,2.156-1.607,3.499-2.096s2.773-0.732,4.293-0.732c1.519,0,2.949,0.244,4.292,0.732s2.509,1.188,3.499,2.096
			c0.99,0.909,1.771,2,2.34,3.275s0.854,2.699,0.854,4.271c0,1.574-0.285,2.998-0.854,4.273s-1.35,2.366-2.34,3.275
			c-0.99,0.908-2.156,1.606-3.499,2.095s-2.773,0.732-4.292,0.732c-1.52,0-2.95-0.244-4.293-0.732s-2.509-1.187-3.499-2.095
			c-0.99-0.909-1.77-2-2.34-3.275C1234.274,590.193,1233.989,588.77,1233.989,587.195z M1240.093,587.195
			c0,1.492,0.428,2.7,1.282,3.621c0.854,0.924,2.055,1.385,3.601,1.385s2.746-0.461,3.601-1.385
			c0.854-0.921,1.281-2.129,1.281-3.621c0-1.49-0.427-2.698-1.281-3.621c-0.854-0.922-2.055-1.383-3.601-1.383
			s-2.747,0.461-3.601,1.383C1240.521,584.497,1240.093,585.705,1240.093,587.195z"/>
		<path fill="#FFFFFF" d="M1261.656,582.191h-4.027v-4.883h4.027v-3.499c0-1.085,0.095-2.108,0.285-3.071
			c0.189-0.963,0.556-1.811,1.099-2.543c0.542-0.732,1.322-1.309,2.34-1.729c1.017-0.421,2.353-0.631,4.008-0.631
			c0.623,0,1.233,0.027,1.831,0.081c0.596,0.055,1.18,0.15,1.749,0.285l-0.285,5.168c-0.353-0.137-0.678-0.238-0.977-0.306
			c-0.298-0.067-0.637-0.103-1.017-0.103c-0.977,0-1.709,0.211-2.197,0.631c-0.488,0.422-0.732,1.282-0.732,2.584v3.133h4.517v4.883
			h-4.517v14.892h-6.104V582.191z"/>
		<path fill="#FFFFFF" d="M1288.062,582.191h-5.371v6.592c0,0.543,0.026,1.037,0.081,1.484s0.177,0.834,0.366,1.16
			c0.189,0.325,0.481,0.576,0.875,0.752c0.393,0.178,0.916,0.266,1.566,0.266c0.326,0,0.753-0.034,1.282-0.103
			c0.528-0.067,0.929-0.224,1.2-0.468v5.086c-0.679,0.244-1.384,0.406-2.116,0.488s-1.451,0.122-2.156,0.122
			c-1.031,0-1.98-0.108-2.848-0.325c-0.869-0.217-1.628-0.562-2.279-1.038c-0.65-0.474-1.159-1.091-1.525-1.851
			s-0.55-1.682-0.55-2.768v-9.398h-3.905v-4.883h3.905v-5.859h6.104v5.859h5.371V582.191z"/>
		<path fill="#FFFFFF" d="M1288.795,577.309h6.51l4.028,12.41h0.081l3.377-12.41h6.673l3.662,12.41h0.081l3.703-12.41h6.185
			l-7.039,19.774h-6.021l-4.11-13.142h-0.081l-3.662,13.142h-6.144L1288.795,577.309z"/>
		<path fill="#FFFFFF" d="M1337.456,594.602h-0.081c-0.678,1.058-1.58,1.816-2.706,2.277c-1.125,0.461-2.312,0.692-3.56,0.692
			c-0.923,0-1.811-0.129-2.665-0.387c-0.854-0.257-1.607-0.644-2.258-1.159c-0.651-0.516-1.167-1.152-1.547-1.912
			s-0.569-1.641-0.569-2.645c0-1.14,0.21-2.103,0.631-2.89c0.42-0.786,0.989-1.437,1.709-1.952c0.718-0.516,1.539-0.916,2.461-1.201
			s1.878-0.494,2.869-0.631c0.989-0.135,1.979-0.217,2.97-0.244c0.99-0.026,1.905-0.04,2.746-0.04c0-1.085-0.386-1.946-1.159-2.584
			c-0.773-0.637-1.688-0.956-2.746-0.956c-1.004,0-1.92,0.211-2.747,0.631c-0.827,0.421-1.566,0.996-2.217,1.729l-3.255-3.336
			c1.139-1.058,2.468-1.852,3.987-2.38c1.519-0.529,3.092-0.794,4.72-0.794c1.79,0,3.261,0.225,4.414,0.672
			c1.152,0.447,2.075,1.105,2.767,1.973c0.692,0.869,1.173,1.934,1.444,3.194s0.407,2.72,0.407,4.374v10.05h-5.615V594.602z
			 M1335.951,588.416c-0.462,0-1.038,0.021-1.729,0.062s-1.356,0.156-1.993,0.346c-0.638,0.19-1.181,0.476-1.628,0.854
			c-0.447,0.381-0.671,0.909-0.671,1.587c0,0.732,0.312,1.275,0.936,1.628s1.274,0.528,1.953,0.528c0.596,0,1.173-0.081,1.729-0.243
			c0.556-0.164,1.052-0.394,1.485-0.692c0.434-0.298,0.779-0.678,1.038-1.14c0.257-0.461,0.386-1.003,0.386-1.627v-1.303H1335.951z"
			/>
		<path fill="#FFFFFF" d="M1346.896,577.309h6.104v3.174h0.081c0.65-1.221,1.424-2.137,2.319-2.746
			c0.895-0.61,2.021-0.916,3.377-0.916c0.352,0,0.705,0.014,1.058,0.041s0.678,0.082,0.977,0.162v5.574
			c-0.435-0.135-0.861-0.236-1.281-0.305c-0.421-0.067-0.861-0.102-1.322-0.102c-1.167,0-2.09,0.162-2.768,0.488
			s-1.2,0.779-1.566,1.363s-0.604,1.281-0.712,2.096c-0.108,0.812-0.162,1.709-0.162,2.685v8.26h-6.104V577.309z"/>
		<path fill="#FFFFFF" d="M1381.439,593.665c-0.977,1.248-2.211,2.212-3.702,2.89c-1.492,0.678-3.038,1.017-4.639,1.017
			c-1.52,0-2.949-0.244-4.292-0.732s-2.51-1.187-3.499-2.095c-0.991-0.909-1.771-2-2.34-3.275s-0.854-2.699-0.854-4.273
			c0-1.572,0.285-2.996,0.854-4.271s1.349-2.366,2.34-3.275c0.989-0.908,2.156-1.607,3.499-2.096s2.772-0.732,4.292-0.732
			c1.41,0,2.692,0.244,3.846,0.732c1.152,0.488,2.129,1.188,2.929,2.096c0.8,0.909,1.417,2,1.852,3.275
			c0.434,1.275,0.651,2.699,0.651,4.271v1.913h-14.159c0.244,1.167,0.772,2.095,1.586,2.787c0.814,0.691,1.817,1.038,3.012,1.038
			c1.003,0,1.851-0.225,2.543-0.672c0.691-0.447,1.295-1.023,1.811-1.729L1381.439,593.665z M1376.272,584.958
			c0.026-1.03-0.312-1.912-1.018-2.645s-1.613-1.099-2.726-1.099c-0.679,0-1.275,0.109-1.79,0.326
			c-0.516,0.217-0.956,0.494-1.322,0.834c-0.366,0.339-0.651,0.732-0.854,1.18c-0.204,0.447-0.319,0.915-0.346,1.403H1376.272z"/>
	</g>
	<circle fill="none" stroke="#FFFFFF" stroke-width="7" stroke-miterlimit="10" cx="910.826" cy="330.809" r="126.013"/>
	<line fill="none" stroke="#FFFFFF" stroke-width="7" stroke-miterlimit="10" x1="1266" y1="456.5" x2="204" y2="456.5"/>
	<polyline fill="none" stroke="#FFFFFF" stroke-width="7" stroke-miterlimit="10" points="772,314.5 784.813,339 800.5,317 	"/>
	<polyline fill="none" stroke="#FFFFFF" stroke-width="7" stroke-miterlimit="10" points="1243.405,471.096 1266.581,456.02 
		1243.194,442.488 	"/>
	<polyline fill="none" stroke="#FFFFFF" stroke-width="7" stroke-miterlimit="10" points="892.405,473.096 915.581,458.02 
		892.194,444.488 	"/>
	<polyline fill="none" stroke="#FFFFFF" stroke-width="7" stroke-miterlimit="10" points="529.405,471.096 552.581,456.02 
		529.194,442.488 	"/>
	<polyline fill="none" stroke="#FFFFFF" stroke-width="7" stroke-miterlimit="10" points="1049.5,339 1036.687,314.5 1021,336.5 	
		"/>
	<circle fill="#FFFFFF" cx="204" cy="456.5" r="14.667"/>
	<g>
		<g>
			<line fill="none" stroke="#FFFFFF" stroke-width="7" stroke-miterlimit="10" x1="204" y1="457.5" x2="198" y2="457.5"/>
			
				<line fill="none" stroke="#FFFFFF" stroke-width="7" stroke-miterlimit="10" stroke-dasharray="13,13" x1="185" y1="457.5" x2="113" y2="457.5"/>
			<line fill="none" stroke="#FFFFFF" stroke-width="7" stroke-miterlimit="10" x1="107" y1="457.5" x2="101" y2="457.5"/>
		</g>
	</g>
	<g>
	</g>
	<g>
	</g>
	<g>
	</g>
	<g>
	</g>
	<g>
	</g>
	<g>
	</g>
	<g>
	</g>
	<g>
	</g>
	<g>
	</g>
	<g>
	</g>
	<g>
	</g>
	<g>
	</g>
	<g>
	</g>
	<g>
	</g>
	<g>
	</g>
</g>
</svg>
