<svg xmlns="http://www.w3.org/2000/svg" width="1532" height="804" viewBox="0 0 1532 804"><circle fill="none" stroke="#7F7F7F" stroke-width="7" stroke-miterlimit="10" cx="786.826" cy="197.809" r="56.013"/><path fill="none" stroke="#7F7F7F" stroke-width="7" stroke-miterlimit="10" d="M719 174.5l12.813 24.5 15.687-22"/><g fill="#FFF"><path d="M140.768 528.484h5.615v2.604h.082c.244-.353.562-.713.956-1.078a7.212 7.212 0 0 1 1.383-.997 8.632 8.632 0 0 1 1.729-.732 6.84 6.84 0 0 1 1.994-.284c1.465 0 2.793.25 3.987.752a8.912 8.912 0 0 1 3.072 2.115c.854.91 1.512 1.988 1.974 3.235.461 1.248.691 2.618.691 4.109 0 1.384-.21 2.706-.63 3.967-.421 1.262-1.018 2.38-1.791 3.356s-1.716 1.757-2.828 2.34c-1.113.583-2.374.875-3.784.875-1.275 0-2.461-.197-3.56-.59s-2-1.064-2.706-2.014h-.082v11.393h-6.103v-29.051zm5.614 9.887c0 1.492.427 2.699 1.282 3.621s2.055 1.383 3.601 1.383c1.546 0 2.746-.461 3.601-1.383s1.282-2.129 1.282-3.621-.427-2.699-1.282-3.621-2.055-1.384-3.601-1.384c-1.546 0-2.747.462-3.601 1.384s-1.282 2.129-1.282 3.621zM165.831 528.484h6.104v3.173h.081c.651-1.221 1.424-2.136 2.319-2.746s2.021-.915 3.377-.915c.352 0 .705.014 1.058.04a5.2 5.2 0 0 1 .977.163v5.574a9.396 9.396 0 0 0-1.282-.306 8.396 8.396 0 0 0-1.322-.102c-1.167 0-2.089.163-2.767.488-.678.325-1.2.78-1.566 1.362-.366.584-.604 1.282-.712 2.096a20.323 20.323 0 0 0-.163 2.686v8.26h-6.104v-19.773zM180.926 538.371c0-1.573.285-2.997.854-4.272a9.838 9.838 0 0 1 2.34-3.275c.99-.909 2.156-1.607 3.499-2.095 1.343-.488 2.773-.732 4.292-.732 1.519 0 2.95.244 4.292.732 1.343.487 2.509 1.186 3.499 2.095s1.77 2.001 2.34 3.275c.569 1.275.854 2.699.854 4.272s-.285 2.997-.854 4.271a9.832 9.832 0 0 1-2.34 3.275c-.99.909-2.156 1.607-3.499 2.096s-2.773.732-4.292.732c-1.52 0-2.95-.244-4.292-.732s-2.509-1.187-3.499-2.096c-.991-.908-1.77-2-2.34-3.275-.569-1.274-.854-2.698-.854-4.271zm6.103 0c0 1.492.427 2.699 1.282 3.621.854.922 2.055 1.383 3.601 1.383 1.546 0 2.747-.461 3.601-1.383.854-.922 1.281-2.129 1.281-3.621s-.427-2.699-1.281-3.621c-.854-.922-2.055-1.384-3.601-1.384-1.546 0-2.747.462-3.601 1.384-.854.922-1.282 2.129-1.282 3.621zM227.228 548.258h-5.615v-2.604h-.081a6.77 6.77 0 0 1-.956 1.078 7.26 7.26 0 0 1-1.384.996 8.379 8.379 0 0 1-1.75.732 6.907 6.907 0 0 1-1.973.285c-1.465 0-2.794-.251-3.987-.753a8.855 8.855 0 0 1-3.072-2.116c-.854-.908-1.512-1.986-1.973-3.234-.461-1.247-.692-2.617-.692-4.109 0-1.383.21-2.705.631-3.967a10.88 10.88 0 0 1 1.79-3.356 8.73 8.73 0 0 1 2.828-2.34c1.112-.583 2.373-.874 3.784-.874 1.275 0 2.462.196 3.56.59 1.099.393 2 1.064 2.706 2.014h.081v-13.102h6.104v30.76zm-5.615-9.887c0-1.492-.427-2.699-1.281-3.621-.854-.922-2.055-1.384-3.601-1.384-1.546 0-2.747.462-3.601 1.384-.854.922-1.282 2.129-1.282 3.621s.427 2.699 1.282 3.621c.854.922 2.055 1.383 3.601 1.383 1.546 0 2.747-.461 3.601-1.383.854-.922 1.281-2.129 1.281-3.621zM251.152 548.258h-5.859v-2.686h-.082c-.217.381-.495.76-.834 1.14a5.46 5.46 0 0 1-1.241 1.017 7.14 7.14 0 0 1-1.668.732 6.994 6.994 0 0 1-2.035.285c-1.546 0-2.801-.238-3.763-.712-.963-.475-1.709-1.132-2.238-1.974-.529-.84-.882-1.83-1.058-2.971a24.157 24.157 0 0 1-.265-3.702v-10.903h6.104v9.684c0 .568.02 1.159.061 1.77.041.609.163 1.174.366 1.688.203.515.515.936.936 1.261.42.326 1.023.488 1.811.488.787 0 1.424-.143 1.913-.427.488-.285.86-.665 1.119-1.14.257-.475.427-1.01.509-1.607.081-.596.122-1.221.122-1.871v-9.846h6.103v19.774zM268.85 534.871c-.299-.434-.719-.793-1.261-1.078a3.72 3.72 0 0 0-1.75-.427c-1.546 0-2.747.462-3.601 1.384-.854.922-1.281 2.129-1.281 3.621s.427 2.699 1.281 3.621c.854.922 2.055 1.383 3.601 1.383.678 0 1.261-.148 1.75-.447s.909-.65 1.261-1.058l4.028 4.231a7.782 7.782 0 0 1-3.357 2.055c-1.289.393-2.516.59-3.682.59-1.52 0-2.95-.244-4.292-.732s-2.509-1.187-3.499-2.096c-.991-.908-1.77-2-2.34-3.275-.569-1.274-.854-2.698-.854-4.271s.285-2.997.854-4.272a9.838 9.838 0 0 1 2.34-3.275c.99-.909 2.156-1.607 3.499-2.095 1.343-.488 2.773-.732 4.292-.732 1.166 0 2.394.196 3.682.59a7.782 7.782 0 0 1 3.357 2.055l-4.028 4.228zM288.543 533.366h-5.371v6.591c0 .543.026 1.038.081 1.486.054.447.176.834.366 1.158.189.326.481.577.875.754.393.176.916.264 1.566.264.326 0 .753-.033 1.282-.102.529-.067.929-.224 1.2-.468v5.086c-.678.244-1.383.407-2.116.488s-1.452.122-2.156.122c-1.031 0-1.98-.109-2.848-.326-.869-.217-1.628-.562-2.279-1.037s-1.16-1.092-1.526-1.852c-.366-.759-.549-1.682-.549-2.766v-9.399h-3.906v-4.882h3.906v-5.859h6.104v5.859h5.371v4.883zM141.113 566.323h6.103v13.102h.082a5.71 5.71 0 0 1 2.706-2.015c1.099-.393 2.285-.59 3.56-.59 1.41 0 2.671.292 3.784.875 1.112.584 2.055 1.363 2.828 2.34s1.37 2.096 1.791 3.356c.42 1.261.63 2.583.63 3.968 0 1.491-.23 2.861-.691 4.109-.462 1.248-1.119 2.326-1.974 3.234s-1.878 1.613-3.072 2.115c-1.194.502-2.522.753-3.987.753a6.84 6.84 0 0 1-1.994-.284 8.665 8.665 0 0 1-1.729-.732 7.215 7.215 0 0 1-2.339-2.076h-.082v2.604h-5.615v-30.759zm5.615 20.872c0 1.492.427 2.7 1.282 3.621.854.924 2.055 1.385 3.601 1.385 1.546 0 2.746-.461 3.601-1.385.854-.921 1.282-2.129 1.282-3.621 0-1.49-.427-2.698-1.282-3.621-.854-.922-2.055-1.383-3.601-1.383-1.546 0-2.747.461-3.601 1.383-.855.923-1.282 2.131-1.282 3.621zM178.586 594.602h-.081c-.678 1.058-1.581 1.816-2.706 2.277s-2.312.692-3.56.692a9.168 9.168 0 0 1-2.665-.387 6.722 6.722 0 0 1-2.258-1.159 5.59 5.59 0 0 1-1.546-1.912c-.38-.76-.569-1.641-.569-2.645 0-1.14.209-2.103.63-2.89.42-.786.99-1.437 1.709-1.952a8.466 8.466 0 0 1 2.461-1.201 18.078 18.078 0 0 1 2.869-.631 27.5 27.5 0 0 1 2.97-.244c.99-.026 1.905-.04 2.746-.04 0-1.085-.386-1.946-1.159-2.584-.773-.637-1.689-.956-2.747-.956-1.004 0-1.919.211-2.747.631a7.49 7.49 0 0 0-2.217 1.729l-3.255-3.336a11.18 11.18 0 0 1 3.987-2.38 14.249 14.249 0 0 1 4.72-.794c1.79 0 3.261.225 4.415.672 1.152.447 2.075 1.105 2.767 1.973.692.869 1.173 1.934 1.444 3.194.271 1.261.407 2.72.407 4.374v10.05h-5.615v-2.481zm-1.505-6.186c-.461 0-1.038.021-1.729.062a8.714 8.714 0 0 0-1.994.346c-.638.19-1.18.476-1.627.854-.448.381-.671.909-.671 1.587 0 .732.312 1.275.936 1.628s1.275.528 1.953.528c.596 0 1.173-.081 1.729-.243a5.201 5.201 0 0 0 1.485-.692 3.349 3.349 0 0 0 1.038-1.14c.257-.461.386-1.003.386-1.627v-1.303h-1.506zM201.411 583.697c-.299-.434-.719-.794-1.261-1.078a3.71 3.71 0 0 0-1.75-.428c-1.546 0-2.747.461-3.601 1.383-.854.923-1.281 2.131-1.281 3.621 0 1.492.427 2.7 1.281 3.621.854.924 2.055 1.385 3.601 1.385.678 0 1.261-.149 1.75-.448a5.315 5.315 0 0 0 1.261-1.058l4.028 4.231a7.801 7.801 0 0 1-3.357 2.055c-1.289.393-2.516.59-3.682.59-1.52 0-2.95-.244-4.292-.732s-2.509-1.187-3.499-2.095c-.991-.909-1.77-2-2.34-3.275-.569-1.275-.854-2.699-.854-4.273 0-1.572.285-2.996.854-4.271a9.828 9.828 0 0 1 2.34-3.275c.99-.908 2.156-1.607 3.499-2.096s2.773-.732 4.292-.732c1.166 0 2.394.197 3.682.59a7.801 7.801 0 0 1 3.357 2.055l-4.028 4.23zM207.636 566.323h6.104v18.798l6.754-7.812h7.486l-7.853 8.91 8.056 10.864h-7.69l-6.673-10.009h-.081v10.009h-6.104v-30.76zM230.34 566.323h6.103v30.76h-6.103v-30.76zM240.104 587.195c0-1.572.285-2.996.854-4.271a9.828 9.828 0 0 1 2.34-3.275c.99-.908 2.156-1.607 3.499-2.096s2.773-.732 4.292-.732c1.519 0 2.95.244 4.292.732s2.509 1.188 3.499 2.096c.99.909 1.77 2 2.34 3.275.569 1.275.854 2.699.854 4.271 0 1.574-.285 2.998-.854 4.273a9.842 9.842 0 0 1-2.34 3.275c-.99.908-2.156 1.606-3.499 2.095s-2.773.732-4.292.732c-1.52 0-2.95-.244-4.292-.732s-2.509-1.187-3.499-2.095c-.991-.909-1.77-2-2.34-3.275-.568-1.275-.854-2.698-.854-4.273zm6.104 0c0 1.492.427 2.7 1.282 3.621.854.924 2.055 1.385 3.601 1.385 1.546 0 2.747-.461 3.601-1.385.854-.921 1.281-2.129 1.281-3.621 0-1.49-.427-2.698-1.281-3.621-.854-.922-2.055-1.383-3.601-1.383-1.546 0-2.747.461-3.601 1.383-.855.923-1.282 2.131-1.282 3.621zM286.406 595.415c0 3.743-.943 6.584-2.828 8.524-1.885 1.938-4.754 2.908-8.605 2.908-1.763 0-3.499-.197-5.208-.59-1.709-.393-3.283-1.159-4.72-2.299l3.377-5.045a12.78 12.78 0 0 0 2.99 1.871c1.044.461 2.19.691 3.438.691 1.872 0 3.248-.454 4.129-1.362.881-.909 1.322-2.069 1.322-3.479v-1.912h-.081c-.706.95-1.581 1.621-2.625 2.015-1.044.393-2.028.59-2.95.59-1.465 0-2.794-.251-3.987-.753a8.893 8.893 0 0 1-3.072-2.115c-.854-.908-1.512-1.986-1.973-3.234-.461-1.248-.692-2.618-.692-4.109 0-1.303.21-2.577.631-3.825.42-1.247 1.017-2.347 1.79-3.296a8.99 8.99 0 0 1 2.828-2.299c1.112-.583 2.373-.875 3.784-.875a9.35 9.35 0 0 1 2.38.285c.718.189 1.363.434 1.933.732s1.058.631 1.465.996c.407.367.732.727.977 1.079h.081v-2.604h5.615v18.106zm-15.38-8.341a4.758 4.758 0 0 0 1.403 3.397c.448.448.963.809 1.546 1.078a4.53 4.53 0 0 0 1.933.408c.678 0 1.315-.137 1.912-.408a5.26 5.26 0 0 0 1.567-1.078 4.77 4.77 0 0 0 1.403-3.397 4.788 4.788 0 0 0-1.403-3.399 5.298 5.298 0 0 0-1.567-1.078 4.585 4.585 0 0 0-1.912-.406c-.706 0-1.35.137-1.933.406a5.371 5.371 0 0 0-1.546 1.078 4.788 4.788 0 0 0-1.403 3.399z"/></g><g fill="#FFF"><path d="M510.378 534.302c-.896-1.112-2.075-1.668-3.54-1.668-.516 0-1.017.122-1.505.366s-.732.665-.732 1.262c0 .488.25.848.753 1.078.501.23 1.139.434 1.912.609l2.482.57a9.317 9.317 0 0 1 2.482.956c.773.435 1.41 1.024 1.912 1.771s.753 1.742.753 2.99c0 1.275-.278 2.326-.834 3.152a6.402 6.402 0 0 1-2.136 1.994c-.868.502-1.845.854-2.93 1.059a17.447 17.447 0 0 1-3.214.305c-1.384 0-2.781-.197-4.191-.59-1.411-.393-2.604-1.092-3.581-2.096l3.703-4.109c.569.705 1.2 1.241 1.892 1.607.692.366 1.499.549 2.421.549.705 0 1.343-.102 1.913-.305.569-.203.854-.576.854-1.119 0-.516-.251-.901-.753-1.16-.502-.257-1.139-.474-1.912-.65a692.94 692.94 0 0 1-2.482-.57c-.882-.203-1.709-.508-2.482-.915s-1.411-.982-1.913-1.729c-.502-.745-.752-1.742-.752-2.99 0-1.166.237-2.17.712-3.011a6.253 6.253 0 0 1 1.872-2.075c.773-.542 1.661-.941 2.665-1.2a12.253 12.253 0 0 1 3.052-.386c1.302 0 2.617.189 3.947.568 1.329.381 2.455 1.059 3.377 2.035l-3.745 3.702zM518.597 528.484h5.615v2.604h.082c.244-.353.562-.713.956-1.078a7.212 7.212 0 0 1 1.383-.997 8.632 8.632 0 0 1 1.729-.732 6.84 6.84 0 0 1 1.994-.284c1.465 0 2.793.25 3.987.752a8.912 8.912 0 0 1 3.072 2.115c.854.91 1.512 1.988 1.974 3.235.461 1.248.691 2.618.691 4.109 0 1.384-.21 2.706-.63 3.967-.421 1.262-1.018 2.38-1.791 3.356s-1.716 1.757-2.828 2.34c-1.113.583-2.374.875-3.784.875-1.275 0-2.461-.197-3.56-.59s-2-1.064-2.706-2.014h-.081v11.393h-6.103v-29.051zm5.614 9.887c0 1.492.427 2.699 1.282 3.621s2.055 1.383 3.601 1.383c1.546 0 2.746-.461 3.601-1.383s1.282-2.129 1.282-3.621-.427-2.699-1.282-3.621-2.055-1.384-3.601-1.384c-1.546 0-2.747.462-3.601 1.384s-1.282 2.129-1.282 3.621zM543.659 528.484h6.104v3.173h.081c.651-1.221 1.424-2.136 2.319-2.746s2.021-.915 3.377-.915c.352 0 .705.014 1.058.04a5.2 5.2 0 0 1 .977.163v5.574a9.396 9.396 0 0 0-1.282-.306 8.396 8.396 0 0 0-1.322-.102c-1.167 0-2.089.163-2.767.488-.678.325-1.2.78-1.566 1.362-.366.584-.604 1.282-.712 2.096a20.323 20.323 0 0 0-.163 2.686v8.26h-6.104v-19.773zM559.812 522.258c0-.976.346-1.811 1.038-2.502s1.526-1.037 2.502-1.037 1.811.346 2.502 1.037a3.408 3.408 0 0 1 1.038 2.502 3.41 3.41 0 0 1-1.038 2.503c-.691.692-1.525 1.038-2.502 1.038s-1.811-.346-2.502-1.038a3.412 3.412 0 0 1-1.038-2.503zm.489 6.226h6.103v19.773h-6.103v-19.773zM570.797 528.484h5.859v2.685h.081c.189-.38.461-.759.814-1.14a5.949 5.949 0 0 1 1.261-1.017 7.224 7.224 0 0 1 1.668-.732 6.99 6.99 0 0 1 2.035-.284c1.546 0 2.793.237 3.743.711.949.475 1.688 1.133 2.217 1.974.529.841.888 1.831 1.079 2.97.189 1.14.285 2.375.285 3.703v10.904h-6.103v-9.684c0-.57-.021-1.16-.061-1.77a5.602 5.602 0 0 0-.366-1.689 2.92 2.92 0 0 0-.936-1.261c-.421-.325-1.024-.488-1.811-.488-.787 0-1.424.143-1.912.427a2.917 2.917 0 0 0-1.119 1.14 4.655 4.655 0 0 0-.508 1.607c-.082.597-.122 1.22-.122 1.872v9.846h-6.104v-19.774zM607.62 533.366h-5.371v6.591c0 .543.026 1.038.081 1.486.054.447.176.834.366 1.158.189.326.481.577.875.754.393.176.916.264 1.566.264.326 0 .753-.033 1.282-.102.529-.067.929-.224 1.2-.468v5.086c-.678.244-1.383.407-2.116.488s-1.452.122-2.156.122c-1.031 0-1.98-.109-2.848-.326-.869-.217-1.628-.562-2.279-1.037s-1.16-1.092-1.526-1.852c-.366-.759-.549-1.682-.549-2.766v-9.399h-3.906v-4.882h3.906v-5.859h6.104v5.859h5.371v4.883zM473.353 577.309h5.615v2.604h.082c.244-.353.562-.712.956-1.079a7.296 7.296 0 0 1 1.383-.996 8.518 8.518 0 0 1 1.729-.732 6.84 6.84 0 0 1 1.994-.285c1.465 0 2.793.252 3.987.753 1.193.503 2.217 1.208 3.072 2.116s1.512 1.986 1.974 3.234c.461 1.248.691 2.617.691 4.109 0 1.383-.21 2.705-.63 3.967-.421 1.262-1.018 2.381-1.791 3.357s-1.716 1.756-2.828 2.339c-1.113.583-2.374.875-3.784.875-1.275 0-2.461-.197-3.56-.59a5.695 5.695 0 0 1-2.706-2.015h-.082v11.393h-6.103v-29.05zm5.615 9.886c0 1.492.427 2.7 1.282 3.621.854.924 2.055 1.385 3.601 1.385 1.546 0 2.746-.461 3.601-1.385.854-.921 1.282-2.129 1.282-3.621 0-1.49-.427-2.698-1.282-3.621-.854-.922-2.055-1.383-3.601-1.383-1.546 0-2.747.461-3.601 1.383-.855.923-1.282 2.131-1.282 3.621zM498.498 566.323h6.103v30.76h-6.103v-30.76zM521.404 594.602h-.081c-.678 1.058-1.581 1.816-2.706 2.277s-2.312.692-3.56.692a9.168 9.168 0 0 1-2.665-.387 6.722 6.722 0 0 1-2.258-1.159 5.59 5.59 0 0 1-1.546-1.912c-.38-.76-.569-1.641-.569-2.645 0-1.14.209-2.103.63-2.89.42-.786.99-1.437 1.709-1.952a8.466 8.466 0 0 1 2.461-1.201 18.078 18.078 0 0 1 2.869-.631 27.5 27.5 0 0 1 2.97-.244c.99-.026 1.905-.04 2.746-.04 0-1.085-.386-1.946-1.159-2.584-.773-.637-1.689-.956-2.747-.956-1.004 0-1.919.211-2.747.631a7.49 7.49 0 0 0-2.217 1.729l-3.255-3.336a11.18 11.18 0 0 1 3.987-2.38 14.249 14.249 0 0 1 4.72-.794c1.79 0 3.261.225 4.415.672 1.152.447 2.075 1.105 2.767 1.973.692.869 1.173 1.934 1.444 3.194.271 1.261.407 2.72.407 4.374v10.05h-5.615v-2.481zm-1.505-6.186c-.461 0-1.038.021-1.729.062a8.714 8.714 0 0 0-1.994.346c-.638.19-1.18.476-1.627.854-.448.381-.671.909-.671 1.587 0 .732.312 1.275.936 1.628s1.275.528 1.953.528c.596 0 1.173-.081 1.729-.243a5.201 5.201 0 0 0 1.485-.692 3.349 3.349 0 0 0 1.038-1.14c.257-.461.386-1.003.386-1.627v-1.303h-1.506zM530.843 577.309h5.859v2.686h.081a4.93 4.93 0 0 1 .814-1.139c.352-.38.773-.719 1.261-1.018s1.044-.543 1.668-.732 1.302-.285 2.035-.285c1.546 0 2.793.238 3.743.713.949.475 1.688 1.133 2.217 1.973.529.842.888 1.831 1.079 2.971.189 1.139.285 2.373.285 3.702v10.904h-6.103V587.4c0-.569-.021-1.159-.061-1.771a5.616 5.616 0 0 0-.366-1.688 2.924 2.924 0 0 0-.936-1.262c-.421-.326-1.024-.488-1.811-.488-.787 0-1.424.143-1.912.428a2.901 2.901 0 0 0-1.119 1.139 4.648 4.648 0 0 0-.508 1.607 13.753 13.753 0 0 0-.122 1.871v9.847h-6.104v-19.774zM554.197 577.309h5.859v2.686h.081a4.93 4.93 0 0 1 .814-1.139c.352-.38.773-.719 1.261-1.018s1.044-.543 1.668-.732 1.302-.285 2.035-.285c1.546 0 2.793.238 3.743.713.949.475 1.688 1.133 2.217 1.973.529.842.888 1.831 1.079 2.971.189 1.139.285 2.373.285 3.702v10.904h-6.103V587.4c0-.569-.021-1.159-.061-1.771a5.616 5.616 0 0 0-.366-1.688 2.924 2.924 0 0 0-.936-1.262c-.421-.326-1.024-.488-1.811-.488-.787 0-1.424.143-1.912.428a2.901 2.901 0 0 0-1.119 1.139 4.648 4.648 0 0 0-.508 1.607 13.753 13.753 0 0 0-.122 1.871v9.847h-6.104v-19.774zM577.145 571.084c0-.977.346-1.811 1.038-2.502.692-.692 1.526-1.038 2.502-1.038s1.811.346 2.502 1.038c.692.691 1.038 1.525 1.038 2.502s-.346 1.811-1.038 2.502c-.691.691-1.525 1.037-2.502 1.037s-1.811-.346-2.502-1.037-1.038-1.525-1.038-2.502zm.488 6.225h6.103v19.774h-6.103v-19.774zM588.13 577.309h5.859v2.686h.081a4.93 4.93 0 0 1 .814-1.139c.352-.38.773-.719 1.261-1.018s1.044-.543 1.668-.732 1.302-.285 2.035-.285c1.546 0 2.793.238 3.743.713.949.475 1.688 1.133 2.217 1.973.529.842.888 1.831 1.079 2.971.189 1.139.285 2.373.285 3.702v10.904h-6.103V587.4c0-.569-.021-1.159-.061-1.771a5.616 5.616 0 0 0-.366-1.688 2.924 2.924 0 0 0-.936-1.262c-.421-.326-1.024-.488-1.811-.488-.787 0-1.424.143-1.912.428a2.901 2.901 0 0 0-1.119 1.139 4.648 4.648 0 0 0-.508 1.607 13.753 13.753 0 0 0-.122 1.871v9.847h-6.104v-19.774zM632.235 595.415c0 3.743-.943 6.584-2.828 8.524-1.885 1.938-4.754 2.908-8.605 2.908-1.763 0-3.499-.197-5.208-.59-1.709-.393-3.283-1.159-4.72-2.299l3.377-5.045a12.78 12.78 0 0 0 2.99 1.871c1.044.461 2.19.691 3.438.691 1.872 0 3.248-.454 4.129-1.362.881-.909 1.322-2.069 1.322-3.479v-1.912h-.081c-.706.95-1.581 1.621-2.625 2.015-1.044.393-2.028.59-2.95.59-1.465 0-2.794-.251-3.987-.753a8.893 8.893 0 0 1-3.072-2.115c-.854-.908-1.512-1.986-1.973-3.234-.461-1.248-.692-2.618-.692-4.109 0-1.303.21-2.577.631-3.825.42-1.247 1.017-2.347 1.79-3.296a8.99 8.99 0 0 1 2.828-2.299c1.112-.583 2.373-.875 3.784-.875a9.35 9.35 0 0 1 2.38.285c.718.189 1.363.434 1.933.732s1.058.631 1.465.996c.407.367.732.727.977 1.079h.081v-2.604h5.615v18.106zm-15.38-8.341a4.758 4.758 0 0 0 1.403 3.397c.448.448.963.809 1.546 1.078a4.53 4.53 0 0 0 1.933.408c.678 0 1.315-.137 1.912-.408a5.26 5.26 0 0 0 1.567-1.078 4.77 4.77 0 0 0 1.403-3.397 4.788 4.788 0 0 0-1.403-3.399 5.298 5.298 0 0 0-1.567-1.078 4.585 4.585 0 0 0-1.912-.406c-.706 0-1.35.137-1.933.406a5.371 5.371 0 0 0-1.546 1.078 4.788 4.788 0 0 0-1.403 3.399z"/></g><g fill="#FFF"><path d="M867.414 534.302c-.896-1.112-2.076-1.668-3.541-1.668-.516 0-1.017.122-1.505.366s-.732.665-.732 1.262c0 .488.251.848.753 1.078s1.139.434 1.912.609l2.482.57a9.298 9.298 0 0 1 2.481.956c.772.435 1.41 1.024 1.912 1.771s.753 1.742.753 2.99c0 1.275-.278 2.326-.834 3.152a6.405 6.405 0 0 1-2.137 1.994c-.867.502-1.844.854-2.93 1.059a17.436 17.436 0 0 1-3.213.305c-1.385 0-2.781-.197-4.191-.59s-2.604-1.092-3.58-2.096l3.702-4.109c.569.705 1.2 1.241 1.892 1.607s1.498.549 2.421.549c.705 0 1.343-.102 1.913-.305.568-.203.854-.576.854-1.119 0-.516-.25-.901-.752-1.16-.502-.257-1.14-.474-1.912-.65-.773-.176-1.602-.366-2.482-.57a10.223 10.223 0 0 1-2.482-.915 5.193 5.193 0 0 1-1.912-1.729c-.502-.745-.752-1.742-.752-2.99 0-1.166.236-2.17.711-3.011s1.1-1.532 1.872-2.075c.772-.542 1.661-.941 2.665-1.2a12.259 12.259 0 0 1 3.052-.386c1.302 0 2.617.189 3.946.568 1.329.381 2.455 1.059 3.377 2.035l-3.743 3.702zM875.633 528.484h5.614v2.604h.081a7.212 7.212 0 0 1 2.34-2.075 8.632 8.632 0 0 1 1.729-.732 6.839 6.839 0 0 1 1.993-.284c1.465 0 2.794.25 3.988.752a8.898 8.898 0 0 1 3.071 2.115c.854.91 1.512 1.988 1.974 3.235.461 1.248.691 2.618.691 4.109a12.47 12.47 0 0 1-.631 3.967c-.42 1.262-1.018 2.38-1.79 3.356s-1.716 1.757-2.827 2.34c-1.113.583-2.375.875-3.785.875-1.274 0-2.461-.197-3.56-.59s-2.001-1.064-2.706-2.014h-.081v11.393h-6.103v-29.051zm5.614 9.887c0 1.492.427 2.699 1.282 3.621.854.922 2.055 1.383 3.601 1.383s2.746-.461 3.601-1.383 1.281-2.129 1.281-3.621-.427-2.699-1.281-3.621-2.055-1.384-3.601-1.384-2.747.462-3.601 1.384c-.855.922-1.282 2.129-1.282 3.621zM900.695 528.484h6.104v3.173h.08c.651-1.221 1.425-2.136 2.32-2.746.895-.61 2.02-.915 3.377-.915.352 0 .705.014 1.058.04.353.027.678.081.977.163v5.574a8.387 8.387 0 0 0-2.604-.408c-1.166 0-2.089.163-2.767.488-.679.325-1.2.78-1.566 1.362-.366.584-.604 1.282-.712 2.096a20.332 20.332 0 0 0-.162 2.686v8.26h-6.104v-19.773zM916.848 522.258c0-.976.346-1.811 1.038-2.502s1.526-1.037 2.503-1.037 1.811.346 2.502 1.037 1.037 1.526 1.037 2.502c0 .977-.346 1.812-1.037 2.503-.691.692-1.525 1.038-2.502 1.038s-1.811-.346-2.503-1.038a3.408 3.408 0 0 1-1.038-2.503zm.488 6.226h6.104v19.773h-6.104v-19.773zM927.833 528.484h5.859v2.685h.081c.189-.38.461-.759.814-1.14a5.924 5.924 0 0 1 1.261-1.017 7.224 7.224 0 0 1 1.668-.732 6.988 6.988 0 0 1 2.034-.284c1.547 0 2.794.237 3.744.711.949.475 1.688 1.133 2.217 1.974s.889 1.831 1.078 2.97c.189 1.14.285 2.375.285 3.703v10.904h-6.104v-9.684c0-.57-.02-1.16-.061-1.77a5.602 5.602 0 0 0-.366-1.689 2.915 2.915 0 0 0-.937-1.261c-.42-.325-1.023-.488-1.811-.488s-1.424.143-1.912.427a2.924 2.924 0 0 0-1.119 1.14 4.655 4.655 0 0 0-.508 1.607c-.082.597-.122 1.22-.122 1.872v9.846h-6.104v-19.774zM964.655 533.366h-5.37v6.591c0 .543.025 1.038.08 1.486.055.447.177.834.367 1.158.189.326.48.577.875.754.393.176.915.264 1.566.264.325 0 .752-.033 1.281-.102.529-.067.929-.224 1.2-.468v5.086c-.679.244-1.384.407-2.116.488s-1.451.122-2.156.122c-1.031 0-1.98-.109-2.848-.326-.869-.217-1.628-.562-2.279-1.037a4.866 4.866 0 0 1-1.525-1.852c-.366-.759-.549-1.682-.549-2.766v-9.399h-3.906v-4.882h3.906v-5.859h6.104v5.859h5.37v4.883z"/></g><g fill="#7F7F7F"><path d="M756.06 202.531l11.189-10.05a20.988 20.988 0 0 0 1.709-1.75 3.35 3.35 0 0 0 .854-2.279c0-.977-.353-1.742-1.058-2.299-.706-.556-1.533-.834-2.482-.834-1.139 0-2.028.353-2.665 1.058-.637.706-.997 1.573-1.078 2.604l-6.103-.448c.082-1.491.393-2.787.936-3.886a8.15 8.15 0 0 1 2.156-2.746c.895-.732 1.946-1.282 3.153-1.648 1.207-.366 2.516-.549 3.926-.549 1.302 0 2.522.183 3.662.549 1.139.366 2.129.909 2.97 1.627.841.719 1.499 1.621 1.974 2.706.474 1.085.712 2.347.712 3.784 0 .922-.095 1.756-.285 2.502a8.52 8.52 0 0 1-.793 2.035 9.284 9.284 0 0 1-1.2 1.688 19.603 19.603 0 0 1-1.505 1.505l-8.748 7.527h12.776V209h-20.1v-6.469zM791.702 203.222H779.13v-5.126l11.759-17.902h6.672v17.902h3.703v5.126h-3.703V209h-5.859v-5.778zm0-15.054h-.081l-6.388 9.928h6.469v-9.928zM810.5 178.24v13.671h.081c.136-.379.366-.759.692-1.139a5.416 5.416 0 0 1 1.18-1.017 6.435 6.435 0 0 1 1.627-.732 6.99 6.99 0 0 1 2.035-.285c1.546 0 2.794.238 3.743.712.949.475 1.688 1.133 2.217 1.973.529.841.889 1.831 1.079 2.97a22.66 22.66 0 0 1 .284 3.703V209h-6.103v-9.684c0-.57-.021-1.16-.062-1.77s-.162-1.173-.365-1.688c-.204-.515-.516-.936-.937-1.261s-1.024-.488-1.811-.488c-.787 0-1.424.143-1.912.427s-.862.665-1.119 1.139a4.648 4.648 0 0 0-.508 1.607c-.082.597-.122 1.22-.122 1.872V209h-6.104v-30.76h6.105z"/></g><g fill="#FFF"><path d="M1092.216 528.484h6.51l4.028 12.409h.081l3.377-12.409h6.673l3.662 12.409h.081l3.703-12.409h6.185l-7.039 19.773h-6.021l-4.11-13.143h-.081l-3.662 13.143h-6.144l-7.243-19.773zM1127.735 538.371c0-1.573.285-2.997.854-4.272.57-1.274 1.35-2.366 2.34-3.275s2.156-1.607 3.499-2.095c1.343-.488 2.773-.732 4.293-.732 1.519 0 2.949.244 4.292.732 1.343.487 2.509 1.186 3.499 2.095s1.771 2.001 2.34 3.275c.569 1.275.854 2.699.854 4.272s-.285 2.997-.854 4.271a9.818 9.818 0 0 1-2.34 3.275c-.99.909-2.156 1.607-3.499 2.096s-2.773.732-4.292.732c-1.52 0-2.95-.244-4.293-.732s-2.509-1.187-3.499-2.096c-.99-.908-1.77-2-2.34-3.275-.568-1.274-.854-2.698-.854-4.271zm6.104 0c0 1.492.428 2.699 1.282 3.621.854.922 2.055 1.383 3.601 1.383s2.746-.461 3.601-1.383 1.281-2.129 1.281-3.621-.427-2.699-1.281-3.621-2.055-1.384-3.601-1.384-2.747.462-3.601 1.384c-.854.922-1.282 2.129-1.282 3.621zM1153.286 528.484h6.104v3.173h.081c.651-1.221 1.425-2.136 2.319-2.746.896-.61 2.021-.915 3.377-.915.353 0 .705.014 1.059.04a5.2 5.2 0 0 1 .977.163v5.574a9.396 9.396 0 0 0-1.282-.306 8.396 8.396 0 0 0-1.322-.102c-1.167 0-2.089.163-2.767.488-.679.325-1.2.78-1.566 1.362-.366.584-.604 1.282-.712 2.096a20.323 20.323 0 0 0-.163 2.686v8.26h-6.104v-19.773zM1169.847 517.498h6.104v18.798l6.754-7.812h7.486l-7.853 8.91 8.056 10.863h-7.689l-6.673-10.01h-.081v10.01h-6.104v-30.759zM1192.062 522.258c0-.976.346-1.811 1.038-2.502.691-.691 1.525-1.037 2.502-1.037s1.811.346 2.502 1.037a3.408 3.408 0 0 1 1.038 2.502 3.41 3.41 0 0 1-1.038 2.503c-.691.692-1.525 1.038-2.502 1.038s-1.811-.346-2.502-1.038a3.408 3.408 0 0 1-1.038-2.503zm.488 6.226h6.104v19.773h-6.104v-19.773zM1203.047 528.484h5.859v2.685h.081c.189-.38.461-.759.814-1.14a5.924 5.924 0 0 1 1.261-1.017 7.224 7.224 0 0 1 1.668-.732 6.995 6.995 0 0 1 2.035-.284c1.546 0 2.793.237 3.743.711.949.475 1.688 1.133 2.217 1.974.529.841.889 1.831 1.079 2.97.189 1.14.284 2.375.284 3.703v10.904h-6.103v-9.684c0-.57-.021-1.16-.062-1.77a5.602 5.602 0 0 0-.366-1.689 2.913 2.913 0 0 0-.936-1.261c-.421-.325-1.024-.488-1.811-.488-.787 0-1.424.143-1.912.427a2.917 2.917 0 0 0-1.119 1.14c-.258.476-.428 1.011-.509 1.607s-.122 1.22-.122 1.872v9.846h-6.104v-19.774zM1247.152 546.59c0 3.743-.943 6.584-2.828 8.523-1.886 1.939-4.754 2.91-8.605 2.91-1.764 0-3.499-.197-5.208-.591s-3.282-1.159-4.72-2.299l3.377-5.045c.949.786 1.946 1.41 2.99 1.872 1.044.461 2.19.691 3.438.691 1.872 0 3.248-.455 4.13-1.363.881-.909 1.322-2.068 1.322-3.479v-1.912h-.081c-.706.949-1.581 1.621-2.625 2.014s-2.027.59-2.949.59c-1.465 0-2.794-.25-3.987-.753a8.855 8.855 0 0 1-3.072-2.116c-.854-.908-1.513-1.986-1.974-3.234-.461-1.247-.691-2.617-.691-4.109 0-1.302.21-2.576.631-3.824.42-1.248 1.017-2.346 1.79-3.296a8.976 8.976 0 0 1 2.828-2.299c1.111-.583 2.373-.874 3.783-.874.868 0 1.661.095 2.381.284.718.19 1.362.435 1.933.732a7.12 7.12 0 0 1 1.465.997c.406.365.732.726.977 1.078h.081v-2.604h5.615v18.107zm-15.38-8.342a4.767 4.767 0 0 0 1.403 3.399c.447.447.963.807 1.546 1.078s1.228.406 1.933.406c.678 0 1.315-.135 1.912-.406s1.119-.631 1.567-1.078a4.767 4.767 0 0 0 1.403-3.399 4.773 4.773 0 0 0-1.403-3.397c-.448-.447-.971-.807-1.567-1.078s-1.234-.407-1.912-.407c-.705 0-1.35.136-1.933.407s-1.099.631-1.546 1.078a4.773 4.773 0 0 0-1.403 3.397zM1263.67 522.258c0-.976.346-1.811 1.038-2.502.691-.691 1.525-1.037 2.502-1.037s1.811.346 2.502 1.037a3.408 3.408 0 0 1 1.038 2.502 3.41 3.41 0 0 1-1.038 2.503c-.691.692-1.525 1.038-2.502 1.038s-1.811-.346-2.502-1.038a3.412 3.412 0 0 1-1.038-2.503zm.488 6.226h6.104v19.773h-6.104v-19.773zM1274.655 528.484h5.859v2.685h.081c.189-.38.461-.759.814-1.14a5.924 5.924 0 0 1 1.261-1.017 7.224 7.224 0 0 1 1.668-.732 6.995 6.995 0 0 1 2.035-.284c1.546 0 2.793.237 3.743.711.949.475 1.688 1.133 2.217 1.974.529.841.889 1.831 1.079 2.97.189 1.14.284 2.375.284 3.703v10.904h-6.103v-9.684c0-.57-.021-1.16-.062-1.77a5.602 5.602 0 0 0-.366-1.689 2.913 2.913 0 0 0-.936-1.261c-.421-.325-1.024-.488-1.811-.488-.787 0-1.424.143-1.912.427a2.917 2.917 0 0 0-1.119 1.14c-.258.476-.428 1.011-.509 1.607s-.122 1.22-.122 1.872v9.846h-6.104v-19.774zM1311.396 534.871c-.299-.434-.719-.793-1.261-1.078a3.72 3.72 0 0 0-1.75-.427c-1.546 0-2.746.462-3.601 1.384s-1.281 2.129-1.281 3.621.427 2.699 1.281 3.621 2.055 1.383 3.601 1.383c.678 0 1.262-.148 1.75-.447s.908-.65 1.261-1.058l4.028 4.231a7.773 7.773 0 0 1-3.356 2.055c-1.289.393-2.517.59-3.683.59-1.52 0-2.949-.244-4.292-.732s-2.51-1.187-3.499-2.096a9.804 9.804 0 0 1-2.34-3.275c-.569-1.274-.854-2.698-.854-4.271s.285-2.997.854-4.272a9.824 9.824 0 0 1 2.34-3.275c.989-.909 2.156-1.607 3.499-2.095 1.343-.488 2.772-.732 4.292-.732 1.166 0 2.394.196 3.683.59a7.773 7.773 0 0 1 3.356 2.055l-4.028 4.228zM1317.621 528.484h6.104v3.173h.081c.65-1.221 1.424-2.136 2.319-2.746.895-.61 2.021-.915 3.377-.915.352 0 .705.014 1.058.04.353.027.678.081.977.163v5.574a9.383 9.383 0 0 0-1.281-.306 8.396 8.396 0 0 0-1.322-.102c-1.167 0-2.09.163-2.768.488s-1.2.78-1.566 1.362c-.366.584-.604 1.282-.712 2.096a20.504 20.504 0 0 0-.162 2.686v8.26h-6.104v-19.773zM1352.165 544.84c-.977 1.248-2.211 2.211-3.703 2.889a11.09 11.09 0 0 1-4.638 1.018c-1.52 0-2.95-.244-4.293-.732s-2.509-1.187-3.499-2.096c-.99-.908-1.77-2-2.34-3.275-.569-1.274-.854-2.698-.854-4.271s.285-2.997.854-4.272c.57-1.274 1.35-2.366 2.34-3.275s2.156-1.607 3.499-2.095c1.343-.488 2.773-.732 4.293-.732 1.41 0 2.691.244 3.845.732a8.002 8.002 0 0 1 2.93 2.095c.8.909 1.417 2.001 1.852 3.275.434 1.275.65 2.699.65 4.272v1.912h-14.159c.244 1.166.773 2.096 1.587 2.787s1.817 1.037 3.011 1.037c1.003 0 1.852-.224 2.543-.671a6.869 6.869 0 0 0 1.811-1.729l4.271 3.131zm-5.167-8.707c.026-1.03-.312-1.912-1.018-2.645-.706-.732-1.614-1.099-2.727-1.099-.678 0-1.274.108-1.79.325a4.517 4.517 0 0 0-1.322.834c-.366.34-.65.732-.854 1.18a3.896 3.896 0 0 0-.346 1.404h8.057zM1356.803 528.484h5.859v2.685h.081c.189-.38.461-.759.814-1.14a5.924 5.924 0 0 1 1.261-1.017 7.224 7.224 0 0 1 1.668-.732 6.995 6.995 0 0 1 2.035-.284c1.383 0 2.61.284 3.682.854 1.071.57 1.878 1.465 2.421 2.686.705-1.274 1.56-2.184 2.563-2.727 1.003-.541 2.238-.812 3.703-.812 1.328 0 2.447.223 3.356.671.908.447 1.627 1.058 2.156 1.831s.908 1.682 1.14 2.726c.229 1.044.346 2.163.346 3.356v11.678h-6.104v-11.515c0-.922-.197-1.716-.59-2.38-.394-.664-1.092-.997-2.096-.997-.705 0-1.295.116-1.77.346-.475.231-.854.55-1.14.956a3.993 3.993 0 0 0-.61 1.424 7.778 7.778 0 0 0-.183 1.709v10.457h-6.104v-10.457c0-.352-.014-.786-.04-1.302a5.196 5.196 0 0 0-.285-1.465c-.163-.461-.427-.854-.793-1.18s-.902-.488-1.607-.488c-.787 0-1.424.143-1.912.427a2.917 2.917 0 0 0-1.119 1.14c-.258.476-.428 1.011-.509 1.607s-.122 1.22-.122 1.872v9.846h-6.104v-19.775zM1410.917 544.84c-.977 1.248-2.211 2.211-3.702 2.889a11.095 11.095 0 0 1-4.639 1.018c-1.52 0-2.949-.244-4.292-.732s-2.51-1.187-3.499-2.096a9.804 9.804 0 0 1-2.34-3.275c-.569-1.274-.854-2.698-.854-4.271s.285-2.997.854-4.272a9.824 9.824 0 0 1 2.34-3.275c.989-.909 2.156-1.607 3.499-2.095 1.343-.488 2.772-.732 4.292-.732 1.41 0 2.692.244 3.846.732 1.152.487 2.129 1.186 2.929 2.095s1.417 2.001 1.852 3.275c.434 1.275.651 2.699.651 4.272v1.912h-14.159c.244 1.166.772 2.096 1.586 2.787.814.691 1.817 1.037 3.012 1.037 1.003 0 1.851-.224 2.543-.671a6.869 6.869 0 0 0 1.811-1.729l4.27 3.131zm-5.167-8.707c.026-1.03-.312-1.912-1.018-2.645s-1.613-1.099-2.726-1.099c-.679 0-1.275.108-1.79.325a4.517 4.517 0 0 0-1.322.834c-.366.34-.651.732-.854 1.18a3.876 3.876 0 0 0-.346 1.404h8.056zM1415.555 528.484h5.859v2.685h.081c.189-.38.461-.759.814-1.14a5.924 5.924 0 0 1 1.261-1.017 7.224 7.224 0 0 1 1.668-.732 6.995 6.995 0 0 1 2.035-.284c1.546 0 2.793.237 3.743.711.949.475 1.688 1.133 2.217 1.974.529.841.889 1.831 1.079 2.97.189 1.14.284 2.375.284 3.703v10.904h-6.103v-9.684c0-.57-.021-1.16-.062-1.77a5.602 5.602 0 0 0-.366-1.689 2.913 2.913 0 0 0-.936-1.261c-.421-.325-1.024-.488-1.811-.488-.787 0-1.424.143-1.912.427a2.917 2.917 0 0 0-1.119 1.14c-.258.476-.428 1.011-.509 1.607s-.122 1.22-.122 1.872v9.846h-6.104v-19.774zM1452.377 533.366h-5.371v6.591c0 .543.026 1.038.081 1.486.055.447.177.834.366 1.158.189.326.481.577.875.754.393.176.916.264 1.566.264.326 0 .753-.033 1.282-.102.528-.067.929-.224 1.2-.468v5.086c-.679.244-1.384.407-2.116.488s-1.451.122-2.156.122c-1.031 0-1.98-.109-2.848-.326-.869-.217-1.628-.562-2.279-1.037a4.866 4.866 0 0 1-1.525-1.852c-.366-.759-.55-1.682-.55-2.766v-9.399h-3.905v-4.882h3.905v-5.859h6.104v5.859h5.371v4.883zM1163.235 587.195c0-1.572.285-2.996.854-4.271s1.349-2.366 2.34-3.275c.989-.908 2.156-1.607 3.499-2.096s2.772-.732 4.292-.732 2.95.244 4.293.732 2.509 1.188 3.499 2.096c.99.909 1.77 2 2.34 3.275.569 1.275.854 2.699.854 4.271 0 1.574-.285 2.998-.854 4.273a9.842 9.842 0 0 1-2.34 3.275c-.99.908-2.156 1.606-3.499 2.095s-2.773.732-4.293.732-2.949-.244-4.292-.732-2.51-1.187-3.499-2.095c-.991-.909-1.771-2-2.34-3.275s-.854-2.698-.854-4.273zm6.104 0c0 1.492.427 2.7 1.281 3.621.854.924 2.055 1.385 3.601 1.385 1.547 0 2.747-.461 3.602-1.385.854-.921 1.281-2.129 1.281-3.621 0-1.49-.428-2.698-1.281-3.621-.854-.922-2.055-1.383-3.602-1.383-1.546 0-2.746.461-3.601 1.383-.854.923-1.281 2.131-1.281 3.621zM1190.902 582.191h-4.028v-4.883h4.028v-3.499c0-1.085.095-2.108.285-3.071.189-.963.556-1.811 1.099-2.543.542-.732 1.322-1.309 2.339-1.729 1.018-.421 2.354-.631 4.008-.631.624 0 1.234.027 1.831.081.597.055 1.18.15 1.75.285l-.285 5.168a7.06 7.06 0 0 0-.977-.306 4.665 4.665 0 0 0-1.018-.103c-.977 0-1.709.211-2.196.631-.488.422-.732 1.282-.732 2.584v3.133h4.516v4.883h-4.516v14.892h-6.104v-14.892zM1227.073 583.127c-.896-1.111-2.075-1.668-3.54-1.668-.516 0-1.018.122-1.506.366s-.732.665-.732 1.261c0 .488.251.849.753 1.078.502.231 1.14.436 1.912.611.773.176 1.601.365 2.482.569a9.332 9.332 0 0 1 2.481.956 5.556 5.556 0 0 1 1.912 1.77c.502.746.753 1.744.753 2.99 0 1.275-.278 2.326-.834 3.154s-1.269 1.492-2.136 1.993c-.868.503-1.845.854-2.93 1.058a17.363 17.363 0 0 1-3.214.306c-1.384 0-2.781-.197-4.191-.59-1.41-.394-2.604-1.092-3.58-2.096l3.702-4.109c.569.706 1.2 1.241 1.892 1.607.692.366 1.499.55 2.421.55.705 0 1.343-.103 1.913-.306.569-.204.854-.576.854-1.119 0-.515-.251-.901-.753-1.159s-1.14-.475-1.912-.651c-.773-.177-1.602-.366-2.482-.569a10.202 10.202 0 0 1-2.481-.916c-.773-.406-1.411-.982-1.913-1.729s-.752-1.743-.752-2.991c0-1.165.236-2.169.712-3.011a6.271 6.271 0 0 1 1.871-2.075c.773-.542 1.661-.942 2.665-1.2s2.021-.387 3.052-.387c1.302 0 2.617.19 3.947.57a7.335 7.335 0 0 1 3.377 2.034l-3.743 3.703zM1233.989 587.195c0-1.572.285-2.996.854-4.271a9.842 9.842 0 0 1 2.34-3.275c.99-.908 2.156-1.607 3.499-2.096s2.773-.732 4.293-.732c1.519 0 2.949.244 4.292.732s2.509 1.188 3.499 2.096c.99.909 1.771 2 2.34 3.275s.854 2.699.854 4.271c0 1.574-.285 2.998-.854 4.273s-1.35 2.366-2.34 3.275c-.99.908-2.156 1.606-3.499 2.095s-2.773.732-4.292.732c-1.52 0-2.95-.244-4.293-.732s-2.509-1.187-3.499-2.095c-.99-.909-1.77-2-2.34-3.275-.569-1.275-.854-2.698-.854-4.273zm6.104 0c0 1.492.428 2.7 1.282 3.621.854.924 2.055 1.385 3.601 1.385s2.746-.461 3.601-1.385c.854-.921 1.281-2.129 1.281-3.621 0-1.49-.427-2.698-1.281-3.621-.854-.922-2.055-1.383-3.601-1.383s-2.747.461-3.601 1.383c-.854.923-1.282 2.131-1.282 3.621zM1261.656 582.191h-4.027v-4.883h4.027v-3.499c0-1.085.095-2.108.285-3.071.189-.963.556-1.811 1.099-2.543.542-.732 1.322-1.309 2.34-1.729 1.017-.421 2.353-.631 4.008-.631.623 0 1.233.027 1.831.081.596.055 1.18.15 1.749.285l-.285 5.168a7.019 7.019 0 0 0-.977-.306 4.649 4.649 0 0 0-1.017-.103c-.977 0-1.709.211-2.197.631-.488.422-.732 1.282-.732 2.584v3.133h4.517v4.883h-4.517v14.892h-6.104v-14.892zM1288.062 582.191h-5.371v6.592c0 .543.026 1.037.081 1.484s.177.834.366 1.16c.189.325.481.576.875.752.393.178.916.266 1.566.266.326 0 .753-.034 1.282-.103.528-.067.929-.224 1.2-.468v5.086c-.679.244-1.384.406-2.116.488s-1.451.122-2.156.122a11.73 11.73 0 0 1-2.848-.325c-.869-.217-1.628-.562-2.279-1.038-.65-.474-1.159-1.091-1.525-1.851s-.55-1.682-.55-2.768v-9.398h-3.905v-4.883h3.905v-5.859h6.104v5.859h5.371v4.884zM1288.795 577.309h6.51l4.028 12.41h.081l3.377-12.41h6.673l3.662 12.41h.081l3.703-12.41h6.185l-7.039 19.774h-6.021l-4.11-13.142h-.081l-3.662 13.142h-6.144l-7.243-19.774zM1337.456 594.602h-.081c-.678 1.058-1.58 1.816-2.706 2.277a9.3 9.3 0 0 1-3.56.692 9.163 9.163 0 0 1-2.665-.387 6.722 6.722 0 0 1-2.258-1.159c-.651-.516-1.167-1.152-1.547-1.912s-.569-1.641-.569-2.645c0-1.14.21-2.103.631-2.89a5.626 5.626 0 0 1 1.709-1.952c.718-.516 1.539-.916 2.461-1.201s1.878-.494 2.869-.631a27.48 27.48 0 0 1 2.97-.244c.99-.026 1.905-.04 2.746-.04 0-1.085-.386-1.946-1.159-2.584-.773-.637-1.688-.956-2.746-.956-1.004 0-1.92.211-2.747.631a7.503 7.503 0 0 0-2.217 1.729l-3.255-3.336a11.18 11.18 0 0 1 3.987-2.38 14.249 14.249 0 0 1 4.72-.794c1.79 0 3.261.225 4.414.672 1.152.447 2.075 1.105 2.767 1.973.692.869 1.173 1.934 1.444 3.194s.407 2.72.407 4.374v10.05h-5.615v-2.481zm-1.505-6.186c-.462 0-1.038.021-1.729.062s-1.356.156-1.993.346a4.457 4.457 0 0 0-1.628.854c-.447.381-.671.909-.671 1.587 0 .732.312 1.275.936 1.628s1.274.528 1.953.528c.596 0 1.173-.081 1.729-.243a5.189 5.189 0 0 0 1.485-.692 3.349 3.349 0 0 0 1.038-1.14c.257-.461.386-1.003.386-1.627v-1.303h-1.506zM1346.896 577.309H1353v3.174h.081c.65-1.221 1.424-2.137 2.319-2.746.895-.61 2.021-.916 3.377-.916.352 0 .705.014 1.058.041s.678.082.977.162v5.574a9.526 9.526 0 0 0-1.281-.305 8.396 8.396 0 0 0-1.322-.102c-1.167 0-2.09.162-2.768.488s-1.2.779-1.566 1.363-.604 1.281-.712 2.096a20.477 20.477 0 0 0-.162 2.685v8.26h-6.104v-19.774zM1381.439 593.665c-.977 1.248-2.211 2.212-3.702 2.89a11.094 11.094 0 0 1-4.639 1.017c-1.52 0-2.949-.244-4.292-.732s-2.51-1.187-3.499-2.095c-.991-.909-1.771-2-2.34-3.275s-.854-2.699-.854-4.273c0-1.572.285-2.996.854-4.271s1.349-2.366 2.34-3.275c.989-.908 2.156-1.607 3.499-2.096s2.772-.732 4.292-.732c1.41 0 2.692.244 3.846.732a8.016 8.016 0 0 1 2.929 2.096c.8.909 1.417 2 1.852 3.275.434 1.275.651 2.699.651 4.271v1.913h-14.159c.244 1.167.772 2.095 1.586 2.787.814.691 1.817 1.038 3.012 1.038 1.003 0 1.851-.225 2.543-.672a6.837 6.837 0 0 0 1.811-1.729l4.27 3.131zm-5.167-8.707c.026-1.03-.312-1.912-1.018-2.645s-1.613-1.099-2.726-1.099c-.679 0-1.275.109-1.79.326a4.455 4.455 0 0 0-1.322.834 3.646 3.646 0 0 0-.854 1.18 3.865 3.865 0 0 0-.346 1.403h8.056z"/></g><circle fill="none" stroke="#FFF" stroke-width="7" stroke-miterlimit="10" cx="910.826" cy="330.809" r="126.013"/><path fill="none" stroke="#FFF" stroke-width="7" stroke-miterlimit="10" d="M1266 456.5H204M772 314.5l12.813 24.5 15.687-22M1243.405 471.096l23.176-15.076-23.387-13.532M892.405 473.096l23.176-15.076-23.387-13.532M529.405 471.096l23.176-15.076-23.387-13.532M1049.5 339l-12.813-24.5-15.687 22"/><circle fill="#FFF" cx="204" cy="456.5" r="14.667"/><g fill="none" stroke="#FFF" stroke-width="7" stroke-miterlimit="10"><path d="M204 457.5h-6"/><path stroke-dasharray="13,13" d="M185 457.5h-72"/><path d="M107 457.5h-6"/></g></svg>