<svg xmlns="http://www.w3.org/2000/svg" width="1532" height="918" viewBox="0 0 1532 918"><path fill="none" stroke="#7F7F7F" stroke-width="7" stroke-miterlimit="10" d="M383.5 225.5s151.735.42 176.965 95.678"/><path fill="#7F7F7F" d="M558.835 315.07l11.333-9.456.346.384-5.026 21.547c-.495 7.319-.991 14.637-1.488 21.956a86421.89 86421.89 0 0 0-7.865-20.553l-11.127-19.123.149-.458 13.678 5.703z"/><path fill="none" stroke="#7F7F7F" stroke-width="7" stroke-miterlimit="10" d="M702.5 402.5s151.735.42 176.965 95.678"/><path fill="#7F7F7F" d="M877.835 492.07l11.333-9.456.346.384-5.026 21.547c-.495 7.319-.991 14.637-1.488 21.956a86421.89 86421.89 0 0 0-7.865-20.553l-11.127-19.123.149-.458 13.678 5.703z"/><path fill="none" stroke="#7F7F7F" stroke-width="7" stroke-miterlimit="10" d="M1011.5 565.5s151.735.42 176.965 95.678"/><path fill="#7F7F7F" d="M1186.835 655.07l11.333-9.456.346.384-5.026 21.547c-.495 7.319-.991 14.637-1.488 21.956a86421.89 86421.89 0 0 0-7.865-20.553l-11.127-19.123.149-.458 13.678 5.703z"/><g fill="#FFF"><path d="M234.345 221.274c-.896-1.112-2.075-1.668-3.54-1.668-.516 0-1.017.122-1.505.366s-.732.665-.732 1.261c0 .488.25.848.753 1.078.501.231 1.139.435 1.912.61.773.177 1.6.366 2.482.57a9.351 9.351 0 0 1 2.482.956 5.556 5.556 0 0 1 1.912 1.77c.502.746.753 1.743.753 2.99 0 1.275-.278 2.326-.834 3.153a6.402 6.402 0 0 1-2.136 1.994c-.868.502-1.845.854-2.93 1.058s-2.156.305-3.214.305c-1.384 0-2.781-.197-4.191-.59-1.411-.393-2.604-1.092-3.581-2.096l3.703-4.109c.569.706 1.2 1.241 1.892 1.607.692.366 1.499.549 2.421.549.705 0 1.343-.102 1.913-.305.569-.204.854-.576.854-1.119 0-.515-.251-.901-.753-1.16-.502-.257-1.139-.474-1.912-.651a692.94 692.94 0 0 1-2.482-.57 10.184 10.184 0 0 1-2.482-.916 5.188 5.188 0 0 1-1.913-1.729c-.502-.746-.752-1.743-.752-2.991 0-1.166.237-2.169.712-3.011a6.263 6.263 0 0 1 1.872-2.075c.773-.542 1.661-.942 2.665-1.2a12.253 12.253 0 0 1 3.052-.386c1.302 0 2.617.19 3.947.569 1.329.38 2.455 1.058 3.377 2.035l-3.745 3.705zM255.462 220.339h-5.371v6.591c0 .543.026 1.038.081 1.485.054.447.176.834.366 1.159.189.326.481.577.875.753.393.177.916.265 1.566.265.326 0 .753-.034 1.282-.102.529-.067.929-.224 1.2-.468v5.086c-.678.244-1.383.407-2.116.488s-1.452.122-2.156.122c-1.031 0-1.98-.109-2.848-.326-.869-.217-1.628-.562-2.279-1.038a4.848 4.848 0 0 1-1.526-1.851c-.366-.759-.549-1.682-.549-2.767v-9.399h-3.906v-4.882h3.906v-5.859h6.104v5.859h5.371v4.884zM277.27 231.812c-.977 1.248-2.211 2.211-3.703 2.889s-3.038 1.017-4.638 1.017c-1.52 0-2.95-.244-4.292-.732s-2.509-1.187-3.499-2.095c-.991-.909-1.77-2-2.34-3.275-.569-1.275-.854-2.699-.854-4.272 0-1.573.285-2.997.854-4.272a9.828 9.828 0 0 1 2.34-3.275c.99-.909 2.156-1.607 3.499-2.095 1.343-.488 2.773-.732 4.292-.732 1.41 0 2.692.244 3.845.732a8.013 8.013 0 0 1 2.929 2.095c.8.909 1.417 2 1.852 3.275.434 1.275.651 2.699.651 4.272v1.913h-14.159c.244 1.167.773 2.095 1.586 2.787.814.691 1.817 1.038 3.011 1.038 1.003 0 1.851-.224 2.543-.671a6.869 6.869 0 0 0 1.811-1.729l4.272 3.13zm-5.167-8.707c.026-1.03-.312-1.912-1.018-2.645-.706-.732-1.614-1.099-2.726-1.099-.678 0-1.275.109-1.79.326a4.476 4.476 0 0 0-1.322.834 3.646 3.646 0 0 0-.854 1.18 3.876 3.876 0 0 0-.346 1.404h8.056zM282.478 215.457h5.615v2.604h.082c.244-.353.562-.712.956-1.079a7.255 7.255 0 0 1 1.383-.997 8.632 8.632 0 0 1 1.729-.732 6.84 6.84 0 0 1 1.994-.285c1.465 0 2.793.251 3.987.752a8.914 8.914 0 0 1 3.072 2.116c.854.909 1.512 1.987 1.974 3.235.461 1.248.691 2.618.691 4.109 0 1.383-.21 2.706-.63 3.967-.421 1.262-1.018 2.38-1.791 3.357s-1.716 1.756-2.828 2.339c-1.113.583-2.374.875-3.784.875-1.275 0-2.461-.197-3.56-.59a5.693 5.693 0 0 1-2.706-2.014h-.082v11.393h-6.103v-29.05zm5.614 9.886c0 1.492.427 2.7 1.282 3.621.854.923 2.055 1.384 3.601 1.384 1.546 0 2.746-.461 3.601-1.384.854-.921 1.282-2.129 1.282-3.621 0-1.491-.427-2.699-1.282-3.621-.854-.922-2.055-1.383-3.601-1.383-1.546 0-2.747.461-3.601 1.383-.854.923-1.282 2.13-1.282 3.621zM329.145 213.259l-5.777 5.086-3.458-3.987 9.399-7.934h5.696v28.807h-5.859v-21.972z"/></g><g fill="#FFF"><path d="M545.48 402.409c-.896-1.112-2.075-1.668-3.54-1.668-.516 0-1.017.122-1.505.366s-.732.665-.732 1.261c0 .488.25.848.753 1.079.501.23 1.139.435 1.912.61l2.482.569a9.351 9.351 0 0 1 2.482.956c.773.435 1.41 1.024 1.912 1.771s.753 1.743.753 2.99c0 1.275-.278 2.326-.834 3.153a6.389 6.389 0 0 1-2.136 1.993c-.868.503-1.845.854-2.93 1.059a17.447 17.447 0 0 1-3.214.305c-1.384 0-2.781-.197-4.191-.59-1.411-.393-2.604-1.092-3.581-2.096l3.703-4.109c.569.706 1.2 1.241 1.892 1.607.692.366 1.499.55 2.421.55.705 0 1.343-.103 1.913-.306.569-.203.854-.576.854-1.119 0-.515-.251-.901-.753-1.159s-1.139-.475-1.912-.651c-.773-.176-1.601-.366-2.482-.569a10.225 10.225 0 0 1-2.482-.916c-.773-.406-1.411-.982-1.913-1.729s-.752-1.743-.752-2.991c0-1.166.237-2.169.712-3.011a6.263 6.263 0 0 1 1.872-2.075c.773-.542 1.661-.942 2.665-1.2a12.253 12.253 0 0 1 3.052-.386c1.302 0 2.617.19 3.947.569 1.329.38 2.455 1.058 3.377 2.035l-3.745 3.702zM566.597 401.474h-5.371v6.592c0 .543.026 1.037.081 1.485.054.447.176.834.366 1.159.189.325.481.576.875.753.393.177.916.265 1.566.265.326 0 .753-.034 1.282-.103.529-.067.929-.224 1.2-.468v5.086a9.214 9.214 0 0 1-2.116.488c-.732.082-1.452.122-2.156.122a11.73 11.73 0 0 1-2.848-.325c-.869-.217-1.628-.562-2.279-1.038-.651-.474-1.16-1.091-1.526-1.851s-.549-1.682-.549-2.767v-9.399h-3.906v-4.882h3.906v-5.859h6.104v5.859h5.371v4.883zM588.405 412.947c-.977 1.248-2.211 2.212-3.703 2.89s-3.038 1.017-4.638 1.017c-1.52 0-2.95-.244-4.292-.732s-2.509-1.187-3.499-2.095c-.991-.909-1.77-2-2.34-3.275-.569-1.275-.854-2.699-.854-4.272s.285-2.997.854-4.272a9.828 9.828 0 0 1 2.34-3.275c.99-.909 2.156-1.607 3.499-2.095 1.343-.488 2.773-.732 4.292-.732 1.41 0 2.692.244 3.845.732a8.013 8.013 0 0 1 2.929 2.095c.8.909 1.417 2 1.852 3.275.434 1.275.651 2.699.651 4.272v1.912h-14.159c.244 1.167.773 2.096 1.586 2.787.814.691 1.817 1.038 3.011 1.038 1.003 0 1.851-.225 2.543-.672a6.837 6.837 0 0 0 1.811-1.729l4.272 3.131zm-5.167-8.707c.026-1.03-.312-1.912-1.018-2.645-.706-.732-1.614-1.099-2.726-1.099-.678 0-1.275.109-1.79.326a4.476 4.476 0 0 0-1.322.834 3.646 3.646 0 0 0-.854 1.18 3.876 3.876 0 0 0-.346 1.404h8.056zM593.612 396.591h5.615v2.604h.082c.244-.353.562-.712.956-1.079a7.255 7.255 0 0 1 1.383-.997 8.632 8.632 0 0 1 1.729-.732 6.84 6.84 0 0 1 1.994-.285c1.465 0 2.793.251 3.987.752a8.914 8.914 0 0 1 3.072 2.116c.854.909 1.512 1.987 1.974 3.235.461 1.248.691 2.618.691 4.109 0 1.384-.21 2.706-.63 3.967-.421 1.262-1.018 2.381-1.791 3.357s-1.716 1.756-2.828 2.339c-1.113.583-2.374.875-3.784.875-1.275 0-2.461-.197-3.56-.59s-2-1.064-2.706-2.014h-.082v11.393h-6.103v-29.05zm5.615 9.888c0 1.492.427 2.699 1.282 3.621.854.923 2.055 1.384 3.601 1.384 1.546 0 2.746-.461 3.601-1.384.854-.922 1.282-2.129 1.282-3.621 0-1.491-.427-2.699-1.282-3.622-.854-.922-2.055-1.383-3.601-1.383-1.546 0-2.747.461-3.601 1.383-.855.922-1.282 2.13-1.282 3.622zM630.556 409.896l11.189-10.05a20.988 20.988 0 0 0 1.709-1.75 3.35 3.35 0 0 0 .854-2.279c0-.977-.353-1.742-1.058-2.299-.706-.556-1.533-.834-2.482-.834-1.139 0-2.028.353-2.665 1.058-.637.706-.997 1.573-1.078 2.604l-6.103-.448c.082-1.491.393-2.787.936-3.886a8.15 8.15 0 0 1 2.156-2.746c.895-.732 1.946-1.282 3.153-1.648 1.207-.366 2.516-.549 3.926-.549 1.302 0 2.522.183 3.662.549 1.139.366 2.129.909 2.97 1.627.841.719 1.499 1.621 1.974 2.706.474 1.085.712 2.347.712 3.784 0 .922-.095 1.756-.285 2.502a8.52 8.52 0 0 1-.793 2.035 9.284 9.284 0 0 1-1.2 1.688 19.794 19.794 0 0 1-1.505 1.506l-8.748 7.527h12.776v5.37h-20.1v-6.467z"/></g><g fill="#FFF"><path d="M857.48 568.409c-.896-1.111-2.075-1.668-3.54-1.668-.516 0-1.018.122-1.506.366s-.732.665-.732 1.262c0 .488.251.848.753 1.078s1.14.435 1.912.61c.773.177 1.601.366 2.482.569a9.332 9.332 0 0 1 2.481.956c.773.435 1.41 1.024 1.912 1.771s.753 1.743.753 2.99c0 1.275-.278 2.326-.834 3.153a6.389 6.389 0 0 1-2.136 1.993c-.868.503-1.845.854-2.93 1.059a17.447 17.447 0 0 1-3.214.305c-1.384 0-2.781-.197-4.191-.59s-2.604-1.092-3.58-2.096l3.702-4.109c.569.706 1.2 1.241 1.892 1.607.692.366 1.499.55 2.421.55.705 0 1.343-.103 1.913-.306.569-.203.854-.576.854-1.119 0-.515-.251-.901-.753-1.159s-1.14-.475-1.912-.651a896.73 896.73 0 0 1-2.482-.569 10.202 10.202 0 0 1-2.481-.916c-.773-.406-1.411-.982-1.913-1.729s-.752-1.743-.752-2.991c0-1.165.236-2.169.712-3.011a6.271 6.271 0 0 1 1.871-2.075c.773-.542 1.661-.941 2.665-1.2a12.259 12.259 0 0 1 3.052-.386c1.302 0 2.617.189 3.947.569a7.335 7.335 0 0 1 3.377 2.034l-3.743 3.703zM878.597 567.474h-5.37v6.592c0 .543.026 1.037.081 1.485.054.447.176.834.366 1.159.189.325.481.576.875.753.393.177.915.265 1.566.265.325 0 .753-.034 1.281-.103.529-.067.929-.224 1.2-.468v5.086a9.217 9.217 0 0 1-2.115.488c-.732.082-1.452.122-2.156.122-1.031 0-1.98-.108-2.849-.325s-1.628-.562-2.278-1.038c-.651-.474-1.16-1.091-1.526-1.851s-.549-1.682-.549-2.767v-9.399h-3.906v-4.882h3.906v-5.859h6.104v5.859h5.37v4.883zM900.405 578.947c-.977 1.248-2.211 2.212-3.703 2.89a11.09 11.09 0 0 1-4.638 1.017c-1.52 0-2.95-.244-4.293-.732s-2.509-1.187-3.499-2.095c-.99-.909-1.77-2-2.34-3.275-.569-1.275-.854-2.699-.854-4.272s.285-2.997.854-4.272a9.852 9.852 0 0 1 2.34-3.275c.99-.908 2.156-1.607 3.499-2.095 1.343-.488 2.773-.732 4.293-.732 1.41 0 2.691.244 3.845.732a8.014 8.014 0 0 1 2.93 2.095c.8.909 1.417 2.001 1.852 3.275.434 1.275.65 2.699.65 4.272v1.912h-14.159c.244 1.167.773 2.096 1.587 2.787s1.817 1.038 3.011 1.038c1.003 0 1.852-.225 2.543-.672s1.295-1.023 1.811-1.729l4.271 3.131zm-5.167-8.707c.026-1.03-.312-1.912-1.018-2.645-.706-.732-1.614-1.099-2.727-1.099-.678 0-1.274.109-1.79.326s-.956.495-1.322.834-.65.732-.854 1.18a3.886 3.886 0 0 0-.346 1.403h8.057zM905.612 562.592h5.615v2.604h.081c.244-.353.562-.712.956-1.078s.854-.698 1.384-.997a8.607 8.607 0 0 1 1.729-.732 6.834 6.834 0 0 1 1.993-.284c1.465 0 2.794.251 3.987.752a8.918 8.918 0 0 1 3.072 2.116c.854.909 1.512 1.987 1.974 3.234.461 1.248.691 2.618.691 4.109a12.47 12.47 0 0 1-.631 3.967 10.94 10.94 0 0 1-1.79 3.357c-.773.977-1.716 1.756-2.828 2.339s-2.374.875-3.784.875c-1.274 0-2.461-.197-3.56-.59s-2.001-1.064-2.706-2.014h-.081v11.393h-6.104v-29.051zm5.616 9.887c0 1.492.427 2.699 1.281 3.621.854.923 2.055 1.384 3.602 1.384 1.546 0 2.746-.461 3.601-1.384.854-.922 1.281-2.129 1.281-3.621 0-1.491-.427-2.699-1.281-3.621s-2.055-1.384-3.601-1.384c-1.547 0-2.747.462-3.602 1.384s-1.281 2.129-1.281 3.621zM949.351 564.91h1.994c.569 0 1.125-.04 1.668-.122a4.72 4.72 0 0 0 1.485-.468 2.758 2.758 0 0 0 1.078-.977c.271-.42.406-.969.406-1.647 0-.868-.346-1.587-1.037-2.156-.691-.57-1.54-.854-2.543-.854-.95 0-1.736.258-2.36.772a3.545 3.545 0 0 0-1.22 1.913l-6.714-1.384c.325-1.247.813-2.312 1.465-3.194a8.082 8.082 0 0 1 2.319-2.136c.895-.542 1.892-.942 2.99-1.2s2.258-.387 3.479-.387c1.275 0 2.503.156 3.683.468 1.18.312 2.218.801 3.112 1.465a7.337 7.337 0 0 1 2.137 2.503c.528 1.003.793 2.196.793 3.58 0 1.601-.421 2.97-1.262 4.109s-2.062 1.872-3.661 2.197v.122c.867.108 1.634.366 2.299.773a6.192 6.192 0 0 1 1.688 1.505 6.626 6.626 0 0 1 1.058 2.034c.244.76.366 1.561.366 2.4 0 1.438-.278 2.7-.834 3.784a7.922 7.922 0 0 1-2.238 2.706c-.936.719-2.034 1.255-3.295 1.607a14.855 14.855 0 0 1-4.008.528c-2.577 0-4.795-.596-6.652-1.79-1.858-1.193-3.086-3.078-3.683-5.655l6.429-1.506c.217 1.031.657 1.845 1.322 2.441.664.597 1.647.896 2.95.896 1.328 0 2.312-.347 2.949-1.038s.956-1.58.956-2.665c0-.813-.169-1.444-.508-1.892a3.048 3.048 0 0 0-1.323-.997 5.85 5.85 0 0 0-1.83-.387 34.59 34.59 0 0 0-2.035-.061h-1.424v-5.287z"/></g><g fill="#FFF"><path d="M1189.48 746.409c-.896-1.111-2.075-1.668-3.54-1.668-.516 0-1.018.122-1.506.366s-.732.665-.732 1.262c0 .488.251.848.753 1.078s1.14.435 1.912.61c.773.177 1.601.366 2.482.569a9.332 9.332 0 0 1 2.481.956c.773.435 1.41 1.024 1.912 1.771s.753 1.743.753 2.99c0 1.275-.278 2.326-.834 3.153a6.389 6.389 0 0 1-2.136 1.993c-.868.503-1.845.854-2.93 1.059a17.447 17.447 0 0 1-3.214.305c-1.384 0-2.781-.197-4.191-.59s-2.604-1.092-3.58-2.096l3.702-4.109c.569.706 1.2 1.241 1.892 1.607.692.366 1.499.55 2.421.55.705 0 1.343-.103 1.913-.306.569-.203.854-.576.854-1.119 0-.515-.251-.901-.753-1.159s-1.14-.475-1.912-.651a896.73 896.73 0 0 1-2.482-.569 10.202 10.202 0 0 1-2.481-.916c-.773-.406-1.411-.982-1.913-1.729s-.752-1.743-.752-2.991c0-1.165.236-2.169.712-3.011a6.271 6.271 0 0 1 1.871-2.075c.773-.542 1.661-.941 2.665-1.2a12.259 12.259 0 0 1 3.052-.386c1.302 0 2.617.189 3.947.569a7.335 7.335 0 0 1 3.377 2.034l-3.743 3.703zM1210.597 745.474h-5.37v6.592c0 .543.026 1.037.081 1.485.054.447.176.834.366 1.159.189.325.481.576.875.753.393.177.915.265 1.566.265.325 0 .753-.034 1.281-.103.529-.067.929-.224 1.2-.468v5.086a9.217 9.217 0 0 1-2.115.488c-.732.082-1.452.122-2.156.122-1.031 0-1.98-.108-2.849-.325s-1.628-.562-2.278-1.038c-.651-.474-1.16-1.091-1.526-1.851s-.549-1.682-.549-2.767v-9.399h-3.906v-4.882h3.906v-5.859h6.104v5.859h5.37v4.883zM1232.405 756.947c-.977 1.248-2.211 2.212-3.703 2.89a11.09 11.09 0 0 1-4.638 1.017c-1.52 0-2.95-.244-4.293-.732s-2.509-1.187-3.499-2.095c-.99-.909-1.77-2-2.34-3.275-.569-1.275-.854-2.699-.854-4.272s.285-2.997.854-4.272a9.852 9.852 0 0 1 2.34-3.275c.99-.908 2.156-1.607 3.499-2.095 1.343-.488 2.773-.732 4.293-.732 1.41 0 2.691.244 3.845.732a8.014 8.014 0 0 1 2.93 2.095c.8.909 1.417 2.001 1.852 3.275.434 1.275.65 2.699.65 4.272v1.912h-14.159c.244 1.167.773 2.096 1.587 2.787s1.817 1.038 3.011 1.038c1.003 0 1.852-.225 2.543-.672s1.295-1.023 1.811-1.729l4.271 3.131zm-5.167-8.707c.026-1.03-.312-1.912-1.018-2.645-.706-.732-1.614-1.099-2.727-1.099-.678 0-1.274.109-1.79.326s-.956.495-1.322.834-.65.732-.854 1.18a3.886 3.886 0 0 0-.346 1.403h8.057zM1237.612 740.592h5.615v2.604h.081c.244-.353.562-.712.956-1.078s.854-.698 1.384-.997a8.607 8.607 0 0 1 1.729-.732 6.834 6.834 0 0 1 1.993-.284c1.465 0 2.794.251 3.987.752a8.918 8.918 0 0 1 3.072 2.116c.854.909 1.512 1.987 1.974 3.234.461 1.248.691 2.618.691 4.109a12.47 12.47 0 0 1-.631 3.967 10.94 10.94 0 0 1-1.79 3.357c-.773.977-1.716 1.756-2.828 2.339s-2.374.875-3.784.875c-1.274 0-2.461-.197-3.56-.59s-2.001-1.064-2.706-2.014h-.081v11.393h-6.104v-29.051zm5.616 9.887c0 1.492.427 2.699 1.281 3.621.854.923 2.055 1.384 3.602 1.384 1.546 0 2.746-.461 3.601-1.384.854-.922 1.281-2.129 1.281-3.621 0-1.491-.427-2.699-1.281-3.621s-2.055-1.384-3.601-1.384c-1.547 0-2.747.462-3.602 1.384s-1.281 2.129-1.281 3.621zM1286.111 754.588h-12.572v-5.127l11.759-17.902h6.672v17.902h3.703v5.127h-3.703v5.777h-5.858v-5.777zm0-15.055h-.081l-6.389 9.928h6.47v-9.928z"/></g><path fill="none" stroke="#FCFCFC" stroke-width="7" stroke-miterlimit="10" d="M159.5 172.5h224v106h-224zM477.5 349.5h224v106h-224zM787.5 521.5h224v106h-224zM1125.5 698.5h224v106h-224z"/></svg>