<?xml version="1.0" encoding="utf-8"?>
<!-- Generator: Adobe Illustrator 17.0.0, SVG Export Plug-In . SVG Version: 6.00 Build 0)  -->
<!DOCTYPE svg PUBLIC "-//W3C//DTD SVG 1.1//EN" "http://www.w3.org/Graphics/SVG/1.1/DTD/svg11.dtd">
<svg version="1.1" xmlns="http://www.w3.org/2000/svg" xmlns:xlink="http://www.w3.org/1999/xlink" x="0px" y="0px" width="1532px"
	 height="918px" viewBox="0 0 1532 918" enable-background="new 0 0 1532 918" xml:space="preserve">
<g id="Layer_2" display="none">
	<rect display="inline" width="1532" height="918"/>
</g>
<g id="Layer_1">
	<g>
		<g>
			<path fill="none" stroke="#7F7F7F" stroke-width="7" stroke-miterlimit="10" d="M383.5,225.5c0,0,151.735,0.42,176.965,95.678"/>
			<g>
				<path fill="#7F7F7F" d="M558.835,315.07l11.333-9.456l0.346,0.384l-5.026,21.547c-0.495,7.319-0.991,14.637-1.488,21.956
					c-2.621-6.851-5.242-13.702-7.865-20.553l-11.127-19.123l0.149-0.458L558.835,315.07z"/>
			</g>
		</g>
	</g>
	<g>
		<g>
			<path fill="none" stroke="#7F7F7F" stroke-width="7" stroke-miterlimit="10" d="M702.5,402.5c0,0,151.735,0.42,176.965,95.678"/>
			<g>
				<path fill="#7F7F7F" d="M877.835,492.07l11.333-9.456l0.346,0.384l-5.026,21.547c-0.495,7.319-0.991,14.637-1.488,21.956
					c-2.621-6.851-5.242-13.702-7.865-20.553l-11.127-19.123l0.149-0.458L877.835,492.07z"/>
			</g>
		</g>
	</g>
	<g>
		<g>
			<path fill="none" stroke="#7F7F7F" stroke-width="7" stroke-miterlimit="10" d="M1011.5,565.5c0,0,151.735,0.42,176.965,95.678"
				/>
			<g>
				<path fill="#7F7F7F" d="M1186.835,655.07l11.333-9.456l0.346,0.384l-5.026,21.547c-0.495,7.319-0.991,14.637-1.488,21.956
					c-2.621-6.851-5.242-13.702-7.865-20.553l-11.127-19.123l0.149-0.458L1186.835,655.07z"/>
			</g>
		</g>
	</g>
	<g>
		<path fill="#FFFFFF" d="M234.345,221.274c-0.896-1.112-2.075-1.668-3.54-1.668c-0.516,0-1.017,0.122-1.505,0.366
			s-0.732,0.665-0.732,1.261c0,0.488,0.25,0.848,0.753,1.078c0.501,0.231,1.139,0.435,1.912,0.61c0.773,0.177,1.6,0.366,2.482,0.57
			c0.881,0.204,1.709,0.522,2.482,0.956c0.773,0.434,1.41,1.024,1.912,1.77c0.502,0.746,0.753,1.743,0.753,2.99
			c0,1.275-0.278,2.326-0.834,3.153c-0.556,0.828-1.269,1.492-2.136,1.994c-0.868,0.502-1.845,0.854-2.93,1.058
			s-2.156,0.305-3.214,0.305c-1.384,0-2.781-0.197-4.191-0.59c-1.411-0.393-2.604-1.092-3.581-2.096l3.703-4.109
			c0.569,0.706,1.2,1.241,1.892,1.607c0.692,0.366,1.499,0.549,2.421,0.549c0.705,0,1.343-0.102,1.913-0.305
			c0.569-0.204,0.854-0.576,0.854-1.119c0-0.515-0.251-0.901-0.753-1.16c-0.502-0.257-1.139-0.474-1.912-0.651
			c-0.773-0.176-1.601-0.366-2.482-0.57c-0.882-0.203-1.709-0.508-2.482-0.916c-0.773-0.407-1.411-0.982-1.913-1.729
			c-0.502-0.746-0.752-1.743-0.752-2.991c0-1.166,0.237-2.169,0.712-3.011c0.474-0.84,1.099-1.532,1.872-2.075
			c0.773-0.542,1.661-0.942,2.665-1.2c1.003-0.257,2.021-0.386,3.052-0.386c1.302,0,2.617,0.19,3.947,0.569
			c1.329,0.38,2.455,1.058,3.377,2.035L234.345,221.274z"/>
		<path fill="#FFFFFF" d="M255.462,220.339h-5.371v6.591c0,0.543,0.026,1.038,0.081,1.485c0.054,0.447,0.176,0.834,0.366,1.159
			c0.189,0.326,0.481,0.577,0.875,0.753c0.393,0.177,0.916,0.265,1.566,0.265c0.326,0,0.753-0.034,1.282-0.102
			c0.529-0.067,0.929-0.224,1.2-0.468v5.086c-0.678,0.244-1.383,0.407-2.116,0.488s-1.452,0.122-2.156,0.122
			c-1.031,0-1.98-0.109-2.848-0.326c-0.869-0.217-1.628-0.562-2.279-1.038c-0.651-0.474-1.16-1.091-1.526-1.851
			c-0.366-0.759-0.549-1.682-0.549-2.767v-9.399h-3.906v-4.882h3.906v-5.859h6.104v5.859h5.371V220.339z"/>
		<path fill="#FFFFFF" d="M277.27,231.812c-0.977,1.248-2.211,2.211-3.703,2.889s-3.038,1.017-4.638,1.017
			c-1.52,0-2.95-0.244-4.292-0.732s-2.509-1.187-3.499-2.095c-0.991-0.909-1.77-2-2.34-3.275c-0.569-1.275-0.854-2.699-0.854-4.272
			c0-1.573,0.285-2.997,0.854-4.272c0.57-1.275,1.349-2.366,2.34-3.275c0.99-0.909,2.156-1.607,3.499-2.095
			c1.343-0.488,2.773-0.732,4.292-0.732c1.41,0,2.692,0.244,3.845,0.732c1.152,0.488,2.129,1.187,2.929,2.095
			c0.8,0.909,1.417,2,1.852,3.275c0.434,1.275,0.651,2.699,0.651,4.272v1.913h-14.159c0.244,1.167,0.773,2.095,1.586,2.787
			c0.814,0.691,1.817,1.038,3.011,1.038c1.003,0,1.851-0.224,2.543-0.671c0.691-0.448,1.295-1.024,1.811-1.729L277.27,231.812z
			 M272.103,223.105c0.026-1.03-0.312-1.912-1.018-2.645c-0.706-0.732-1.614-1.099-2.726-1.099c-0.678,0-1.275,0.109-1.79,0.326
			c-0.516,0.217-0.956,0.495-1.322,0.834c-0.366,0.339-0.651,0.732-0.854,1.18c-0.204,0.448-0.319,0.916-0.346,1.404H272.103z"/>
		<path fill="#FFFFFF" d="M282.478,215.457h5.615v2.604h0.082c0.244-0.353,0.562-0.712,0.956-1.079
			c0.393-0.366,0.854-0.698,1.383-0.997c0.529-0.298,1.105-0.542,1.729-0.732c0.624-0.189,1.288-0.285,1.994-0.285
			c1.465,0,2.793,0.251,3.987,0.752c1.193,0.502,2.217,1.208,3.072,2.116c0.854,0.909,1.512,1.987,1.974,3.235
			c0.461,1.248,0.691,2.618,0.691,4.109c0,1.383-0.21,2.706-0.63,3.967c-0.421,1.262-1.018,2.38-1.791,3.357
			s-1.716,1.756-2.828,2.339c-1.113,0.583-2.374,0.875-3.784,0.875c-1.275,0-2.461-0.197-3.56-0.59
			c-1.099-0.393-2-1.064-2.706-2.014h-0.082v11.393h-6.103V215.457z M288.092,225.343c0,1.492,0.427,2.7,1.282,3.621
			c0.854,0.923,2.055,1.384,3.601,1.384c1.546,0,2.746-0.461,3.601-1.384c0.854-0.921,1.282-2.129,1.282-3.621
			c0-1.491-0.427-2.699-1.282-3.621c-0.854-0.922-2.055-1.383-3.601-1.383c-1.546,0-2.747,0.461-3.601,1.383
			C288.52,222.645,288.092,223.852,288.092,225.343z"/>
		<path fill="#FFFFFF" d="M329.145,213.259l-5.777,5.086l-3.458-3.987l9.399-7.934h5.696v28.807h-5.859V213.259z"/>
	</g>
	<g>
		<path fill="#FFFFFF" d="M545.48,402.409c-0.896-1.112-2.075-1.668-3.54-1.668c-0.516,0-1.017,0.122-1.505,0.366
			s-0.732,0.665-0.732,1.261c0,0.488,0.25,0.848,0.753,1.079c0.501,0.23,1.139,0.435,1.912,0.61c0.773,0.177,1.6,0.366,2.482,0.569
			c0.881,0.204,1.709,0.522,2.482,0.956c0.773,0.435,1.41,1.024,1.912,1.771s0.753,1.743,0.753,2.99
			c0,1.275-0.278,2.326-0.834,3.153c-0.556,0.828-1.269,1.492-2.136,1.993c-0.868,0.503-1.845,0.854-2.93,1.059
			c-1.085,0.203-2.156,0.305-3.214,0.305c-1.384,0-2.781-0.197-4.191-0.59c-1.411-0.393-2.604-1.092-3.581-2.096l3.703-4.109
			c0.569,0.706,1.2,1.241,1.892,1.607c0.692,0.366,1.499,0.55,2.421,0.55c0.705,0,1.343-0.103,1.913-0.306
			c0.569-0.203,0.854-0.576,0.854-1.119c0-0.515-0.251-0.901-0.753-1.159s-1.139-0.475-1.912-0.651
			c-0.773-0.176-1.601-0.366-2.482-0.569c-0.882-0.203-1.709-0.509-2.482-0.916c-0.773-0.406-1.411-0.982-1.913-1.729
			s-0.752-1.743-0.752-2.991c0-1.166,0.237-2.169,0.712-3.011c0.474-0.84,1.099-1.532,1.872-2.075
			c0.773-0.542,1.661-0.942,2.665-1.2c1.003-0.257,2.021-0.386,3.052-0.386c1.302,0,2.617,0.19,3.947,0.569
			c1.329,0.38,2.455,1.058,3.377,2.035L545.48,402.409z"/>
		<path fill="#FFFFFF" d="M566.597,401.474h-5.371v6.592c0,0.543,0.026,1.037,0.081,1.485c0.054,0.447,0.176,0.834,0.366,1.159
			c0.189,0.325,0.481,0.576,0.875,0.753c0.393,0.177,0.916,0.265,1.566,0.265c0.326,0,0.753-0.034,1.282-0.103
			c0.529-0.067,0.929-0.224,1.2-0.468v5.086c-0.678,0.244-1.383,0.407-2.116,0.488c-0.732,0.082-1.452,0.122-2.156,0.122
			c-1.031,0-1.98-0.108-2.848-0.325c-0.869-0.217-1.628-0.562-2.279-1.038c-0.651-0.474-1.16-1.091-1.526-1.851
			s-0.549-1.682-0.549-2.767v-9.399h-3.906v-4.882h3.906v-5.859h6.104v5.859h5.371V401.474z"/>
		<path fill="#FFFFFF" d="M588.405,412.947c-0.977,1.248-2.211,2.212-3.703,2.89s-3.038,1.017-4.638,1.017
			c-1.52,0-2.95-0.244-4.292-0.732s-2.509-1.187-3.499-2.095c-0.991-0.909-1.77-2-2.34-3.275c-0.569-1.275-0.854-2.699-0.854-4.272
			s0.285-2.997,0.854-4.272c0.57-1.275,1.349-2.366,2.34-3.275c0.99-0.909,2.156-1.607,3.499-2.095
			c1.343-0.488,2.773-0.732,4.292-0.732c1.41,0,2.692,0.244,3.845,0.732c1.152,0.488,2.129,1.187,2.929,2.095
			c0.8,0.909,1.417,2,1.852,3.275c0.434,1.275,0.651,2.699,0.651,4.272v1.912h-14.159c0.244,1.167,0.773,2.096,1.586,2.787
			c0.814,0.691,1.817,1.038,3.011,1.038c1.003,0,1.851-0.225,2.543-0.672c0.691-0.447,1.295-1.023,1.811-1.729L588.405,412.947z
			 M583.238,404.24c0.026-1.03-0.312-1.912-1.018-2.645c-0.706-0.732-1.614-1.099-2.726-1.099c-0.678,0-1.275,0.109-1.79,0.326
			c-0.516,0.217-0.956,0.495-1.322,0.834c-0.366,0.339-0.651,0.732-0.854,1.18c-0.204,0.448-0.319,0.916-0.346,1.404H583.238z"/>
		<path fill="#FFFFFF" d="M593.612,396.591h5.615v2.604h0.082c0.244-0.353,0.562-0.712,0.956-1.079
			c0.393-0.366,0.854-0.698,1.383-0.997c0.529-0.298,1.105-0.542,1.729-0.732c0.624-0.189,1.288-0.285,1.994-0.285
			c1.465,0,2.793,0.251,3.987,0.752c1.193,0.502,2.217,1.208,3.072,2.116c0.854,0.909,1.512,1.987,1.974,3.235
			c0.461,1.248,0.691,2.618,0.691,4.109c0,1.384-0.21,2.706-0.63,3.967c-0.421,1.262-1.018,2.381-1.791,3.357
			s-1.716,1.756-2.828,2.339c-1.113,0.583-2.374,0.875-3.784,0.875c-1.275,0-2.461-0.197-3.56-0.59s-2-1.064-2.706-2.014h-0.082
			v11.393h-6.103V396.591z M599.227,406.479c0,1.492,0.427,2.699,1.282,3.621c0.854,0.923,2.055,1.384,3.601,1.384
			c1.546,0,2.746-0.461,3.601-1.384c0.854-0.922,1.282-2.129,1.282-3.621c0-1.491-0.427-2.699-1.282-3.622
			c-0.854-0.922-2.055-1.383-3.601-1.383c-1.546,0-2.747,0.461-3.601,1.383C599.654,403.779,599.227,404.987,599.227,406.479z"/>
		<path fill="#FFFFFF" d="M630.556,409.896l11.189-10.05c0.57-0.515,1.139-1.099,1.709-1.75c0.57-0.651,0.854-1.41,0.854-2.279
			c0-0.977-0.353-1.742-1.058-2.299c-0.706-0.556-1.533-0.834-2.482-0.834c-1.139,0-2.028,0.353-2.665,1.058
			c-0.637,0.706-0.997,1.573-1.078,2.604l-6.103-0.448c0.082-1.491,0.393-2.787,0.936-3.886c0.542-1.099,1.261-2.014,2.156-2.746
			c0.895-0.732,1.946-1.282,3.153-1.648c1.207-0.366,2.516-0.549,3.926-0.549c1.302,0,2.522,0.183,3.662,0.549
			c1.139,0.366,2.129,0.909,2.97,1.627c0.841,0.719,1.499,1.621,1.974,2.706c0.474,1.085,0.712,2.347,0.712,3.784
			c0,0.922-0.095,1.756-0.285,2.502c-0.19,0.747-0.455,1.424-0.793,2.035c-0.339,0.61-0.739,1.173-1.2,1.688
			c-0.461,0.516-0.963,1.017-1.505,1.506l-8.748,7.527h12.776v5.37h-20.1V409.896z"/>
	</g>
	<g>
		<path fill="#FFFFFF" d="M857.48,568.409c-0.896-1.111-2.075-1.668-3.54-1.668c-0.516,0-1.018,0.122-1.506,0.366
			s-0.732,0.665-0.732,1.262c0,0.488,0.251,0.848,0.753,1.078s1.14,0.435,1.912,0.61c0.773,0.177,1.601,0.366,2.482,0.569
			c0.881,0.204,1.709,0.522,2.481,0.956c0.773,0.435,1.41,1.024,1.912,1.771s0.753,1.743,0.753,2.99
			c0,1.275-0.278,2.326-0.834,3.153c-0.556,0.828-1.269,1.492-2.136,1.993c-0.868,0.503-1.845,0.854-2.93,1.059
			c-1.085,0.203-2.156,0.305-3.214,0.305c-1.384,0-2.781-0.197-4.191-0.59s-2.604-1.092-3.58-2.096l3.702-4.109
			c0.569,0.706,1.2,1.241,1.892,1.607c0.692,0.366,1.499,0.55,2.421,0.55c0.705,0,1.343-0.103,1.913-0.306
			c0.569-0.203,0.854-0.576,0.854-1.119c0-0.515-0.251-0.901-0.753-1.159s-1.14-0.475-1.912-0.651
			c-0.773-0.176-1.602-0.366-2.482-0.569c-0.882-0.203-1.709-0.509-2.481-0.916c-0.773-0.406-1.411-0.982-1.913-1.729
			s-0.752-1.743-0.752-2.991c0-1.165,0.236-2.169,0.712-3.011c0.474-0.84,1.099-1.532,1.871-2.075
			c0.773-0.542,1.661-0.941,2.665-1.2c1.004-0.257,2.021-0.386,3.052-0.386c1.302,0,2.617,0.189,3.947,0.569
			c1.328,0.38,2.454,1.058,3.377,2.034L857.48,568.409z"/>
		<path fill="#FFFFFF" d="M878.597,567.474h-5.37v6.592c0,0.543,0.026,1.037,0.081,1.485c0.054,0.447,0.176,0.834,0.366,1.159
			c0.189,0.325,0.481,0.576,0.875,0.753c0.393,0.177,0.915,0.265,1.566,0.265c0.325,0,0.753-0.034,1.281-0.103
			c0.529-0.067,0.929-0.224,1.2-0.468v5.086c-0.678,0.244-1.383,0.407-2.115,0.488c-0.732,0.082-1.452,0.122-2.156,0.122
			c-1.031,0-1.98-0.108-2.849-0.325s-1.628-0.562-2.278-1.038c-0.651-0.474-1.16-1.091-1.526-1.851s-0.549-1.682-0.549-2.767v-9.399
			h-3.906v-4.882h3.906v-5.859h6.104v5.859h5.37V567.474z"/>
		<path fill="#FFFFFF" d="M900.405,578.947c-0.977,1.248-2.211,2.212-3.703,2.89c-1.491,0.678-3.038,1.017-4.638,1.017
			c-1.52,0-2.95-0.244-4.293-0.732s-2.509-1.187-3.499-2.095c-0.99-0.909-1.77-2-2.34-3.275c-0.569-1.275-0.854-2.699-0.854-4.272
			s0.285-2.997,0.854-4.272c0.57-1.274,1.35-2.366,2.34-3.275c0.99-0.908,2.156-1.607,3.499-2.095
			c1.343-0.488,2.773-0.732,4.293-0.732c1.41,0,2.691,0.244,3.845,0.732c1.152,0.487,2.129,1.187,2.93,2.095
			c0.8,0.909,1.417,2.001,1.852,3.275c0.434,1.275,0.65,2.699,0.65,4.272v1.912h-14.159c0.244,1.167,0.773,2.096,1.587,2.787
			s1.817,1.038,3.011,1.038c1.003,0,1.852-0.225,2.543-0.672s1.295-1.023,1.811-1.729L900.405,578.947z M895.238,570.24
			c0.026-1.03-0.312-1.912-1.018-2.645c-0.706-0.732-1.614-1.099-2.727-1.099c-0.678,0-1.274,0.109-1.79,0.326
			s-0.956,0.495-1.322,0.834s-0.65,0.732-0.854,1.18c-0.203,0.447-0.319,0.915-0.346,1.403H895.238z"/>
		<path fill="#FFFFFF" d="M905.612,562.592h5.615v2.604h0.081c0.244-0.353,0.562-0.712,0.956-1.078s0.854-0.698,1.384-0.997
			c0.529-0.298,1.104-0.542,1.729-0.732c0.623-0.189,1.288-0.284,1.993-0.284c1.465,0,2.794,0.251,3.987,0.752
			c1.193,0.503,2.218,1.208,3.072,2.116c0.854,0.909,1.512,1.987,1.974,3.234c0.461,1.248,0.691,2.618,0.691,4.109
			c0,1.384-0.211,2.706-0.631,3.967c-0.421,1.262-1.018,2.381-1.79,3.357c-0.773,0.977-1.716,1.756-2.828,2.339
			s-2.374,0.875-3.784,0.875c-1.274,0-2.461-0.197-3.56-0.59s-2.001-1.064-2.706-2.014h-0.081v11.393h-6.104V562.592z
			 M911.228,572.479c0,1.492,0.427,2.699,1.281,3.621c0.854,0.923,2.055,1.384,3.602,1.384c1.546,0,2.746-0.461,3.601-1.384
			c0.854-0.922,1.281-2.129,1.281-3.621c0-1.491-0.427-2.699-1.281-3.621s-2.055-1.384-3.601-1.384
			c-1.547,0-2.747,0.462-3.602,1.384S911.228,570.987,911.228,572.479z"/>
		<path fill="#FFFFFF" d="M949.351,564.91h1.994c0.569,0,1.125-0.04,1.668-0.122c0.542-0.081,1.037-0.236,1.485-0.468
			c0.447-0.229,0.807-0.556,1.078-0.977c0.271-0.42,0.406-0.969,0.406-1.647c0-0.868-0.346-1.587-1.037-2.156
			c-0.691-0.57-1.54-0.854-2.543-0.854c-0.95,0-1.736,0.258-2.36,0.772c-0.624,0.516-1.03,1.153-1.22,1.913l-6.714-1.384
			c0.325-1.247,0.813-2.312,1.465-3.194c0.651-0.881,1.424-1.593,2.319-2.136c0.895-0.542,1.892-0.942,2.99-1.2
			s2.258-0.387,3.479-0.387c1.275,0,2.503,0.156,3.683,0.468c1.18,0.312,2.218,0.801,3.112,1.465
			c0.896,0.665,1.607,1.499,2.137,2.503c0.528,1.003,0.793,2.196,0.793,3.58c0,1.601-0.421,2.97-1.262,4.109
			s-2.062,1.872-3.661,2.197v0.122c0.867,0.108,1.634,0.366,2.299,0.773c0.664,0.406,1.227,0.908,1.688,1.505
			c0.461,0.597,0.813,1.275,1.058,2.034c0.244,0.76,0.366,1.561,0.366,2.4c0,1.438-0.278,2.7-0.834,3.784
			c-0.557,1.085-1.302,1.987-2.238,2.706c-0.936,0.719-2.034,1.255-3.295,1.607c-1.262,0.352-2.598,0.528-4.008,0.528
			c-2.577,0-4.795-0.596-6.652-1.79c-1.858-1.193-3.086-3.078-3.683-5.655l6.429-1.506c0.217,1.031,0.657,1.845,1.322,2.441
			c0.664,0.597,1.647,0.896,2.95,0.896c1.328,0,2.312-0.347,2.949-1.038s0.956-1.58,0.956-2.665c0-0.813-0.169-1.444-0.508-1.892
			c-0.34-0.448-0.78-0.779-1.323-0.997c-0.542-0.217-1.152-0.346-1.83-0.387c-0.679-0.04-1.357-0.061-2.035-0.061h-1.424V564.91z"/>
	</g>
	<g>
		<path fill="#FFFFFF" d="M1189.48,746.409c-0.896-1.111-2.075-1.668-3.54-1.668c-0.516,0-1.018,0.122-1.506,0.366
			s-0.732,0.665-0.732,1.262c0,0.488,0.251,0.848,0.753,1.078s1.14,0.435,1.912,0.61c0.773,0.177,1.601,0.366,2.482,0.569
			c0.881,0.204,1.709,0.522,2.481,0.956c0.773,0.435,1.41,1.024,1.912,1.771s0.753,1.743,0.753,2.99
			c0,1.275-0.278,2.326-0.834,3.153c-0.556,0.828-1.269,1.492-2.136,1.993c-0.868,0.503-1.845,0.854-2.93,1.059
			c-1.085,0.203-2.156,0.305-3.214,0.305c-1.384,0-2.781-0.197-4.191-0.59s-2.604-1.092-3.58-2.096l3.702-4.109
			c0.569,0.706,1.2,1.241,1.892,1.607c0.692,0.366,1.499,0.55,2.421,0.55c0.705,0,1.343-0.103,1.913-0.306
			c0.569-0.203,0.854-0.576,0.854-1.119c0-0.515-0.251-0.901-0.753-1.159s-1.14-0.475-1.912-0.651
			c-0.773-0.176-1.602-0.366-2.482-0.569c-0.882-0.203-1.709-0.509-2.481-0.916c-0.773-0.406-1.411-0.982-1.913-1.729
			s-0.752-1.743-0.752-2.991c0-1.165,0.236-2.169,0.712-3.011c0.474-0.84,1.099-1.532,1.871-2.075
			c0.773-0.542,1.661-0.941,2.665-1.2c1.004-0.257,2.021-0.386,3.052-0.386c1.302,0,2.617,0.189,3.947,0.569
			c1.328,0.38,2.454,1.058,3.377,2.034L1189.48,746.409z"/>
		<path fill="#FFFFFF" d="M1210.597,745.474h-5.37v6.592c0,0.543,0.026,1.037,0.081,1.485c0.054,0.447,0.176,0.834,0.366,1.159
			c0.189,0.325,0.481,0.576,0.875,0.753c0.393,0.177,0.915,0.265,1.566,0.265c0.325,0,0.753-0.034,1.281-0.103
			c0.529-0.067,0.929-0.224,1.2-0.468v5.086c-0.678,0.244-1.383,0.407-2.115,0.488c-0.732,0.082-1.452,0.122-2.156,0.122
			c-1.031,0-1.98-0.108-2.849-0.325s-1.628-0.562-2.278-1.038c-0.651-0.474-1.16-1.091-1.526-1.851s-0.549-1.682-0.549-2.767v-9.399
			h-3.906v-4.882h3.906v-5.859h6.104v5.859h5.37V745.474z"/>
		<path fill="#FFFFFF" d="M1232.405,756.947c-0.977,1.248-2.211,2.212-3.703,2.89c-1.491,0.678-3.038,1.017-4.638,1.017
			c-1.52,0-2.95-0.244-4.293-0.732s-2.509-1.187-3.499-2.095c-0.99-0.909-1.77-2-2.34-3.275c-0.569-1.275-0.854-2.699-0.854-4.272
			s0.285-2.997,0.854-4.272c0.57-1.274,1.35-2.366,2.34-3.275c0.99-0.908,2.156-1.607,3.499-2.095
			c1.343-0.488,2.773-0.732,4.293-0.732c1.41,0,2.691,0.244,3.845,0.732c1.152,0.487,2.129,1.187,2.93,2.095
			c0.8,0.909,1.417,2.001,1.852,3.275c0.434,1.275,0.65,2.699,0.65,4.272v1.912h-14.159c0.244,1.167,0.773,2.096,1.587,2.787
			s1.817,1.038,3.011,1.038c1.003,0,1.852-0.225,2.543-0.672s1.295-1.023,1.811-1.729L1232.405,756.947z M1227.238,748.24
			c0.026-1.03-0.312-1.912-1.018-2.645c-0.706-0.732-1.614-1.099-2.727-1.099c-0.678,0-1.274,0.109-1.79,0.326
			s-0.956,0.495-1.322,0.834s-0.65,0.732-0.854,1.18c-0.203,0.447-0.319,0.915-0.346,1.403H1227.238z"/>
		<path fill="#FFFFFF" d="M1237.612,740.592h5.615v2.604h0.081c0.244-0.353,0.562-0.712,0.956-1.078s0.854-0.698,1.384-0.997
			c0.529-0.298,1.104-0.542,1.729-0.732c0.623-0.189,1.288-0.284,1.993-0.284c1.465,0,2.794,0.251,3.987,0.752
			c1.193,0.503,2.218,1.208,3.072,2.116c0.854,0.909,1.512,1.987,1.974,3.234c0.461,1.248,0.691,2.618,0.691,4.109
			c0,1.384-0.211,2.706-0.631,3.967c-0.421,1.262-1.018,2.381-1.79,3.357c-0.773,0.977-1.716,1.756-2.828,2.339
			s-2.374,0.875-3.784,0.875c-1.274,0-2.461-0.197-3.56-0.59s-2.001-1.064-2.706-2.014h-0.081v11.393h-6.104V740.592z
			 M1243.228,750.479c0,1.492,0.427,2.699,1.281,3.621c0.854,0.923,2.055,1.384,3.602,1.384c1.546,0,2.746-0.461,3.601-1.384
			c0.854-0.922,1.281-2.129,1.281-3.621c0-1.491-0.427-2.699-1.281-3.621s-2.055-1.384-3.601-1.384
			c-1.547,0-2.747,0.462-3.602,1.384S1243.228,748.987,1243.228,750.479z"/>
		<path fill="#FFFFFF" d="M1286.111,754.588h-12.572v-5.127l11.759-17.902h6.672v17.902h3.703v5.127h-3.703v5.777h-5.858V754.588z
			 M1286.111,739.533h-0.081l-6.389,9.928h6.47V739.533z"/>
	</g>
	<rect x="159.5" y="172.5" fill="none" stroke="#FCFCFC" stroke-width="7" stroke-miterlimit="10" width="224" height="106"/>
	<rect x="477.5" y="349.5" fill="none" stroke="#FCFCFC" stroke-width="7" stroke-miterlimit="10" width="224" height="106"/>
	<rect x="787.5" y="521.5" fill="none" stroke="#FCFCFC" stroke-width="7" stroke-miterlimit="10" width="224" height="106"/>
	<rect x="1125.5" y="698.5" fill="none" stroke="#FCFCFC" stroke-width="7" stroke-miterlimit="10" width="224" height="106"/>
	<g>
	</g>
	<g>
	</g>
	<g>
	</g>
	<g>
	</g>
	<g>
	</g>
	<g>
	</g>
	<g>
	</g>
	<g>
	</g>
	<g>
	</g>
	<g>
	</g>
	<g>
	</g>
	<g>
	</g>
	<g>
	</g>
	<g>
	</g>
	<g>
	</g>
	<g>
	</g>
</g>
</svg>
