<?xml version="1.0" encoding="utf-8"?>
<!-- Generator: Adobe Illustrator 16.0.0, SVG Export Plug-In . SVG Version: 6.00 Build 0)  -->
<!DOCTYPE svg PUBLIC "-//W3C//DTD SVG 1.1//EN" "http://www.w3.org/Graphics/SVG/1.1/DTD/svg11.dtd">
<svg version="1.1" id="Layer_1" xmlns="http://www.w3.org/2000/svg" xmlns:xlink="http://www.w3.org/1999/xlink" x="0px" y="0px"
	 width="386px" height="384px" viewBox="285.5 31.5 386 384" enable-background="new 285.5 31.5 386 384" xml:space="preserve">
<path d="M480,300.16c-4.946,0-8.96,4.014-8.96,8.96v17.92c0,4.946,4.014,8.96,8.96,8.96s8.96-4.014,8.96-8.96v-17.92
	C488.96,304.174,484.946,300.16,480,300.16z"/>
<path d="M438.95,156.195c0.766-0.82,1.572-1.716,2.428-2.675c7.656-8.543,18.148-20.24,40.974-20.24
	c25.353,0,41.046,16.567,41.046,31.92c0,15.38-7.485,22.261-24.425,36.364l-1.191,0.995c-18.856,15.716-26.741,27.771-26.741,61.761
	c0,4.946,4.014,8.96,8.96,8.96s8.96-4.014,8.96-8.96c0-28.538,5.26-35.468,20.294-47.999l1.188-0.99
	c16.567-13.794,30.876-25.706,30.876-50.131c0-23.973-22.543-49.84-58.966-49.84c-30.826,0-46.107,17.042-54.315,26.195
	c-0.774,0.864-1.5,1.675-2.186,2.415c-3.378,3.62-3.181,9.287,0.435,12.665C429.904,160.008,435.576,159.811,438.95,156.195z"/>
<path d="M480,412.16c101.992,0,188.16-86.164,188.16-188.16S581.992,35.84,480,35.84c-101.992,0-188.16,86.164-188.16,188.16
	S378.008,412.16,480,412.16z M480,53.76c92.279,0,170.24,77.961,170.24,170.24S572.279,394.24,480,394.24S309.76,316.279,309.76,224
	S387.721,53.76,480,53.76z"/>
</svg>
