<svg xmlns="http://www.w3.org/2000/svg" width="386" height="384" viewBox="285.5 31.5 386 384"><path d="M480 300.16c-4.946 0-8.96 4.014-8.96 8.96v17.92c0 4.946 4.014 8.96 8.96 8.96s8.96-4.014 8.96-8.96v-17.92c0-4.946-4.014-8.96-8.96-8.96zM438.95 156.195c.766-.82 1.572-1.716 2.428-2.675 7.656-8.543 18.148-20.24 40.974-20.24 25.353 0 41.046 16.567 41.046 31.92 0 15.38-7.485 22.261-24.425 36.364l-1.191.995c-18.856 15.716-26.741 27.771-26.741 61.761 0 4.946 4.014 8.96 8.96 8.96s8.96-4.014 8.96-8.96c0-28.538 5.26-35.468 20.294-47.999l1.188-.99c16.567-13.794 30.876-25.706 30.876-50.131 0-23.973-22.543-49.84-58.966-49.84-30.826 0-46.107 17.042-54.315 26.195-.774.864-1.5 1.675-2.186 2.415a8.961 8.961 0 0 0 .435 12.665c3.617 3.373 9.289 3.176 12.663-.44z"/><path d="M480 412.16c101.992 0 188.16-86.164 188.16-188.16S581.992 35.84 480 35.84c-101.992 0-188.16 86.164-188.16 188.16S378.008 412.16 480 412.16zm0-358.4c92.279 0 170.24 77.961 170.24 170.24S572.279 394.24 480 394.24 309.76 316.279 309.76 224 387.721 53.76 480 53.76z"/></svg>