<?xml version="1.0" encoding="utf-8"?>
<!-- Generator: Adobe Illustrator 16.0.0, SVG Export Plug-In . SVG Version: 6.00 Build 0)  -->
<!DOCTYPE svg PUBLIC "-//W3C//DTD SVG 1.1//EN" "http://www.w3.org/Graphics/SVG/1.1/DTD/svg11.dtd">
<svg version="1.1" id="Layer_1" xmlns="http://www.w3.org/2000/svg" xmlns:xlink="http://www.w3.org/1999/xlink" x="0px" y="0px"
	 width="229px" height="399px" viewBox="365.5 24.5 229 399" enable-background="new 365.5 24.5 229 399" xml:space="preserve">
<path d="M424,417.237c-1.194,0-2.24-0.299-3.285-0.747c-3.136-1.493-4.779-4.928-4.032-8.362l33.152-149.632l-73.323-27.627
	c-2.24-0.896-4.032-2.688-4.629-5.077c-0.598-2.389,0-4.779,1.493-6.72L530.325,33.301c2.24-2.688,5.974-3.435,8.96-1.941
	c3.136,1.494,4.779,4.928,4.032,8.363l-33.152,149.632l73.323,27.627c2.24,0.896,4.031,2.688,4.629,5.077
	c0.598,2.39,0,4.779-1.493,6.72L429.675,414.698C428.182,416.342,426.091,417.237,424,417.237z M391.595,220.715l69.44,26.133
	c3.435,1.344,5.524,4.928,4.629,8.661l-27.926,126.336l130.518-154.561l-69.439-26.133c-3.436-1.344-5.525-4.928-4.63-8.661
	l27.926-126.336L391.595,220.715z"/>
</svg>
