<svg xmlns="http://www.w3.org/2000/svg" width="229" height="399" viewBox="365.5 24.5 229 399"><path d="M424 417.237c-1.194 0-2.24-.299-3.285-.747-3.136-1.493-4.779-4.928-4.032-8.362l33.152-149.632-73.323-27.627c-2.24-.896-4.032-2.688-4.629-5.077-.598-2.389 0-4.779 1.493-6.72L530.325 33.301c2.24-2.688 5.974-3.435 8.96-1.941 3.136 1.494 4.779 4.928 4.032 8.363l-33.152 149.632 73.323 27.627c2.24.896 4.031 2.688 4.629 5.077.598 2.39 0 4.779-1.493 6.72L429.675 414.698c-1.493 1.644-3.584 2.539-5.675 2.539zm-32.405-196.522l69.44 26.133c3.435 1.344 5.524 4.928 4.629 8.661l-27.926 126.336 130.518-154.561-69.439-26.133c-3.436-1.344-5.525-4.928-4.63-8.661l27.926-126.336-130.518 154.561z"/></svg>