<?xml version="1.0" encoding="utf-8"?>
<!-- Generator: Adobe Illustrator 16.0.0, SVG Export Plug-In . SVG Version: 6.00 Build 0)  -->
<!DOCTYPE svg PUBLIC "-//W3C//DTD SVG 1.1//EN" "http://www.w3.org/Graphics/SVG/1.1/DTD/svg11.dtd">
<svg version="1.1" id="Layer_1" xmlns="http://www.w3.org/2000/svg" xmlns:xlink="http://www.w3.org/1999/xlink" x="0px" y="0px"
	 width="318px" height="413px" viewBox="319.5 17.5 318 413" enable-background="new 319.5 17.5 318 413" xml:space="preserve">
<path d="M480,21.056c-84.237,0-152.768,68.53-152.768,152.768v75.264c0,31.646,25.178,57.523,56.56,58.652
	c1.066,10.734,9.887,18.856,20.948,18.856c11.805,0,21.057-9.247,21.057-21.061V192.64c0-11.805-9.247-21.056-21.057-21.056
	c-11.061,0-19.882,8.118-20.948,18.852c-15.312,0.528-29.344,6.765-39.531,17.454v-34.066C344.256,98.977,405.148,38.08,480,38.08
	c74.848,0,135.748,60.896,135.748,135.744v34.272c-10.622-10.797-24.666-17.105-39.535-17.656
	c-1.071-10.734-9.883-18.856-20.949-18.856c-11.809,0-21.056,9.247-21.056,21.056v112.891c0,11.814,9.247,21.061,21.056,21.061
	c11.066,0,19.883-8.117,20.949-18.856c14.721-0.542,28.774-6.692,39.535-17.216v8.744c0,50.643-41.202,91.84-91.844,91.84h-5.282
	c-3.979-10.993-14.686-18.815-26.078-18.815h-25.088c-15.07,0-27.328,12.257-27.328,27.328c0,15.07,12.258,27.332,27.328,27.332
	h25.088c11.393,0,22.104-7.817,26.083-18.815h5.277c60.027,0,108.863-48.832,108.863-108.864v-125.44
	C632.768,89.591,564.237,21.056,480,21.056z M576.32,290.693v-83.216c22.288,1.125,39.428,18.996,39.428,41.606
	S598.608,289.569,576.32,290.693z M383.68,207.478v83.212c-22.284-1.125-39.424-18.995-39.424-41.606
	C344.256,226.473,361.396,208.607,383.68,207.478z M408.768,305.531c0,2.527-1.505,4.032-4.032,4.032
	c-2.526,0-4.032-1.505-4.032-4.032V192.64c0-2.522,1.505-4.032,4.032-4.032c2.527,0,4.032,1.505,4.032,4.032V305.531z
	 M551.232,192.64c0-2.522,1.505-4.032,4.027-4.032s4.027,1.505,4.027,4.032v112.891c0,2.527-1.505,4.032-4.027,4.032
	s-4.027-1.505-4.027-4.032V192.64z M492.544,409.92h-25.088c-5.686,0-10.304-4.619-10.304-10.309c0-5.681,4.623-10.3,10.304-10.3
	h25.088c5.686,0,10.304,4.619,10.304,10.3C502.848,405.301,498.225,409.92,492.544,409.92z"/>
</svg>
