<svg xmlns="http://www.w3.org/2000/svg" width="318" height="413" viewBox="319.5 17.5 318 413"><path d="M480 21.056c-84.237 0-152.768 68.53-152.768 152.768v75.264c0 31.646 25.178 57.523 56.56 58.652 1.066 10.734 9.887 18.856 20.948 18.856 11.805 0 21.057-9.247 21.057-21.061V192.64c0-11.805-9.247-21.056-21.057-21.056-11.061 0-19.882 8.118-20.948 18.852-15.312.528-29.344 6.765-39.531 17.454v-34.066C344.256 98.977 405.148 38.08 480 38.08c74.848 0 135.748 60.896 135.748 135.744v34.272c-10.622-10.797-24.666-17.105-39.535-17.656-1.071-10.734-9.883-18.856-20.949-18.856-11.809 0-21.056 9.247-21.056 21.056v112.891c0 11.814 9.247 21.061 21.056 21.061 11.066 0 19.883-8.117 20.949-18.856 14.721-.542 28.774-6.692 39.535-17.216v8.744c0 50.643-41.202 91.84-91.844 91.84h-5.282c-3.979-10.993-14.686-18.815-26.078-18.815h-25.088c-15.07 0-27.328 12.257-27.328 27.328 0 15.07 12.258 27.332 27.328 27.332h25.088c11.393 0 22.104-7.817 26.083-18.815h5.277c60.027 0 108.863-48.832 108.863-108.864V173.83C632.768 89.591 564.237 21.056 480 21.056zm96.32 269.637v-83.216c22.288 1.125 39.428 18.996 39.428 41.606s-17.14 40.486-39.428 41.61zm-192.64-83.215v83.212c-22.284-1.125-39.424-18.995-39.424-41.606s17.14-40.477 39.424-41.606zm25.088 98.053c0 2.527-1.505 4.032-4.032 4.032-2.526 0-4.032-1.505-4.032-4.032V192.64c0-2.522 1.505-4.032 4.032-4.032s4.032 1.505 4.032 4.032v112.891zM551.232 192.64c0-2.522 1.505-4.032 4.027-4.032s4.027 1.505 4.027 4.032v112.891c0 2.527-1.505 4.032-4.027 4.032s-4.027-1.505-4.027-4.032V192.64zm-58.688 217.28h-25.088c-5.686 0-10.304-4.619-10.304-10.309 0-5.681 4.623-10.3 10.304-10.3h25.088c5.686 0 10.304 4.619 10.304 10.3 0 5.69-4.623 10.309-10.304 10.309z"/></svg>