<?xml version="1.0" encoding="utf-8"?>
<!-- Generator: Adobe Illustrator 16.0.0, SVG Export Plug-In . SVG Version: 6.00 Build 0)  -->
<!DOCTYPE svg PUBLIC "-//W3C//DTD SVG 1.1//EN" "http://www.w3.org/Graphics/SVG/1.1/DTD/svg11.dtd">
<svg version="1.1" id="Layer_1" xmlns="http://www.w3.org/2000/svg" xmlns:xlink="http://www.w3.org/1999/xlink" x="0px" y="0px"
	 width="415px" height="363px" viewBox="272.5 65.5 415 363" enable-background="new 272.5 65.5 415 363" xml:space="preserve">
<path d="M676.672,412.608c-12.544-3.137-32.256-3.137-56.896-2.688c-39.425,0.896-94.08,1.792-147.841-12.544l-25.088-6.72
	l-144.704-34.048c-2.688-1.345-8.512-2.688-10.304-4.032c0-0.896,0.448-2.688,1.344-5.824c4.928-17.472,31.808-16.576,38.528-14.784
	c0.448,0,0.448,0,0.896,0l74.368,11.648c0.448,0.447,0.448,0.896,0.896,1.792c4.48,6.72,12.992,8.063,21.504,8.96l67.648,13.439
	h0.447c2.688,0.448,16.576,1.792,32.704,1.792c17.473,0,37.185-1.792,48.832-8.96c3.136-1.792,4.032-6.271,2.24-9.407
	c-1.792-3.137-6.272-4.032-9.408-2.24c-15.231,9.408-56.896,6.72-72.576,4.928l-67.647-13.439
	c-4.032-0.448-11.648-1.793-12.544-3.137c0-0.447-1.344-2.24,0.896-10.752c2.24-8.96,15.232-17.023,34.496-14.784l48.384,9.408
	l1.345-0.448c0.896-0.447,103.04-29.567,166.655,19.265c3.137,2.239,7.168,1.792,9.408-1.345c2.24-3.136,1.792-7.168-1.344-9.407
	c-28.672-21.952-68.544-32.704-115.584-30.912c-30.912,1.344-54.656,7.168-60.928,8.96l-45.248-8.96h-0.448
	c-27.328-3.136-45.696,9.855-49.28,24.64c-0.448,1.792-0.896,4.032-1.344,6.272l-70.784-10.752
	c-16.128-3.584-48.384-0.448-55.104,25.088c-1.344,5.376-3.136,12.096,0.896,17.472c3.136,4.032,8.96,5.824,17.472,8.064
	L443.712,403.2l25.088,6.72c56,14.784,111.104,13.888,151.424,12.992c23.744-0.448,42.561-0.896,53.312,2.24
	c0.448,0,1.344,0.447,1.792,0.447c3.136,0,5.824-1.792,6.271-4.928C682.496,417.088,680.256,413.504,676.672,412.608z"/>
<path d="M480,244.16c-1.792,0-3.136-0.448-4.48-1.792c-36.735-32.704-82.879-73.472-82.879-120.064
	c0-38.976,24.192-52.864,46.592-52.864c17.023,0,33.151,14.784,40.768,23.744c8.064-8.96,23.744-23.744,40.768-23.744
	c22.4,0,46.593,13.888,46.593,52.864c0,46.592-46.145,87.36-82.88,120.064C483.136,243.712,481.792,244.16,480,244.16z
	 M439.232,82.88c-21.057,0-33.152,14.336-33.152,39.424c0,38.976,39.872,75.712,73.92,106.176
	c34.048-30.464,73.92-67.2,73.92-106.176c0-25.088-12.096-39.424-33.152-39.424c-14.336,0-30.464,17.92-35.392,25.088
	c-2.688,3.584-8.512,3.584-10.752,0C469.696,100.8,453.568,82.88,439.232,82.88z"/>
</svg>
