<svg xmlns="http://www.w3.org/2000/svg" width="333" height="412" viewBox="312.5 18.5 333 412"><path d="M637.248 188.608c-14.784-5.376-28.224-4.48-39.872 2.24-12.096 7.168-21.504 20.608-28.672 40.32l-14.336 34.944h-1.792L587.52 78.848c2.688-14.336-7.168-28.224-21.504-30.912s-28.224 7.168-30.912 21.504l-25.535 139.328h-.896V49.28c0-14.784-12.096-26.88-26.88-26.88s-26.88 12.096-26.88 26.88v159.488h-.896L430.271 73.024c-2.688-14.336-16.576-24.192-30.912-21.504s-24.192 16.576-21.504 30.912l23.744 132.16h-2.24l-29.12-77.056c-2.24-6.72-7.168-12.096-13.888-15.232-6.272-3.136-13.888-3.136-20.608-.896-6.72 2.24-12.096 7.168-15.232 13.888-3.136 6.72-3.136 13.888-.896 20.608l40.768 100.352c-1.344 14.336-7.616 109.76 29.568 166.208 1.344 1.792 3.584 3.136 5.824 3.136 1.344 0 2.688-.447 3.584-.896 3.136-2.24 4.032-6.272 1.792-9.408-36.736-55.552-27.328-158.144-27.328-159.04s0-2.24-.448-3.136L332.16 151.424c-1.344-3.136-.896-6.72.448-10.304 1.344-3.136 4.032-5.824 7.616-6.72 3.136-1.344 6.72-.896 10.304.448 3.584 1.344 5.824 4.032 6.72 7.616l31.36 82.88c1.344 3.136 4.928 4.928 8.064 4.032l12.992-4.032c3.136-.896 5.376-4.48 4.48-7.616L390.4 79.744c-.448-3.584 0-7.168 2.24-9.856 2.24-2.688 4.928-4.928 8.512-5.376 7.168-1.344 13.888 3.584 15.232 10.752l25.088 141.568c.448 3.136 3.137 5.376 6.721 5.376h13.439c3.584 0 6.72-3.136 6.72-6.72V49.28c0-7.168 5.824-13.44 13.44-13.44s13.44 5.824 13.44 13.44v165.76c0 3.584 2.688 6.72 6.271 6.72l13.44.448c3.136 0 6.271-2.24 6.72-5.376L548.096 71.68c1.345-7.168 8.064-12.096 15.232-10.752 7.168 1.344 12.096 8.064 10.752 15.232L538.24 268.8c-15.232 5.376-26.433 17.472-27.328 18.368-2.688 2.688-2.24 7.168.448 9.408 2.688 2.688 7.168 2.24 9.407-.448 5.377-5.823 21.952-19.712 35.841-16.128 3.136.896 6.72-.896 7.615-4.032l16.576-39.872c6.272-17.024 13.888-28.224 23.296-33.6 6.721-4.032 13.889-4.928 22.4-3.136l-16.128 48.832-21.056 51.968c-27.328 74.815-60.929 113.792-61.377 114.24-2.239 2.688-2.239 7.168.448 9.407 1.345.896 2.688 1.792 4.48 1.792s3.584-.896 4.928-2.239c1.344-1.792 35.84-41.217 63.616-118.272l20.607-51.968 19.265-56c1.346-3.584-.446-7.168-4.03-8.512z"/></svg>