<?xml version="1.0" encoding="utf-8"?>
<!-- Generator: Adobe Illustrator 16.0.0, SVG Export Plug-In . SVG Version: 6.00 Build 0)  -->
<!DOCTYPE svg PUBLIC "-//W3C//DTD SVG 1.1//EN" "http://www.w3.org/Graphics/SVG/1.1/DTD/svg11.dtd">
<svg version="1.1" id="Layer_1" xmlns="http://www.w3.org/2000/svg" xmlns:xlink="http://www.w3.org/1999/xlink" x="0px" y="0px"
	 width="333px" height="412px" viewBox="312.5 18.5 333 412" enable-background="new 312.5 18.5 333 412" xml:space="preserve">
<path d="M637.248,188.608c-14.784-5.376-28.224-4.48-39.872,2.24c-12.096,7.168-21.504,20.608-28.672,40.32l-14.336,34.944
	c-0.448,0-1.344,0-1.792,0L587.52,78.848c2.688-14.336-7.168-28.224-21.504-30.912s-28.224,7.168-30.912,21.504l-25.535,139.328
	h-0.896V49.28c0-14.784-12.096-26.88-26.88-26.88s-26.88,12.096-26.88,26.88v159.488h-0.896L430.271,73.024
	c-2.688-14.336-16.576-24.192-30.912-21.504s-24.192,16.576-21.504,30.912l23.744,132.16h-2.24l-29.12-77.056
	c-2.24-6.72-7.168-12.096-13.888-15.232c-6.272-3.136-13.888-3.136-20.608-0.896c-6.72,2.24-12.096,7.168-15.232,13.888
	c-3.136,6.72-3.136,13.888-0.896,20.608l40.768,100.352c-1.344,14.336-7.616,109.76,29.568,166.208
	c1.344,1.792,3.584,3.136,5.824,3.136c1.344,0,2.688-0.447,3.584-0.896c3.136-2.24,4.032-6.272,1.792-9.408
	c-36.736-55.552-27.328-158.144-27.328-159.04s0-2.24-0.448-3.136L332.16,151.424c-1.344-3.136-0.896-6.72,0.448-10.304
	c1.344-3.136,4.032-5.824,7.616-6.72c3.136-1.344,6.72-0.896,10.304,0.448c3.584,1.344,5.824,4.032,6.72,7.616l31.36,82.88
	c1.344,3.136,4.928,4.928,8.064,4.032l12.992-4.032c3.136-0.896,5.376-4.48,4.48-7.616L390.4,79.744
	c-0.448-3.584,0-7.168,2.24-9.856c2.24-2.688,4.928-4.928,8.512-5.376c7.168-1.344,13.888,3.584,15.232,10.752l25.088,141.568
	c0.448,3.136,3.137,5.376,6.721,5.376l0,0h13.439c3.584,0,6.72-3.136,6.72-6.72V49.28c0-7.168,5.824-13.44,13.44-13.44
	s13.44,5.824,13.44,13.44v165.76c0,3.584,2.688,6.72,6.271,6.72l13.44,0.448c3.136,0,6.271-2.24,6.72-5.376L548.096,71.68
	c1.345-7.168,8.064-12.096,15.232-10.752c7.168,1.344,12.096,8.064,10.752,15.232L538.24,268.8
	c-15.232,5.376-26.433,17.472-27.328,18.368c-2.688,2.688-2.24,7.168,0.448,9.408c2.688,2.688,7.168,2.24,9.407-0.448
	c5.377-5.823,21.952-19.712,35.841-16.128c3.136,0.896,6.72-0.896,7.615-4.032l16.576-39.872
	c6.272-17.024,13.888-28.224,23.296-33.6c6.721-4.032,13.889-4.928,22.4-3.136l-16.128,48.832l-21.056,51.968
	c-27.328,74.815-60.929,113.792-61.377,114.24c-2.239,2.688-2.239,7.168,0.448,9.407c1.345,0.896,2.688,1.792,4.48,1.792
	s3.584-0.896,4.928-2.239c1.344-1.792,35.84-41.217,63.616-118.272l20.607-51.968l19.265-56
	C642.624,193.536,640.832,189.952,637.248,188.608z"/>
</svg>
