<svg xmlns="http://www.w3.org/2000/svg" width="290" height="458" viewBox="334.5 -3.5 290 458"><path d="M480 300.236c-51.614 0-93.605-41.938-93.605-93.489V93.493C386.395 41.938 428.386 0 480 0s93.601 41.938 93.601 93.489v113.254c0 51.551-41.987 93.493-93.601 93.493zm0-278.557c-39.661 0-71.931 32.211-71.931 71.81v113.254c0 39.599 32.27 71.81 71.931 71.81 39.666 0 71.927-32.211 71.927-71.81V93.489c0-39.599-32.261-71.81-71.927-71.81z"/><path d="M480 348.011c-77.491 0-140.542-62.971-140.542-140.367v-52.636c0-5.985 4.852-10.837 10.837-10.837s10.837 4.852 10.837 10.837v52.636c0 65.444 53.321 118.688 118.863 118.688 65.543 0 118.864-53.245 118.864-118.688v-52.636c0-5.985 4.852-10.837 10.837-10.837s10.841 4.852 10.841 10.837v52.636C620.542 285.04 557.49 348.011 480 348.011z"/><path d="M480 439.506c-5.985 0-10.837-4.852-10.837-10.837v-91.495c0-5.985 4.852-10.842 10.837-10.842s10.837 4.856 10.837 10.842v91.495c0 5.985-4.852 10.837-10.837 10.837z"/><path d="M604.558 448h-249.12c-5.985 0-10.837-4.856-10.837-10.842s4.852-10.837 10.837-10.837h249.115c5.985 0 10.842 4.852 10.842 10.837S610.543 448 604.558 448z"/></svg>