<?xml version="1.0" encoding="utf-8"?>
<!-- Generator: Adobe Illustrator 16.0.0, SVG Export Plug-In . SVG Version: 6.00 Build 0)  -->
<!DOCTYPE svg PUBLIC "-//W3C//DTD SVG 1.1//EN" "http://www.w3.org/Graphics/SVG/1.1/DTD/svg11.dtd">
<svg version="1.1"
	 id="Layer_1" xmlns:inkscape="http://www.inkscape.org/namespaces/inkscape" xmlns:sodipodi="http://sodipodi.sourceforge.net/DTD/sodipodi-0.dtd" xmlns:rdf="http://www.w3.org/1999/02/22-rdf-syntax-ns#" xmlns:cc="http://creativecommons.org/ns#" xmlns:dc="http://purl.org/dc/elements/1.1/" xmlns:svg="http://www.w3.org/2000/svg"
	 xmlns="http://www.w3.org/2000/svg" xmlns:xlink="http://www.w3.org/1999/xlink" x="0px" y="0px" width="404px" height="344px"
	 viewBox="277.5 53.5 404 344" enable-background="new 277.5 53.5 404 344" xml:space="preserve">
<g transform="translate(0,-952.36218)">
	<path d="M425.4,1010.602c-3.064,0.298-5.76,2.148-7.141,4.9l-24.5,48.86h-57.12c-29.628,0-53.76,24.132-53.76,53.76v170.24
		c0,29.628,24.132,53.76,53.76,53.76h286.72c29.628,0,53.76-24.132,53.76-53.76v-170.24c0-29.628-24.132-53.76-53.76-53.76h-57.12
		l-24.5-48.86c-1.527-3.004-4.61-4.897-7.98-4.9H426.24C425.96,1010.589,425.68,1010.589,425.4,1010.602z M431.7,1028.522h96.6
		l24.36,48.72c1.488,3.059,4.579,5.011,7.979,5.04h62.721c20.01,0,35.84,15.83,35.84,35.84v170.24c0,20.011-15.83,35.84-35.84,35.84
		H336.64c-20.01,0-35.84-15.829-35.84-35.84v-170.24c0-20.01,15.83-35.84,35.84-35.84h62.72c3.401-0.029,6.492-1.981,7.98-5.04
		L431.7,1028.522z M480,1104.682c-54.327,0-98.56,44.233-98.56,98.56c0,54.327,44.233,98.561,98.56,98.561
		s98.56-44.233,98.56-98.561C578.56,1148.915,534.327,1104.682,480,1104.682z M480,1122.602c44.643,0,80.64,35.998,80.64,80.64
		c0,44.644-35.997,80.64-80.64,80.64s-80.64-35.996-80.64-80.64C399.36,1158.6,435.357,1122.602,480,1122.602z M478.74,1140.522
		c-4.949,0.348-8.678,4.642-8.33,9.59s4.642,8.678,9.59,8.33c24.849,0,44.8,19.952,44.8,44.8c-0.077,4.948,3.871,9.022,8.819,9.1
		c0.001,0,0.001,0,0.001,0c4.948,0.078,9.022-3.871,9.1-8.82c0.002-0.093,0.002-0.187,0-0.28c0-34.533-28.187-62.72-62.72-62.72
		C479.58,1140.493,479.159,1140.493,478.74,1140.522z"/>
</g>
</svg>
