<svg xmlns="http://www.w3.org/2000/svg" width="404" height="344" viewBox="277.5 53.5 404 344"><path d="M425.4 58.24a8.96 8.96 0 0 0-7.141 4.9l-24.5 48.86h-57.12c-29.628 0-53.76 24.132-53.76 53.76V336c0 29.628 24.132 53.76 53.76 53.76h286.72c29.628 0 53.76-24.132 53.76-53.76V165.76c0-29.628-24.132-53.76-53.76-53.76h-57.12l-24.5-48.86a8.96 8.96 0 0 0-7.98-4.9H426.24a9.051 9.051 0 0 0-.84 0zm6.3 17.92h96.6l24.36 48.72a8.958 8.958 0 0 0 7.979 5.04h62.721c20.01 0 35.84 15.83 35.84 35.84V336c0 20.01-15.83 35.84-35.84 35.84H336.64c-20.01 0-35.84-15.83-35.84-35.84V165.76c0-20.01 15.83-35.84 35.84-35.84h62.72a8.959 8.959 0 0 0 7.98-5.04l24.36-48.72zm48.3 76.16c-54.327 0-98.56 44.233-98.56 98.56 0 54.327 44.233 98.56 98.56 98.56s98.56-44.232 98.56-98.56c0-54.327-44.233-98.56-98.56-98.56zm0 17.92c44.643 0 80.64 35.998 80.64 80.64 0 44.644-35.997 80.64-80.64 80.64s-80.64-35.996-80.64-80.64c0-44.642 35.997-80.64 80.64-80.64zm-1.26 17.92a8.982 8.982 0 1 0 1.26 17.92 44.665 44.665 0 0 1 44.8 44.8 8.961 8.961 0 0 0 8.819 9.1h.001c4.948.078 9.022-3.871 9.1-8.82a6.534 6.534 0 0 0 0-.28c0-34.533-28.187-62.72-62.72-62.72a9.135 9.135 0 0 0-1.26 0z"/></svg>