<?xml version="1.0" encoding="utf-8"?>
<!-- Generator: Adobe Illustrator 16.0.0, SVG Export Plug-In . SVG Version: 6.00 Build 0)  -->
<!DOCTYPE svg PUBLIC "-//W3C//DTD SVG 1.1//EN" "http://www.w3.org/Graphics/SVG/1.1/DTD/svg11.dtd">
<svg version="1.1" id="Layer_1" xmlns="http://www.w3.org/2000/svg" xmlns:xlink="http://www.w3.org/1999/xlink" x="0px" y="0px"
	 width="457px" height="458.5px" viewBox="250.5 0 457 458.5" enable-background="new 250.5 0 457 458.5" xml:space="preserve">
<path d="M704,129.573c0-26.973-21.952-48.907-48.944-48.907c-13.085,0-25.368,5.096-34.589,14.336l-9.8,9.8V34
	c0-15.438-12.563-28-28-28H284c-15.438,0-28,12.562-28,28v392c0,15.438,12.562,28,28,28h298.667c15.437,0,28-12.562,28-28V248.667
	c0-1.586-0.485-3.005-1.195-4.293l54.396-54.395c0.019-0.019,0.037-0.019,0.056-0.037s0.019-0.038,0.037-0.056l25.704-25.704
	C698.923,154.941,704,142.64,704,129.573z M512.965,314.485c-3.042-7.69-8.101-16.856-17.042-25.761
	c-8.923-8.922-18.088-13.98-25.76-17.023l63.111-63.112l0,0l68.059-68.059l42.784,42.803L512.965,314.485z M458.926,287.438
	c6.029,1.754,14.951,5.637,23.8,14.485c8.848,8.848,12.749,17.789,14.504,23.8l-51.072,12.787L458.926,287.438z M545.333,62
	c5.134,0,9.334,4.181,9.334,9.333c0,5.152-4.2,9.333-9.334,9.333c-5.133,0-9.333-4.181-9.333-9.333C536,66.181,540.2,62,545.333,62z
	 M470.667,62C475.8,62,480,66.181,480,71.333c0,5.152-4.2,9.333-9.333,9.333c-5.134,0-9.334-4.181-9.334-9.333
	C461.333,66.181,465.533,62,470.667,62z M396,62c5.133,0,9.333,4.181,9.333,9.333c0,5.152-4.2,9.333-9.333,9.333
	s-9.333-4.181-9.333-9.333C386.667,66.181,390.867,62,396,62z M321.333,62c5.133,0,9.333,4.181,9.333,9.333
	c0,5.152-4.2,9.333-9.333,9.333S312,76.485,312,71.333C312,66.181,316.2,62,321.333,62z M592,426c0,5.152-4.2,9.333-9.333,9.333H284
	c-5.133,0-9.333-4.181-9.333-9.333V34c0-5.152,4.2-9.333,9.333-9.333h28v20.384c-10.845,3.864-18.667,14.13-18.667,26.283
	c0,15.437,12.562,28,28,28c15.437,0,28-12.563,28-28c0-12.152-7.821-22.419-18.667-26.283V24.667h56v20.384
	C375.821,48.915,368,59.181,368,71.333c0,15.437,12.562,28,28,28s28-12.563,28-28c0-12.152-7.821-22.419-18.667-26.283V24.667h56
	v20.384c-10.845,3.864-18.666,14.13-18.666,26.283c0,15.437,12.562,28,28,28c15.437,0,28-12.563,28-28
	c0-12.152-7.821-22.419-18.667-26.283V24.667h56v20.384c-10.846,3.864-18.667,14.13-18.667,26.283c0,15.437,12.563,28,28,28
	c15.438,0,28-12.563,28-28c0-12.152-7.821-22.419-18.666-26.283V24.667h28C587.8,24.667,592,28.848,592,34v89.469l-69.197,69.197
	H321.333c-5.152,0-9.333,4.182-9.333,9.333s4.181,9.333,9.333,9.333h182.802l-56,56H321.333c-5.152,0-9.333,4.181-9.333,9.333
	s4.181,9.333,9.333,9.333h118.702l-14,56H321.333c-5.152,0-9.333,4.182-9.333,9.333c0,5.152,4.181,9.334,9.333,9.334h112
	c0.747,0,1.513-0.094,2.259-0.299l74.667-18.667c0.205-0.056,0.354-0.242,0.56-0.317c1.232-0.41,2.334-1.008,3.285-1.848
	c0.149-0.131,0.355-0.149,0.486-0.28L592,261.845V426z M676.467,150.984l-19.152,19.152l-42.784-42.802l19.152-19.152
	c5.693-5.73,13.291-8.867,21.411-8.867c16.669,0,30.239,13.571,30.239,30.277C685.333,137.675,682.179,145.253,676.467,150.984z"/>
<text transform="matrix(1 0 0 1 256 728)" font-family="'HelveticaNeue-Bold'" font-size="93.3333">Created by icon 54</text>
<text transform="matrix(1 0 0 1 256 821.3281)" font-family="'HelveticaNeue-Bold'" font-size="93.3333">from the Noun Project</text>
</svg>
