<svg xmlns="http://www.w3.org/2000/svg" width="457" height="458.5" viewBox="250.5 0 457 458.5"><path d="M704 129.573c0-26.973-21.952-48.907-48.944-48.907-13.085 0-25.368 5.096-34.589 14.336l-9.8 9.8V34c0-15.438-12.563-28-28-28H284c-15.438 0-28 12.562-28 28v392c0 15.438 12.562 28 28 28h298.667c15.437 0 28-12.562 28-28V248.667c0-1.586-.485-3.005-1.195-4.293l54.396-54.395c.019-.019.037-.019.056-.037s.019-.038.037-.056l25.704-25.704C698.923 154.941 704 142.64 704 129.573zM512.965 314.485c-3.042-7.69-8.101-16.856-17.042-25.761-8.923-8.922-18.088-13.98-25.76-17.023l63.111-63.112 68.059-68.059 42.784 42.803-131.152 131.152zm-54.039-27.047c6.029 1.754 14.951 5.637 23.8 14.485 8.848 8.848 12.749 17.789 14.504 23.8l-51.072 12.787 12.768-51.072zM545.333 62c5.134 0 9.334 4.181 9.334 9.333s-4.2 9.333-9.334 9.333c-5.133 0-9.333-4.181-9.333-9.333S540.2 62 545.333 62zm-74.666 0C475.8 62 480 66.181 480 71.333s-4.2 9.333-9.333 9.333c-5.134 0-9.334-4.181-9.334-9.333s4.2-9.333 9.334-9.333zM396 62c5.133 0 9.333 4.181 9.333 9.333s-4.2 9.333-9.333 9.333-9.333-4.181-9.333-9.333S390.867 62 396 62zm-74.667 0c5.133 0 9.333 4.181 9.333 9.333s-4.2 9.333-9.333 9.333S312 76.485 312 71.333 316.2 62 321.333 62zM592 426c0 5.152-4.2 9.333-9.333 9.333H284c-5.133 0-9.333-4.181-9.333-9.333V34c0-5.152 4.2-9.333 9.333-9.333h28v20.384c-10.845 3.864-18.667 14.13-18.667 26.283 0 15.437 12.562 28 28 28 15.437 0 28-12.563 28-28 0-12.152-7.821-22.419-18.667-26.283V24.667h56v20.384C375.821 48.915 368 59.181 368 71.333c0 15.437 12.562 28 28 28s28-12.563 28-28c0-12.152-7.821-22.419-18.667-26.283V24.667h56v20.384c-10.845 3.864-18.666 14.13-18.666 26.283 0 15.437 12.562 28 28 28 15.437 0 28-12.563 28-28 0-12.152-7.821-22.419-18.667-26.283V24.667h56v20.384c-10.846 3.864-18.667 14.13-18.667 26.283 0 15.437 12.563 28 28 28 15.438 0 28-12.563 28-28 0-12.152-7.821-22.419-18.666-26.283V24.667h28C587.8 24.667 592 28.848 592 34v89.469l-69.197 69.197h-201.47c-5.152 0-9.333 4.182-9.333 9.333s4.181 9.333 9.333 9.333h182.802l-56 56H321.333c-5.152 0-9.333 4.181-9.333 9.333s4.181 9.333 9.333 9.333h118.702l-14 56H321.333c-5.152 0-9.333 4.182-9.333 9.333 0 5.152 4.181 9.334 9.333 9.334h112c.747 0 1.513-.094 2.259-.299l74.667-18.667c.205-.056.354-.242.56-.317 1.232-.41 2.334-1.008 3.285-1.848.149-.131.355-.149.486-.28L592 261.845V426zm84.467-275.016l-19.152 19.152-42.784-42.802 19.152-19.152c5.693-5.73 13.291-8.867 21.411-8.867 16.669 0 30.239 13.571 30.239 30.277 0 8.083-3.154 15.661-8.866 21.392z"/><text transform="translate(256 728)" font-family="'HelveticaNeue-Bold'" font-size="93.333">Created by icon 54</text><text transform="translate(256 821.328)" font-family="'HelveticaNeue-Bold'" font-size="93.333">from the Noun Project</text></svg>