<?xml version="1.0" encoding="utf-8"?>
<!-- Generator: Adobe Illustrator 16.0.0, SVG Export Plug-In . SVG Version: 6.00 Build 0)  -->
<!DOCTYPE svg PUBLIC "-//W3C//DTD SVG 1.1//EN" "http://www.w3.org/Graphics/SVG/1.1/DTD/svg11.dtd">
<svg version="1.1" id="Layer_1" xmlns="http://www.w3.org/2000/svg" xmlns:xlink="http://www.w3.org/1999/xlink" x="0px" y="0px"
	 width="457px" height="455px" viewBox="250.5 -3.5 457 455" enable-background="new 250.5 -3.5 457 455" xml:space="preserve">
<g>
	<path d="M265.333,447.776c-2.427,0-4.816-0.952-6.608-2.726c-2.651-2.65-3.454-6.608-2.054-10.062l37.333-93.333
		c0.448-1.176,1.176-2.24,2.053-3.137L620.672,14.056c18.405-18.405,50.493-18.405,68.898,0c9.39,9.371,14.467,21.672,14.43,34.739
		c-0.037,13.048-5.171,25.274-14.448,34.44C424.056,345.613,372.76,398.421,366.824,405.608c-1.027,1.866-2.688,3.341-4.704,4.162
		l-93.333,37.333C267.686,447.552,266.491,447.776,265.333,447.776z M310.619,350.354l-28.542,71.325l71.886-28.746
		c14.504-17.416,74.498-77.915,322.447-322.99c5.731-5.637,8.904-13.179,8.923-21.205c0.019-8.064-3.099-15.662-8.829-21.374
		c-11.629-11.61-31.267-11.48-42.635-0.13L310.619,350.354z"/>
	<path d="M368,401.109c-2.389,0-4.779-0.915-6.608-2.726l-56-56c-3.64-3.64-3.64-9.557,0-13.197c3.64-3.64,9.557-3.64,13.197,0
		l56,56c3.64,3.64,3.64,9.558,0,13.197C372.779,400.194,370.389,401.109,368,401.109z"/>
	<path d="M629.333,139.776c-2.389,0-4.778-0.915-6.607-2.725l-56-56c-3.641-3.64-3.641-9.558,0-13.197
		c3.64-3.64,9.557-3.64,13.197,0l56,56c3.64,3.64,3.64,9.557,0,13.197C634.112,138.861,631.723,139.776,629.333,139.776z"/>
</g>
<text transform="matrix(1 0 0 1 256 728)" font-family="'HelveticaNeue-Bold'" font-size="93.3333">Created by icon 54</text>
<text transform="matrix(1 0 0 1 256 821.3281)" font-family="'HelveticaNeue-Bold'" font-size="93.3333">from the Noun Project</text>
</svg>
