<svg xmlns="http://www.w3.org/2000/svg" width="457" height="455" viewBox="250.5 -3.5 457 455"><path d="M265.333 447.776a9.402 9.402 0 0 1-6.608-2.726 9.286 9.286 0 0 1-2.054-10.062l37.333-93.333c.448-1.176 1.176-2.24 2.053-3.137L620.672 14.056c18.405-18.405 50.493-18.405 68.898 0 9.39 9.371 14.467 21.672 14.43 34.739-.037 13.048-5.171 25.274-14.448 34.44C424.056 345.613 372.76 398.421 366.824 405.608a9.414 9.414 0 0 1-4.704 4.162l-93.333 37.333a9.224 9.224 0 0 1-3.454.673zm45.286-97.422l-28.542 71.325 71.886-28.746c14.504-17.416 74.498-77.915 322.447-322.99 5.731-5.637 8.904-13.179 8.923-21.205.019-8.064-3.099-15.662-8.829-21.374-11.629-11.61-31.267-11.48-42.635-.13l-323.25 323.12z"/><path d="M368 401.109a9.374 9.374 0 0 1-6.608-2.726l-56-56c-3.64-3.64-3.64-9.557 0-13.197 3.64-3.64 9.557-3.64 13.197 0l56 56c3.64 3.64 3.64 9.558 0 13.197a9.298 9.298 0 0 1-6.589 2.726zM629.333 139.776a9.375 9.375 0 0 1-6.607-2.725l-56-56c-3.641-3.64-3.641-9.558 0-13.197 3.64-3.64 9.557-3.64 13.197 0l56 56c3.64 3.64 3.64 9.557 0 13.197a9.303 9.303 0 0 1-6.59 2.725z"/><text transform="translate(256 728)" font-family="'HelveticaNeue-Bold'" font-size="93.333">Created by icon 54</text><text transform="translate(256 821.328)" font-family="'HelveticaNeue-Bold'" font-size="93.333">from the Noun Project</text></svg>