<svg xmlns="http://www.w3.org/2000/svg" viewBox="0 0 100 125"><path d="M93.9 92.1c-2.8-.7-7.2-.7-12.7-.6-8.8.2-21 .4-33-2.8l-5.6-1.5-32.3-7.6c-.6-.3-1.9-.6-2.3-.9 0-.2.1-.6.3-1.3 1.1-3.9 7.1-3.7 8.6-3.3h.2l16.6 2.6c.1.1.1.2.2.4 1 1.5 2.9 1.8 4.8 2l15.1 3h.1c.6.1 3.7.4 7.3.4 3.9 0 8.3-.4 10.9-2 .7-.4.9-1.4.5-2.1-.4-.7-1.4-.9-2.1-.5-3.4 2.1-12.7 1.5-16.2 1.1l-15.1-3c-.9-.1-2.6-.4-2.8-.7 0-.1-.3-.5.2-2.4.5-2 3.4-3.8 7.7-3.3l10.8 2.1.3-.1c.2-.1 23-6.6 37.2 4.3.7.5 1.6.4 2.1-.3s.4-1.6-.3-2.1c-6.4-4.9-15.3-7.3-25.8-6.9-6.9.3-12.2 1.6-13.6 2l-10.1-2h-.1c-6.1-.7-10.2 2.2-11 5.5-.1.4-.2.9-.3 1.4l-15.8-2.4c-3.6-.8-10.8-.1-12.3 5.6-.3 1.2-.7 2.7.2 3.9.7.9 2 1.3 3.9 1.8L41.9 90l5.6 1.5c12.5 3.3 24.8 3.1 33.8 2.9 5.3-.1 9.5-.2 11.9.5.1 0 .3.1.4.1.7 0 1.3-.4 1.4-1.1.2-.8-.3-1.6-1.1-1.8zM50 54.5c-.4 0-.7-.1-1-.4-8.2-7.3-18.5-16.4-18.5-26.8 0-8.7 5.4-11.8 10.4-11.8 3.8 0 7.4 3.3 9.1 5.3 1.8-2 5.3-5.3 9.1-5.3 5 0 10.4 3.1 10.4 11.8 0 10.4-10.3 19.5-18.5 26.8-.3.3-.6.4-1 .4zm-9.1-36c-4.7 0-7.4 3.2-7.4 8.8C33.5 36 42.4 44.2 50 51c7.6-6.8 16.5-15 16.5-23.7 0-5.6-2.7-8.8-7.4-8.8-3.2 0-6.8 4-7.9 5.6-.6.8-1.9.8-2.4 0-1.1-1.6-4.7-5.6-7.9-5.6z"/><text y="115" font-size="5" font-weight="bold" font-family="'Helvetica Neue', Helvetica, Arial-Unicode, Arial, Sans-serif">Created by Till Teenck</text><text y="120" font-size="5" font-weight="bold" font-family="'Helvetica Neue', Helvetica, Arial-Unicode, Arial, Sans-serif">from the Noun Project</text></svg>