<?xml version="1.0" encoding="utf-8"?>
<!-- Generator: Adobe Illustrator 17.0.0, SVG Export Plug-In . SVG Version: 6.00 Build 0)  -->
<!DOCTYPE svg PUBLIC "-//W3C//DTD SVG 1.1//EN" "http://www.w3.org/Graphics/SVG/1.1/DTD/svg11.dtd">
<svg version="1.1" id="Layer_1" xmlns="http://www.w3.org/2000/svg" xmlns:xlink="http://www.w3.org/1999/xlink" x="0px" y="0px"
	 width="916px" height="174px" viewBox="0 0 916 174" enable-background="new 0 0 916 174" xml:space="preserve">
<g>
	<path fill="#FCFCFC" d="M16.32,69.52h14.04c3.399,0,6.63,0.38,9.69,1.14c3.06,0.76,5.73,1.99,8.01,3.69
		c2.28,1.701,4.089,3.91,5.43,6.63c1.339,2.721,2.01,6.021,2.01,9.9c0,3.441-0.65,6.471-1.95,9.09c-1.3,2.62-3.05,4.82-5.25,6.6
		c-2.2,1.78-4.74,3.13-7.62,4.05c-2.88,0.92-5.901,1.38-9.06,1.38h-15.3V69.52z M25.68,103.36h4.86c2.16,0,4.17-0.219,6.03-0.66
		c1.86-0.44,3.47-1.17,4.83-2.19c1.359-1.02,2.43-2.359,3.21-4.02c0.78-1.66,1.17-3.69,1.17-6.09c0-2.079-0.39-3.89-1.17-5.43
		c-0.78-1.54-1.83-2.81-3.15-3.81c-1.32-1-2.871-1.75-4.65-2.25c-1.78-0.5-3.651-0.75-5.61-0.75h-5.52V103.36z"/>
	<path fill="#FCFCFC" d="M79.019,108.34h-0.12c-1,1.56-2.331,2.681-3.99,3.36c-1.661,0.68-3.411,1.02-5.25,1.02
		c-1.36,0-2.67-0.19-3.93-0.57c-1.26-0.379-2.37-0.95-3.33-1.71c-0.96-0.759-1.72-1.7-2.28-2.82c-0.561-1.12-0.84-2.42-0.84-3.9
		c0-1.68,0.309-3.1,0.93-4.26c0.62-1.16,1.46-2.12,2.52-2.88c1.06-0.759,2.27-1.35,3.63-1.77c1.359-0.42,2.77-0.729,4.23-0.93
		c1.46-0.2,2.919-0.319,4.38-0.36c1.459-0.04,2.81-0.06,4.05-0.06c0-1.599-0.57-2.87-1.71-3.81c-1.14-0.939-2.49-1.41-4.05-1.41
		c-1.48,0-2.831,0.31-4.05,0.93c-1.221,0.621-2.31,1.47-3.27,2.55l-4.8-4.92c1.68-1.56,3.639-2.73,5.88-3.51
		c2.24-0.78,4.56-1.17,6.96-1.17c2.64,0,4.81,0.33,6.51,0.99c1.7,0.66,3.06,1.63,4.08,2.91c1.02,1.281,1.73,2.85,2.13,4.71
		c0.399,1.86,0.6,4.011,0.6,6.45V112h-8.28V108.34z M76.799,99.22c-0.68,0-1.53,0.03-2.55,0.09s-2,0.23-2.94,0.51
		c-0.94,0.28-1.74,0.701-2.4,1.26c-0.66,0.561-0.99,1.34-0.99,2.34c0,1.08,0.459,1.881,1.38,2.4c0.92,0.521,1.88,0.78,2.88,0.78
		c0.879,0,1.729-0.12,2.55-0.36c0.819-0.24,1.55-0.58,2.19-1.02c0.64-0.44,1.149-1,1.53-1.68c0.379-0.68,0.57-1.479,0.57-2.4v-1.92
		H76.799z"/>
	<path fill="#FCFCFC" d="M89.878,82.84h9.72l7.38,19.8h0.12l6.84-19.8h9.06L111.479,112h-9.54L89.878,82.84z"/>
	<path fill="#FCFCFC" d="M153.898,106.96c-1.44,1.84-3.26,3.261-5.46,4.26c-2.2,0.999-4.48,1.5-6.84,1.5
		c-2.241,0-4.35-0.36-6.33-1.08c-1.98-0.72-3.7-1.75-5.16-3.09c-1.461-1.339-2.61-2.949-3.45-4.83c-0.84-1.88-1.26-3.98-1.26-6.3
		c0-2.319,0.42-4.419,1.26-6.3c0.84-1.88,1.989-3.489,3.45-4.83c1.459-1.34,3.18-2.37,5.16-3.09c1.98-0.72,4.089-1.08,6.33-1.08
		c2.08,0,3.969,0.36,5.67,1.08c1.7,0.72,3.14,1.75,4.32,3.09c1.179,1.341,2.089,2.95,2.73,4.83c0.639,1.88,0.96,3.98,0.96,6.3v2.82
		h-20.88c0.36,1.72,1.14,3.09,2.34,4.11c1.2,1.02,2.679,1.53,4.44,1.53c1.479,0,2.73-0.33,3.75-0.99c1.02-0.66,1.91-1.509,2.67-2.55
		L153.898,106.96z M146.279,94.12c0.039-1.52-0.46-2.82-1.5-3.9c-1.041-1.08-2.38-1.62-4.02-1.62c-1,0-1.881,0.16-2.64,0.48
		c-0.76,0.32-1.41,0.73-1.95,1.23c-0.54,0.5-0.96,1.08-1.26,1.74c-0.3,0.66-0.471,1.35-0.51,2.07H146.279z"/>
	<path fill="#FCFCFC" d="M177.538,116.74c-0.6,1.56-1.18,2.94-1.74,4.14c-0.561,1.2-1.271,2.21-2.13,3.03
		c-0.86,0.819-1.95,1.44-3.27,1.86c-1.32,0.42-3.06,0.63-5.22,0.63c-2.32,0-4.56-0.36-6.72-1.08l1.2-7.38
		c1.359,0.6,2.76,0.9,4.2,0.9c1,0,1.82-0.11,2.46-0.33c0.64-0.22,1.17-0.54,1.59-0.96c0.42-0.42,0.77-0.93,1.05-1.53
		c0.279-0.6,0.58-1.3,0.9-2.1l0.66-1.68l-12.78-29.4h9.72l7.5,19.26h0.12l6.42-19.26h9.24L177.538,116.74z"/>
	<path fill="#FCFCFC" d="M208.797,82.84h9.72l7.38,19.8h0.12l6.84-19.8h9.06L230.397,112h-9.54L208.797,82.84z"/>
	<path fill="#FCFCFC" d="M263.517,108.34h-0.12c-1,1.56-2.331,2.681-3.99,3.36c-1.661,0.68-3.411,1.02-5.25,1.02
		c-1.36,0-2.67-0.19-3.93-0.57c-1.26-0.379-2.37-0.95-3.33-1.71c-0.96-0.759-1.72-1.7-2.28-2.82c-0.561-1.12-0.84-2.42-0.84-3.9
		c0-1.68,0.309-3.1,0.93-4.26c0.62-1.16,1.46-2.12,2.52-2.88c1.06-0.759,2.27-1.35,3.63-1.77c1.359-0.42,2.77-0.729,4.23-0.93
		c1.46-0.2,2.919-0.319,4.38-0.36c1.459-0.04,2.81-0.06,4.05-0.06c0-1.599-0.57-2.87-1.71-3.81c-1.14-0.939-2.49-1.41-4.05-1.41
		c-1.48,0-2.831,0.31-4.05,0.93c-1.221,0.621-2.31,1.47-3.27,2.55l-4.8-4.92c1.68-1.56,3.639-2.73,5.88-3.51
		c2.24-0.78,4.56-1.17,6.96-1.17c2.64,0,4.81,0.33,6.51,0.99c1.7,0.66,3.06,1.63,4.08,2.91c1.02,1.281,1.73,2.85,2.13,4.71
		c0.399,1.86,0.6,4.011,0.6,6.45V112h-8.28V108.34z M261.297,99.22c-0.68,0-1.53,0.03-2.55,0.09s-2,0.23-2.94,0.51
		c-0.94,0.28-1.74,0.701-2.4,1.26c-0.66,0.561-0.99,1.34-0.99,2.34c0,1.08,0.459,1.881,1.38,2.4c0.92,0.521,1.88,0.78,2.88,0.78
		c0.879,0,1.729-0.12,2.55-0.36c0.819-0.24,1.55-0.58,2.19-1.02c0.64-0.44,1.149-1,1.53-1.68c0.379-0.68,0.57-1.479,0.57-2.4v-1.92
		H261.297z"/>
	<path fill="#FCFCFC" d="M277.437,82.84h8.64v3.96h0.12c0.279-0.56,0.68-1.119,1.2-1.68c0.519-0.56,1.14-1.06,1.86-1.5
		c0.72-0.44,1.54-0.8,2.46-1.08c0.92-0.279,1.92-0.42,3-0.42c2.28,0,4.12,0.351,5.52,1.05c1.4,0.7,2.49,1.671,3.27,2.91
		c0.78,1.24,1.31,2.7,1.59,4.38c0.279,1.68,0.42,3.5,0.42,5.46V112h-9V97.72c0-0.84-0.03-1.71-0.09-2.61s-0.24-1.729-0.54-2.49
		c-0.3-0.759-0.76-1.38-1.38-1.86c-0.621-0.48-1.51-0.72-2.67-0.72c-1.161,0-2.1,0.21-2.82,0.63c-0.72,0.42-1.27,0.98-1.65,1.68
		c-0.38,0.7-0.63,1.491-0.75,2.37c-0.12,0.88-0.18,1.8-0.18,2.76V112h-9V82.84z"/>
	<path fill="#FCFCFC" d="M360.235,112h-8.28v-3.84h-0.12c-0.36,0.52-0.831,1.05-1.41,1.59c-0.581,0.54-1.26,1.03-2.04,1.47
		c-0.78,0.44-1.641,0.799-2.58,1.08c-0.94,0.28-1.911,0.42-2.91,0.42c-2.16,0-4.12-0.371-5.88-1.11
		c-1.761-0.74-3.27-1.779-4.53-3.12c-1.26-1.34-2.23-2.93-2.91-4.77c-0.681-1.839-1.02-3.86-1.02-6.06c0-2.04,0.309-3.99,0.93-5.85
		c0.62-1.86,1.5-3.51,2.64-4.95s2.529-2.589,4.17-3.45c1.64-0.86,3.5-1.29,5.58-1.29c1.88,0,3.63,0.291,5.25,0.87
		c1.62,0.58,2.949,1.57,3.99,2.97h0.12V66.64h9V112z M351.955,97.42c0-2.199-0.63-3.979-1.89-5.34c-1.26-1.359-3.03-2.04-5.31-2.04
		c-2.28,0-4.05,0.681-5.31,2.04c-1.26,1.36-1.89,3.141-1.89,5.34c0,2.2,0.63,3.98,1.89,5.34c1.26,1.36,3.03,2.04,5.31,2.04
		c2.28,0,4.05-0.68,5.31-2.04C351.325,101.4,351.955,99.62,351.955,97.42z"/>
	<path fill="#FCFCFC" d="M395.035,106.96c-1.44,1.84-3.26,3.261-5.46,4.26c-2.2,0.999-4.48,1.5-6.84,1.5
		c-2.241,0-4.35-0.36-6.33-1.08c-1.98-0.72-3.7-1.75-5.16-3.09c-1.461-1.339-2.61-2.949-3.45-4.83c-0.84-1.88-1.26-3.98-1.26-6.3
		c0-2.319,0.42-4.419,1.26-6.3c0.84-1.88,1.989-3.489,3.45-4.83c1.459-1.34,3.18-2.37,5.16-3.09c1.98-0.72,4.089-1.08,6.33-1.08
		c2.08,0,3.969,0.36,5.67,1.08c1.7,0.72,3.14,1.75,4.32,3.09c1.179,1.341,2.089,2.95,2.73,4.83c0.639,1.88,0.96,3.98,0.96,6.3v2.82
		h-20.88c0.36,1.72,1.14,3.09,2.34,4.11c1.2,1.02,2.679,1.53,4.44,1.53c1.479,0,2.73-0.33,3.75-0.99c1.02-0.66,1.91-1.509,2.67-2.55
		L395.035,106.96z M387.415,94.12c0.039-1.52-0.46-2.82-1.5-3.9c-1.041-1.08-2.38-1.62-4.02-1.62c-1,0-1.881,0.16-2.64,0.48
		c-0.76,0.32-1.41,0.73-1.95,1.23c-0.54,0.5-0.96,1.08-1.26,1.74c-0.3,0.66-0.471,1.35-0.51,2.07H387.415z"/>
	<path fill="#FCFCFC" d="M401.874,82.84h9v4.68h0.12c0.96-1.8,2.1-3.15,3.42-4.05c1.32-0.9,2.979-1.35,4.98-1.35
		c0.519,0,1.04,0.021,1.56,0.06c0.52,0.04,1,0.12,1.44,0.24v8.22c-0.641-0.2-1.271-0.35-1.89-0.45
		c-0.621-0.099-1.271-0.15-1.95-0.15c-1.72,0-3.081,0.24-4.08,0.72c-1,0.48-1.77,1.15-2.31,2.01c-0.54,0.861-0.891,1.89-1.05,3.09
		c-0.16,1.2-0.24,2.52-0.24,3.96V112h-9V82.84z"/>
	<path fill="#FCFCFC" d="M440.753,69.52h10.2l6.78,27.24h0.12l8.88-27.24h8.7l8.82,27.96h0.12l7.14-27.96h9.48L488.573,112h-8.34
		l-9.36-29.4h-0.12l-9.36,29.4h-8.04L440.753,69.52z"/>
	<path fill="#FCFCFC" d="M501.894,97.42c0-2.319,0.42-4.419,1.26-6.3c0.84-1.88,1.99-3.489,3.45-4.83
		c1.459-1.34,3.18-2.37,5.16-3.09c1.98-0.72,4.089-1.08,6.33-1.08c2.24,0,4.35,0.36,6.33,1.08c1.98,0.72,3.7,1.75,5.16,3.09
		c1.459,1.341,2.61,2.95,3.45,4.83c0.84,1.88,1.26,3.98,1.26,6.3c0,2.32-0.42,4.42-1.26,6.3c-0.84,1.88-1.991,3.49-3.45,4.83
		c-1.46,1.341-3.18,2.37-5.16,3.09c-1.98,0.72-4.09,1.08-6.33,1.08c-2.24,0-4.35-0.36-6.33-1.08c-1.98-0.72-3.701-1.75-5.16-3.09
		c-1.46-1.339-2.61-2.949-3.45-4.83C502.314,101.84,501.894,99.74,501.894,97.42z M510.894,97.42c0,2.2,0.63,3.98,1.89,5.34
		c1.26,1.36,3.03,2.04,5.31,2.04c2.28,0,4.05-0.68,5.31-2.04c1.26-1.359,1.89-3.14,1.89-5.34c0-2.199-0.63-3.979-1.89-5.34
		c-1.26-1.359-3.03-2.04-5.31-2.04c-2.28,0-4.05,0.681-5.31,2.04C511.524,93.44,510.894,95.221,510.894,97.42z"/>
	<path fill="#FCFCFC" d="M567.173,106.96c-1.44,1.84-3.26,3.261-5.46,4.26c-2.2,0.999-4.48,1.5-6.84,1.5
		c-2.241,0-4.35-0.36-6.33-1.08c-1.98-0.72-3.7-1.75-5.16-3.09c-1.461-1.339-2.61-2.949-3.45-4.83c-0.84-1.88-1.26-3.98-1.26-6.3
		c0-2.319,0.42-4.419,1.26-6.3c0.84-1.88,1.989-3.489,3.45-4.83c1.459-1.34,3.18-2.37,5.16-3.09c1.98-0.72,4.089-1.08,6.33-1.08
		c2.08,0,3.969,0.36,5.67,1.08c1.7,0.72,3.14,1.75,4.32,3.09c1.179,1.341,2.089,2.95,2.73,4.83c0.639,1.88,0.96,3.98,0.96,6.3v2.82
		h-20.88c0.36,1.72,1.14,3.09,2.34,4.11c1.2,1.02,2.679,1.53,4.44,1.53c1.479,0,2.73-0.33,3.75-0.99c1.02-0.66,1.91-1.509,2.67-2.55
		L567.173,106.96z M559.553,94.12c0.039-1.52-0.46-2.82-1.5-3.9c-1.041-1.08-2.38-1.62-4.02-1.62c-1,0-1.881,0.16-2.64,0.48
		c-0.76,0.32-1.41,0.73-1.95,1.23c-0.54,0.5-0.96,1.08-1.26,1.74c-0.3,0.66-0.471,1.35-0.51,2.07H559.553z"/>
	<path fill="#FCFCFC" d="M574.013,82.84h9v4.68h0.12c0.96-1.8,2.1-3.15,3.42-4.05c1.32-0.9,2.979-1.35,4.98-1.35
		c0.519,0,1.04,0.021,1.56,0.06c0.52,0.04,1,0.12,1.44,0.24v8.22c-0.641-0.2-1.271-0.35-1.89-0.45
		c-0.621-0.099-1.271-0.15-1.95-0.15c-1.72,0-3.081,0.24-4.08,0.72c-1,0.48-1.77,1.15-2.31,2.01c-0.54,0.861-0.891,1.89-1.05,3.09
		c-0.16,1.2-0.24,2.52-0.24,3.96V112h-9V82.84z"/>
	<path fill="#FCFCFC" d="M618.292,90.04h-7.92v9.72c0,0.801,0.039,1.53,0.12,2.19c0.08,0.66,0.259,1.23,0.54,1.71
		c0.28,0.48,0.71,0.85,1.29,1.11c0.58,0.261,1.35,0.39,2.31,0.39c0.48,0,1.11-0.05,1.89-0.15c0.78-0.099,1.37-0.33,1.77-0.69v7.5
		c-1,0.36-2.04,0.6-3.12,0.72s-2.14,0.18-3.18,0.18c-1.521,0-2.92-0.161-4.2-0.48c-1.281-0.32-2.4-0.83-3.36-1.53
		c-0.96-0.699-1.71-1.61-2.25-2.73c-0.54-1.119-0.81-2.479-0.81-4.08V90.04h-5.76v-7.2h5.76V74.2h9v8.64h7.92V90.04z"/>
</g>
<g>
	<path fill="#636363" d="M740.18,88.24h-6.12v-4.68h6.12V77.2c0-3.8,0.729-6.63,2.19-8.49c1.459-1.86,3.969-2.79,7.53-2.79
		c0.6,0,1.23,0.021,1.89,0.06c0.66,0.041,1.37,0.16,2.13,0.36l-0.6,4.8c-0.52-0.2-1.02-0.339-1.5-0.42c-0.48-0.08-1-0.12-1.56-0.12
		c-1,0-1.8,0.15-2.4,0.45c-0.6,0.3-1.07,0.73-1.41,1.29c-0.34,0.561-0.561,1.23-0.66,2.01c-0.101,0.78-0.15,1.67-0.15,2.67v6.54
		h6.42v4.68h-6.48V112h-5.4V88.24z"/>
	<path fill="#636363" d="M756.68,97.78c0-2.079,0.39-4.02,1.17-5.82c0.78-1.8,1.85-3.38,3.21-4.74c1.359-1.359,2.959-2.43,4.8-3.21
		c1.839-0.78,3.819-1.17,5.94-1.17c2.12,0,4.1,0.39,5.94,1.17c1.84,0.78,3.44,1.851,4.8,3.21c1.359,1.36,2.43,2.94,3.21,4.74
		s1.17,3.741,1.17,5.82c0,2.081-0.39,4.031-1.17,5.85c-0.78,1.821-1.851,3.4-3.21,4.74c-1.36,1.34-2.96,2.4-4.8,3.18
		c-1.84,0.78-3.82,1.17-5.94,1.17c-2.121,0-4.101-0.39-5.94-1.17c-1.84-0.78-3.44-1.839-4.8-3.18c-1.36-1.34-2.43-2.919-3.21-4.74
		C757.069,101.811,756.68,99.86,756.68,97.78z M762.439,97.78c0,1.44,0.219,2.771,0.66,3.99c0.439,1.221,1.059,2.26,1.86,3.12
		c0.8,0.86,1.779,1.54,2.94,2.04c1.16,0.5,2.46,0.75,3.9,0.75s2.74-0.25,3.9-0.75c1.16-0.5,2.139-1.18,2.94-2.04
		c0.799-0.86,1.419-1.899,1.86-3.12c0.439-1.22,0.66-2.55,0.66-3.99c0-1.44-0.221-2.769-0.66-3.99c-0.44-1.22-1.061-2.259-1.86-3.12
		c-0.801-0.859-1.78-1.539-2.94-2.04c-1.161-0.5-2.46-0.75-3.9-0.75s-2.74,0.25-3.9,0.75c-1.161,0.501-2.14,1.181-2.94,2.04
		c-0.801,0.861-1.42,1.9-1.86,3.12C762.659,95.011,762.439,96.34,762.439,97.78z"/>
	<path fill="#636363" d="M793.699,83.56h5.4v4.38h0.12c0.36-0.759,0.84-1.449,1.44-2.07c0.6-0.62,1.27-1.149,2.01-1.59
		c0.74-0.439,1.55-0.789,2.43-1.05c0.879-0.26,1.76-0.39,2.64-0.39c0.879,0,1.68,0.12,2.4,0.36l-0.24,5.82
		c-0.44-0.12-0.88-0.219-1.32-0.3c-0.44-0.08-0.88-0.12-1.32-0.12c-2.64,0-4.661,0.741-6.06,2.22c-1.401,1.48-2.1,3.78-2.1,6.9V112
		h-5.4V83.56z"/>
</g>
<g>
</g>
<g>
</g>
<g>
</g>
<g>
</g>
<g>
</g>
<g>
</g>
<g>
</g>
<g>
</g>
<g>
</g>
<g>
</g>
<g>
</g>
<g>
</g>
<g>
</g>
<g>
</g>
<g>
</g>
</svg>
