<svg xmlns="http://www.w3.org/2000/svg" width="916" height="174" viewBox="0 0 916 174"><g fill="#FCFCFC"><path d="M16.32 69.52h14.04c3.399 0 6.63.38 9.69 1.14 3.06.76 5.73 1.99 8.01 3.69 2.28 1.701 4.089 3.91 5.43 6.63 1.339 2.721 2.01 6.021 2.01 9.9 0 3.441-.65 6.471-1.95 9.09-1.3 2.62-3.05 4.82-5.25 6.6-2.2 1.78-4.74 3.13-7.62 4.05-2.88.92-5.901 1.38-9.06 1.38h-15.3V69.52zm9.36 33.84h4.86c2.16 0 4.17-.219 6.03-.66 1.86-.44 3.47-1.17 4.83-2.19 1.359-1.02 2.43-2.359 3.21-4.02.78-1.66 1.17-3.69 1.17-6.09 0-2.079-.39-3.89-1.17-5.43-.78-1.54-1.83-2.81-3.15-3.81-1.32-1-2.871-1.75-4.65-2.25-1.78-.5-3.651-.75-5.61-.75h-5.52v25.2zM79.019 108.34h-.12c-1 1.56-2.331 2.681-3.99 3.36a13.723 13.723 0 0 1-5.25 1.02c-1.36 0-2.67-.19-3.93-.57-1.26-.379-2.37-.95-3.33-1.71a8.248 8.248 0 0 1-2.28-2.82c-.561-1.12-.84-2.42-.84-3.9 0-1.68.309-3.1.93-4.26a8.322 8.322 0 0 1 2.52-2.88c1.06-.759 2.27-1.35 3.63-1.77 1.359-.42 2.77-.729 4.23-.93 1.46-.2 2.919-.319 4.38-.36 1.459-.04 2.81-.06 4.05-.06 0-1.599-.57-2.87-1.71-3.81-1.14-.939-2.49-1.41-4.05-1.41-1.48 0-2.831.31-4.05.93a11.067 11.067 0 0 0-3.27 2.55l-4.8-4.92c1.68-1.56 3.639-2.73 5.88-3.51 2.24-.78 4.56-1.17 6.96-1.17 2.64 0 4.81.33 6.51.99 1.7.66 3.06 1.63 4.08 2.91 1.02 1.281 1.73 2.85 2.13 4.71.399 1.86.6 4.011.6 6.45V112h-8.28v-3.66zm-2.22-9.12c-.68 0-1.53.03-2.55.09s-2 .23-2.94.51-1.74.701-2.4 1.26c-.66.561-.99 1.34-.99 2.34 0 1.08.459 1.881 1.38 2.4.92.521 1.88.78 2.88.78.879 0 1.729-.12 2.55-.36.819-.24 1.55-.58 2.19-1.02.64-.44 1.149-1 1.53-1.68.379-.68.57-1.479.57-2.4v-1.92h-2.22zM89.878 82.84h9.72l7.38 19.8h.12l6.84-19.8h9.06L111.479 112h-9.54L89.878 82.84zM153.898 106.96c-1.44 1.84-3.26 3.261-5.46 4.26-2.2.999-4.48 1.5-6.84 1.5-2.241 0-4.35-.36-6.33-1.08-1.98-.72-3.7-1.75-5.16-3.09-1.461-1.339-2.61-2.949-3.45-4.83-.84-1.88-1.26-3.98-1.26-6.3 0-2.319.42-4.419 1.26-6.3.84-1.88 1.989-3.489 3.45-4.83 1.459-1.34 3.18-2.37 5.16-3.09 1.98-.72 4.089-1.08 6.33-1.08 2.08 0 3.969.36 5.67 1.08 1.7.72 3.14 1.75 4.32 3.09 1.179 1.341 2.089 2.95 2.73 4.83.639 1.88.96 3.98.96 6.3v2.82h-20.88c.36 1.72 1.14 3.09 2.34 4.11 1.2 1.02 2.679 1.53 4.44 1.53 1.479 0 2.73-.33 3.75-.99 1.02-.66 1.91-1.509 2.67-2.55l6.3 4.62zm-7.619-12.84c.039-1.52-.46-2.82-1.5-3.9-1.041-1.08-2.38-1.62-4.02-1.62-1 0-1.881.16-2.64.48-.76.32-1.41.73-1.95 1.23s-.96 1.08-1.26 1.74c-.3.66-.471 1.35-.51 2.07h11.88zM177.538 116.74c-.6 1.56-1.18 2.94-1.74 4.14-.561 1.2-1.271 2.21-2.13 3.03-.86.819-1.95 1.44-3.27 1.86-1.32.42-3.06.63-5.22.63-2.32 0-4.56-.36-6.72-1.08l1.2-7.38c1.359.6 2.76.9 4.2.9 1 0 1.82-.11 2.46-.33.64-.22 1.17-.54 1.59-.96.42-.42.77-.93 1.05-1.53.279-.6.58-1.3.9-2.1l.66-1.68-12.78-29.4h9.72l7.5 19.26h.12l6.42-19.26h9.24l-13.2 33.9zM208.797 82.84h9.72l7.38 19.8h.12l6.84-19.8h9.06L230.397 112h-9.54l-12.06-29.16zM263.517 108.34h-.12c-1 1.56-2.331 2.681-3.99 3.36a13.723 13.723 0 0 1-5.25 1.02c-1.36 0-2.67-.19-3.93-.57-1.26-.379-2.37-.95-3.33-1.71a8.248 8.248 0 0 1-2.28-2.82c-.561-1.12-.84-2.42-.84-3.9 0-1.68.309-3.1.93-4.26a8.322 8.322 0 0 1 2.52-2.88c1.06-.759 2.27-1.35 3.63-1.77 1.359-.42 2.77-.729 4.23-.93 1.46-.2 2.919-.319 4.38-.36 1.459-.04 2.81-.06 4.05-.06 0-1.599-.57-2.87-1.71-3.81-1.14-.939-2.49-1.41-4.05-1.41-1.48 0-2.831.31-4.05.93a11.067 11.067 0 0 0-3.27 2.55l-4.8-4.92c1.68-1.56 3.639-2.73 5.88-3.51 2.24-.78 4.56-1.17 6.96-1.17 2.64 0 4.81.33 6.51.99 1.7.66 3.06 1.63 4.08 2.91 1.02 1.281 1.73 2.85 2.13 4.71.399 1.86.6 4.011.6 6.45V112h-8.28v-3.66zm-2.22-9.12c-.68 0-1.53.03-2.55.09s-2 .23-2.94.51-1.74.701-2.4 1.26c-.66.561-.99 1.34-.99 2.34 0 1.08.459 1.881 1.38 2.4.92.521 1.88.78 2.88.78.879 0 1.729-.12 2.55-.36.819-.24 1.55-.58 2.19-1.02.64-.44 1.149-1 1.53-1.68.379-.68.57-1.479.57-2.4v-1.92h-2.22zM277.437 82.84h8.64v3.96h.12c.279-.56.68-1.119 1.2-1.68a8.703 8.703 0 0 1 1.86-1.5c.72-.44 1.54-.8 2.46-1.08.92-.279 1.92-.42 3-.42 2.28 0 4.12.351 5.52 1.05 1.4.7 2.49 1.671 3.27 2.91.78 1.24 1.31 2.7 1.59 4.38.279 1.68.42 3.5.42 5.46V112h-9V97.72c0-.84-.03-1.71-.09-2.61s-.24-1.729-.54-2.49c-.3-.759-.76-1.38-1.38-1.86-.621-.48-1.51-.72-2.67-.72-1.161 0-2.1.21-2.82.63-.72.42-1.27.98-1.65 1.68-.38.7-.63 1.491-.75 2.37-.12.88-.18 1.8-.18 2.76V112h-9V82.84zM360.235 112h-8.28v-3.84h-.12c-.36.52-.831 1.05-1.41 1.59a10.7 10.7 0 0 1-2.04 1.47c-.78.44-1.641.799-2.58 1.08-.94.28-1.911.42-2.91.42-2.16 0-4.12-.371-5.88-1.11-1.761-.74-3.27-1.779-4.53-3.12-1.26-1.34-2.23-2.93-2.91-4.77-.681-1.839-1.02-3.86-1.02-6.06 0-2.04.309-3.99.93-5.85.62-1.86 1.5-3.51 2.64-4.95s2.529-2.589 4.17-3.45c1.64-.86 3.5-1.29 5.58-1.29 1.88 0 3.63.291 5.25.87 1.62.58 2.949 1.57 3.99 2.97h.12V66.64h9V112zm-8.28-14.58c0-2.199-.63-3.979-1.89-5.34-1.26-1.359-3.03-2.04-5.31-2.04s-4.05.681-5.31 2.04c-1.26 1.36-1.89 3.141-1.89 5.34 0 2.2.63 3.98 1.89 5.34 1.26 1.36 3.03 2.04 5.31 2.04s4.05-.68 5.31-2.04c1.26-1.36 1.89-3.14 1.89-5.34zM395.035 106.96c-1.44 1.84-3.26 3.261-5.46 4.26-2.2.999-4.48 1.5-6.84 1.5-2.241 0-4.35-.36-6.33-1.08-1.98-.72-3.7-1.75-5.16-3.09-1.461-1.339-2.61-2.949-3.45-4.83-.84-1.88-1.26-3.98-1.26-6.3 0-2.319.42-4.419 1.26-6.3.84-1.88 1.989-3.489 3.45-4.83 1.459-1.34 3.18-2.37 5.16-3.09 1.98-.72 4.089-1.08 6.33-1.08 2.08 0 3.969.36 5.67 1.08 1.7.72 3.14 1.75 4.32 3.09 1.179 1.341 2.089 2.95 2.73 4.83.639 1.88.96 3.98.96 6.3v2.82h-20.88c.36 1.72 1.14 3.09 2.34 4.11 1.2 1.02 2.679 1.53 4.44 1.53 1.479 0 2.73-.33 3.75-.99 1.02-.66 1.91-1.509 2.67-2.55l6.3 4.62zm-7.62-12.84c.039-1.52-.46-2.82-1.5-3.9-1.041-1.08-2.38-1.62-4.02-1.62-1 0-1.881.16-2.64.48-.76.32-1.41.73-1.95 1.23s-.96 1.08-1.26 1.74c-.3.66-.471 1.35-.51 2.07h11.88zM401.874 82.84h9v4.68h.12c.96-1.8 2.1-3.15 3.42-4.05 1.32-.9 2.979-1.35 4.98-1.35.519 0 1.04.021 1.56.06.52.04 1 .12 1.44.24v8.22c-.641-.2-1.271-.35-1.89-.45a12.375 12.375 0 0 0-1.95-.15c-1.72 0-3.081.24-4.08.72-1 .48-1.77 1.15-2.31 2.01-.54.861-.891 1.89-1.05 3.09-.16 1.2-.24 2.52-.24 3.96V112h-9V82.84zM440.753 69.52h10.2l6.78 27.24h.12l8.88-27.24h8.7l8.82 27.96h.12l7.14-27.96h9.48L488.573 112h-8.34l-9.36-29.4h-.12l-9.36 29.4h-8.04l-12.6-42.48zM501.894 97.42c0-2.319.42-4.419 1.26-6.3.84-1.88 1.99-3.489 3.45-4.83 1.459-1.34 3.18-2.37 5.16-3.09 1.98-.72 4.089-1.08 6.33-1.08 2.24 0 4.35.36 6.33 1.08 1.98.72 3.7 1.75 5.16 3.09 1.459 1.341 2.61 2.95 3.45 4.83.84 1.88 1.26 3.98 1.26 6.3s-.42 4.42-1.26 6.3c-.84 1.88-1.991 3.49-3.45 4.83-1.46 1.341-3.18 2.37-5.16 3.09-1.98.72-4.09 1.08-6.33 1.08s-4.35-.36-6.33-1.08c-1.98-.72-3.701-1.75-5.16-3.09-1.46-1.339-2.61-2.949-3.45-4.83-.84-1.88-1.26-3.98-1.26-6.3zm9 0c0 2.2.63 3.98 1.89 5.34 1.26 1.36 3.03 2.04 5.31 2.04s4.05-.68 5.31-2.04c1.26-1.359 1.89-3.14 1.89-5.34 0-2.199-.63-3.979-1.89-5.34-1.26-1.359-3.03-2.04-5.31-2.04s-4.05.681-5.31 2.04c-1.26 1.36-1.89 3.141-1.89 5.34zM567.173 106.96c-1.44 1.84-3.26 3.261-5.46 4.26-2.2.999-4.48 1.5-6.84 1.5-2.241 0-4.35-.36-6.33-1.08-1.98-.72-3.7-1.75-5.16-3.09-1.461-1.339-2.61-2.949-3.45-4.83-.84-1.88-1.26-3.98-1.26-6.3 0-2.319.42-4.419 1.26-6.3.84-1.88 1.989-3.489 3.45-4.83 1.459-1.34 3.18-2.37 5.16-3.09 1.98-.72 4.089-1.08 6.33-1.08 2.08 0 3.969.36 5.67 1.08 1.7.72 3.14 1.75 4.32 3.09 1.179 1.341 2.089 2.95 2.73 4.83.639 1.88.96 3.98.96 6.3v2.82h-20.88c.36 1.72 1.14 3.09 2.34 4.11 1.2 1.02 2.679 1.53 4.44 1.53 1.479 0 2.73-.33 3.75-.99 1.02-.66 1.91-1.509 2.67-2.55l6.3 4.62zm-7.62-12.84c.039-1.52-.46-2.82-1.5-3.9-1.041-1.08-2.38-1.62-4.02-1.62-1 0-1.881.16-2.64.48-.76.32-1.41.73-1.95 1.23s-.96 1.08-1.26 1.74c-.3.66-.471 1.35-.51 2.07h11.88zM574.013 82.84h9v4.68h.12c.96-1.8 2.1-3.15 3.42-4.05 1.32-.9 2.979-1.35 4.98-1.35.519 0 1.04.021 1.56.06.52.04 1 .12 1.44.24v8.22c-.641-.2-1.271-.35-1.89-.45a12.375 12.375 0 0 0-1.95-.15c-1.72 0-3.081.24-4.08.72-1 .48-1.77 1.15-2.31 2.01-.54.861-.891 1.89-1.05 3.09-.16 1.2-.24 2.52-.24 3.96V112h-9V82.84zM618.292 90.04h-7.92v9.72c0 .801.039 1.53.12 2.19.08.66.259 1.23.54 1.71.28.48.71.85 1.29 1.11.58.261 1.35.39 2.31.39.48 0 1.11-.05 1.89-.15.78-.099 1.37-.33 1.77-.69v7.5c-1 .36-2.04.6-3.12.72s-2.14.18-3.18.18c-1.521 0-2.92-.161-4.2-.48-1.281-.32-2.4-.83-3.36-1.53-.96-.699-1.71-1.61-2.25-2.73-.54-1.119-.81-2.479-.81-4.08V90.04h-5.76v-7.2h5.76V74.2h9v8.64h7.92v7.2z"/></g><g fill="#636363"><path d="M740.18 88.24h-6.12v-4.68h6.12V77.2c0-3.8.729-6.63 2.19-8.49 1.459-1.86 3.969-2.79 7.53-2.79.6 0 1.23.021 1.89.06.66.041 1.37.16 2.13.36l-.6 4.8c-.52-.2-1.02-.339-1.5-.42-.48-.08-1-.12-1.56-.12-1 0-1.8.15-2.4.45-.6.3-1.07.73-1.41 1.29-.34.561-.561 1.23-.66 2.01-.101.78-.15 1.67-.15 2.67v6.54h6.42v4.68h-6.48V112h-5.4V88.24zM756.68 97.78c0-2.079.39-4.02 1.17-5.82.78-1.8 1.85-3.38 3.21-4.74 1.359-1.359 2.959-2.43 4.8-3.21 1.839-.78 3.819-1.17 5.94-1.17 2.12 0 4.1.39 5.94 1.17 1.84.78 3.44 1.851 4.8 3.21 1.359 1.36 2.43 2.94 3.21 4.74s1.17 3.741 1.17 5.82c0 2.081-.39 4.031-1.17 5.85a14.721 14.721 0 0 1-3.21 4.74c-1.36 1.34-2.96 2.4-4.8 3.18-1.84.78-3.82 1.17-5.94 1.17-2.121 0-4.101-.39-5.94-1.17-1.84-.78-3.44-1.839-4.8-3.18a14.705 14.705 0 0 1-3.21-4.74c-.781-1.819-1.17-3.77-1.17-5.85zm5.759 0c0 1.44.219 2.771.66 3.99.439 1.221 1.059 2.26 1.86 3.12.8.86 1.779 1.54 2.94 2.04 1.16.5 2.46.75 3.9.75s2.74-.25 3.9-.75c1.16-.5 2.139-1.18 2.94-2.04.799-.86 1.419-1.899 1.86-3.12.439-1.22.66-2.55.66-3.99 0-1.44-.221-2.769-.66-3.99-.44-1.22-1.061-2.259-1.86-3.12-.801-.859-1.78-1.539-2.94-2.04-1.161-.5-2.46-.75-3.9-.75s-2.74.25-3.9.75c-1.161.501-2.14 1.181-2.94 2.04-.801.861-1.42 1.9-1.86 3.12-.44 1.221-.66 2.55-.66 3.99zM793.699 83.56h5.4v4.38h.12c.36-.759.84-1.449 1.44-2.07.6-.62 1.27-1.149 2.01-1.59.74-.439 1.55-.789 2.43-1.05.879-.26 1.76-.39 2.64-.39.879 0 1.68.12 2.4.36l-.24 5.82c-.44-.12-.88-.219-1.32-.3-.44-.08-.88-.12-1.32-.12-2.64 0-4.661.741-6.06 2.22-1.401 1.48-2.1 3.78-2.1 6.9V112h-5.4V83.56z"/></g></svg>